<svg xmlns="http://www.w3.org/2000/svg" xmlns:xlink="http://www.w3.org/1999/xlink" width="483.873" height="352.632" viewBox="0 0 483.873 352.632">
  <defs>
    <clipPath id="clip-path">
      <rect id="Rectángulo_38524" data-name="Rectángulo 38524" width="415.453" height="315.07" fill="none"/>
    </clipPath>
    <clipPath id="clip-path-2">
      <rect id="Rectángulo_38851" data-name="Rectángulo 38851" width="421.873" height="352.632" fill="none"/>
    </clipPath>
  </defs>
  <g id="Grupo_157305" data-name="Grupo 157305" transform="translate(-874 -149.368)">
    <g id="Grupo_145046" data-name="Grupo 145046" transform="translate(874 178.776)">
      <g id="Grupo_145045" data-name="Grupo 145045" clip-path="url(#clip-path)">
        <path id="Trazado_149904" data-name="Trazado 149904" d="M32.977,85.132H6.046a6.046,6.046,0,1,1,0-12.091H32.977a6.046,6.046,0,0,1,0,12.091" fill="#f45742"/>
        <path id="Trazado_149905" data-name="Trazado 149905" d="M265.083,309.268a5.8,5.8,0,1,1-5.8-5.8,5.8,5.8,0,0,1,5.8,5.8" fill="#a797fc"/>
        <path id="Trazado_149906" data-name="Trazado 149906" d="M50.381,17.56A17.56,17.56,0,1,1,32.821,0a17.56,17.56,0,0,1,17.56,17.56" fill="#43a99b"/>
        <path id="Trazado_149907" data-name="Trazado 149907" d="M409.606,79.086h-47.6a5.847,5.847,0,1,1,0-11.693h47.6a5.847,5.847,0,0,1,0,11.693" fill="#fff3cd"/>
      </g>
    </g>
    <g id="Grupo_145418" data-name="Grupo 145418" transform="translate(936 149.368)">
      <g id="Grupo_145417" data-name="Grupo 145417" clip-path="url(#clip-path-2)">
        <path id="Trazado_150832" data-name="Trazado 150832" d="M148.687,53.039c2.165,11.79,1.469,25.21-2.207,39.707a150.464,150.464,0,0,1-12.417,32.127l26.688,27.134a127.921,127.921,0,0,0-12.065-98.968" transform="translate(197.995 78.332)" fill="#43a99b"/>
        <path id="Trazado_150833" data-name="Trazado 150833" d="M99.489,136.45,126.8,164.213a126.383,126.383,0,0,0,49.693-28.791l-31.545-32.073a203.422,203.422,0,0,1-45.456,33.1" transform="translate(146.932 152.633)" fill="#43a99b"/>
        <path id="Trazado_150834" data-name="Trazado 150834" d="M119.047,80.54l-39.65,39,45.181,45.936a196.8,196.8,0,0,0,45.664-32.89Z" transform="translate(117.259 118.947)" fill="#43a99b"/>
        <path id="Trazado_150835" data-name="Trazado 150835" d="M185.129,49.588c-20.313-18.032-55.081-16.808-90.485.354L138.96,95l0,0,46.169-45.411Z" transform="translate(139.777 53.995)" fill="#43a99b"/>
        <path id="Trazado_150836" data-name="Trazado 150836" d="M160.473,43.618,114.3,89.026l44.321,45.062c17.739-35.12,19.54-69.863,1.848-90.47" transform="translate(168.812 64.418)" fill="#43a99b"/>
        <path id="Trazado_150837" data-name="Trazado 150837" d="M119.638,127.031h0L151.183,159.1h0a126.374,126.374,0,0,0,28.734-46.615L152.246,84.352a205.011,205.011,0,0,1-32.608,42.679" transform="translate(176.69 124.577)" fill="#43a99b"/>
        <path id="Trazado_150838" data-name="Trazado 150838" d="M74.768,74.872l51.189,52.044,37.908-37.289-45.7-46.466A198.178,198.178,0,0,0,74.768,74.87Z" transform="translate(110.423 63.743)" fill="#43a99b"/>
        <path id="Trazado_150839" data-name="Trazado 150839" d="M148.394,153.054l0,0a198.325,198.325,0,0,0,32.425-42.862L135.113,63.718,97.2,101Z" transform="translate(143.555 94.103)" fill="#43a99b"/>
        <path id="Trazado_150840" data-name="Trazado 150840" d="M91.816,89.966a205.3,205.3,0,0,1,43.2-31.9L107.346,29.927A126.351,126.351,0,0,0,60.263,57.886h0Z" transform="translate(88.998 44.198)" fill="#43a99b"/>
        <path id="Trazado_150841" data-name="Trazado 150841" d="M76.119,42.982A126.4,126.4,0,0,0,46.511,92.195l27.307,27.763a203.821,203.821,0,0,1,33.854-44.893Z" transform="translate(68.691 63.479)" fill="#43a99b"/>
        <path id="Trazado_150842" data-name="Trazado 150842" d="M93.031,57.731A196.809,196.809,0,0,0,59.388,102.84l45.181,45.934v0l39.652-39Z" transform="translate(87.708 85.261)" fill="#43a99b"/>
        <path id="Trazado_150843" data-name="Trazado 150843" d="M65.29,166.456h0l44.425-43.7L66,78.309c-16.667,34.315-18.017,67.99-.706,88.147" transform="translate(78.111 115.652)" fill="#43a99b"/>
        <path id="Trazado_150844" data-name="Trazado 150844" d="M61.008,161.863c-2.16-11.785-1.469-25.21,2.209-39.707A147.936,147.936,0,0,1,74.472,92.334L48.2,65.619a127.92,127.92,0,0,0,12.81,96.244" transform="translate(64.993 96.911)" fill="#43a99b"/>
        <path id="Trazado_150845" data-name="Trazado 150845" d="M147.816,142.509,104.089,98.052l-44.425,43.7c19.867,17.643,53.56,16.85,88.152.76" transform="translate(88.116 144.81)" fill="#43a99b"/>
        <path id="Trazado_150846" data-name="Trazado 150846" d="M68.967,130.215a127.906,127.906,0,0,0,96.018,14.4L138.708,117.9a147.768,147.768,0,0,1-30,10.762c-14.557,3.435-27.986,3.911-39.739,1.551" transform="translate(101.855 174.127)" fill="#43a99b"/>
        <path id="Trazado_150847" data-name="Trazado 150847" d="M180.957,45.62c-11.738-2.44-25.17-2.056-39.749,1.283a150.348,150.348,0,0,0-32.4,11.666L82.3,31.254A127.931,127.931,0,0,1,180.957,45.62" transform="translate(121.54 40.03)" fill="#43a99b"/>
        <path id="Trazado_150848" data-name="Trazado 150848" d="M30.667,87.288l-2.244.275c.5,2.707,1.072,5.442,1.714,8.127l2.214-.389c-.629-2.648-1.2-5.343-1.684-8.013" transform="translate(41.977 128.913)" fill="#a0d7ef"/>
        <path id="Trazado_150849" data-name="Trazado 150849" d="M36.958,105.626l-1.944.926c1.268,2.313,2.608,4.614,3.985,6.839l1.873-1.013c-1.35-2.194-2.67-4.466-3.913-6.752" transform="translate(51.711 155.996)" fill="#a0d7ef"/>
        <path id="Trazado_150850" data-name="Trazado 150850" d="M30.682,88.885c-.354-2.722-.637-5.469-.842-8.169l-2.284.035c.208,2.737.5,5.528.855,8.288Z" transform="translate(40.697 119.207)" fill="#a0d7ef"/>
        <path id="Trazado_150851" data-name="Trazado 150851" d="M37.523,107.131c-1.142-2.388-2.239-4.837-3.255-7.282l-2.073.728c1.038,2.479,2.155,4.964,3.319,7.381Z" transform="translate(47.548 147.464)" fill="#a0d7ef"/>
        <path id="Trazado_150852" data-name="Trazado 150852" d="M28.449,67.381c-.362,2.71-.659,5.462-.877,8.179l2.284.324c.213-2.68.505-5.395.862-8.062Z" transform="translate(40.72 99.513)" fill="#a0d7ef"/>
        <path id="Trazado_150853" data-name="Trazado 150853" d="M34.66,55.659l-2.125-.879c-.9,2.442-1.754,4.971-2.529,7.51l2.172.778c.763-2.507,1.6-5,2.482-7.408" transform="translate(44.315 80.903)" fill="#a0d7ef"/>
        <path id="Trazado_150854" data-name="Trazado 150854" d="M29.978,94.208c.778,2.628,1.635,5.261,2.546,7.824l2.128-.619c-.9-2.526-1.736-5.122-2.5-7.71Z" transform="translate(44.274 138.387)" fill="#a0d7ef"/>
        <path id="Trazado_150855" data-name="Trazado 150855" d="M30.7,69.4c.5-2.618,1.063-5.244,1.692-7.8l-2.214-.666c-.639,2.593-1.216,5.256-1.721,7.911Z" transform="translate(42.018 89.989)" fill="#a0d7ef"/>
        <path id="Trazado_150856" data-name="Trazado 150856" d="M27.425,74.019c-.04,1.464-.059,2.933-.059,4.4q0,1.951.047,3.906l2.294.084q-.048-1.925-.047-3.847,0-2.173.059-4.337Z" transform="translate(40.416 109.316)" fill="#a0d7ef"/>
        <path id="Trazado_150857" data-name="Trazado 150857" d="M37.5,50.1l-2.011-1.075c-1.149,2.266-2.254,4.619-3.284,6.992l2.071.978c1.013-2.341,2.1-4.659,3.225-6.9" transform="translate(47.558 72.402)" fill="#a0d7ef"/>
        <path id="Trazado_150858" data-name="Trazado 150858" d="M52.977,124.841c-1.776-1.526-3.549-3.131-5.268-4.77l-1.476,1.355c1.749,1.657,3.552,3.279,5.357,4.818Z" transform="translate(68.279 177.329)" fill="#a0d7ef"/>
        <path id="Trazado_150859" data-name="Trazado 150859" d="M57.446,127.813c-1.855-1.281-3.718-2.638-5.531-4.037l-1.3,1.444c1.843,1.412,3.733,2.782,5.615,4.072Z" transform="translate(74.752 182.801)" fill="#a0d7ef"/>
        <path id="Trazado_150860" data-name="Trazado 150860" d="M42.117,117.03c1.625,1.895,3.309,3.757,5,5.536l1.555-1.3c-1.664-1.761-3.319-3.6-4.917-5.476Z" transform="translate(62.201 171.005)" fill="#a0d7ef"/>
        <path id="Trazado_150861" data-name="Trazado 150861" d="M38.351,112.055c1.451,2.1,2.98,4.191,4.545,6.219l1.721-1.169c-1.538-2-3.042-4.072-4.468-6.145Z" transform="translate(56.639 163.873)" fill="#a0d7ef"/>
        <path id="Trazado_150862" data-name="Trazado 150862" d="M60.841,129.4l-.951,1.551c1.952.914,3.933,1.776,5.885,2.561l.867-1.563c-1.925-.783-3.876-1.64-5.8-2.549" transform="translate(88.45 191.102)" fill="#a0d7ef"/>
        <path id="Trazado_150863" data-name="Trazado 150863" d="M55.19,128.4c1.9,1.162,3.854,2.276,5.791,3.319l1.043-1.533c-1.91-1.035-3.832-2.142-5.707-3.294Z" transform="translate(81.508 187.395)" fill="#a0d7ef"/>
        <path id="Trazado_150864" data-name="Trazado 150864" d="M32.365,41.52l-2.073-1.271c-1.375,2.2-2.71,4.471-3.965,6.754l2.142,1.186c1.233-2.254,2.546-4.5,3.9-6.67" transform="translate(38.88 59.443)" fill="#a0d7ef"/>
        <path id="Trazado_150865" data-name="Trazado 150865" d="M23.9,58.993l-2.4-.7c-.649,2.707-1.238,5.479-1.749,8.238l2.43.585c.5-2.72,1.08-5.454,1.716-8.124" transform="translate(29.176 86.094)" fill="#a0d7ef"/>
        <path id="Trazado_150866" data-name="Trazado 150866" d="M22.217,65.481,19.762,65c-.376,2.791-.684,5.652-.916,8.5l2.472.359c.23-2.811.533-5.63.9-8.384" transform="translate(27.833 96.004)" fill="#a0d7ef"/>
        <path id="Trazado_150867" data-name="Trazado 150867" d="M21.095,77.554q0-2.708.087-5.409L18.7,71.9c-.059,1.828-.087,3.653-.087,5.486q0,1.572.027,3.148l2.484.121c-.02-1.033-.027-2.073-.03-3.106" transform="translate(27.489 106.193)" fill="#a0d7ef"/>
        <path id="Trazado_150868" data-name="Trazado 150868" d="M46.33,130.111c1.927,1.365,3.916,2.7,5.91,3.963l1.261-1.548c-1.964-1.256-3.923-2.578-5.823-3.933Z" transform="translate(68.423 189.915)" fill="#a0d7ef"/>
        <path id="Trazado_150869" data-name="Trazado 150869" d="M37.265,122.131c1.749,1.843,3.562,3.666,5.392,5.414l1.607-1.394c-1.8-1.734-3.587-3.537-5.308-5.36Z" transform="translate(55.036 178.393)" fill="#a0d7ef"/>
        <path id="Trazado_150870" data-name="Trazado 150870" d="M51.134,133.2c1.991,1.127,4.025,2.212,6.051,3.225l1.082-1.593c-1.994-1.006-4-2.086-5.962-3.205Z" transform="translate(75.518 194.39)" fill="#a0d7ef"/>
        <path id="Trazado_150871" data-name="Trazado 150871" d="M41.684,126.421c1.863,1.617,3.78,3.2,5.694,4.7l1.432-1.484c-1.882-1.489-3.77-3.054-5.605-4.657Z" transform="translate(61.562 184.578)" fill="#a0d7ef"/>
        <path id="Trazado_150872" data-name="Trazado 150872" d="M26.08,105.957c1.251,2.464,2.578,4.926,3.946,7.322l2.081-.978c-1.345-2.368-2.648-4.8-3.876-7.232Z" transform="translate(38.517 155.172)" fill="#a0d7ef"/>
        <path id="Trazado_150873" data-name="Trazado 150873" d="M29.386,111.861c1.444,2.274,2.967,4.543,4.523,6.742l1.932-1.144c-1.528-2.172-3.024-4.416-4.444-6.663Z" transform="translate(43.399 163.631)" fill="#a0d7ef"/>
        <path id="Trazado_150874" data-name="Trazado 150874" d="M33.14,117.268c1.61,2.063,3.294,4.117,5.006,6.1l1.773-1.283c-1.682-1.962-3.339-3.993-4.922-6.034Z" transform="translate(48.943 171.394)" fill="#a0d7ef"/>
        <path id="Trazado_150875" data-name="Trazado 150875" d="M23.534,53.182,25.8,54.187c1.011-2.447,2.1-4.892,3.227-7.26l-2.207-1.1c-1.152,2.4-2.256,4.874-3.284,7.354" transform="translate(34.757 67.682)" fill="#a0d7ef"/>
        <path id="Trazado_150876" data-name="Trazado 150876" d="M21.253,78.884H18.776c.2,2.858.468,5.764.81,8.632l2.46-.116c-.334-2.831-.6-5.694-.793-8.515" transform="translate(27.73 116.501)" fill="#a0d7ef"/>
        <path id="Trazado_150877" data-name="Trazado 150877" d="M22.041,85.739l-2.437.235c.483,2.836,1.045,5.694,1.669,8.5l2.405-.352c-.612-2.764-1.162-5.583-1.637-8.379" transform="translate(28.953 126.625)" fill="#a0d7ef"/>
        <path id="Trazado_150878" data-name="Trazado 150878" d="M23.49,92.457l-2.37.466.446,1.578q.959,3.347,2.058,6.645l2.323-.582q-1.077-3.251-2.021-6.551Z" transform="translate(31.191 136.547)" fill="#a0d7ef"/>
        <path id="Trazado_150879" data-name="Trazado 150879" d="M23.3,99.62c1.025,2.63,2.123,5.261,3.269,7.822l2.212-.793c-1.124-2.526-2.2-5.122-3.21-7.72Z" transform="translate(34.41 146.105)" fill="#a0d7ef"/>
        <path id="Trazado_150880" data-name="Trazado 150880" d="M21.328,59.722l2.363.8c.768-2.621,1.61-5.226,2.5-7.748l-2.316-.907c-.9,2.551-1.759,5.194-2.544,7.849" transform="translate(31.499 76.61)" fill="#a0d7ef"/>
        <path id="Trazado_150881" data-name="Trazado 150881" d="M123.036,124.935l.817,2.18c2.467-1.154,4.934-2.4,7.341-3.691l-.929-2.115c-2.37,1.271-4.8,2.492-7.23,3.626" transform="translate(181.708 179.158)" fill="#bee1f4"/>
        <path id="Trazado_150882" data-name="Trazado 150882" d="M138.813,115.189l1.394,1.677c1.853-1.8,3.673-3.661,5.407-5.538l-1.461-1.575c-1.714,1.84-3.51,3.671-5.34,5.437" transform="translate(205.009 162.089)" fill="#bee1f4"/>
        <path id="Trazado_150883" data-name="Trazado 150883" d="M124.568,124.08c-2.516,1.016-5.075,1.967-7.606,2.829l.58,2.289c2.571-.877,5.172-1.845,7.728-2.876Z" transform="translate(172.738 183.25)" fill="#bee1f4"/>
        <path id="Trazado_150884" data-name="Trazado 150884" d="M140.122,114.053c-1.964,1.7-4,3.369-6.061,4.961l1.233,1.868c2.086-1.625,4.156-3.324,6.145-5.055Z" transform="translate(197.991 168.441)" fill="#bee1f4"/>
        <path id="Trazado_150885" data-name="Trazado 150885" d="M104.385,131.1c2.673-.292,5.375-.661,8.025-1.1l-.208-2.383c-2.611.433-5.271.8-7.9,1.09Z" transform="translate(154.039 188.469)" fill="#bee1f4"/>
        <path id="Trazado_150886" data-name="Trazado 150886" d="M92.045,128l-.406,2.348c2.517.317,5.1.56,7.686.726l.29-2.375c-2.549-.159-5.095-.394-7.569-.7" transform="translate(135.339 189.047)" fill="#bee1f4"/>
        <path id="Trazado_150887" data-name="Trazado 150887" d="M129.809,124.326c2.311-1.412,4.6-2.9,6.806-4.429l-1.137-1.957c-2.177,1.5-4.431,2.96-6.7,4.344Z" transform="translate(190.182 174.183)" fill="#bee1f4"/>
        <path id="Trazado_150888" data-name="Trazado 150888" d="M105.879,128.314c-2.608.136-5.236.2-7.81.191l-.166,2.39c2.616.015,5.286-.047,7.931-.183Z" transform="translate(144.59 189.503)" fill="#bee1f4"/>
        <path id="Trazado_150889" data-name="Trazado 150889" d="M111.009,130.533q2.118-.472,4.228-1.011,1.869-.472,3.728-1l-.458-2.331q-1.832.516-3.668.983-2.081.528-4.164.993Z" transform="translate(163.452 186.372)" fill="#bee1f4"/>
        <path id="Trazado_150890" data-name="Trazado 150890" d="M86.293,126.918l-.627,2.271c2.38.6,4.832,1.142,7.292,1.6l.518-2.313c-2.422-.448-4.84-.973-7.183-1.56" transform="translate(126.517 187.441)" fill="#bee1f4"/>
        <path id="Trazado_150891" data-name="Trazado 150891" d="M152.38,95.45c-.926,2.029-1.932,4.077-2.985,6.088l1.672,1.07c1.06-2.046,2.071-4.126,3-6.187Z" transform="translate(220.637 140.967)" fill="#bee1f4"/>
        <path id="Trazado_150892" data-name="Trazado 150892" d="M153.848,90.53c-.669,2.021-1.409,4.069-2.2,6.091l1.7.869c.8-2.051,1.538-4.131,2.207-6.182Z" transform="translate(223.961 133.701)" fill="#bee1f4"/>
        <path id="Trazado_150893" data-name="Trazado 150893" d="M148.118,107.613c1.33-2.006,2.613-4.055,3.812-6.091l-1.647-1.172c-1.189,2-2.462,4.017-3.78,5.989Z" transform="translate(216.366 148.205)" fill="#bee1f4"/>
        <path id="Trazado_150894" data-name="Trazado 150894" d="M144.492,112.4c1.585-1.907,3.138-3.884,4.622-5.878l-1.573-1.375c-1.466,1.957-3,3.9-4.57,5.776Z" transform="translate(211.149 155.293)" fill="#bee1f4"/>
        <path id="Trazado_150895" data-name="Trazado 150895" d="M154.291,86.751l1.687.505c.292-1.986.53-3.983.7-5.93l-1.667-.419c-.183,1.92-.426,3.886-.723,5.843" transform="translate(227.868 119.491)" fill="#bee1f4"/>
        <path id="Trazado_150896" data-name="Trazado 150896" d="M154.978,92.349c.537-2.024,1.023-4.074,1.439-6.093l-1.7-.594c-.421,1.991-.907,4.01-1.446,6Z" transform="translate(226.361 126.51)" fill="#bee1f4"/>
        <path id="Trazado_150897" data-name="Trazado 150897" d="M79.2,134.642l-.83,2.42c2.365.867,4.793,1.677,7.223,2.4l.728-2.477c-2.4-.708-4.79-1.5-7.121-2.346" transform="translate(115.742 198.849)" fill="#bee1f4"/>
        <path id="Trazado_150898" data-name="Trazado 150898" d="M97.388,137.936l-.161,2.65c2.757,0,5.566-.067,8.347-.218l.035-2.655c-2.742.149-5.506.225-8.221.223" transform="translate(143.592 203.384)" fill="#bee1f4"/>
        <path id="Trazado_150899" data-name="Trazado 150899" d="M103.956,138.114l.092,2.658c2.786-.3,5.627-.686,8.441-1.147l-.218-2.643c-2.772.453-5.57.835-8.315,1.132" transform="translate(153.529 202.304)" fill="#bee1f4"/>
        <path id="Trazado_150900" data-name="Trazado 150900" d="M115.921,136.313q-2.619.665-5.256,1.241l.349,2.625q2.675-.587,5.335-1.263c1.016-.26,2.033-.528,3.047-.807l-.476-2.591c-1,.275-2,.537-3,.8" transform="translate(163.438 200.142)" fill="#bee1f4"/>
        <path id="Trazado_150901" data-name="Trazado 150901" d="M159.137,100.562c.718-2.138,1.39-4.322,1.994-6.489l-1.8-.81c-.607,2.135-1.276,4.287-2,6.39Z" transform="translate(232.357 137.737)" fill="#bee1f4"/>
        <path id="Trazado_150902" data-name="Trazado 150902" d="M154.306,111.343c1.241-2.133,2.442-4.32,3.567-6.5l-1.771-1.211c-1.12,2.145-2.313,4.3-3.544,6.4Z" transform="translate(225.307 153.052)" fill="#bee1f4"/>
        <path id="Trazado_150903" data-name="Trazado 150903" d="M160.588,95.159c.471-2.113.889-4.253,1.243-6.361l-1.783-.627c-.359,2.078-.783,4.188-1.258,6.271Z" transform="translate(234.512 130.219)" fill="#bee1f4"/>
        <path id="Trazado_150904" data-name="Trazado 150904" d="M157.049,105.983c.981-2.165,1.915-4.364,2.772-6.539l-1.8-1.006c-.855,2.14-1.783,4.307-2.759,6.437Z" transform="translate(229.3 145.38)" fill="#bee1f4"/>
        <path id="Trazado_150905" data-name="Trazado 150905" d="M142.1,126.123c2.021-1.855,4.017-3.782,5.935-5.729l-1.511-1.835c-1.895,1.915-3.866,3.807-5.86,5.627Z" transform="translate(207.742 175.096)" fill="#bee1f4"/>
        <path id="Trazado_150906" data-name="Trazado 150906" d="M146.822,121.517c1.766-1.984,3.5-4.04,5.167-6.108l-1.63-1.627c-1.642,2.031-3.366,4.052-5.112,6Z" transform="translate(214.511 168.041)" fill="#bee1f4"/>
        <path id="Trazado_150907" data-name="Trazado 150907" d="M150.9,116.556c1.506-2.076,2.977-4.216,4.372-6.363l-1.716-1.417c-1.382,2.108-2.841,4.216-4.332,6.254Z" transform="translate(220.377 160.648)" fill="#bee1f4"/>
        <path id="Trazado_150908" data-name="Trazado 150908" d="M92.031,140.481l.515-2.573c-2.556-.438-5.117-.954-7.616-1.533l-.622,2.531c2.531.594,5.132,1.125,7.723,1.575" transform="translate(124.512 201.407)" fill="#bee1f4"/>
        <path id="Trazado_150909" data-name="Trazado 150909" d="M117.3,136.253l.6,2.551c2.722-.9,5.471-1.9,8.166-2.96l-.723-2.5c-2.653,1.04-5.36,2.021-8.042,2.91" transform="translate(173.232 196.93)" fill="#bee1f4"/>
        <path id="Trazado_150910" data-name="Trazado 150910" d="M123.726,134.225l.84,2.442c2.623-1.191,5.246-2.472,7.795-3.8l-.956-2.375c-2.512,1.305-5.095,2.559-7.678,3.733" transform="translate(182.727 192.72)" fill="#bee1f4"/>
        <path id="Trazado_150911" data-name="Trazado 150911" d="M129.832,131.5l1.065,2.3,1.407-.84q2.98-1.806,5.875-3.728L137,127.019q-2.85,1.891-5.786,3.658Z" transform="translate(191.745 187.59)" fill="#bee1f4"/>
        <path id="Trazado_150912" data-name="Trazado 150912" d="M136.775,130.255c2.259-1.679,4.5-3.433,6.648-5.214l-1.357-2.033c-2.125,1.746-4.332,3.47-6.561,5.12Z" transform="translate(200.122 181.667)" fill="#bee1f4"/>
        <path id="Trazado_150913" data-name="Trazado 150913" d="M98.73,140.747l.282-2.635c-2.687-.149-5.375-.374-7.985-.671l-.4,2.606c2.648.307,5.375.542,8.1.7" transform="translate(133.846 202.981)" fill="#bee1f4"/>
        <path id="Trazado_150914" data-name="Trazado 150914" d="M111.849,109.562a75.057,75.057,0,0,1-5.949,5.583c7.458.354,26.629-3.24,44.683-10.916,18.185-7.267,35.256-18.614,41.517-24.318-.277-.161-6.133,8.347-21.522,18.683-15.027,10.155-39.588,22.138-68.954,24.734a41.224,41.224,0,0,0,1.939,5.286C91.048,126.073,82.022,121.047,76.251,115a91.019,91.019,0,0,0,35.6-5.439" transform="translate(112.613 118.015)" fill="#074b68"/>
        <path id="Trazado_150915" data-name="Trazado 150915" d="M67.232,84.715a53.461,53.461,0,0,1-6.262-3.686c-1.8,5.93-.493,20.367,6.358,33.2,6.291,13.011,18.131,24.417,24.5,28.328.26-.248-9.855-3.336-20.672-13.6C60.515,118.945,49.171,101.761,51,79.125q-3.648,1.092-7.277,2.467A64.829,64.829,0,0,1,66.439,57.68a39.3,39.3,0,0,0,.793,27.035" transform="translate(64.567 85.186)" fill="#074b68"/>
        <path id="Trazado_150916" data-name="Trazado 150916" d="M142.5,92.8a53.49,53.49,0,0,1,6.264,3.686c1.793-5.93.49-20.367-6.361-33.2-6.291-13.011-18.131-24.417-24.5-28.33-.263.25,9.853,3.339,20.669,13.6,10.643,10.012,21.985,27.2,20.159,49.835q3.648-1.092,7.277-2.467a64.821,64.821,0,0,1-22.72,23.909A39.284,39.284,0,0,0,142.5,92.8" transform="translate(174.12 51.617)" fill="#074b68"/>
        <path id="Trazado_150917" data-name="Trazado 150917" d="M105.772,59.4a21.8,21.8,0,0,1,21.8-21.8V18.936A40.466,40.466,0,0,0,87.087,59.4c0,27.506,40.487,81.989,40.487,81.989V81.2a21.8,21.8,0,0,1-21.8-21.8" transform="translate(128.616 27.966)" fill="#f9773d"/>
        <path id="Trazado_150918" data-name="Trazado 150918" d="M123.315,42.388a21.755,21.755,0,0,1-19.882,12.929V115.5s37.879-49.059,40.333-79.042a59.074,59.074,0,0,0-6.7,1.149,75.386,75.386,0,0,0-13.749,4.778" transform="translate(152.757 53.848)" fill="#ea5f21"/>
        <path id="Trazado_150919" data-name="Trazado 150919" d="M124.365,53.434a65.8,65.8,0,0,1,19.384,3.086,40.433,40.433,0,0,0-40.316-37.584V37.594a21.763,21.763,0,0,1,20.932,15.84" transform="translate(152.757 27.966)" fill="#ea5f21"/>
        <path id="Trazado_150920" data-name="Trazado 150920" d="M131.894,35.95a65.717,65.717,0,0,0-19.384-3.086A21.624,21.624,0,0,1,111.46,47.7a75.4,75.4,0,0,1,13.749-4.78,59.056,59.056,0,0,1,6.7-1.147c.082-1,.129-1.989.129-2.947s-.079-1.922-.146-2.876" transform="translate(164.612 48.536)" fill="#ea5f21"/>
        <path id="Trazado_150921" data-name="Trazado 150921" d="M151.7,121.575h41.74a4.311,4.311,0,0,0,4.31-4.31V94.386H151.7Z" transform="translate(224.04 139.396)" fill="#1893d1"/>
        <rect id="Rectángulo_38804" data-name="Rectángulo 38804" width="46.05" height="1.707" transform="translate(375.739 228.063)" fill="#eabe32"/>
        <rect id="Rectángulo_38805" data-name="Rectángulo 38805" width="0.084" height="4.013" transform="translate(421.788 229.769)" fill="#bce2e8"/>
        <rect id="Rectángulo_38806" data-name="Rectángulo 38806" width="43.605" height="4.013" transform="translate(332.133 229.769)" fill="#d2f3f8"/>
        <rect id="Rectángulo_38807" data-name="Rectángulo 38807" width="46.05" height="4.013" transform="translate(375.739 229.769)" fill="#bce2e8"/>
        <rect id="Rectángulo_38808" data-name="Rectángulo 38808" width="0.084" height="4.013" transform="translate(421.788 224.05)" fill="#bce2e8"/>
        <rect id="Rectángulo_38809" data-name="Rectángulo 38809" width="46.05" height="4.013" transform="translate(375.739 224.05)" fill="#bce2e8"/>
        <rect id="Rectángulo_38810" data-name="Rectángulo 38810" width="43.605" height="4.013" transform="translate(332.133 224.05)" fill="#d2f3f8"/>
        <path id="Trazado_150922" data-name="Trazado 150922" d="M134.18,75.462l.126.22h.022Z" transform="translate(198.166 111.447)" fill="#58a39a"/>
        <path id="Trazado_150923" data-name="Trazado 150923" d="M170.2,75.682l.124-.22-.146.22Z" transform="translate(251.334 111.447)" fill="#4a938a"/>
        <rect id="Rectángulo_38811" data-name="Rectángulo 38811" width="46.045" height="36.918" transform="translate(375.741 187.13)" fill="#1893d1"/>
        <path id="Trazado_150924" data-name="Trazado 150924" d="M134.06,75.55v69.533a4.311,4.311,0,0,0,4.312,4.312h39.38V122.2H134.147v-4.008h43.605v-1.709H134.147v-4.018h43.605V75.55Z" transform="translate(197.989 111.577)" fill="#0b749e"/>
        <path id="Trazado_150925" data-name="Trazado 150925" d="M197.473,79.2H151.7V72.236h36.816Z" transform="translate(224.041 106.683)" fill="#1893d1"/>
        <path id="Trazado_150926" data-name="Trazado 150926" d="M177.488,72.236V79.2H134.239l8.954-6.967Z" transform="translate(198.254 106.683)" fill="#0b749e"/>
        <path id="Trazado_150927" data-name="Trazado 150927" d="M155.966,111.545H180.8V96.835H155.966Zm1.474-1.434H156.6V97.917h.842Zm.916,0h-.842V97.917h.842Zm3.094,0h-1.5V97.917h1.5Zm1.674,0h-.842V97.917h.842Zm1.419,0H163.7V97.917h.842Zm2.841,0H165.71V97.917h1.674Zm1.422,0h-.842V97.917h.842Zm1.925,0h-.842V97.917h.842Zm.916,0H170.8V97.917h.842Zm1.925,0h-.842V97.917h.842Zm.916,0h-.842V97.917h.842Zm.916,0h-.842V97.917h.842Zm2.177,0h-.842V97.917h.842Zm1.169,0h-.842V97.917h.842Zm1.419,0h-.842V97.917h.842Z" transform="translate(230.341 143.013)" fill="#dde5ed"/>
        <rect id="Rectángulo_38812" data-name="Rectángulo 38812" width="0.842" height="12.194" transform="translate(386.939 240.93)" fill="#545057"/>
        <rect id="Rectángulo_38813" data-name="Rectángulo 38813" width="0.842" height="12.194" transform="translate(387.855 240.93)" fill="#545057"/>
        <rect id="Rectángulo_38814" data-name="Rectángulo 38814" width="1.503" height="12.194" transform="translate(390.285 240.93)" fill="#545057"/>
        <rect id="Rectángulo_38815" data-name="Rectángulo 38815" width="0.842" height="12.194" transform="translate(392.623 240.93)" fill="#545057"/>
        <rect id="Rectángulo_38816" data-name="Rectángulo 38816" width="0.842" height="12.194" transform="translate(394.043 240.93)" fill="#545057"/>
        <rect id="Rectángulo_38817" data-name="Rectángulo 38817" width="1.674" height="12.194" transform="translate(396.054 240.93)" fill="#545057"/>
        <rect id="Rectángulo_38818" data-name="Rectángulo 38818" width="0.842" height="12.194" transform="translate(398.305 240.93)" fill="#545057"/>
        <rect id="Rectángulo_38819" data-name="Rectángulo 38819" width="0.842" height="12.194" transform="translate(400.23 240.93)" fill="#545057"/>
        <rect id="Rectángulo_38820" data-name="Rectángulo 38820" width="0.842" height="12.194" transform="translate(401.146 240.93)" fill="#545057"/>
        <rect id="Rectángulo_38821" data-name="Rectángulo 38821" width="0.842" height="12.194" transform="translate(403.071 240.93)" fill="#545057"/>
        <rect id="Rectángulo_38822" data-name="Rectángulo 38822" width="0.842" height="12.194" transform="translate(403.987 240.93)" fill="#545057"/>
        <rect id="Rectángulo_38823" data-name="Rectángulo 38823" width="0.842" height="12.194" transform="translate(404.904 240.93)" fill="#545057"/>
        <rect id="Rectángulo_38824" data-name="Rectángulo 38824" width="0.842" height="12.194" transform="translate(407.081 240.93)" fill="#545057"/>
        <rect id="Rectángulo_38825" data-name="Rectángulo 38825" width="0.842" height="12.194" transform="translate(408.25 240.93)" fill="#545057"/>
        <rect id="Rectángulo_38826" data-name="Rectángulo 38826" width="0.842" height="12.194" transform="translate(409.669 240.93)" fill="#545057"/>
        <path id="Trazado_150928" data-name="Trazado 150928" d="M166.878,86.9v5.588c-1.642.141-2.92.716-3.175,1.439h7.9c-.255-.723-1.533-1.3-3.175-1.439V86.9a4.78,4.78,0,0,0,3.262-4.837c0-.052,0-.1-.007-.156h-8.055c0,.052-.007.1-.007.156a4.78,4.78,0,0,0,3.262,4.837" transform="translate(241.639 120.966)" fill="#ea5f21"/>
        <path id="Trazado_150929" data-name="Trazado 150929" d="M161.338,86.8a2.762,2.762,0,0,1,.9-.248,4.256,4.256,0,0,1,1.672.188c.062,2.234.05,5.489,0,6.031a2.464,2.464,0,0,1-.438,1.39,1.4,1.4,0,0,1-1.672.381,1.179,1.179,0,0,1-.542-.634,2.745,2.745,0,0,1-.126-.775,1.132,1.132,0,0,0-.807.159c-.592.4-.206,1.1.2,1.5a2.841,2.841,0,0,0,1.048.659,2.127,2.127,0,0,0,.686.109,2.908,2.908,0,0,0,2.19-1.016,4.764,4.764,0,0,0,.5-2.94V86.8a3.481,3.481,0,0,1,2.581,0,1.793,1.793,0,0,1,2,0,5.335,5.335,0,0,0-4.5-4.23.808.808,0,0,0-1.447,0,5.1,5.1,0,0,0-4.5,4.23,2.256,2.256,0,0,1,1.05-.3,2.279,2.279,0,0,1,1.206.3" transform="translate(234.943 121.283)" fill="#ea5f21"/>
        <path id="Trazado_150930" data-name="Trazado 150930" d="M160.681,82.727h.146a.439.439,0,0,0,0-.877h-.146a.439.439,0,0,0,0,.877" transform="translate(236.679 120.882)" fill="#ea5f21"/>
        <path id="Trazado_150931" data-name="Trazado 150931" d="M161.359,82.2a.439.439,0,0,0,0-.877.439.439,0,0,0,0,.877" transform="translate(237.68 120.098)" fill="#ea5f21"/>
        <path id="Trazado_150932" data-name="Trazado 150932" d="M162.4,82.294V82.22a.439.439,0,0,0-.877,0v.074a.439.439,0,0,0,.877,0" transform="translate(238.542 120.804)" fill="#ea5f21"/>
        <path id="Trazado_150933" data-name="Trazado 150933" d="M162.78,81.614v-.072a.439.439,0,0,0-.877,0v.072a.439.439,0,0,0,.877,0" transform="translate(239.11 119.802)" fill="#ea5f21"/>
        <path id="Trazado_150934" data-name="Trazado 150934" d="M163.07,82.521a.439.439,0,0,0,0-.877.439.439,0,0,0,0,.877" transform="translate(240.207 120.577)" fill="#ea5f21"/>
        <path id="Trazado_150935" data-name="Trazado 150935" d="M156.5,85.176a.58.58,0,0,0,.277.067.539.539,0,0,0,.424-.186l1.011-1.271v9.454a.516.516,0,0,0,1.013,0V83.655l1.281,1.419a.577.577,0,0,0,.706.087.37.37,0,0,0,.106-.582l-2.192-2.435a.592.592,0,0,0-.421-.168.539.539,0,0,0-.409.188L156.357,84.6a.375.375,0,0,0,.146.577" transform="translate(230.797 121.068)" fill="#ea5f21"/>
        <path id="Trazado_150936" data-name="Trazado 150936" d="M153.985,85.176a.567.567,0,0,0,.277.067.542.542,0,0,0,.424-.186l1.011-1.271v9.454a.516.516,0,0,0,1.013,0V83.655l1.278,1.419a.581.581,0,0,0,.708.087.368.368,0,0,0,.1-.582l-2.192-2.435a.583.583,0,0,0-.421-.168.542.542,0,0,0-.409.188L153.839,84.6a.374.374,0,0,0,.146.577" transform="translate(227.077 121.068)" fill="#ea5f21"/>
        <path id="Trazado_150937" data-name="Trazado 150937" d="M163.646,86.877h-9.135a.507.507,0,0,0,0,1.013h9.135a.507.507,0,0,0,0-1.013" transform="translate(227.447 128.306)" fill="#ea5f21"/>
        <rect id="Rectángulo_38827" data-name="Rectángulo 38827" width="3.611" height="6.967" transform="translate(372.211 178.875)" fill="#d2f3f8"/>
        <path id="Trazado_150938" data-name="Trazado 150938" d="M155.391,72.218h-3.658v6.967h3.847Z" transform="translate(224.09 106.657)" fill="#bce2e8"/>
        <path id="Trazado_150939" data-name="Trazado 150939" d="M150.231,75.533V81.5l1.068-1.177,1.434,1.177,1.216-1.469,0-4.5Z" transform="translate(221.872 111.553)" fill="#d2f3f8"/>
        <path id="Trazado_150940" data-name="Trazado 150940" d="M151.735,75.533l0,4.5,1.2,2.167,1.687-1.1,1.266,1.1V75.533Z" transform="translate(224.088 111.553)" fill="#bce2e8"/>
        <path id="Trazado_150941" data-name="Trazado 150941" d="M134.059,97.922v6.192h3.8V97.922Z" transform="translate(197.987 144.618)" fill="#d2f3f8"/>
        <path id="Trazado_150942" data-name="Trazado 150942" d="M139.594,101.186l.951-.926-.587-1.34.109-1h-4.473v6.192h4l-.775-.84,1.726-1.129Z" transform="translate(200.254 144.618)" fill="#bce2e8"/>
        <rect id="Rectángulo_38828" data-name="Rectángulo 38828" width="25.626" height="0.817" transform="translate(342.447 201.164)" fill="#545057"/>
        <rect id="Rectángulo_38829" data-name="Rectángulo 38829" width="25.626" height="0.817" transform="translate(342.447 203.767)" fill="#545057"/>
        <rect id="Rectángulo_38830" data-name="Rectángulo 38830" width="25.626" height="0.817" transform="translate(342.447 206.373)" fill="#545057"/>
        <rect id="Rectángulo_38831" data-name="Rectángulo 38831" width="25.626" height="0.817" transform="translate(342.447 208.976)" fill="#545057"/>
        <rect id="Rectángulo_38832" data-name="Rectángulo 38832" width="25.626" height="0.817" transform="translate(342.447 211.582)" fill="#545057"/>
        <path id="Trazado_150943" data-name="Trazado 150943" d="M186.93,126.355l-10.353-5.642a2.877,2.877,0,0,1-3.71.78l-28.1-15.314a2.873,2.873,0,0,1-1.357-3.539l-10.353-5.645a6.4,6.4,0,0,0-8.733,2.355l-37.18,68.228a6.4,6.4,0,0,0,2.754,8.615l53.877,29.358a6.413,6.413,0,0,0,8.746-2.348l37.18-68.228a6.409,6.409,0,0,0-2.769-8.62" transform="translate(127.615 142.021)" fill="#e4f4ff"/>
        <path id="Trazado_150944" data-name="Trazado 150944" d="M191.515,125.2l-10.351-5.642a2.8,2.8,0,0,1-.124.3l-1.692,3.1a2.547,2.547,0,0,1-.188.272l10.353,5.64a6.411,6.411,0,0,1,2.769,8.622L155.1,205.725a6.411,6.411,0,0,1-8.746,2.346L92.483,178.712a6.4,6.4,0,0,1-2.757-8.615l37.18-68.228a6.4,6.4,0,0,1,8.733-2.353l10.353,5.642a2.948,2.948,0,0,1,.129-.3l1.689-3.1a2.519,2.519,0,0,1,.183-.265l-10.353-5.642a10.688,10.688,0,0,0-14.581,3.931L85.879,168a10.684,10.684,0,0,0,4.6,14.381l53.874,29.358a10.694,10.694,0,0,0,14.591-3.921l37.183-68.228a10.7,10.7,0,0,0-4.614-14.388" transform="translate(125.029 139.499)" fill="#4d4d4d"/>
        <path id="Trazado_150945" data-name="Trazado 150945" d="M143.35,113.249l-2.5-1.362.847-1.553a2.867,2.867,0,0,0-1.231-3.847L122.494,96.7a2.863,2.863,0,0,0-3.9,1.05l-.845,1.553-2.5-1.365a2.879,2.879,0,0,0-3.718.788,2.5,2.5,0,0,0-.181.265l-1.692,3.1a2.473,2.473,0,0,0-.126.3,2.872,2.872,0,0,0,1.357,3.539l28.1,15.314a2.868,2.868,0,0,0,3.708-.78,2.028,2.028,0,0,0,.188-.27l1.694-3.1a2.778,2.778,0,0,0,.121-.3,2.875,2.875,0,0,0-1.352-3.549" transform="translate(161.491 142.262)" fill="#4d4d4d"/>
        <path id="Trazado_150946" data-name="Trazado 150946" d="M139.778,112.323l-25.96-14.145a2.337,2.337,0,0,0-3.163.931l-.054.1a2.335,2.335,0,0,0,.931,3.16l25.96,14.148a2.342,2.342,0,0,0,3.163-.931l.054-.1a2.339,2.339,0,0,0-.931-3.163" transform="translate(162.925 144.578)" fill="#d0d5d8"/>
        <path id="Trazado_150947" data-name="Trazado 150947" d="M132.63,106.118l-16.489-8.986a1.562,1.562,0,0,0-2.11.622l-.037.067a1.564,1.564,0,0,0,.622,2.113l16.489,8.984a1.559,1.559,0,0,0,2.11-.622l.037-.067a1.559,1.559,0,0,0-.622-2.11" transform="translate(168.077 143.174)" fill="#d0d5d8"/>
        <path id="Trazado_150948" data-name="Trazado 150948" d="M140.424,128.529l-32.392-17.65a1.176,1.176,0,0,0-1.593.468l-.027.05a1.18,1.18,0,0,0,.471,1.6l32.39,17.653a1.177,1.177,0,0,0,1.593-.471l.027-.052a1.177,1.177,0,0,0-.468-1.593" transform="translate(156.946 163.543)" fill="#1893d1"/>
        <path id="Trazado_150949" data-name="Trazado 150949" d="M99.979,114.485l10.529,5.739,5.622-10.319L105.6,104.169Zm6.2-8.359,8,4.357-4.243,7.782-8-4.354Z" transform="translate(147.656 153.844)" fill="#455256"/>
        <path id="Trazado_150950" data-name="Trazado 150950" d="M136.626,135.5l-32.392-17.65a1.176,1.176,0,0,0-1.593.468l-.027.05a1.18,1.18,0,0,0,.471,1.6l32.39,17.65a1.176,1.176,0,0,0,1.593-.468l.027-.052a1.176,1.176,0,0,0-.468-1.593" transform="translate(151.337 173.837)" fill="#1893d1"/>
        <path id="Trazado_150951" data-name="Trazado 150951" d="M96.181,121.455l10.529,5.739,5.622-10.319L101.8,111.136Zm6.2-8.359,8,4.357-4.243,7.785-8-4.357Z" transform="translate(142.047 164.133)" fill="#455256"/>
        <path id="Trazado_150952" data-name="Trazado 150952" d="M132.831,142.467l-32.395-17.65a1.174,1.174,0,0,0-1.59.468l-.03.05a1.178,1.178,0,0,0,.473,1.6l32.388,17.653a1.179,1.179,0,0,0,1.593-.471l.027-.052a1.178,1.178,0,0,0-.466-1.593" transform="translate(145.728 184.128)" fill="#1893d1"/>
        <path id="Trazado_150953" data-name="Trazado 150953" d="M92.383,128.425l10.529,5.739,5.622-10.319-10.529-5.739Zm6.2-8.359,8,4.357-4.24,7.782-8-4.357Z" transform="translate(136.438 174.427)" fill="#455256"/>
        <path id="Trazado_150954" data-name="Trazado 150954" d="M109.4,119.33a1.209,1.209,0,0,0-1.7-.119l-10.911,9.481L97,118.367a1.2,1.2,0,0,0-2.405-.052l-.28,13.041a1.2,1.2,0,0,0,.627,1.085l.064.032a1.205,1.205,0,0,0,1.3-.183l12.964-11.26a1.2,1.2,0,0,0,.121-1.7" transform="translate(139.294 172.997)" fill="#ea5f21"/>
        <path id="Trazado_150955" data-name="Trazado 150955" d="M112.484,113.662a1.206,1.206,0,0,0-1.7-.119l-10.913,9.481.22-10.326a1.2,1.2,0,0,0-2.408-.052l-.277,13.041a1.2,1.2,0,0,0,.627,1.082.538.538,0,0,0,.064.035,1.2,1.2,0,0,0,1.3-.183l12.966-11.26a1.206,1.206,0,0,0,.119-1.7" transform="translate(143.857 164.626)" fill="#ea5f21"/>
        <path id="Trazado_150956" data-name="Trazado 150956" d="M116.73,105.869a1.208,1.208,0,0,0-1.7-.119l-10.913,9.481.22-10.326a1.2,1.2,0,1,0-2.405-.05l-.28,13.038a1.2,1.2,0,0,0,.627,1.082l.064.035a1.206,1.206,0,0,0,1.3-.181l12.964-11.262a1.206,1.206,0,0,0,.119-1.7" transform="translate(150.128 153.117)" fill="#ea5f21"/>
        <path id="Trazado_150957" data-name="Trazado 150957" d="M141.58,107.469l-2.306-2.749a2.322,2.322,0,0,0-3.23-.505l-2.321,1.949,3.854,4.674Z" transform="translate(197.491 153.244)" fill="#4db5ea"/>
        <path id="Trazado_150958" data-name="Trazado 150958" d="M141.107,110.84a2.392,2.392,0,0,0,.045-3.354l-1.87-2.227-4,3.369,3.468,4.206Z" transform="translate(199.789 155.455)" fill="#1893d1"/>
        <path id="Trazado_150959" data-name="Trazado 150959" d="M103.623,130.15l-.352.295.089.151Z" transform="translate(152.518 192.215)" fill="#ea5f21"/>
        <path id="Trazado_150960" data-name="Trazado 150960" d="M106.15,134.34l-.451.144.094.159Z" transform="translate(156.104 198.402)" fill="#f9773d"/>
        <path id="Trazado_150961" data-name="Trazado 150961" d="M173.112,115.506l5.86-4.934-3.829-4.709-4.149,3.478L103.413,166.02l3.217,5.462Z" transform="translate(152.728 156.347)" fill="#4db5ea"/>
        <path id="Trazado_150962" data-name="Trazado 150962" d="M176.284,115.562,180.5,112l-3.445-4.238-5.86,4.934-66.482,55.975,2.9,4.914Z" transform="translate(154.646 159.154)" fill="#1893d1"/>
        <path id="Trazado_150963" data-name="Trazado 150963" d="M140.039,111.432l.718-.607-3.47-4.206-.711.6-2.658,2.237,3.445,4.238Z" transform="translate(197.781 157.463)" fill="#e4f4ff"/>
        <path id="Trazado_150964" data-name="Trazado 150964" d="M138.858,110.008l.711-.6-3.854-4.676-.708.592-2.633,2.209,3.827,4.711Z" transform="translate(195.499 154.675)" fill="#dde5ed"/>
        <path id="Trazado_150965" data-name="Trazado 150965" d="M107.661,135.987l-2.113-3.656L99.824,142.1l.926-.3Z" transform="translate(147.427 195.435)" fill="#a4b5bc"/>
        <path id="Trazado_150966" data-name="Trazado 150966" d="M107.108,133.807l-6.91,5.818,8.669-2.772Z" transform="translate(147.979 197.615)" fill="#58595b"/>
        <path id="Trazado_150967" data-name="Trazado 150967" d="M108.164,135.911l.354-.3L105.3,130.15l-.263.448-2.9,4.954,2.113,3.656Z" transform="translate(150.84 192.215)" fill="#dde5ed"/>
        <path id="Trazado_150968" data-name="Trazado 150968" d="M109.7,137.414l.451-.144-2.9-4.914-.354.3-3.916,3.3L104.747,139Z" transform="translate(152.1 195.472)" fill="#e4f4ff"/>
        <path id="Trazado_150969" data-name="Trazado 150969" d="M177.536,53.958l.255,5.915-1.553-36.011a6.928,6.928,0,0,0-6.794-6.613H153.627a1.111,1.111,0,0,0-1.107,1.132,4.409,4.409,0,0,1-1.253,3.136,4.318,4.318,0,0,1-3.106,1.31H144.75V53.958ZM150.288,23.834H169.1a4.878,4.878,0,0,1,4.77,4.689l.691,17.407A4.662,4.662,0,0,1,170,50.906H150.5a4.894,4.894,0,0,1-4.758-4.976l-.03-17.407a4.639,4.639,0,0,1,4.577-4.689" transform="translate(213.777 25.473)" fill="#b0b4b7"/>
        <path id="Trazado_150970" data-name="Trazado 150970" d="M164.55,22.828h-3.827a4.373,4.373,0,0,1-4.359-4.448,1.139,1.139,0,0,0-.32-.8,1.107,1.107,0,0,0-.79-.329H139.437a6.925,6.925,0,0,0-6.794,6.613l-1.3,30.1H164.55Zm-6.17,28.078h-19.5a4.658,4.658,0,0,1-4.555-4.974l.689-17.41a4.878,4.878,0,0,1,4.77-4.689h18.807a4.637,4.637,0,0,1,4.577,4.689l-.027,17.41a4.9,4.9,0,0,1-4.761,4.974" transform="translate(193.976 25.473)" fill="#c0d1e1"/>
        <path id="Trazado_150971" data-name="Trazado 150971" d="M164.89,34.539H131.42l-.307,7.151H164.89Z" transform="translate(193.636 51.01)" fill="#c0d1e1"/>
        <path id="Trazado_150972" data-name="Trazado 150972" d="M144.75,41.69h33.358l-.307-7.151H144.75Z" transform="translate(213.776 51.009)" fill="#b0b4b7"/>
        <path id="Trazado_150973" data-name="Trazado 150973" d="M178.743,48.255l-.352-8.2H144.75V56.1h27.176c3.936,0,7-3.549,6.816-7.847M169.769,50.1a1.186,1.186,0,0,1-1.182,1.181H154.652a1.186,1.186,0,0,1-1.181-1.181V45.379a1.184,1.184,0,0,1,1.181-1.179h13.935a1.184,1.184,0,0,1,1.182,1.179Z" transform="translate(213.777 59.155)" fill="#b0b4b7"/>
        <path id="Trazado_150974" data-name="Trazado 150974" d="M131.215,40.053l-.354,8.206c-.186,4.292,2.883,7.847,6.819,7.847h27.595V40.053Zm23.738,11.23H141.018a1.185,1.185,0,0,1-1.184-1.181V45.381a1.184,1.184,0,0,1,1.184-1.179h13.935a1.184,1.184,0,0,1,1.181,1.179V50.1a1.184,1.184,0,0,1-1.181,1.181" transform="translate(193.252 59.153)" fill="#c0d1e1"/>
        <path id="Trazado_150975" data-name="Trazado 150975" d="M144.927,15.5a4.493,4.493,0,0,0-2.863,2.442A7.665,7.665,0,0,0,142,22.379a4.469,4.469,0,0,0,2.868,2.479,23.32,23.32,0,0,0,4.377.374v-10.1a23.12,23.12,0,0,0-4.32.362" transform="translate(209.277 22.349)" fill="#f9773d"/>
        <path id="Trazado_150976" data-name="Trazado 150976" d="M151.576,22.378a7.665,7.665,0,0,0-.062-4.441,4.5,4.5,0,0,0-2.863-2.442,23.349,23.349,0,0,0-3.9-.362v10.1a23.29,23.29,0,0,0,3.958-.374,4.468,4.468,0,0,0,2.868-2.479" transform="translate(213.777 22.349)" fill="#ea5f21"/>
        <path id="Trazado_150977" data-name="Trazado 150977" d="M145.166,42a4.9,4.9,0,0,0,4.761,4.974h19.5A4.657,4.657,0,0,0,173.982,42l-.691-17.41a4.871,4.871,0,0,0-4.768-4.686H149.714a4.635,4.635,0,0,0-4.575,4.686Z" transform="translate(214.351 29.402)" fill="#1893d1"/>
        <path id="Trazado_150978" data-name="Trazado 150978" d="M156.817,19.907H138.01a4.878,4.878,0,0,0-4.77,4.689L132.548,42a4.662,4.662,0,0,0,4.557,4.976h19.5A4.894,4.894,0,0,0,161.364,42l.03-17.407a4.639,4.639,0,0,0-4.577-4.689" transform="translate(195.751 29.4)" fill="#4db5ea"/>
        <path id="Trazado_150979" data-name="Trazado 150979" d="M144.75,32.069v6.118H177.8l-.01-.2-.255-5.917Z" transform="translate(213.776 47.362)" fill="#ea5f21"/>
        <path id="Trazado_150980" data-name="Trazado 150980" d="M164.707,32.069H131.5l-.265,6.118h33.47Z" transform="translate(193.819 47.362)" fill="#f9773d"/>
        <path id="Trazado_150981" data-name="Trazado 150981" d="M144.75,43.935h34.332V37.426H144.75Z" transform="translate(213.776 55.273)" fill="#ea5f21"/>
        <path id="Trazado_150982" data-name="Trazado 150982" d="M165.47,37.426H130.72v6.509H165.47Z" transform="translate(193.056 55.273)" fill="#f9773d"/>
        <path id="Trazado_150983" data-name="Trazado 150983" d="M149.6,41.728H135.663a1.185,1.185,0,0,0-1.184,1.181V47.63a1.185,1.185,0,0,0,1.184,1.181H149.6a1.184,1.184,0,0,0,1.181-1.181V42.909a1.184,1.184,0,0,0-1.181-1.181" transform="translate(198.608 61.627)" fill="#ea5f21"/>
        <path id="Trazado_150984" data-name="Trazado 150984" d="M163.387,41.728H149.452a1.184,1.184,0,0,0-1.181,1.181V47.63a1.184,1.184,0,0,0,1.181,1.181h13.935a1.184,1.184,0,0,0,1.182-1.181V42.909a1.184,1.184,0,0,0-1.182-1.181" transform="translate(218.977 61.627)" fill="#ea5f21"/>
        <path id="Trazado_150985" data-name="Trazado 150985" d="M144.2,55.844l4.26-6.318H141.53L129.339,64.771a2.6,2.6,0,0,0-.178.25h8.855l2.256-3.346h27.5V55.844Z" transform="translate(190.754 73.143)" fill="#185377"/>
        <path id="Trazado_150986" data-name="Trazado 150986" d="M182.766,64.771,170.573,49.526h-6.93l4.258,6.318H144.749v5.831h27.082l2.256,3.349h8.857c-.054-.084-.111-.168-.178-.253" transform="translate(213.775 73.143)" fill="#074b68"/>
        <path id="Trazado_150987" data-name="Trazado 150987" d="M152.9,47.2l-.139.025h.822a1.882,1.882,0,0,0-.684-.025" transform="translate(225.609 69.684)" fill="#4d4d4d"/>
        <path id="Trazado_150988" data-name="Trazado 150988" d="M136.92,47.2a1.88,1.88,0,0,0-.684.025h.822Z" transform="translate(201.203 69.684)" fill="#4d4d4d"/>
        <path id="Trazado_150989" data-name="Trazado 150989" d="M162.629,52.958V47.2h-28.8a1.184,1.184,0,0,0-1.182,1.181v3.393a1.183,1.183,0,0,0,1.182,1.181h28.8Z" transform="translate(195.898 69.711)" fill="#4db5ea"/>
        <path id="Trazado_150990" data-name="Trazado 150990" d="M163.641,52.958h9.494a1.184,1.184,0,0,0,1.181-1.181V48.383a1.186,1.186,0,0,0-1.181-1.181H144.75v5.756Z" transform="translate(213.777 69.711)" fill="#1893d1"/>
        <rect id="Rectángulo_38833" data-name="Rectángulo 38833" width="42.087" height="64.701" transform="translate(115.298 232.375)" fill="#c93227"/>
        <rect id="Rectángulo_38834" data-name="Rectángulo 38834" width="42.087" height="64.701" transform="translate(73.211 232.375)" fill="#ff8578"/>
        <path id="Trazado_150991" data-name="Trazado 150991" d="M82.9,116.519h-.2v7.611a.864.864,0,0,1-.025.2H82.9a1.419,1.419,0,0,0,1.414-1.414v-4.979a1.419,1.419,0,0,0-1.414-1.414" transform="translate(122.106 172.083)" fill="#ea5f21"/>
        <path id="Trazado_150992" data-name="Trazado 150992" d="M82.373,119.94h-.035c.01.025.022.022.035,0" transform="translate(121.602 177.136)" fill="#4db5ea"/>
        <path id="Trazado_150993" data-name="Trazado 150993" d="M107.5,135.838c-.406-1.013-14.106-33.792-26.924-33.792H65.026v34.993h42.823a7.9,7.9,0,0,0-.349-1.2M78.052,133.4H68.927v-2.516h9.125Zm-8.233-6.539V107.812H79.994c5.253-.166,9.8,4.679,13.016,9.524a57.745,57.745,0,0,1,5.033,9.529Z" transform="translate(96.035 150.709)" fill="#ea5f21"/>
        <path id="Trazado_150994" data-name="Trazado 150994" d="M108.772,117.028v-.56l-.416-.295H65.026V125.5H107.96a.823.823,0,0,0,.788-.666.864.864,0,0,0,.025-.2Z" transform="translate(96.035 171.574)" fill="#4db5ea"/>
        <path id="Trazado_150995" data-name="Trazado 150995" d="M77.136,104.376H66.961V113.9H90.152c-3.217-4.845-7.76-9.69-13.016-9.524" transform="translate(98.893 154.144)" fill="#dde5ed"/>
        <path id="Trazado_150996" data-name="Trazado 150996" d="M38.385,124.276v-2.351H29.414v8.032h8.971v-5.682Z" transform="translate(43.44 180.067)" fill="#333"/>
        <path id="Trazado_150997" data-name="Trazado 150997" d="M45.57,124.024a10.7,10.7,0,0,1,1.83,2.45,10.7,10.7,0,0,0-1.83-2.45" transform="translate(67.301 183.167)" fill="#4890ac"/>
        <path id="Trazado_150998" data-name="Trazado 150998" d="M46.634,125.783a10.6,10.6,0,0,1,.478,3.163,10.6,10.6,0,0,0-.478-3.163" transform="translate(68.872 185.765)" fill="#4890ac"/>
        <path id="Trazado_150999" data-name="Trazado 150999" d="M38.24,128.946h0a10.594,10.594,0,0,1,.478-3.163,10.594,10.594,0,0,0-.478,3.163" transform="translate(56.475 185.765)" fill="#4890ac"/>
        <path id="Trazado_151000" data-name="Trazado 151000" d="M38.758,126.474a10.649,10.649,0,0,1,1.83-2.45,10.649,10.649,0,0,0-1.83,2.45" transform="translate(57.24 183.167)" fill="#4890ac"/>
        <path id="Trazado_151001" data-name="Trazado 151001" d="M78.216,129.733h14.8v-5.377H76.383a12.638,12.638,0,0,1,1.833,5.377" transform="translate(112.808 183.658)" fill="#ea5f21"/>
        <path id="Trazado_151002" data-name="Trazado 151002" d="M48.764,129.733h47.5a12.666,12.666,0,0,1,1.828-5.377H46.931a12.7,12.7,0,0,1,1.833,5.377" transform="translate(69.311 183.658)" fill="#ea5f21"/>
        <path id="Trazado_151003" data-name="Trazado 151003" d="M33.036,123.622v2.351h16.05a12.734,12.734,0,0,1,14.95,0h58a12.731,12.731,0,0,1,14.948,0h20.05v-5.2h-124Z" transform="translate(48.79 178.37)" fill="#ea5f21"/>
        <path id="Trazado_151004" data-name="Trazado 151004" d="M33.036,124.356v5.377h10.8a12.671,12.671,0,0,1,1.833-5.377Z" transform="translate(48.79 183.658)" fill="#ea5f21"/>
        <path id="Trazado_151005" data-name="Trazado 151005" d="M87.68,128.332a10.8,10.8,0,0,0-1.833-2.452,10.638,10.638,0,0,0-15.04,0,10.8,10.8,0,0,0-1.833,2.452,10.639,10.639,0,1,0,18.705,0m-14.086.342a6.694,6.694,0,1,1-1.967,4.733,6.654,6.654,0,0,1,1.967-4.733" transform="translate(99.972 181.309)" fill="#333"/>
        <path id="Trazado_151006" data-name="Trazado 151006" d="M75.981,136.584a6.69,6.69,0,0,0,4.733-1.967l-9.467-9.467a6.694,6.694,0,0,0,4.733,11.433" transform="translate(102.319 184.832)" fill="#f7dc54"/>
        <path id="Trazado_151007" data-name="Trazado 151007" d="M81.508,131.057a6.694,6.694,0,0,0-11.433-4.733l9.467,9.467a6.629,6.629,0,0,0,1.967-4.733" transform="translate(103.492 183.659)" fill="#eabe32"/>
        <rect id="Rectángulo_38835" data-name="Rectángulo 38835" width="9.125" height="2.517" transform="translate(164.964 281.595)" fill="#333"/>
        <path id="Trazado_151008" data-name="Trazado 151008" d="M66.961,108.219v9.529H95.185a57.637,57.637,0,0,0-5.033-9.529Z" transform="translate(98.893 159.825)" fill="#e4f4ff"/>
        <path id="Trazado_151009" data-name="Trazado 151009" d="M33.036,122.874v3.671H45.671a12.679,12.679,0,0,1,3.416-3.671Z" transform="translate(48.79 181.469)" fill="#074b68"/>
        <path id="Trazado_151010" data-name="Trazado 151010" d="M48.968,126.545H100.13a12.687,12.687,0,0,1,3.418-3.671h-58a12.713,12.713,0,0,1,3.416,3.671" transform="translate(67.274 181.469)" fill="#074b68"/>
        <path id="Trazado_151011" data-name="Trazado 151011" d="M78.421,126.545H95.053v-3.671H75a12.687,12.687,0,0,1,3.418,3.671" transform="translate(110.77 181.469)" fill="#074b68"/>
        <path id="Trazado_151012" data-name="Trazado 151012" d="M58.226,128.332a10.716,10.716,0,0,0-1.83-2.452,10.686,10.686,0,1,0,1.83,2.452m-14.083.342a6.694,6.694,0,1,1-1.967,4.733,6.654,6.654,0,0,1,1.967-4.733" transform="translate(56.475 181.309)" fill="#333"/>
        <path id="Trazado_151013" data-name="Trazado 151013" d="M46.528,136.584a6.69,6.69,0,0,0,4.733-1.967l-9.467-9.467a6.694,6.694,0,0,0,4.733,11.433" transform="translate(58.821 184.832)" fill="#f7dc54"/>
        <path id="Trazado_151014" data-name="Trazado 151014" d="M52.055,131.057a6.694,6.694,0,0,0-11.433-4.733l9.467,9.467a6.629,6.629,0,0,0,1.967-4.733" transform="translate(59.993 183.659)" fill="#eabe32"/>
        <path id="Trazado_151015" data-name="Trazado 151015" d="M63.3,126.752a13.335,13.335,0,0,1-2.467-.233,12.314,12.314,0,0,1-7.822-4.919,10.757,10.757,0,0,1-1.806-8.622,11.863,11.863,0,0,1,8.57-8.691l-2,1.476a1.337,1.337,0,0,0-.4,1.833,1.449,1.449,0,0,0,.728.525,1.757,1.757,0,0,0,.28.059,1.5,1.5,0,0,0,1.065-.275l5.925-4.372A1.28,1.28,0,0,0,65.9,102.4a1.319,1.319,0,0,0-.713-1.048l-6.071-3.312a1.318,1.318,0,0,0-.458-.141,1.475,1.475,0,0,0-1.345.587,1.1,1.1,0,0,0,.324,1.645l2.1,1.256a14.76,14.76,0,0,0-11.488,11.034,13.392,13.392,0,0,0,2.247,10.73,15.345,15.345,0,0,0,9.734,6.12,16.5,16.5,0,0,0,3.059.287,15.616,15.616,0,0,0,13.6-7.678h-3.5A12.64,12.64,0,0,1,63.3,126.752" transform="translate(70.797 144.567)" fill="#074b68"/>
        <path id="Trazado_151016" data-name="Trazado 151016" d="M50.667,112.757v1.2h7.7V112.2H55.571c-.555,0-1.305.072-1.9.124,2.256-2.38,4.136-4.456,4.136-6.479a3.329,3.329,0,0,0-3.6-3.492,4.66,4.66,0,0,0-3.634,1.756l1.144,1.144a3.157,3.157,0,0,1,2.222-1.271,1.767,1.767,0,0,1,1.88,1.969c0,1.739-1.989,3.743-5.157,6.8" transform="translate(74.697 151.163)" fill="#074b68"/>
        <path id="Trazado_151017" data-name="Trazado 151017" d="M54.176,110.892h5.033v2.935h1.932v-2.935h1.434v-1.6H61.141v-6.856H58.689L54.176,109.5Zm4.122-4.763c.32-.609.642-1.181.929-1.771H59.3c-.037.661-.089,1.7-.089,2.363V109.3h-2.99Z" transform="translate(80.011 151.292)" fill="#074b68"/>
        <path id="Trazado_151018" data-name="Trazado 151018" d="M61.272,105.843a2.894,2.894,0,0,0-2.083,1.065l.054-1.367v-2.616H57.718v10.148h1.526v-4.929c.542-.577.914-.877,1.484-.877.716,0,1.02.431,1.02,1.6v4.211h1.526v-4.426c0-1.783-.609-2.8-2-2.8" transform="translate(85.242 152.007)" fill="#074b68"/>
        <rect id="Rectángulo_38836" data-name="Rectángulo 38836" width="7.899" height="15.8" transform="translate(41.844 148.251)" fill="#1893d1"/>
        <rect id="Rectángulo_38837" data-name="Rectángulo 38837" width="7.899" height="15.8" transform="translate(33.943 148.251)" fill="#4db5ea"/>
        <rect id="Rectángulo_38838" data-name="Rectángulo 38838" width="7.899" height="15.8" transform="translate(21.935 148.251)" fill="#1893d1"/>
        <rect id="Rectángulo_38839" data-name="Rectángulo 38839" width="7.899" height="15.8" transform="translate(14.036 148.251)" fill="#4db5ea"/>
        <path id="Trazado_151019" data-name="Trazado 151019" d="M29.007,81.743h0V66.423h-7.9V81.743Z" transform="translate(31.174 98.099)" fill="#1893d1"/>
        <rect id="Rectángulo_38840" data-name="Rectángulo 38840" width="7.899" height="15.319" transform="translate(44.383 164.521)" fill="#4db5ea"/>
        <rect id="Rectángulo_38841" data-name="Rectángulo 38841" width="7.899" height="15.319" transform="translate(32.375 164.521)" fill="#1893d1"/>
        <rect id="Rectángulo_38842" data-name="Rectángulo 38842" width="7.899" height="15.319" transform="translate(24.474 164.521)" fill="#4db5ea"/>
        <rect id="Rectángulo_38843" data-name="Rectángulo 38843" width="7.899" height="15.319" transform="translate(12.466 164.524)" fill="#1893d1"/>
        <rect id="Rectángulo_38844" data-name="Rectángulo 38844" width="7.899" height="15.319" transform="translate(4.567 164.521)" fill="#4db5ea"/>
        <path id="Trazado_151020" data-name="Trazado 151020" d="M65.973,74.761V65.772a4.5,4.5,0,0,0-.83-2.618A.678.678,0,0,0,65,62.976H28.124a1.588,1.588,0,0,0-.129.178,4.409,4.409,0,0,0-.847,2.618v9h.26c.017,0,.035-.007.052-.007Zm-8.288-8.788a2.591,2.591,0,0,1,.476-.411,2.683,2.683,0,0,1,.389-.188,2.515,2.515,0,0,1,1.068-.263,2.545,2.545,0,0,1,.9.168,2.711,2.711,0,0,1,.76.443,3.09,3.09,0,0,1,.253.258,1.7,1.7,0,0,1,.134.134,2.777,2.777,0,0,1,.312.557,2.5,2.5,0,0,1,.26,1.058,2.535,2.535,0,0,1-.109.733l-.01.04a2.45,2.45,0,0,1-.324.679l0,0a2.609,2.609,0,1,1-4.183-3.106c.03-.032.047-.074.077-.106m-8.241-.411a2.64,2.64,0,0,1,.525-.255,2.58,2.58,0,0,1,.934-.2,2.644,2.644,0,0,1,1.662.612c.012.012.025.032.04.045a2.363,2.363,0,0,1,.339.347,2.756,2.756,0,0,1,.206.364,2.468,2.468,0,0,1,.374,1.251A2.623,2.623,0,0,1,50.9,70.35a2.619,2.619,0,0,1-2.618-2.621,2.578,2.578,0,0,1,.32-1.243,2.615,2.615,0,0,1,.84-.924m-9.125.352a2.6,2.6,0,0,1,.406-.352,2.822,2.822,0,0,1,.4-.193,2.567,2.567,0,0,1,1.068-.258,2.641,2.641,0,0,1,1.657.612,2.6,2.6,0,0,1,.381.391,2.754,2.754,0,0,1,.248.443,2.493,2.493,0,0,1,.324,1.172,2.6,2.6,0,0,1-.441,1.451,2.722,2.722,0,0,1-.411.48,2.6,2.6,0,0,1-4.126-3.017c.025-.052.037-.109.064-.161l0,0a2.583,2.583,0,0,1,.426-.565m-8.31-.352a3.293,3.293,0,0,1,1.459-.451,2.662,2.662,0,0,1,2.043,1,2.666,2.666,0,0,1,.253.451,2.464,2.464,0,0,1,.324,1.164,2.651,2.651,0,0,1-.443,1.456,2.615,2.615,0,1,1-3.636-3.624" transform="translate(40.094 93.007)" fill="#e6e6e6"/>
        <path id="Trazado_151021" data-name="Trazado 151021" d="M79.217,71.37a3.637,3.637,0,0,0-3.636-3.636H29.237c-.017,0-.032.007-.052.007a3.288,3.288,0,0,0-3.24,3.287v8.778H79.217ZM35.469,74.451l-.012.054c-.01.059-.025.119-.04.178s-.02.1-.032.146c-.01.032-.03.059-.04.092a2.571,2.571,0,0,1-.181.394c-.017.03-.025.064-.042.1a.683.683,0,0,0-.047.069l-.067.092c-.02.03-.042.057-.067.092s-.067.072-.1.109a2.593,2.593,0,0,1-1.248.785,2.513,2.513,0,0,1-.7.109h0a2.563,2.563,0,0,1-1.59-.552.245.245,0,0,1-.037-.035,2.716,2.716,0,0,1-.364-.352,2.582,2.582,0,0,1-.624-1.677,2.61,2.61,0,0,1,3.381-2.5,2.4,2.4,0,0,1,.7.332h0A2.615,2.615,0,0,1,35.5,74.052l0,.062a2.132,2.132,0,0,1-.027.337M41.6,76.668a2.559,2.559,0,0,1-1.117-.255,2.685,2.685,0,0,1-.877-.684A2.61,2.61,0,0,1,41.6,71.437a3.153,3.153,0,0,1,1.469.448,2.494,2.494,0,0,1,.384.339,2.626,2.626,0,0,1,.448.582,2.576,2.576,0,0,1,.317,1.243A2.617,2.617,0,0,1,41.6,76.668m11.309-2.281-.027.173-.007.037-.017.074-.064.213a.7.7,0,0,1-.045.111c-.017.047-.035.092-.057.139a1.5,1.5,0,0,1-.077.171c-.042.074-.084.149-.126.213h0c-.01.015-.025.025-.035.042l-.015.02a.183.183,0,0,1-.042.062,1.891,1.891,0,0,1-.131.146,2.4,2.4,0,0,1-.317.3l-.027.022-.02.017a2.291,2.291,0,0,1-.2.141,1.054,1.054,0,0,1-.136.084,1.717,1.717,0,0,1-.166.082.73.73,0,0,1-.077.035l-.04.022c-.064.02-.129.042-.191.062s-.1.025-.154.037-.089.022-.134.03c-.025,0-.047.015-.072.017h-.022a2.177,2.177,0,0,1-.379.032h-.012a2.543,2.543,0,0,1-1.712-.674,2.515,2.515,0,0,1-.272-.265,2.569,2.569,0,0,1-.624-1.677,2.614,2.614,0,0,1,2.613-2.616A2.58,2.58,0,0,1,51.6,71.8a1.817,1.817,0,0,1,.186.089c.04.027.072.064.109.094a2.6,2.6,0,0,1,1.043,2.073v.022c0,.1-.01.211-.022.312m6.125,2.281a2.5,2.5,0,0,1-.686-.1,2.569,2.569,0,0,1-.907-.448,3.132,3.132,0,0,1-.4-.386,2.613,2.613,0,0,1-.622-1.679A2.615,2.615,0,0,1,60.5,71.885a2.629,2.629,0,0,1,.842.934,2.563,2.563,0,0,1,.317,1.231,2.619,2.619,0,0,1-2.621,2.618m8.716,0h0a2.543,2.543,0,0,1-1.65-.612,2.826,2.826,0,0,1-.339-.327,2.582,2.582,0,0,1-.624-1.677,2.616,2.616,0,0,1,2.616-2.616,2.584,2.584,0,0,1,1.159.3,2.65,2.65,0,0,1,.3.146,3.071,3.071,0,0,1,.235.2,2.632,2.632,0,0,1,.6.721,2.65,2.65,0,0,1,.315,1.243,2.616,2.616,0,0,1-2.616,2.616" transform="translate(38.317 100.034)" fill="#c1daec"/>
        <path id="Trazado_151022" data-name="Trazado 151022" d="M83.341,72.608h-57.4v5.073H85.3l.542-1.818a2.431,2.431,0,0,0-2.5-3.255" transform="translate(38.317 107.233)" fill="#1893d1"/>
        <path id="Trazado_151023" data-name="Trazado 151023" d="M64.262,72.608H1.917c-1.927,0-2.489,1.5-1.283,3.272l1.224,1.8h62.4Z" transform="translate(0 107.233)" fill="#4db5ea"/>
        <path id="Trazado_151024" data-name="Trazado 151024" d="M4.44,80.1,15.006,95.675a4.954,4.954,0,0,0,3.733,1.783l38.966-.04V80.1Z" transform="translate(6.557 118.297)" fill="#4db5ea"/>
        <path id="Trazado_151025" data-name="Trazado 151025" d="M25.945,97.418l47.65-.05a3.2,3.2,0,0,0,3.042-1.783L81.266,80.1H25.945Z" transform="translate(38.317 118.297)" fill="#1893d1"/>
        <path id="Trazado_151026" data-name="Trazado 151026" d="M61.444,76.363H1.908L5.4,81.523H61.444Z" transform="translate(2.818 112.779)" fill="#4db5ea"/>
        <path id="Trazado_151027" data-name="Trazado 151027" d="M25.945,81.522H82.494l1.543-5.159H25.945Z" transform="translate(38.317 112.778)" fill="#1893d1"/>
        <path id="Trazado_151028" data-name="Trazado 151028" d="M25.945,78.886H84.037l1.263-4.23H25.945Z" transform="translate(38.317 110.256)" fill="#ea5f21"/>
        <path id="Trazado_151029" data-name="Trazado 151029" d="M63.155,74.655H.75l2.868,4.23H63.155Z" transform="translate(1.108 110.256)" fill="#f9773d"/>
        <path id="Trazado_151030" data-name="Trazado 151030" d="M59.361,78.446H3.319l2.777,4.1H59.361Z" transform="translate(4.902 115.854)" fill="#f9773d"/>
        <path id="Trazado_151031" data-name="Trazado 151031" d="M25.945,82.543H81.266l1.229-4.1H25.945Z" transform="translate(38.317 115.855)" fill="#ea5f21"/>
        <path id="Trazado_151032" data-name="Trazado 151032" d="M31.261,69.069a2.618,2.618,0,0,0,2.616-2.616,2.491,2.491,0,0,0-.322-1.164,2.666,2.666,0,0,0-.253-.451,2.5,2.5,0,0,0-.384-.391,2.593,2.593,0,0,0-1.657-.607,3.222,3.222,0,0,0-1.461.446,2.614,2.614,0,0,0,1.461,4.783" transform="translate(42.305 94.283)" fill="#1893d1"/>
        <path id="Trazado_151033" data-name="Trazado 151033" d="M32.418,65.368a2.576,2.576,0,0,0-.253,1.085,2.616,2.616,0,0,0,4.379,1.932,2.722,2.722,0,0,0,.411-.481,2.6,2.6,0,0,0,.441-1.451,2.493,2.493,0,0,0-.324-1.172,2.765,2.765,0,0,0-.25-.443,2.733,2.733,0,0,0-.384-.391,2.485,2.485,0,0,0-2.72-.354,2.822,2.822,0,0,0-.4.193,2.621,2.621,0,0,0-.406.352,2.594,2.594,0,0,0-.429.565l0,0c-.027.052-.04.109-.064.161" transform="translate(47.504 94.283)" fill="#1893d1"/>
        <path id="Trazado_151034" data-name="Trazado 151034" d="M38.3,69.069a2.618,2.618,0,0,0,2.616-2.616,2.529,2.529,0,0,0-.369-1.253,3.035,3.035,0,0,0-.206-.362A2.643,2.643,0,0,0,40,64.491c-.017-.012-.027-.03-.045-.045A2.588,2.588,0,0,0,38.3,63.84a2.554,2.554,0,0,0-.934.191A2.412,2.412,0,0,0,36,65.207a2.586,2.586,0,0,0-.317,1.246A2.616,2.616,0,0,0,38.3,69.069" transform="translate(52.701 94.283)" fill="#1893d1"/>
        <path id="Trazado_151035" data-name="Trazado 151035" d="M39.875,68.189a2.6,2.6,0,0,0,4.114-.28l0,0a2.523,2.523,0,0,0,.324-.679l.007-.04a2.637,2.637,0,0,0,.109-.733,2.5,2.5,0,0,0-.26-1.058,2.641,2.641,0,0,0-.315-.56c-.037-.047-.087-.087-.129-.131a3.088,3.088,0,0,0-.253-.258A2.724,2.724,0,0,0,42.714,64a2.5,2.5,0,0,0-.9-.163,2.549,2.549,0,0,0-1.07.258,2.843,2.843,0,0,0-.391.188,2.576,2.576,0,0,0-.473.411c-.03.032-.05.074-.077.106a2.572,2.572,0,0,0,.069,3.386" transform="translate(57.899 94.283)" fill="#1893d1"/>
        <path id="Trazado_151036" data-name="Trazado 151036" d="M31.77,69.677h0a2.625,2.625,0,0,0-.7-.332,2.6,2.6,0,0,0-2.757,4.176,2.715,2.715,0,0,0,.364.352c.015.01.025.025.037.035a2.569,2.569,0,0,0,1.59.552h0a2.563,2.563,0,0,0,.706-.109,2.6,2.6,0,0,0,1.248-.788,2.476,2.476,0,0,0,.163-.2c.022-.032.047-.062.067-.094.035-.052.059-.111.092-.166a2.789,2.789,0,0,0,.178-.391c.027-.079.052-.159.074-.24.015-.059.027-.116.04-.178a2.494,2.494,0,0,0,.037-.389.6.6,0,0,0,.007-.062,2.613,2.613,0,0,0-1.152-2.167" transform="translate(40.899 102.242)" fill="#1893d1"/>
        <path id="Trazado_151037" data-name="Trazado 151037" d="M36.442,71.845a2.6,2.6,0,0,0-.315-1.246,2.64,2.64,0,0,0-.448-.585,2.531,2.531,0,0,0-.389-.337,2.632,2.632,0,0,0-.545-.263,2.576,2.576,0,0,0-.919-.186,2.6,2.6,0,0,0-1.991,4.292,2.709,2.709,0,0,0,.874.684,2.551,2.551,0,0,0,1.117.255,2.616,2.616,0,0,0,2.616-2.616" transform="translate(46.095 102.242)" fill="#1893d1"/>
        <path id="Trazado_151038" data-name="Trazado 151038" d="M38.919,69.771c-.042-.03-.072-.067-.111-.094-.057-.04-.126-.057-.186-.092a2.578,2.578,0,0,0-1.278-.357,2.614,2.614,0,0,0-2.613,2.616,2.579,2.579,0,0,0,.624,1.677,2.7,2.7,0,0,0,.27.263,2.574,2.574,0,0,0,1.719.676,2.528,2.528,0,0,0,.481-.05,1.349,1.349,0,0,0,.136-.032,2.343,2.343,0,0,0,.381-.119.779.779,0,0,0,.079-.037,2.5,2.5,0,0,0,.3-.163c.072-.045.136-.094.2-.144l.047-.037a2.766,2.766,0,0,0,.317-.3,2.385,2.385,0,0,0,.188-.23l.035-.042a2.3,2.3,0,0,0,.208-.384,1.316,1.316,0,0,0,.057-.136,2.438,2.438,0,0,0,.126-.4l0-.037a2.408,2.408,0,0,0,.05-.485l0-.02a2.6,2.6,0,0,0-1.04-2.073" transform="translate(51.293 102.242)" fill="#1893d1"/>
        <path id="Trazado_151039" data-name="Trazado 151039" d="M43.481,71.845a2.617,2.617,0,0,0-.31-1.233,2.652,2.652,0,0,0-.842-.934,2.607,2.607,0,0,0-3.455,3.844,2.692,2.692,0,0,0,.4.386,2.558,2.558,0,0,0,.9.448,2.5,2.5,0,0,0,.686.1,2.616,2.616,0,0,0,2.616-2.616" transform="translate(56.49 102.242)" fill="#1893d1"/>
        <path id="Trazado_151040" data-name="Trazado 151040" d="M46.684,70.6a2.586,2.586,0,0,0-.6-.718,2.329,2.329,0,0,0-.235-.206,2.651,2.651,0,0,0-.3-.146,2.575,2.575,0,0,0-1.159-.3,2.614,2.614,0,0,0-2.613,2.616,2.569,2.569,0,0,0,.624,1.677,2.475,2.475,0,0,0,.337.327,2.555,2.555,0,0,0,1.652.612,2.62,2.62,0,0,0,2.534-3.269,2.706,2.706,0,0,0-.233-.59" transform="translate(61.689 102.242)" fill="#1893d1"/>
        <rect id="Rectángulo_38845" data-name="Rectángulo 38845" width="9.702" height="1.595" transform="translate(89.891 140.892)" fill="#c1daec"/>
        <rect id="Rectángulo_38846" data-name="Rectángulo 38846" width="9.702" height="1.605" transform="translate(89.891 137.545)" fill="#c1daec"/>
        <path id="Trazado_151041" data-name="Trazado 151041" d="M45.994,55.171a1.341,1.341,0,0,0-1.34-1.34H37.63a1.339,1.339,0,0,0-1.338,1.34V56.3h9.7Z" transform="translate(53.599 79.501)" fill="#e6e6e6"/>
        <rect id="Rectángulo_38847" data-name="Rectángulo 38847" width="9.704" height="9.994" transform="translate(89.891 144.231)" fill="#e6e6e6"/>
        <rect id="Rectángulo_38848" data-name="Rectángulo 38848" width="9.702" height="1.744" transform="translate(89.891 135.802)" fill="#ea5f21"/>
        <rect id="Rectángulo_38849" data-name="Rectángulo 38849" width="9.702" height="1.744" transform="translate(89.891 139.148)" fill="#ea5f21"/>
        <rect id="Rectángulo_38850" data-name="Rectángulo 38850" width="9.702" height="1.744" transform="translate(89.891 142.487)" fill="#ea5f21"/>
        <path id="Trazado_151042" data-name="Trazado 151042" d="M60.854,62.266H31.122a4.519,4.519,0,0,0-3.579,1.756H64.416a4.488,4.488,0,0,0-3.562-1.756" transform="translate(40.677 91.959)" fill="#ea5f21"/>
        <path id="Trazado_151043" data-name="Trazado 151043" d="M72.862,59.136s-7.6,2.625-16.043-2.7c1.214-10.886,1.746-15.208,1.746-15.208s10.086.1,16.139,1.853a54.925,54.925,0,0,1-1.843,16.053" transform="translate(83.914 60.893)" fill="#333"/>
        <path id="Trazado_151044" data-name="Trazado 151044" d="M62.187,49.573c-.51,4.434.793,8.223,2.91,8.466s4.243-3.153,4.751-7.587-.8-8.223-2.91-8.466-4.243,3.153-4.751,7.587" transform="translate(91.679 61.99)" fill="#f7dc54"/>
        <path id="Trazado_151045" data-name="Trazado 151045" d="M49.926,1.534l.646,3.039L73.407,32.294c.76-.637,1.518-1.278,2.284-1.9Z" transform="translate(73.734 2.266)" fill="#ea5f21"/>
        <path id="Trazado_151046" data-name="Trazado 151046" d="M95.055,19.381,62.674,1.344A6.055,6.055,0,0,0,57.493.718L49.926,3.207,75.69,32.067c6.252-5.095,12.667-9.642,19.364-12.687" transform="translate(73.734 0.592)" fill="#4db5ea"/>
        <path id="Trazado_151047" data-name="Trazado 151047" d="M77.463,46.651a15.15,15.15,0,0,1-12.27-2.063c.929-8.325,1.335-11.631,1.335-11.631s7.715.077,12.345,1.417a41.979,41.979,0,0,1-1.409,12.278" transform="translate(96.282 48.672)" fill="#333"/>
        <path id="Trazado_151048" data-name="Trazado 151048" d="M69.3,39.337c-.389,3.391.607,6.291,2.224,6.475s3.245-2.41,3.636-5.8-.607-6.289-2.227-6.475-3.245,2.412-3.634,5.8" transform="translate(102.222 49.511)" fill="#f7dc54"/>
        <path id="Trazado_151049" data-name="Trazado 151049" d="M81.335,10.414C74.635,13.458,68.23,18,61.974,23.1c-.763.624-1.516,1.266-2.279,1.9-.131.111-.295.245-.483.394,9.484.359,28.655-2.209,49.815-17.189C99.142,5.044,90,6.47,81.335,10.414" transform="translate(87.448 9.562)" fill="#f9773d"/>
        <path id="Trazado_151050" data-name="Trazado 151050" d="M187.737,14.552,177.424,13.37a11.792,11.792,0,0,1-5.241-1.977c-.119-.079-.235-.154-.364-.233-.329-.211-.691-.443-1.1-.7-1.159-.733-2.67-1.6-4.565-2.611-.656-.248-1.31-.473-1.957-.681-21.16,14.98-40.333,17.551-49.815,17.189C108.9,28.749,79.954,49.785,64.937,53.481c-8.88-.243-23.213-11.21-33.215-19.334l-9.863,1.246c.892,1.186,1.833,2.4,2.836,3.634l.032.04c.374.461.758.926,1.149,1.39l.141.168q.539.643,1.1,1.285c.072.084.149.168.223.253q.524.6,1.065,1.2c.1.116.213.233.32.352.337.369.676.741,1.023,1.11l.4.421c.329.347.659.694,1,1.04l.483.488c.32.322.634.642.961.961.186.183.379.367.567.55.307.3.614.594.929.892.213.2.431.4.646.594.3.275.592.547.894.82.245.218.493.433.741.649.282.25.567.5.855.746.263.223.53.441.8.661.285.238.567.473.855.708s.562.443.847.666.56.443.845.661c.3.23.612.453.919.681.272.2.545.406.822.6.322.23.651.453.978.681.27.186.537.376.81.56.339.225.686.446,1.03.666.27.173.535.352.807.523.352.218.708.429,1.065.639.272.163.542.332.82.49.367.211.741.411,1.11.614.272.151.542.3.82.451.376.2.763.389,1.147.58.277.139.55.282.83.419.386.186.78.359,1.172.535.282.129.565.263.85.386.4.173.81.334,1.216.5.282.116.565.238.85.347.414.159.837.3,1.256.451.285.1.567.211.855.307.441.146.889.277,1.338.414.272.082.54.173.815.25.473.134.954.25,1.432.372.255.064.508.139.768.2q1.107.26,2.237.466A48.407,48.407,0,0,0,91.092,63c16.724-6.475,33.153-11.78,48.029-16.949q4.5-1.56,8.8-3.116c.748-.272,1.479-.545,2.219-.82.666-.245,1.34-.488,2-.736A205.575,205.575,0,0,0,174.754,31.6l.02-.01c.973-.508,1.915-1.025,2.843-1.546.136-.074.28-.149.414-.223.8-.453,1.568-.916,2.333-1.38.248-.149.51-.295.753-.446.632-.391,1.231-.793,1.84-1.191.354-.233.723-.461,1.07-.7.483-.329.936-.671,1.4-1.006.441-.317.894-.627,1.32-.949.367-.277.7-.565,1.058-.85.493-.391,1-.778,1.466-1.179.275-.235.523-.478.79-.716.52-.461,1.043-.921,1.533-1.392.2-.2.384-.406.582-.607.528-.533,1.06-1.065,1.548-1.612a9.375,9.375,0,0,0-5.989-3.25" transform="translate(32.283 10.594)" fill="#ea5f21"/>
        <path id="Trazado_151051" data-name="Trazado 151051" d="M25.371,24.206l9.863-1.246c-3.718-3.022-6.841-5.652-8.857-7.19a4.827,4.827,0,0,0-4.426-.8l-2.469.755c.069.109.146.223.218.334l.007.007c1.516,2.353,3.416,5.147,5.665,8.139" transform="translate(28.771 21.779)" fill="#f9773d"/>
        <path id="Trazado_151052" data-name="Trazado 151052" d="M200.4,14.456l-1.172-2.71a.443.443,0,0,0-.778-.136c-.461.515-.964,1.013-1.461,1.513-.2.2-.379.406-.582.6-.49.473-1.013.931-1.531,1.394-.267.235-.518.481-.793.713-.468.4-.971.788-1.466,1.181-.354.282-.691.57-1.058.847-.426.322-.879.634-1.32.951-.466.334-.919.676-1.4,1-.347.238-.716.463-1.07.7-.609.4-1.209.8-1.84,1.191-.243.151-.505.295-.753.446-.765.463-1.533.924-2.333,1.38-.134.074-.277.146-.411.223-.931.52-1.873,1.035-2.846,1.543l-.02.01a204.884,204.884,0,0,1-22.619,9.781c-.659.245-1.333.49-2,.736-.738.272-1.469.547-2.219.817q-4.295,1.56-8.8,3.118c-14.876,5.167-31.3,10.475-48.026,16.949A48.44,48.44,0,0,1,69.31,59.522q-1.129-.208-2.237-.468c-.26-.059-.513-.131-.768-.2-.478-.119-.959-.235-1.432-.369-.275-.079-.542-.171-.815-.253-.448-.134-.9-.268-1.338-.414-.287-.1-.567-.2-.855-.3-.419-.149-.842-.292-1.256-.451-.285-.111-.567-.233-.85-.347-.406-.163-.815-.322-1.216-.5-.285-.124-.567-.26-.85-.389-.391-.176-.785-.349-1.169-.533-.282-.136-.555-.28-.832-.419-.384-.191-.768-.381-1.147-.58-.277-.146-.547-.3-.82-.453-.369-.2-.743-.4-1.11-.612-.275-.161-.547-.329-.82-.493-.357-.213-.713-.419-1.065-.639-.272-.171-.537-.347-.807-.52-.344-.223-.691-.441-1.03-.669-.272-.183-.54-.372-.81-.56-.327-.225-.656-.451-.978-.679-.277-.2-.547-.4-.822-.607-.307-.228-.617-.451-.919-.681-.285-.218-.562-.441-.845-.661s-.57-.441-.847-.666-.57-.471-.855-.706c-.265-.22-.533-.438-.793-.661-.29-.248-.572-.5-.857-.748-.248-.215-.5-.429-.741-.649-.3-.27-.6-.545-.894-.817-.215-.2-.433-.4-.646-.6-.315-.3-.622-.594-.929-.892-.188-.183-.381-.364-.567-.547-.324-.32-.642-.642-.961-.964-.161-.163-.324-.324-.483-.488-.337-.344-.666-.691-.993-1.038l-.4-.421c-.347-.372-.684-.741-1.023-1.112-.107-.116-.215-.235-.32-.352q-.542-.6-1.065-1.2c-.074-.084-.151-.168-.223-.253-.374-.428-.738-.857-1.1-1.283l-.144-.171c-.391-.463-.773-.926-1.149-1.39l-.032-.04Q28,30.882,26.661,29.1L18.6,30.119c6.7,8.756,19.6,24.9,31.865,36.14,5.154,4.716,10.195,8.565,14.611,10.623,8.176,3.814,19.362,5.949,36.093,1.263.716-.2,1.442-.4,2.185-.634,6.948-2.128,15.181-4.959,25.185-8.52C194.91,48.9,198.932,29.839,201.2,19.258a8.026,8.026,0,0,0-.807-4.8" transform="translate(27.476 16.884)" fill="#1893d1"/>
        <path id="Trazado_151053" data-name="Trazado 151053" d="M23.873,15.423a.515.515,0,0,0-.6-.22l-6.108,1.843a.873.873,0,0,0-.342,1.32s1.744,2.417,4.657,6.222l8.057-1.018c-2.256-3-4.151-5.791-5.667-8.146" transform="translate(24.597 22.417)" fill="#4db5ea"/>
        <path id="Trazado_151054" data-name="Trazado 151054" d="M108.608,12.381a1.918,1.918,0,0,1-.431,1.011c-7.614,10.844-17.244,12.578-23.406,12.55a16.284,16.284,0,0,1-9.91-4.362,1.945,1.945,0,0,1-.622-1.7,1.469,1.469,0,0,1,1.177-1.271C84.441,17.637,90.49,14.238,93.4,8.5c.411.253.775.483,1.1.7.129.077.245.154.362.233a11.827,11.827,0,0,0,5.244,1.974Z" transform="translate(109.599 12.556)" fill="#333"/>
        <path id="Trazado_151055" data-name="Trazado 151055" d="M126.371,21.2,66.312,88.08c-3.252,3.629-7.619,5.266-11.787,4.441l-7.032-1.39,2.086,3.089,6.291.852a12.781,12.781,0,0,0,11.1-4.463l60.857-66.566Z" transform="translate(70.141 31.31)" fill="#ea5f21"/>
        <path id="Trazado_151056" data-name="Trazado 151056" d="M126.371,21.2,84.886,33.634l-37.393,57.5,8.255,1.632a10.277,10.277,0,0,0,9.61-3.616Z" transform="translate(70.141 31.31)" fill="#4db5ea"/>
        <path id="Trazado_151057" data-name="Trazado 151057" d="M74.716,19.748c6.695,4.149,15.708,4.681,24.855-1.642L93.753,8.783c-2.281,4.56-7.272,9.692-19.037,10.965" transform="translate(110.346 12.971)" fill="#dde5ed"/>
        <path id="Trazado_151058" data-name="Trazado 151058" d="M95.268,11.825l-7.26-.832a11.8,11.8,0,0,1-5.244-1.977c-.116-.077-.235-.154-.362-.233l5.816,9.323a40.4,40.4,0,0,0,7.049-6.281" transform="translate(121.698 12.971)" fill="#e4f4ff"/>
        <path id="Trazado_151059" data-name="Trazado 151059" d="M82.173,46C65.439,50.69,54.256,48.552,46.08,44.738c-4.416-2.056-9.457-5.9-14.611-10.623,10.42-2.611,38.079.057,50.7,11.889" transform="translate(46.476 49.029)" fill="#333"/>
        <path id="Trazado_151060" data-name="Trazado 151060" d="M51.439,29.322,51.3,28.009c-.191-2.048-1.7-3.44-3.349-3.1L47.7,25c-1.65.347-2.846,2.306-2.655,4.352l.168,1.578.151,1.4c.191,2.048,1.7,3.44,3.349,3.094l.243-.089c1.655-.344,2.848-2.3,2.658-4.352Z" transform="translate(66.502 36.716)" fill="#333"/>
        <path id="Trazado_151061" data-name="Trazado 151061" d="M56.409,27.319l-.129-.978c-.23-2.036-1.764-3.381-3.411-2.987l-.488.176c-1.645.394-2.8,2.385-2.571,4.421l.24,1.811.206,1.558c.228,2.036,1.764,3.381,3.408,2.987l.488-.176c1.645-.4,2.8-2.385,2.573-4.421Z" transform="translate(73.52 34.389)" fill="#333"/>
        <path id="Trazado_151062" data-name="Trazado 151062" d="M61.66,24.854l-.1-.681c-.267-2.026-1.83-3.324-3.468-2.881l-.731.268c-1.64.441-2.762,2.462-2.492,4.488l.265,1.744.307,2.016c.27,2.024,1.83,3.321,3.468,2.881l.733-.268c1.637-.441,2.759-2.462,2.489-4.488Z" transform="translate(80.971 31.317)" fill="#333"/>
        <path id="Trazado_151063" data-name="Trazado 151063" d="M66.9,22.6l-.183-1.082c-.307-2.019-1.895-3.265-3.527-2.777l-.976.357c-1.632.49-2.715,2.539-2.408,4.557l.381,2.256.317,1.895c.307,2.014,1.9,3.262,3.527,2.769l.976-.349c1.632-.493,2.717-2.544,2.408-4.557Z" transform="translate(88.253 27.519)" fill="#333"/>
        <path id="Trazado_151064" data-name="Trazado 151064" d="M71.653,21l-.426-2.346c-.347-2-1.962-3.205-3.587-2.665l-1.221.441c-1.627.537-2.673,2.621-2.326,4.627l.644,3.532.183,1.008c.347,2.006,1.959,3.208,3.587,2.668l1.221-.443c1.625-.537,2.67-2.618,2.323-4.624Z" transform="translate(94.56 23.429)" fill="#333"/>
        <path id="Trazado_151065" data-name="Trazado 151065" d="M53.292,28.681c-.223-2.388-1.719-4.211-3.643-4.431a3.469,3.469,0,0,0-1.095.052,1.462,1.462,0,0,0-.149.042l-.176.064c-2.3.537-3.946,3.269-3.676,6.167l.317,2.95c.22,2.388,1.719,4.208,3.641,4.431a3.489,3.489,0,0,0,1.1-.054,1.034,1.034,0,0,0,.144-.04l.181-.064c2.3-.537,3.943-3.269,3.676-6.167Z" transform="translate(65.757 35.782)" fill="#333"/>
        <path id="Trazado_151066" data-name="Trazado 151066" d="M58.268,26.975c-.263-2.316-1.754-4.084-3.629-4.3a3.57,3.57,0,0,0-1.313.111l-.372.144a4.568,4.568,0,0,0-2.816,2.254,6.575,6.575,0,0,0-.82,4.035l.441,3.336c.263,2.318,1.754,4.084,3.629,4.3a3.467,3.467,0,0,0,1.313-.111l.372-.141c2.333-.557,3.965-3.369,3.636-6.294Z" transform="translate(72.774 33.456)" fill="#333"/>
        <path id="Trazado_151067" data-name="Trazado 151067" d="M63.54,24.772c-.3-2.286-1.754-3.965-3.611-4.178a3.52,3.52,0,0,0-1.385.129l-.644.238A4.644,4.644,0,0,0,55.123,23.3a6.588,6.588,0,0,0-.743,4.052l.567,3.725c.3,2.286,1.756,3.965,3.614,4.176a3.507,3.507,0,0,0,1.382-.126l.646-.238a4.65,4.65,0,0,0,2.774-2.336,6.581,6.581,0,0,0,.743-4.055Z" transform="translate(80.225 30.383)" fill="#333"/>
        <path id="Trazado_151068" data-name="Trazado 151068" d="M68.7,22.078c-.339-2.219-1.783-3.847-3.6-4.055a3.522,3.522,0,0,0-1.454.146l-.919.337A4.722,4.722,0,0,0,60,20.919a6.6,6.6,0,0,0-.669,4.065l.7,4.122c.339,2.217,1.783,3.847,3.6,4.055v0a3.529,3.529,0,0,0,1.454-.149l.919-.337a4.714,4.714,0,0,0,2.734-2.412,6.6,6.6,0,0,0,.666-4.065Z" transform="translate(87.506 26.585)" fill="#333"/>
        <path id="Trazado_151069" data-name="Trazado 151069" d="M73.2,19.186a4.446,4.446,0,0,0-3.579-3.933,3.554,3.554,0,0,0-1.526.168l-1.189.433a4.789,4.789,0,0,0-2.692,2.494,6.585,6.585,0,0,0-.6,4.067l.825,4.525a4.446,4.446,0,0,0,3.579,3.936,3.5,3.5,0,0,0,1.523-.171l1.194-.431c2.306-.765,3.78-3.7,3.287-6.561Z" transform="translate(93.812 22.495)" fill="#333"/>
        <path id="Trazado_151070" data-name="Trazado 151070" d="M79.153,22.91l-1.32-6.831a4.434,4.434,0,0,0-3.562-3.814,3.5,3.5,0,0,0-1.6.193l-1.464.533c-2.3.832-3.72,3.812-3.173,6.638l1.32,6.831a4.442,4.442,0,0,0,3.562,3.817,3.464,3.464,0,0,0,1.6-.2l1.464-.53a4.872,4.872,0,0,0,2.653-2.573,6.593,6.593,0,0,0,.52-4.067" transform="translate(100.312 18.08)" fill="#333"/>
        <path id="Trazado_151071" data-name="Trazado 151071" d="M77.186,22.418l-.612-3.148-.713-3.683c-.384-1.994-2.026-3.146-3.643-2.559l-1.464.53a4.179,4.179,0,0,0-2.244,4.694l.941,4.877.379,1.954c.386,1.994,2.029,3.148,3.646,2.559l1.464-.53a4.181,4.181,0,0,0,2.247-4.694" transform="translate(101.059 19.015)" fill="#333"/>
        <path id="Trazado_151072" data-name="Trazado 151072" d="M48.235,24.628l-.245.089c-1.65.344-2.846,2.3-2.653,4.352l.168,1.578c1.565-.312,3.6-.81,6.219-1.61l-.139-1.313c-.193-2.051-1.7-3.443-3.351-3.1" transform="translate(66.927 36.293)" fill="#e4f4ff"/>
        <path id="Trazado_151073" data-name="Trazado 151073" d="M45.543,29.384c.191,2.048,1.7,3.44,3.349,3.094l.245-.089c1.652-.344,2.846-2.3,2.655-4.349l-.178-1.664c-2.623.8-4.654,1.3-6.222,1.612Z" transform="translate(67.038 38.952)" fill="#dde5ed"/>
        <path id="Trazado_151074" data-name="Trazado 151074" d="M50.382,28.627c.23,2.036,1.764,3.381,3.408,2.987l.488-.178c1.645-.391,2.8-2.383,2.573-4.419l-.317-2.39c-2.338.946-4.453,1.756-6.358,2.445Z" transform="translate(74.103 36.371)" fill="#dde5ed"/>
        <path id="Trazado_151075" data-name="Trazado 151075" d="M53.158,23.066l-.488.178c-1.645.394-2.8,2.385-2.573,4.419l.24,1.813q2.853-1.029,6.358-2.442l-.129-.981c-.23-2.036-1.764-3.378-3.408-2.987" transform="translate(73.943 33.966)" fill="#e4f4ff"/>
        <path id="Trazado_151076" data-name="Trazado 151076" d="M58.375,21.006l-.733.265c-1.637.443-2.759,2.464-2.489,4.488l.265,1.746q3.054-1.33,6.529-2.938l-.1-.681c-.268-2.026-1.828-3.324-3.468-2.881" transform="translate(81.394 30.895)" fill="#e4f4ff"/>
        <path id="Trazado_151077" data-name="Trazado 151077" d="M55.543,27.343c.268,2.026,1.83,3.321,3.468,2.881l.733-.265c1.637-.443,2.759-2.464,2.489-4.491l-.468-3.076Q58.287,24,55.236,25.327Z" transform="translate(81.576 33.07)" fill="#dde5ed"/>
        <path id="Trazado_151078" data-name="Trazado 151078" d="M63.481,18.454l-.978.354c-1.63.49-2.715,2.541-2.408,4.557l.381,2.259c2.123-1.025,4.377-2.14,6.715-3.312l-.183-1.085c-.307-2.016-1.895-3.265-3.527-2.774" transform="translate(88.676 27.096)" fill="#e4f4ff"/>
        <path id="Trazado_151079" data-name="Trazado 151079" d="M60.538,25.152c.307,2.016,1.895,3.265,3.527,2.774l.976-.354c1.632-.49,2.717-2.541,2.408-4.557l-.515-3.066c-2.338,1.174-4.592,2.286-6.715,3.312Z" transform="translate(88.934 29.461)" fill="#dde5ed"/>
        <path id="Trazado_151080" data-name="Trazado 151080" d="M64.783,22.25c.347,2.006,1.962,3.205,3.586,2.668l1.221-.443c1.627-.537,2.673-2.621,2.326-4.624l-.4-2.2c-2.408,1.268-4.694,2.452-6.915,3.587Z" transform="translate(95.406 26.071)" fill="#dde5ed"/>
        <path id="Trazado_151081" data-name="Trazado 151081" d="M67.927,15.706l-1.221.441a4.136,4.136,0,0,0-2.326,4.627l.644,3.532c2.222-1.134,4.508-2.318,6.915-3.589l-.426-2.343c-.347-2.006-1.962-3.208-3.587-2.668" transform="translate(94.984 23.005)" fill="#e4f4ff"/>
        <path id="Trazado_151082" data-name="Trazado 151082" d="M76.25,15.17q-3.689,2.021-7.121,3.861l.376,1.952c.386,2,2.026,3.148,3.646,2.561l1.464-.53a4.178,4.178,0,0,0,2.244-4.7Z" transform="translate(102.094 22.404)" fill="#dde5ed"/>
        <path id="Trazado_151083" data-name="Trazado 151083" d="M76.15,15.3c-.386-2-2.026-3.148-3.646-2.561l-1.464.533A4.179,4.179,0,0,0,68.8,17.968l.944,4.877q3.44-1.843,7.121-3.861Z" transform="translate(101.483 18.591)" fill="#e4f4ff"/>
        <path id="Trazado_151084" data-name="Trazado 151084" d="M62.654,34.166l.867,2.415-20.783,21.9A5.983,5.983,0,0,1,37.8,60.515a7.986,7.986,0,0,1-2.514-.7L31.728,58.63l-.949-1.991Z" transform="translate(45.457 50.459)" fill="#ea5f21"/>
        <path id="Trazado_151085" data-name="Trazado 151085" d="M62.654,34.423,42.2,56.992a5.764,5.764,0,0,1-4.533,2.066,8.447,8.447,0,0,1-2.185-.369l-4.7-1.793,17.011-22.9Z" transform="translate(45.457 50.202)" fill="#4db5ea"/>
        <path id="Trazado_151086" data-name="Trazado 151086" d="M164.379,27.6a58.445,58.445,0,0,1,7.6-4.107c-5.788-5.749-22.953-13.843-41.3-15.114-18.245-1.969-37.668,2.888-45.579,6.953.141.433,9.15-8.07,26.715-12.61a82.789,82.789,0,0,1,67.745,11.641c.49-3.009.874-6.071,1.134-9.189a86.856,86.856,0,0,1,14.938,39.3C186.116,34.824,174.94,29.3,164.379,27.6" transform="translate(125.673 0)" fill="#f7dc54"/>
      </g>
    </g>
  </g>
</svg>
