<svg xmlns="http://www.w3.org/2000/svg" xmlns:xlink="http://www.w3.org/1999/xlink" width="58" height="58" viewBox="0 0 58 58">
  <defs>
    <clipPath id="clip-path">
      <rect id="Rect치ngulo_38860" data-name="Rect치ngulo 38860" width="42.562" height="33.964" fill="#ff8578"/>
    </clipPath>
  </defs>
  <g id="Grupo_161314" data-name="Grupo 161314" transform="translate(0 -0.227)">
    <g id="Grupo_145429" data-name="Grupo 145429" transform="translate(7.177 12.057)">
      <g id="Grupo_145428" data-name="Grupo 145428" clip-path="url(#clip-path)">
        <path id="Trazado_151087" data-name="Trazado 151087" d="M42.022,28.463H.54a.541.541,0,0,1-.54-.54V25.07a.541.541,0,0,1,.54-.541H42.022a.541.541,0,0,1,.54.541v2.852a.541.541,0,0,1-.54.54M1.081,27.382h40.4V25.611H1.081Z" transform="translate(0 -1.712)" fill="#ff8578"/>
        <path id="Trazado_151088" data-name="Trazado 151088" d="M42.022,36.218H.54a.54.54,0,0,1-.54-.54V32.825a.54.54,0,0,1,.54-.54H42.022a.54.54,0,0,1,.54.54v2.852a.54.54,0,0,1-.54.54M1.081,35.137h40.4V33.366H1.081Z" transform="translate(0 -2.253)" fill="#ff8578"/>
        <path id="Trazado_151089" data-name="Trazado 151089" d="M8.4,33.039H1.694a.54.54,0,0,1-.54-.54V28.136a.54.54,0,0,1,.54-.54H8.4a.54.54,0,0,1,.54.54V32.5a.54.54,0,0,1-.54.54M2.234,31.958h5.63V28.677H2.234Z" transform="translate(-0.081 -1.926)" fill="#ff8578"/>
        <path id="Trazado_151090" data-name="Trazado 151090" d="M25.941,33.039H19.23a.54.54,0,0,1-.54-.54V28.136a.54.54,0,0,1,.54-.54h6.71a.54.54,0,0,1,.54.54V32.5a.54.54,0,0,1-.54.54m-6.17-1.081H25.4V28.677H19.771Z" transform="translate(-1.305 -1.926)" fill="#ff8578"/>
        <path id="Trazado_151091" data-name="Trazado 151091" d="M43.477,33.039h-6.71a.54.54,0,0,1-.54-.54V28.136a.54.54,0,0,1,.54-.54h6.71a.54.54,0,0,1,.54.54V32.5a.54.54,0,0,1-.54.54m-6.17-1.081h5.63V28.677h-5.63Z" transform="translate(-2.528 -1.926)" fill="#ff8578"/>
        <path id="Trazado_151092" data-name="Trazado 151092" d="M13.215,24.754H1.57a.541.541,0,0,1-.541-.54V12.805a.541.541,0,0,1,.541-.54H13.215a.54.54,0,0,1,.54.54V24.214a.54.54,0,0,1-.54.54M2.11,23.673H12.674V13.345H2.11Z" transform="translate(-0.072 -0.856)" fill="#ff8578"/>
        <path id="Trazado_151093" data-name="Trazado 151093" d="M7.73,19.054a.537.537,0,0,1-.365-.142L6.042,17.7a.542.542,0,0,1-.176-.4V12.8a.54.54,0,0,1,.54-.54H9.053a.54.54,0,0,1,.54.54v4.5a.542.542,0,0,1-.176.4L8.095,18.912a.538.538,0,0,1-.365.142m-.783-1.989.783.715.782-.715V13.345H6.947Z" transform="translate(-0.409 -0.856)" fill="#ff8578"/>
        <path id="Trazado_151094" data-name="Trazado 151094" d="M5.9,22.494H3.737a.54.54,0,0,1,0-1.081H5.9a.54.54,0,1,1,0,1.081" transform="translate(-0.223 -1.494)" fill="#ff8578"/>
        <path id="Trazado_151095" data-name="Trazado 151095" d="M20.553,12.49H8.908a.54.54,0,0,1-.54-.54V.54A.54.54,0,0,1,8.908,0H20.553a.54.54,0,0,1,.54.54V11.949a.54.54,0,0,1-.54.54m-11.1-1.081H20.013V1.081H9.449Z" transform="translate(-0.584 0)" fill="#ff8578"/>
        <path id="Trazado_151096" data-name="Trazado 151096" d="M15.068,6.79a.54.54,0,0,1-.365-.141L13.38,5.439a.542.542,0,0,1-.176-.4V.54a.54.54,0,0,1,.54-.54h2.646a.54.54,0,0,1,.54.54v4.5a.539.539,0,0,1-.176.4l-1.323,1.21a.542.542,0,0,1-.365.141M14.285,4.8l.783.716L15.85,4.8V1.081H14.285Z" transform="translate(-0.922 0)" fill="#ff8578"/>
        <path id="Trazado_151097" data-name="Trazado 151097" d="M13.244,10.23H11.076a.54.54,0,1,1,0-1.081h2.167a.54.54,0,0,1,0,1.081" transform="translate(-0.735 -0.638)" fill="#ff8578"/>
        <path id="Trazado_151098" data-name="Trazado 151098" d="M36.13,12.49H24.485a.54.54,0,0,1-.54-.54V.54a.54.54,0,0,1,.54-.54H36.13a.54.54,0,0,1,.54.54V11.949a.54.54,0,0,1-.54.54m-11.1-1.081H35.59V1.081H25.026Z" transform="translate(-1.671 0)" fill="#ff8578"/>
        <path id="Trazado_151099" data-name="Trazado 151099" d="M30.645,6.79a.538.538,0,0,1-.365-.142L28.958,5.439a.544.544,0,0,1-.176-.4V.54a.54.54,0,0,1,.54-.54h2.646a.54.54,0,0,1,.54.54v4.5a.542.542,0,0,1-.176.4L31.01,6.649a.54.54,0,0,1-.365.141M29.863,4.8l.782.715.783-.715V1.081H29.863Z" transform="translate(-2.009 0)" fill="#ff8578"/>
        <path id="Trazado_151100" data-name="Trazado 151100" d="M28.821,10.23H26.653a.54.54,0,1,1,0-1.081h2.167a.54.54,0,0,1,0,1.081" transform="translate(-1.823 -0.638)" fill="#ff8578"/>
        <path id="Trazado_151101" data-name="Trazado 151101" d="M28.223,24.754H16.578a.54.54,0,0,1-.54-.54V12.805a.54.54,0,0,1,.54-.54H28.223a.54.54,0,0,1,.54.54V24.214a.54.54,0,0,1-.54.54m-11.1-1.081H27.683V13.345H17.119Z" transform="translate(-1.119 -0.856)" fill="#ff8578"/>
        <path id="Trazado_151102" data-name="Trazado 151102" d="M22.738,19.054a.537.537,0,0,1-.365-.142L21.05,17.7a.542.542,0,0,1-.176-.4V12.8a.54.54,0,0,1,.54-.54h2.646a.54.54,0,0,1,.54.54v4.5a.542.542,0,0,1-.176.4L23.1,18.912a.538.538,0,0,1-.365.142m-.783-1.989.783.715.782-.715V13.345H21.955Z" transform="translate(-1.457 -0.856)" fill="#ff8578"/>
        <path id="Trazado_151103" data-name="Trazado 151103" d="M20.914,22.494H18.746a.54.54,0,0,1,0-1.081h2.167a.54.54,0,1,1,0,1.081" transform="translate(-1.271 -1.494)" fill="#ff8578"/>
        <path id="Trazado_151104" data-name="Trazado 151104" d="M43.231,24.754H31.585a.541.541,0,0,1-.54-.54V12.8a.541.541,0,0,1,.54-.54H43.231a.541.541,0,0,1,.54.54v3.851a.54.54,0,0,1-1.081,0V13.345H32.126V23.673H42.69V21.925a.54.54,0,0,1,1.081,0v2.288a.54.54,0,0,1-.54.54" transform="translate(-2.167 -0.856)" fill="#ff8578"/>
        <path id="Trazado_151105" data-name="Trazado 151105" d="M44.1,23.028a.54.54,0,0,1-.54-.54V20.866a.54.54,0,0,1,1.081,0v1.621a.54.54,0,0,1-.54.54" transform="translate(-3.041 -1.418)" fill="#ff8578"/>
        <path id="Trazado_151106" data-name="Trazado 151106" d="M44.1,19.106a.54.54,0,0,1-.54-.54V16.944a.54.54,0,1,1,1.081,0v1.621a.54.54,0,0,1-.54.54" transform="translate(-3.041 -1.145)" fill="#ff8578"/>
        <path id="Trazado_151107" data-name="Trazado 151107" d="M37.746,19.054a.537.537,0,0,1-.365-.142L36.058,17.7a.542.542,0,0,1-.176-.4V12.8a.54.54,0,0,1,.54-.54h2.646a.54.54,0,0,1,.54.54v4.5a.539.539,0,0,1-.176.4l-1.323,1.209a.538.538,0,0,1-.365.142m-.783-1.989.783.715.782-.715V13.345H36.963Z" transform="translate(-2.504 -0.856)" fill="#ff8578"/>
        <path id="Trazado_151108" data-name="Trazado 151108" d="M35.922,22.494H33.754a.54.54,0,0,1,0-1.081h2.168a.54.54,0,1,1,0,1.081" transform="translate(-2.318 -1.494)" fill="#ff8578"/>
      </g>
    </g>
    <rect id="Rect치ngulo_47807" data-name="Rect치ngulo 47807" width="58" height="58" transform="translate(0 0.227)" fill="none"/>
  </g>
</svg>
