<svg xmlns="http://www.w3.org/2000/svg" width="610" height="409" viewBox="0 0 610 409">
  <g id="Grupo_165385" data-name="Grupo 165385" transform="translate(-180 -3846)">
    <path id="Trazado_176374" data-name="Trazado 176374" d="M10,0H600a10,10,0,0,1,10,10V53H0V10A10,10,0,0,1,10,0Z" transform="translate(180 3846)" fill="#a4a3ff"/>
    <path id="Trazado_176375" data-name="Trazado 176375" d="M4.727,0H1.309V-14.219H4.727ZM9.98-10.566l.107,1.24a3.583,3.583,0,0,1,3.018-1.436,3.015,3.015,0,0,1,2.466.986,4.7,4.7,0,0,1,.845,2.969V0h-3.3V-6.67a1.783,1.783,0,0,0-.322-1.177,1.491,1.491,0,0,0-1.172-.376,1.569,1.569,0,0,0-1.436.762V0H6.895V-10.566Zm13.789,7.6a.76.76,0,0,0-.439-.674,6.685,6.685,0,0,0-1.67-.527,7.615,7.615,0,0,1-2.031-.718,3.4,3.4,0,0,1-1.221-1.079,2.577,2.577,0,0,1-.42-1.455,2.92,2.92,0,0,1,1.2-2.4,4.948,4.948,0,0,1,3.145-.942,5.482,5.482,0,0,1,3.359.947,2.962,2.962,0,0,1,1.27,2.49h-3.3q0-1.27-1.338-1.27a1.326,1.326,0,0,0-.869.288.892.892,0,0,0-.352.718.819.819,0,0,0,.43.713,4.06,4.06,0,0,0,1.372.449,11.857,11.857,0,0,1,1.655.42,3.007,3.007,0,0,1,2.383,2.939A2.767,2.767,0,0,1,25.659-.713,5.631,5.631,0,0,1,22.334.2a5.747,5.747,0,0,1-2.422-.488,4.05,4.05,0,0,1-1.66-1.328,3.007,3.007,0,0,1-.6-1.768h3.076a1.272,1.272,0,0,0,.488,1.069,2.009,2.009,0,0,0,1.2.337,1.58,1.58,0,0,0,1.011-.273A.875.875,0,0,0,23.77-2.969Zm8.545-10.225v2.627h1.738v2.285H32.314v4.834a1.234,1.234,0,0,0,.215.83,1.152,1.152,0,0,0,.85.234,4.828,4.828,0,0,0,.82-.059V-.088A6.074,6.074,0,0,1,32.344.2a3.448,3.448,0,0,1-2.51-.8,3.282,3.282,0,0,1-.811-2.432V-8.281H27.676v-2.285h1.348v-2.627Zm9.424,5.605-1.084-.078a1.947,1.947,0,0,0-1.992.977V0H35.371V-10.566h3.086l.107,1.357a2.548,2.548,0,0,1,2.314-1.553,3.209,3.209,0,0,1,.918.117Zm7.48,6.445A3.393,3.393,0,0,1,46.4.2,3.328,3.328,0,0,1,43.765-.815a4.251,4.251,0,0,1-.894-2.905v-6.846h3.291V-3.7A1.183,1.183,0,0,0,47.48-2.344a1.72,1.72,0,0,0,1.611-.811v-7.412H52.4V0H49.316Zm9.453-1.2a1.464,1.464,0,0,0,1.074-.376,1.379,1.379,0,0,0,.371-1.05H63.2A3.653,3.653,0,0,1,61.958-.918,4.631,4.631,0,0,1,58.75.2,4.689,4.689,0,0,1,55.117-1.25a5.7,5.7,0,0,1-1.328-4v-.137a6.436,6.436,0,0,1,.591-2.827,4.3,4.3,0,0,1,1.7-1.885,5.081,5.081,0,0,1,2.637-.659,4.573,4.573,0,0,1,3.271,1.143,4.053,4.053,0,0,1,1.211,3.1H60.117a1.807,1.807,0,0,0-.4-1.26,1.382,1.382,0,0,0-1.074-.439q-1.279,0-1.494,1.631a11.507,11.507,0,0,0-.068,1.426,4.52,4.52,0,0,0,.381,2.207A1.319,1.319,0,0,0,58.672-2.344Zm10.391,0a1.464,1.464,0,0,0,1.074-.376,1.379,1.379,0,0,0,.371-1.05h3.086A3.653,3.653,0,0,1,72.349-.918,4.631,4.631,0,0,1,69.141.2,4.689,4.689,0,0,1,65.508-1.25a5.7,5.7,0,0,1-1.328-4v-.137a6.436,6.436,0,0,1,.591-2.827,4.3,4.3,0,0,1,1.7-1.885,5.081,5.081,0,0,1,2.637-.659,4.573,4.573,0,0,1,3.271,1.143,4.053,4.053,0,0,1,1.211,3.1H70.508a1.806,1.806,0,0,0-.4-1.26,1.382,1.382,0,0,0-1.074-.439q-1.279,0-1.494,1.631a11.508,11.508,0,0,0-.068,1.426,4.52,4.52,0,0,0,.381,2.207A1.319,1.319,0,0,0,69.063-2.344ZM78.457,0h-3.3V-10.566h3.3Zm-3.5-13.291a1.469,1.469,0,0,1,.508-1.152,1.916,1.916,0,0,1,1.318-.449,1.916,1.916,0,0,1,1.318.449,1.469,1.469,0,0,1,.508,1.152,1.469,1.469,0,0,1-.508,1.152,1.916,1.916,0,0,1-1.318.449,1.916,1.916,0,0,1-1.318-.449A1.469,1.469,0,0,1,74.961-13.291Zm5.107,7.91A6.236,6.236,0,0,1,80.684-8.2a4.4,4.4,0,0,1,1.768-1.9,5.323,5.323,0,0,1,2.705-.664,4.858,4.858,0,0,1,3.74,1.47,5.64,5.64,0,0,1,1.367,4v.117a5.472,5.472,0,0,1-1.372,3.921A4.871,4.871,0,0,1,85.176.2a4.927,4.927,0,0,1-3.623-1.353,5.29,5.29,0,0,1-1.475-3.667Zm3.291.205a3.932,3.932,0,0,0,.459,2.148,1.529,1.529,0,0,0,1.357.684q1.758,0,1.8-2.705v-.332q0-2.842-1.816-2.842-1.65,0-1.787,2.451Zm11.377-5.391.107,1.24a3.583,3.583,0,0,1,3.018-1.436,3.015,3.015,0,0,1,2.466.986,4.7,4.7,0,0,1,.845,2.969V0h-3.3V-6.67a1.783,1.783,0,0,0-.322-1.177,1.491,1.491,0,0,0-1.172-.376,1.569,1.569,0,0,0-1.436.762V0H91.65V-10.566ZM108.105.2a5.432,5.432,0,0,1-3.936-1.45,5.008,5.008,0,0,1-1.5-3.774V-5.3a6.489,6.489,0,0,1,.6-2.861,4.395,4.395,0,0,1,1.753-1.919,5.292,5.292,0,0,1,2.734-.679A4.574,4.574,0,0,1,111.27-9.38a5.43,5.43,0,0,1,1.289,3.853v1.279h-6.543a2.372,2.372,0,0,0,.771,1.4,2.3,2.3,0,0,0,1.543.508,2.958,2.958,0,0,0,2.441-1.094l1.5,1.777a4.2,4.2,0,0,1-1.743,1.353A5.891,5.891,0,0,1,108.105.2Zm-.371-8.418q-1.445,0-1.719,1.914h3.32v-.254a1.63,1.63,0,0,0-.4-1.226A1.593,1.593,0,0,0,107.734-8.223Zm11.68,5.254a.76.76,0,0,0-.439-.674,6.685,6.685,0,0,0-1.67-.527,7.615,7.615,0,0,1-2.031-.718,3.4,3.4,0,0,1-1.221-1.079,2.577,2.577,0,0,1-.42-1.455,2.92,2.92,0,0,1,1.2-2.4,4.948,4.948,0,0,1,3.145-.942,5.482,5.482,0,0,1,3.359.947,2.962,2.962,0,0,1,1.27,2.49h-3.3q0-1.27-1.338-1.27a1.326,1.326,0,0,0-.869.288.892.892,0,0,0-.352.718.819.819,0,0,0,.43.713,4.06,4.06,0,0,0,1.372.449,11.857,11.857,0,0,1,1.655.42,3.007,3.007,0,0,1,2.383,2.939A2.767,2.767,0,0,1,121.3-.713,5.631,5.631,0,0,1,117.979.2a5.747,5.747,0,0,1-2.422-.488,4.05,4.05,0,0,1-1.66-1.328,3.007,3.007,0,0,1-.6-1.768h3.076a1.272,1.272,0,0,0,.488,1.069,2.009,2.009,0,0,0,1.2.337,1.58,1.58,0,0,0,1.011-.273A.875.875,0,0,0,119.414-2.969Zm19.5-2.227A6.44,6.44,0,0,1,137.842-1.2,3.6,3.6,0,0,1,134.814.2a3.122,3.122,0,0,1-2.6-1.279L132.08,0h-2.949V-15h3.291v5.283a3.013,3.013,0,0,1,2.373-1.045,3.6,3.6,0,0,1,3.047,1.416,6.473,6.473,0,0,1,1.074,3.984Zm-3.3-.21a4.3,4.3,0,0,0-.405-2.169,1.366,1.366,0,0,0-1.245-.648,1.576,1.576,0,0,0-1.543.848v4.192a1.585,1.585,0,0,0,1.563.838,1.4,1.4,0,0,0,1.475-1.131A8.121,8.121,0,0,0,135.615-5.405ZM146.318,0a3.716,3.716,0,0,1-.312-.947A3.06,3.06,0,0,1,143.467.2a3.749,3.749,0,0,1-2.539-.9,2.875,2.875,0,0,1-1.045-2.271,2.955,2.955,0,0,1,1.27-2.6,6.468,6.468,0,0,1,3.691-.879h1.016v-.559q0-1.462-1.26-1.462a1.03,1.03,0,0,0-1.172,1.158h-3.291a2.95,2.95,0,0,1,1.3-2.487,5.479,5.479,0,0,1,3.325-.956,4.8,4.8,0,0,1,3.193.986,3.429,3.429,0,0,1,1.2,2.705v4.678a4.79,4.79,0,0,0,.449,2.227V0Zm-2.061-2.148a1.836,1.836,0,0,0,1.021-.264,1.652,1.652,0,0,0,.581-.6V-4.7H144.9q-1.719,0-1.719,1.543a.942.942,0,0,0,.3.728A1.1,1.1,0,0,0,144.258-2.148ZM145.078-15h3.477l-2.715,3.066-2.686,0ZM156.514-2.969a.76.76,0,0,0-.439-.674,6.685,6.685,0,0,0-1.67-.527,7.615,7.615,0,0,1-2.031-.718,3.4,3.4,0,0,1-1.221-1.079,2.577,2.577,0,0,1-.42-1.455,2.92,2.92,0,0,1,1.2-2.4,4.948,4.948,0,0,1,3.145-.942,5.482,5.482,0,0,1,3.359.947,2.962,2.962,0,0,1,1.27,2.49h-3.3q0-1.27-1.338-1.27a1.326,1.326,0,0,0-.869.288.892.892,0,0,0-.352.718.819.819,0,0,0,.43.713,4.06,4.06,0,0,0,1.372.449,11.857,11.857,0,0,1,1.655.42,3.007,3.007,0,0,1,2.383,2.939A2.767,2.767,0,0,1,158.4-.713,5.632,5.632,0,0,1,155.078.2a5.747,5.747,0,0,1-2.422-.488A4.05,4.05,0,0,1,151-1.621a3.007,3.007,0,0,1-.6-1.768h3.076a1.272,1.272,0,0,0,.488,1.069,2.009,2.009,0,0,0,1.2.337,1.58,1.58,0,0,0,1.011-.273A.875.875,0,0,0,156.514-2.969ZM164.7,0h-3.3V-10.566h3.3Zm-3.5-13.291a1.469,1.469,0,0,1,.508-1.152,1.916,1.916,0,0,1,1.318-.449,1.916,1.916,0,0,1,1.318.449,1.469,1.469,0,0,1,.508,1.152,1.469,1.469,0,0,1-.508,1.152,1.916,1.916,0,0,1-1.318.449,1.916,1.916,0,0,1-1.318-.449A1.469,1.469,0,0,1,161.2-13.291Zm9.99,10.947a1.464,1.464,0,0,0,1.074-.376,1.379,1.379,0,0,0,.371-1.05h3.086a3.653,3.653,0,0,1-1.245,2.852A4.631,4.631,0,0,1,171.27.2a4.689,4.689,0,0,1-3.633-1.445,5.7,5.7,0,0,1-1.328-4v-.137a6.436,6.436,0,0,1,.591-2.827,4.3,4.3,0,0,1,1.7-1.885,5.081,5.081,0,0,1,2.637-.659,4.573,4.573,0,0,1,3.271,1.143,4.053,4.053,0,0,1,1.211,3.1h-3.086a1.807,1.807,0,0,0-.4-1.26,1.382,1.382,0,0,0-1.074-.439q-1.279,0-1.494,1.631a11.507,11.507,0,0,0-.068,1.426,4.52,4.52,0,0,0,.381,2.207A1.319,1.319,0,0,0,171.191-2.344ZM183.066,0a3.716,3.716,0,0,1-.312-.947A3.06,3.06,0,0,1,180.215.2a3.749,3.749,0,0,1-2.539-.9,2.875,2.875,0,0,1-1.045-2.271,2.955,2.955,0,0,1,1.27-2.6,6.468,6.468,0,0,1,3.691-.879h1.016v-.559q0-1.462-1.26-1.462a1.03,1.03,0,0,0-1.172,1.158h-3.291a2.95,2.95,0,0,1,1.3-2.487,5.479,5.479,0,0,1,3.325-.956,4.8,4.8,0,0,1,3.193.986,3.429,3.429,0,0,1,1.2,2.705v4.678a4.79,4.79,0,0,0,.449,2.227V0Zm-2.061-2.148a1.836,1.836,0,0,0,1.021-.264,1.652,1.652,0,0,0,.581-.6V-4.7h-.957q-1.719,0-1.719,1.543a.942.942,0,0,0,.3.728A1.1,1.1,0,0,0,181.006-2.148Zm12.256-.82a.76.76,0,0,0-.439-.674,6.685,6.685,0,0,0-1.67-.527,7.615,7.615,0,0,1-2.031-.718A3.4,3.4,0,0,1,187.9-5.967a2.577,2.577,0,0,1-.42-1.455,2.92,2.92,0,0,1,1.2-2.4,4.948,4.948,0,0,1,3.145-.942,5.482,5.482,0,0,1,3.359.947,2.962,2.962,0,0,1,1.27,2.49h-3.3q0-1.27-1.338-1.27a1.326,1.326,0,0,0-.869.288.892.892,0,0,0-.352.718.819.819,0,0,0,.43.713,4.06,4.06,0,0,0,1.372.449,11.857,11.857,0,0,1,1.655.42,3.007,3.007,0,0,1,2.383,2.939,2.767,2.767,0,0,1-1.284,2.354A5.632,5.632,0,0,1,191.826.2,5.747,5.747,0,0,1,189.4-.293a4.05,4.05,0,0,1-1.66-1.328,3.007,3.007,0,0,1-.6-1.768h3.076a1.272,1.272,0,0,0,.488,1.069,2.009,2.009,0,0,0,1.2.337,1.58,1.58,0,0,0,1.011-.273A.875.875,0,0,0,193.262-2.969Z" transform="translate(387 3881)" fill="#12263f"/>
    <path id="Trazado_176367" data-name="Trazado 176367" d="M0,0H610V356H0Z" transform="translate(180 3899)" fill="#f6f6f6"/>
    <g id="Grupo_161910" data-name="Grupo 161910" transform="translate(248.314 3943.622)">
      <rect id="Rectángulo_39047" data-name="Rectángulo 39047" width="3.692" height="33.896" transform="translate(10.339 28.754)" fill="#a4a3ff"/>
      <path id="Trazado_151425" data-name="Trazado 151425" d="M122.346,219.327H109.792a1.846,1.846,0,1,1,0-3.693h12.554a1.846,1.846,0,1,1,0,3.693" transform="translate(-104.141 -154.831)" fill="#a4a3ff"/>
      <path id="Trazado_151426" data-name="Trazado 151426" d="M118.948,41.642l-2.76,6.954,3.2-1.108-7.016,10.278,2.585-7.631-3.016.738,1.9-9.231H98.852a1.792,1.792,0,0,0-1.792,1.792V73.767a12.185,12.185,0,0,0,24.371,0V43.434a1.792,1.792,0,0,0-1.792-1.792Z" transform="translate(-97.06 -41.642)" fill="#a4a3ff"/>
    </g>
    <path id="Trazado_151432" data-name="Trazado 151432" d="M728.253,75.816a22.511,22.511,0,0,1-.281-10.276.831.831,0,0,0-.988-1A14.3,14.3,0,0,0,719,69.18a49.285,49.285,0,0,0-6.034-14.733c-.436-.74-.913-1.475-1.437-2.2-3.223-4.482-1.628-9,.1-11.839a.823.823,0,0,0-1.144-1.121c-13.251,8.268-11.093,23.076-11.093,23.076-.84-4.26-6.92-6.947-9.568-7.927a.674.674,0,0,0-.886.8c2.6,9.976-2.3,10.218-3.8,27.882-.921,10.809,3.921,16.285,11.164,18.6a.461.461,0,0,0,.415-.808,21.1,21.1,0,0,1-5.891-7.517.775.775,0,0,1,.894-1.086,16.2,16.2,0,0,0,3.744.419.388.388,0,0,0,.177-.734c-5.818-3.1-6.258-11.456-3.357-16.9,2.329-4.373,1.769-10.042,1.314-12.721a.415.415,0,0,1,.735-.324c7.765,9.743-1.344,18.94,1.955,21.981,3.434,3.167,9.405-2.02,6.756-8.545-1.925-4.74-1.4-9.953-.975-12.449a.379.379,0,0,1,.7-.125,13.668,13.668,0,0,0,2.419,2.851,13.884,13.884,0,0,1,.992-8.014.494.494,0,0,1,.908-.01c2.643,5.847,10.87,8.705,7.353,17.694-3.725,9.522,4.263,12.184,3.518,8.048-.512-2.84,1.021-5.737,2.031-7.274a.462.462,0,0,1,.845.221c.376,4.314,3.23,8.452,2.834,12.513-.692,6.459-3.618,10.1-6.435,12.132a.463.463,0,0,0,.4.821c11.668-3.7,12.824-17.184,10.621-26.069" transform="translate(-221.591 3901.138)" fill="#a4a3ff"/>
    <g id="Grupo_161911" data-name="Grupo 161911" transform="translate(569.312 3945.152)">
      <path id="Trazado_151438" data-name="Trazado 151438" d="M109.468,510.072h0l.277.363h.072c.055,0,.055-.207.052-.308-.674-10.144-10.524-18.193-22.576-18.193-12.028,0-21.861,8.016-22.571,18.131.017.293.41-.009.41-.009a4.329,4.329,0,0,1,3.316-1.3,4.268,4.268,0,0,1,3.371,1.372.5.5,0,0,0,.8,0,4.826,4.826,0,0,1,6.741,0,.5.5,0,0,0,.8,0,4.826,4.826,0,0,1,6.741,0,.5.5,0,0,0,.8,0,4.826,4.826,0,0,1,6.741,0,.5.5,0,0,0,.8,0,4.826,4.826,0,0,1,6.741,0,.5.5,0,0,0,.8,0,4.268,4.268,0,0,1,3.371-1.372,4.312,4.312,0,0,1,3.329,1.321" transform="translate(-64.723 -475.657)" fill="#a4a3ff"/>
      <path id="Trazado_151439" data-name="Trazado 151439" d="M117.374,530.64h-.031A3.376,3.376,0,0,1,114,527.268a1.819,1.819,0,0,1,3.076-1.315v-39.3a1.819,1.819,0,1,1,3.637,0v40.616a3.376,3.376,0,0,1-3.341,3.372" transform="translate(-96.781 -471.038)" fill="#a4a3ff"/>
      <path id="Trazado_151440" data-name="Trazado 151440" d="M104.83,454.606a3.775,3.775,0,0,1-5.338-5.338c1.474-1.474,9.246-3.908,9.246-3.908s-2.434,7.772-3.908,9.246" transform="translate(-86.622 -445.36)" fill="#a4a3ff"/>
      <path id="Trazado_151441" data-name="Trazado 151441" d="M160.408,443.938a3.774,3.774,0,0,1-5.338-5.338c1.474-1.474,9.246-3.908,9.246-3.908s-2.434,7.772-3.908,9.246" transform="translate(-122.182 -432.596)" fill="#a4a3ff"/>
      <path id="Trazado_151442" data-name="Trazado 151442" d="M193.2,479.023a3.775,3.775,0,0,1-5.338-5.338c1.474-1.474,9.246-3.908,9.246-3.908s-2.434,7.772-3.908,9.246" transform="translate(-142.727 -455.982)" fill="#a4a3ff"/>
    </g>
    <g id="Grupo_161912" data-name="Grupo 161912" transform="translate(693.191 3941)">
      <path id="Trazado_151443" data-name="Trazado 151443" d="M407.109,442.1h-3.973v-9.839a10.147,10.147,0,0,0-3.606-.292l-.091,0-5.173-.022a1.991,1.991,0,0,1-.413-.045c-1.964-.426-5.676-2.737-5.691-8.432-.08-2.437.977-7.115,5.558-7.642a1.994,1.994,0,0,1,.226-.013h21.4a6.845,6.845,0,0,1,4.885,2.087,7.905,7.905,0,0,1,1.775,6.31,7.812,7.812,0,0,1-1.59,5.4,7.951,7.951,0,0,1-5.9,2.741l-.283-3.963a4.219,4.219,0,0,0,3.075-1.259,3.953,3.953,0,0,0,.728-2.663,1.808,1.808,0,0,1-.007-.45,4.594,4.594,0,0,0-.695-3.395,2.929,2.929,0,0,0-1.956-.839h-21.3c-2.045.33-1.947,3.537-1.946,3.57s0,.05,0,.076c0,3.375,1.831,4.322,2.432,4.541l4.844.021c3.69-.148,5.934.443,7.05,1.859a2.989,2.989,0,0,1,.648,2.163Z" transform="translate(-386.589 -415.818)" fill="#a4a3ff"/>
      <path id="Trazado_151444" data-name="Trazado 151444" d="M404.7,481.092l14.72-14.6a1.986,1.986,0,1,0-2.8-2.82l-14.736,14.617c-7.232-7.211-13.689-13.657-14.209-14.2a1.987,1.987,0,0,0-3.071,2.515c.086.115.206.274,14.459,14.486L384.009,496.02a1.987,1.987,0,0,0,2.8,2.821l15.071-14.95c3.94,3.928,8.784,8.754,14.741,14.685a1.986,1.986,0,1,0,2.8-2.815c-3.442-3.428-9.115-9.079-14.723-14.669" transform="translate(-383.422 -447.441)" fill="#a4a3ff"/>
      <path id="Trazado_151445" data-name="Trazado 151445" d="M415.9,566.917a15.15,15.15,0,0,1-2.33-.163,2.01,2.01,0,0,1-.266-.064c-11.273-3.545-9.986-11.482-9.73-12.647h0a15.311,15.311,0,0,1,8.93-10.912V540.3h3.973v4.191a1.987,1.987,0,0,1-1.441,1.91,11.5,11.5,0,0,0-7.573,8.449c-.01.048-.022.1-.035.143-.13.512-1.1,5.272,6.919,7.856.763.1,5.13.533,7.621-1.881,1.626-1.576,2.215-4.191,1.751-7.774l3.94-.511c.636,4.908-.356,8.663-2.947,11.158-2.693,2.593-6.422,3.073-8.81,3.073" transform="translate(-396.783 -499.089)" fill="#a4a3ff"/>
    </g>
    <path id="Trazado_176379" data-name="Trazado 176379" d="M.988,0H2.119V-3.965H5.434V-4.9H2.119V-7.813H5.707v-.949H.988ZM6.617,0H7.748V-3.354A3.22,3.22,0,0,1,7.8-3.887,1.6,1.6,0,0,1,9.334-5.356a1.718,1.718,0,0,1,.39.039V-6.4A1.237,1.237,0,0,0,9.4-6.435,1.888,1.888,0,0,0,7.657-5.057H7.605L7.566-6.292h-1c.039.585.052,1.222.052,1.963Zm8.645,0a8.859,8.859,0,0,1-.1-1.508V-3.861c0-1.261-.468-2.574-2.392-2.574a3.9,3.9,0,0,0-2.067.559l.26.754A3.135,3.135,0,0,1,12.6-5.59a1.3,1.3,0,0,1,1.43,1.456V-4c-2.431-.013-3.783.819-3.783,2.34A1.793,1.793,0,0,0,12.168.143a2.344,2.344,0,0,0,1.924-.936h.039L14.222,0ZM14.053-2.119a1.194,1.194,0,0,1-.065.364A1.565,1.565,0,0,1,12.467-.7a1.012,1.012,0,0,1-1.079-1.092c0-1.222,1.417-1.443,2.665-1.417Zm7.371-4.173-.052.949h-.026a2.093,2.093,0,0,0-1.963-1.092c-1.443,0-2.834,1.209-2.834,3.341A2.813,2.813,0,0,0,19.227-.026a2.246,2.246,0,0,0,2-1.053h.026v.7c0,1.586-.858,2.2-2.028,2.2a3.548,3.548,0,0,1-1.846-.494L17.1,2.2a4.061,4.061,0,0,0,2.093.52,3.335,3.335,0,0,0,2.288-.754,3.618,3.618,0,0,0,.9-2.873V-4.563c0-.767.026-1.274.052-1.729Zm-.182,3.614a1.99,1.99,0,0,1-.091.611A1.672,1.672,0,0,1,19.565-.9c-1.235,0-1.859-1.027-1.859-2.262,0-1.456.78-2.379,1.872-2.379a1.648,1.648,0,0,1,1.6,1.209,1.629,1.629,0,0,1,.065.52ZM25.272,0V-6.292H24.128V0ZM24.7-8.775a.7.7,0,0,0-.715.715.68.68,0,0,0,.689.7.676.676,0,0,0,.728-.7A.679.679,0,0,0,24.7-8.775ZM27.17,0h1.144V-9.23H27.17Z" transform="translate(246 4046.118)" fill="#12263f"/>
    <g id="Grupo_161909" data-name="Grupo 161909" transform="translate(352.335 3948.816)">
      <path id="Trazado_151428" data-name="Trazado 151428" d="M417.844,199.024H379.165a1.278,1.278,0,0,1-1.278-1.278V193.9a1.278,1.278,0,0,1,1.278-1.278h38.679a1.278,1.278,0,0,1,1.278,1.278v3.842a1.278,1.278,0,0,1-1.278,1.278" transform="translate(-376.339 -144.793)" fill="#a4a3ff"/>
      <path id="Trazado_151429" data-name="Trazado 151429" d="M394.524,70.713l-7.791-13.494a2.937,2.937,0,0,0-5.087,0l-7.791,13.494a2.937,2.937,0,0,0,2.543,4.405h3.39a1.316,1.316,0,0,1,1.316,1.315V97.207a1.328,1.328,0,0,0,1.328,1.328h3.515a1.328,1.328,0,0,0,1.328-1.328V76.434a1.316,1.316,0,0,1,1.316-1.315h3.39a2.937,2.937,0,0,0,2.544-4.405" transform="translate(-373.458 -55.75)" fill="#a4a3ff"/>
      <path id="Trazado_151430" data-name="Trazado 151430" d="M459.959,70.713l-7.791-13.494a2.937,2.937,0,0,0-5.087,0l-7.791,13.494a2.937,2.937,0,0,0,2.543,4.405h3.39a1.315,1.315,0,0,1,1.316,1.315V97.207a1.328,1.328,0,0,0,1.328,1.328h3.515a1.328,1.328,0,0,0,1.328-1.328V76.434a1.315,1.315,0,0,1,1.315-1.315h3.39a2.937,2.937,0,0,0,2.543-4.405" transform="translate(-416.026 -55.75)" fill="#a4a3ff"/>
    </g>
    <g id="Trazado_176378" data-name="Trazado 176378" transform="translate(213 3927)" fill="none">
      <path d="M0,0H95V95H0Z" stroke="none"/>
      <path d="M 5 5 L 5 90 L 90 90 L 90 5 L 5 5 M 0 0 L 95 0 L 95 95 L 0 95 L 0 0 Z" stroke="none" fill="#a4a3ff"/>
    </g>
    <g id="Trazado_176376" data-name="Trazado 176376" transform="translate(327 3927)" fill="none">
      <path d="M0,0H95V95H0Z" stroke="none"/>
      <path d="M 5 5 L 5 90 L 90 90 L 90 5 L 5 5 M 0 0 L 95 0 L 95 95 L 0 95 L 0 0 Z" stroke="none" fill="#a4a3ff"/>
    </g>
    <g id="Trazado_176372" data-name="Trazado 176372" transform="translate(438 3927)" fill="none">
      <path d="M0,0H95V95H0Z" stroke="none"/>
      <path d="M 5 5 L 5 90 L 90 90 L 90 5 L 5 5 M 0 0 L 95 0 L 95 95 L 0 95 L 0 0 Z" stroke="none" fill="#a4a3ff"/>
    </g>
    <g id="Trazado_176370" data-name="Trazado 176370" transform="translate(549 3927)" fill="none">
      <path d="M0,0H95V95H0Z" stroke="none"/>
      <path d="M 5 5 L 5 90 L 90 90 L 90 5 L 5 5 M 0 0 L 95 0 L 95 95 L 0 95 L 0 0 Z" stroke="none" fill="#a4a3ff"/>
    </g>
    <g id="Trazado_176371" data-name="Trazado 176371" transform="translate(665 3927)" fill="none">
      <path d="M0,0H95V95H0Z" stroke="none"/>
      <path d="M 5 5 L 5 90 L 90 90 L 90 5 L 5 5 M 0 0 L 95 0 L 95 95 L 0 95 L 0 0 Z" stroke="none" fill="#a4a3ff"/>
    </g>
    <g id="Grupo_161926" data-name="Grupo 161926" transform="translate(56.5 -13)">
      <g id="Grupo_161915" data-name="Grupo 161915" transform="translate(344.864 4129.538)">
        <path id="Trazado_151446" data-name="Trazado 151446" d="M71.032,860.439s4.276-2.176,7.352,0l6.226-10.427s-11.178-5.626-19.129,0Z" transform="translate(-56.452 -847.512)" fill="#a4a3ff"/>
        <path id="Trazado_151447" data-name="Trazado 151447" d="M88.738,891.183a4.595,4.595,0,1,1-4.595-4.595,4.595,4.595,0,0,1,4.595,4.595" transform="translate(-65.585 -872.88)" fill="#a4a3ff"/>
        <path id="Trazado_151448" data-name="Trazado 151448" d="M103.97,905.036c.6-.3,2.626-1.175,2.475-5.351h11.327a16.8,16.8,0,0,1-7.8,15.253Z" transform="translate(-81.438 -881.381)" fill="#a4a3ff"/>
        <path id="Trazado_151449" data-name="Trazado 151449" d="M55.225,904.035l-6.451,10.577s-9.6-3.976-9-16.354H52.3s-.975,4.726,2.926,5.776" transform="translate(-39.745 -880.456)" fill="#a4a3ff"/>
        <rect id="Rectángulo_39048" data-name="Rectángulo 39048" width="12.414" height="12.884" transform="translate(36.858 45.329)" fill="#a4a3ff"/>
        <path id="Trazado_151450" data-name="Trazado 151450" d="M115.734,960.69l15.971-7.113,16.641,7.583" transform="translate(-89.075 -916.366)" fill="none" stroke="#a4a3ff" stroke-linecap="round" stroke-linejoin="round" stroke-width="5"/>
      </g>
      <text id="Alejar_de_fuentes_radioactivas" data-name="Alejar de fuentes
radioactivas" transform="translate(373 4221.452)" fill="#12263f" font-size="13" font-family="Roboto-Regular, Roboto"><tspan x="-48.664" y="0">Alejar de fuentes</tspan><tspan x="-35.185" y="15">radioactivas</tspan></text>
      <g id="Grupo_161913" data-name="Grupo 161913" transform="translate(586.225 4109.306)">
        <path id="Trazado_151456" data-name="Trazado 151456" d="M741.87,858.541c0-6.293-3.734-11.527-8.61-12.513v-4.6c4.876-.986,8.61-6.22,8.61-12.513s-3.734-11.527-8.61-12.513v-4.7a2.221,2.221,0,0,0-4.441,0v5c-4.321,1.5-7.5,6.4-7.5,12.208s3.179,10.709,7.5,12.208v5.206c-4.321,1.5-7.5,6.4-7.5,12.208s3.179,10.709,7.5,12.208v4.578a10.958,10.958,0,0,0-7.5,10.619c0,6.083,4.61,11.031,10.276,11.031s10.276-4.948,10.276-11.031a10.845,10.845,0,0,0-8.61-10.884v-4.008c4.876-.985,8.61-6.22,8.61-12.513m-17.395-29.621c0-3.935,1.793-7.32,4.343-8.77v3.774a2.221,2.221,0,0,0,4.441,0v-4.262c3.124,1.006,5.453,4.774,5.453,9.258,0,4.606-2.456,8.458-5.708,9.336a2.213,2.213,0,0,0-3.719-.328c-2.795-1.286-4.81-4.837-4.81-9.007m0,29.621c0-3.935,1.793-7.32,4.343-8.77V851.5a2.221,2.221,0,1,0,4.441,0v-2.213c3.124,1.006,5.453,4.774,5.453,9.259s-2.342,8.274-5.481,9.267a2.216,2.216,0,0,0-4.278-.424c-2.621-1.406-4.478-4.839-4.478-8.842m14.237,27.4c0,4.341-3.193,7.874-7.119,7.874s-7.119-3.532-7.119-7.874a7.939,7.939,0,0,1,4.343-7.25v1.655a2.221,2.221,0,0,0,4.441,0v-2.059a7.768,7.768,0,0,1,5.453,7.654" transform="translate(-721.318 -809.489)" fill="#a4a3ff"/>
      </g>
      <text id="Eslingar_aquí" data-name="Eslingar aquí" transform="translate(559 4221.452)" fill="#12263f" font-size="13" font-family="Roboto-Regular, Roboto"><tspan x="0" y="0">Eslingar aquí</tspan></text>
      <text id="Centro_de_gravedad" data-name="Centro de
gravedad" transform="translate(232.5 4221.452)" fill="#12263f" font-size="13" font-family="Roboto-Regular, Roboto"><tspan x="0" y="0">Centro de</tspan><tspan x="0" y="15">gravedad</tspan></text>
      <g id="Grupo_161916" data-name="Grupo 161916" transform="translate(227.05 4120.851)">
        <path id="Trazado_151458" data-name="Trazado 151458" d="M740.184,444.678a1.828,1.828,0,0,1-1.828-1.828V427.13a1.828,1.828,0,0,1,3.656,0v15.72a1.828,1.828,0,0,1-1.828,1.828" transform="translate(-706.734 -425.303)" fill="#a4a3ff"/>
        <path id="Trazado_151459" data-name="Trazado 151459" d="M740.184,580.145a1.828,1.828,0,0,1-1.828-1.827V562.6a1.828,1.828,0,0,1,3.656,0v15.72a1.827,1.827,0,0,1-1.828,1.827" transform="translate(-706.734 -513.245)" fill="#a4a3ff"/>
        <path id="Trazado_151460" data-name="Trazado 151460" d="M801.235,519.1h-15.72a1.828,1.828,0,0,1,0-3.656h15.72a1.828,1.828,0,1,1,0,3.656" transform="translate(-736.162 -483.819)" fill="#a4a3ff"/>
        <path id="Trazado_151461" data-name="Trazado 151461" d="M665.767,519.1h-15.72a1.828,1.828,0,1,1,0-3.656h15.72a1.828,1.828,0,1,1,0,3.656" transform="translate(-648.219 -483.819)" fill="#a4a3ff"/>
        <path id="Trazado_151462" data-name="Trazado 151462" d="M699.6,500.442a23.763,23.763,0,1,1,23.762-23.763A23.79,23.79,0,0,1,699.6,500.442m0-43.869A20.107,20.107,0,1,0,719.7,476.679,20.129,20.129,0,0,0,699.6,456.573" transform="translate(-666.146 -443.23)" fill="#a4a3ff"/>
      </g>
      <text id="No_rotar" data-name="No rotar" transform="translate(461.5 4221.452)" fill="#12263f" font-size="13" font-family="Roboto-Regular, Roboto"><tspan x="0" y="0">No rotar</tspan></text>
      <g id="Grupo_161914" data-name="Grupo 161914" transform="translate(450.977 4118.348)">
        <path id="Trazado_151451" data-name="Trazado 151451" d="M353.675,949.3l-3.125-.451c0-.035.126-.869.454-2.211l3.067.75c-.288,1.178-.4,1.9-.4,1.911" transform="translate(-347.152 -905.545)" fill="#a4a3ff"/>
        <path id="Trazado_151452" data-name="Trazado 151452" d="M358.529,897.989l-2.963-1.089a39.508,39.508,0,0,1,1.774-4.1l2.821,1.419a36.292,36.292,0,0,0-1.632,3.772m52.618-.011a36.287,36.287,0,0,0-1.622-3.77l2.822-1.416a39.526,39.526,0,0,1,1.765,4.1Zm-3.681-7.283a26.742,26.742,0,0,0-2.52-3.16l2.309-2.153a29.8,29.8,0,0,1,2.819,3.534Zm-45.245-.007-2.616-1.768a30.952,30.952,0,0,1,2.791-3.552l2.329,2.131a27.779,27.779,0,0,0-2.5,3.189m39.751-5.859a23.842,23.842,0,0,0-3.379-2.169l1.476-2.792a27.06,27.06,0,0,1,3.828,2.457Zm-34.3-.067-1.947-2.486a25.954,25.954,0,0,1,3.823-2.485l1.48,2.789a22.842,22.842,0,0,0-3.356,2.182m27.217-3.683a25.939,25.939,0,0,0-3.922-.973l.52-3.114a29.03,29.03,0,0,1,4.4,1.092Zm-20.171-.057-.972-3a28.437,28.437,0,0,1,4.413-1.038l.479,3.121a25.178,25.178,0,0,0-3.921.921m10.479-1.187-.14-.007c-.673-.039-1.353-.058-2-.057l-.363,0-.045-3.157c.155,0,.31,0,.466,0,.654,0,1.326.018,2,.055.269-.026.872-.071,1.745-.071h.115l-.032,3.157h-.083a14.88,14.88,0,0,0-1.522.065Z" transform="translate(-350.408 -860.077)" fill="#a4a3ff"/>
        <path id="Trazado_151453" data-name="Trazado 151453" d="M517.994,949.383c-.145-.669-.3-1.337-.473-1.985l3.055-.8c.18.69.349,1.4.5,2.113Z" transform="translate(-455.545 -905.522)" fill="#a4a3ff"/>
        <path id="Trazado_151454" data-name="Trazado 151454" d="M340.863,957.307h10.107l-5.134,7.375Z" transform="translate(-340.863 -912.471)" fill="#a4a3ff"/>
        <path id="Trazado_151455" data-name="Trazado 151455" d="M508.863,957.307h10.107l-5.134,7.375Z" transform="translate(-449.925 -912.471)" fill="#a4a3ff"/>
        <rect id="Rectángulo_39049" data-name="Rectángulo 39049" width="26.462" height="26.462" transform="translate(21.43 42.941)" fill="#a4a3ff"/>
        <path id="Trazado_151463" data-name="Trazado 151463" d="M405.969,848.576l15.6-15.473a2.1,2.1,0,1,0-2.965-2.989L402.987,845.6c-7.663-7.641-14.506-14.472-15.057-15.049a2.105,2.105,0,0,0-3.255,2.665c.091.121.219.291,15.322,15.35l-15.953,15.825a2.105,2.105,0,0,0,2.965,2.989l15.97-15.842c4.176,4.162,9.308,9.276,15.62,15.561a2.1,2.1,0,1,0,2.97-2.983c-3.648-3.632-9.659-9.621-15.6-15.544" transform="translate(-368.492 -829.503)" fill="#ff8578"/>
      </g>
      <g id="Rectángulo_48165" data-name="Rectángulo 48165" transform="translate(213 4104.851)" fill="none" stroke="#a4a3ff" stroke-width="5">
        <rect width="95" height="95" stroke="none"/>
        <rect x="2.5" y="2.5" width="90" height="90" fill="none"/>
      </g>
      <g id="Rectángulo_48164" data-name="Rectángulo 48164" transform="translate(327 4104.851)" fill="none" stroke="#a4a3ff" stroke-width="5">
        <rect width="95" height="95" stroke="none"/>
        <rect x="2.5" y="2.5" width="90" height="90" fill="none"/>
      </g>
      <g id="Rectángulo_48163" data-name="Rectángulo 48163" transform="translate(438 4104.851)" fill="none" stroke="#a4a3ff" stroke-width="5">
        <rect width="95" height="95" stroke="none"/>
        <rect x="2.5" y="2.5" width="90" height="90" fill="none"/>
      </g>
      <g id="Rectángulo_48162" data-name="Rectángulo 48162" transform="translate(549 4104.851)" fill="none" stroke="#a4a3ff" stroke-width="5">
        <rect width="95" height="95" stroke="none"/>
        <rect x="2.5" y="2.5" width="90" height="90" fill="none"/>
      </g>
    </g>
    <path id="Trazado_176368" data-name="Trazado 176368" d="M-33.82-3.618V0h-1.219V-9.242h3.409a3.425,3.425,0,0,1,2.377.774,2.625,2.625,0,0,1,.86,2.05,2.591,2.591,0,0,1-.841,2.073,3.578,3.578,0,0,1-2.409.727Zm0-1h2.19a2.19,2.19,0,0,0,1.5-.461,1.686,1.686,0,0,0,.521-1.332,1.742,1.742,0,0,0-.521-1.323,2.051,2.051,0,0,0-1.428-.515h-2.26Zm10.118-1.2a3.519,3.519,0,0,0-.578-.044,1.547,1.547,0,0,0-1.568.984V0h-1.174V-6.868h1.143l.019.793A1.829,1.829,0,0,1-24.223-7a1.2,1.2,0,0,1,.521.089Zm.641,2.317a4.057,4.057,0,0,1,.4-1.815,2.96,2.96,0,0,1,1.1-1.244A3.007,3.007,0,0,1-19.944-7a2.9,2.9,0,0,1,2.269.971,3.736,3.736,0,0,1,.866,2.583v.083a4.092,4.092,0,0,1-.384,1.8,2.916,2.916,0,0,1-1.1,1.241,3.041,3.041,0,0,1-1.641.444,2.889,2.889,0,0,1-2.263-.971,3.718,3.718,0,0,1-.866-2.571Zm1.181.14a2.938,2.938,0,0,0,.53,1.834,1.7,1.7,0,0,0,1.419.692,1.686,1.686,0,0,0,1.422-.7A3.213,3.213,0,0,0-17.983-3.5a2.933,2.933,0,0,0-.536-1.831,1.705,1.705,0,0,0-1.425-.7,1.686,1.686,0,0,0-1.4.692A3.189,3.189,0,0,0-21.88-3.358Zm8.138-5.173v1.663h1.282v.908h-1.282V-1.7a.953.953,0,0,0,.171.62.721.721,0,0,0,.584.207,2.843,2.843,0,0,0,.559-.076V0a3.424,3.424,0,0,1-.9.126,1.462,1.462,0,0,1-1.187-.476,2.045,2.045,0,0,1-.4-1.352V-5.96h-1.25v-.908h1.25V-8.531Zm5.5,8.658A3,3,0,0,1-10.512-.79a3.4,3.4,0,0,1-.876-2.453v-.216A4.121,4.121,0,0,1-11-5.284,3.045,3.045,0,0,1-9.906-6.541,2.745,2.745,0,0,1-8.385-7,2.572,2.572,0,0,1-6.3-6.113a3.82,3.82,0,0,1,.743,2.526V-3.1h-4.653A2.441,2.441,0,0,0-9.62-1.457a1.866,1.866,0,0,0,1.444.625,2.045,2.045,0,0,0,1.054-.254,2.648,2.648,0,0,0,.755-.673l.717.559A2.884,2.884,0,0,1-8.239.127ZM-8.385-6.03a1.566,1.566,0,0,0-1.193.517,2.515,2.515,0,0,0-.6,1.45h3.44v-.089a2.237,2.237,0,0,0-.482-1.387A1.475,1.475,0,0,0-8.385-6.03Zm.571-3.72h1.422l-1.7,1.866-.946,0ZM-2.99-6.868V.793q0,1.98-1.8,1.98A2.191,2.191,0,0,1-5.5,2.66V1.727a2.27,2.27,0,0,0,.533.051.8.8,0,0,0,.6-.213,1.052,1.052,0,0,0,.206-.74V-6.868ZM-4.285-8.69a.7.7,0,0,1,.175-.479.642.642,0,0,1,.511-.2.666.666,0,0,1,.521.2A.694.694,0,0,1-2.9-8.69a.671.671,0,0,1-.178.476.678.678,0,0,1-.521.19.657.657,0,0,1-.514-.19A.685.685,0,0,1-4.285-8.69ZM3.142,0a2.467,2.467,0,0,1-.165-.724A2.62,2.62,0,0,1,1.022.127,2.424,2.424,0,0,1-.644-.448,1.859,1.859,0,0,1-1.295-1.9,1.942,1.942,0,0,1-.479-3.571a3.846,3.846,0,0,1,2.295-.594H2.958V-4.7a1.319,1.319,0,0,0-.368-.981A1.48,1.48,0,0,0,1.5-6.049a1.712,1.712,0,0,0-1.054.317.935.935,0,0,0-.425.768H-1.155A1.621,1.621,0,0,1-.79-5.957,2.491,2.491,0,0,1,.2-6.716,3.331,3.331,0,0,1,1.574-7a2.715,2.715,0,0,1,1.86.594,2.141,2.141,0,0,1,.7,1.635v3.161A3.865,3.865,0,0,0,4.374-.1V0ZM1.193-.9a2.064,2.064,0,0,0,1.047-.286,1.728,1.728,0,0,0,.717-.743V-3.333h-.92q-2.158,0-2.158,1.263a1.069,1.069,0,0,0,.368.863A1.415,1.415,0,0,0,1.193-.9Zm8.779-.927a.865.865,0,0,0-.359-.74,3.452,3.452,0,0,0-1.25-.454,5.912,5.912,0,0,1-1.416-.457,2.014,2.014,0,0,1-.774-.635,1.518,1.518,0,0,1-.251-.876,1.782,1.782,0,0,1,.714-1.428A2.789,2.789,0,0,1,8.461-7a2.87,2.87,0,0,1,1.895.6,1.915,1.915,0,0,1,.727,1.542H9.9a1.06,1.06,0,0,0-.409-.832A1.534,1.534,0,0,0,8.461-6.03a1.605,1.605,0,0,0-1,.279.879.879,0,0,0-.362.73.712.712,0,0,0,.336.641,4.139,4.139,0,0,0,1.216.413,6.334,6.334,0,0,1,1.425.47,2.079,2.079,0,0,1,.809.657,1.615,1.615,0,0,1,.263.936A1.758,1.758,0,0,1,10.41-.428,3.089,3.089,0,0,1,8.5.127,3.459,3.459,0,0,1,7.04-.165a2.375,2.375,0,0,1-.993-.816,1.966,1.966,0,0,1-.359-1.133H6.862a1.216,1.216,0,0,0,.473.936A1.835,1.835,0,0,0,8.5-.832a1.894,1.894,0,0,0,1.07-.27A.829.829,0,0,0,9.972-1.822ZM15.526.127A3,3,0,0,1,13.254-.79a3.4,3.4,0,0,1-.876-2.453v-.216a4.121,4.121,0,0,1,.39-1.825A3.045,3.045,0,0,1,13.86-6.541,2.745,2.745,0,0,1,15.38-7a2.572,2.572,0,0,1,2.082.882,3.82,3.82,0,0,1,.743,2.526V-3.1H13.552a2.441,2.441,0,0,0,.594,1.641,1.866,1.866,0,0,0,1.444.625,2.045,2.045,0,0,0,1.054-.254,2.648,2.648,0,0,0,.755-.673l.717.559A2.884,2.884,0,0,1,15.526.127ZM15.38-6.03a1.566,1.566,0,0,0-1.193.517,2.515,2.515,0,0,0-.6,1.45h3.44v-.089a2.237,2.237,0,0,0-.482-1.387A1.475,1.475,0,0,0,15.38-6.03ZM22.5-3.491a4.023,4.023,0,0,1,.749-2.542A2.369,2.369,0,0,1,25.207-7a2.382,2.382,0,0,1,1.911.825V-9.75h1.174V0H27.212l-.057-.736a2.391,2.391,0,0,1-1.961.863,2.346,2.346,0,0,1-1.946-.978A4.069,4.069,0,0,1,22.5-3.4Zm1.174.133a3.046,3.046,0,0,0,.482,1.828,1.56,1.56,0,0,0,1.333.66,1.713,1.713,0,0,0,1.631-1V-5.027A1.726,1.726,0,0,0,25.5-6a1.567,1.567,0,0,0-1.346.667A3.354,3.354,0,0,0,23.67-3.358ZM32.963.127A3,3,0,0,1,30.691-.79a3.4,3.4,0,0,1-.876-2.453v-.216a4.121,4.121,0,0,1,.39-1.825A3.045,3.045,0,0,1,31.3-6.541,2.745,2.745,0,0,1,32.817-7a2.572,2.572,0,0,1,2.082.882,3.82,3.82,0,0,1,.743,2.526V-3.1H30.989a2.441,2.441,0,0,0,.594,1.641,1.866,1.866,0,0,0,1.444.625,2.045,2.045,0,0,0,1.054-.254,2.648,2.648,0,0,0,.755-.673l.717.559A2.884,2.884,0,0,1,32.963.127ZM32.817-6.03a1.566,1.566,0,0,0-1.193.517,2.515,2.515,0,0,0-.6,1.45h3.44v-.089a2.237,2.237,0,0,0-.482-1.387A1.475,1.475,0,0,0,32.817-6.03ZM-31.729,15H-32.9V5.25h1.174Zm6.119,0a2.467,2.467,0,0,1-.165-.724,2.62,2.62,0,0,1-1.955.851,2.424,2.424,0,0,1-1.666-.574,1.859,1.859,0,0,1-.651-1.457,1.942,1.942,0,0,1,.816-1.666,3.846,3.846,0,0,1,2.295-.594h1.143V10.3a1.319,1.319,0,0,0-.368-.981,1.48,1.48,0,0,0-1.085-.365,1.712,1.712,0,0,0-1.054.317.935.935,0,0,0-.425.768h-1.181a1.621,1.621,0,0,1,.365-.993,2.491,2.491,0,0,1,.99-.759A3.331,3.331,0,0,1-27.177,8a2.715,2.715,0,0,1,1.86.594,2.141,2.141,0,0,1,.7,1.635v3.161a3.865,3.865,0,0,0,.241,1.5V15Zm-1.949-.9a2.064,2.064,0,0,0,1.047-.286,1.728,1.728,0,0,0,.717-.743V11.667h-.92q-2.158,0-2.158,1.263a1.069,1.069,0,0,0,.368.863A1.415,1.415,0,0,0-27.558,14.1Zm9.172-5.142A2.5,2.5,0,0,1-16.355,8q2.177,0,2.2,2.457V15h-1.174V10.455a1.581,1.581,0,0,0-.34-1.1A1.361,1.361,0,0,0-16.71,9a1.7,1.7,0,0,0-1,.3,2.069,2.069,0,0,0-.673.8V15H-19.56V5.25h1.174ZM-8.16,14.321a2.494,2.494,0,0,1-2.012.806,2.135,2.135,0,0,1-1.673-.638,2.761,2.761,0,0,1-.581-1.888V8.132h1.174v4.437q0,1.562,1.27,1.562a1.758,1.758,0,0,0,1.79-1v-5h1.174V15H-8.135Zm4.031-6.189.032.762A2.536,2.536,0,0,1-2.06,8,1.964,1.964,0,0,1-.1,9.109a2.6,2.6,0,0,1,.892-.8,2.634,2.634,0,0,1,1.3-.3q2.26,0,2.3,2.393V15H3.215V10.468a1.577,1.577,0,0,0-.336-1.1A1.482,1.482,0,0,0,1.749,9a1.557,1.557,0,0,0-1.085.39,1.584,1.584,0,0,0-.5,1.051V15H-1.019V10.5A1.31,1.31,0,0,0-2.485,9a1.571,1.571,0,0,0-1.581.984V15H-5.24V8.132Zm13.14,7a3,3,0,0,1-2.272-.917,3.4,3.4,0,0,1-.876-2.453v-.216a4.121,4.121,0,0,1,.39-1.825A3.045,3.045,0,0,1,7.344,8.459,2.745,2.745,0,0,1,8.865,8a2.572,2.572,0,0,1,2.082.882,3.82,3.82,0,0,1,.743,2.526V11.9H7.036a2.441,2.441,0,0,0,.594,1.641,1.866,1.866,0,0,0,1.444.625,2.045,2.045,0,0,0,1.054-.254,2.648,2.648,0,0,0,.755-.673l.717.559A2.884,2.884,0,0,1,9.01,15.127ZM8.865,8.97a1.566,1.566,0,0,0-1.193.517,2.515,2.515,0,0,0-.6,1.45h3.44v-.089a2.237,2.237,0,0,0-.482-1.387A1.475,1.475,0,0,0,8.865,8.97Zm3.9,2.539a4.023,4.023,0,0,1,.749-2.542A2.369,2.369,0,0,1,15.472,8a2.382,2.382,0,0,1,1.911.825V5.25h1.174V15H17.478l-.057-.736a2.391,2.391,0,0,1-1.961.863,2.346,2.346,0,0,1-1.946-.978,4.069,4.069,0,0,1-.752-2.552Zm1.174.133a3.046,3.046,0,0,0,.482,1.828,1.56,1.56,0,0,0,1.333.66,1.713,1.713,0,0,0,1.631-1V9.973A1.726,1.726,0,0,0,15.764,9a1.567,1.567,0,0,0-1.346.667A3.354,3.354,0,0,0,13.936,11.642ZM24.619,15a2.467,2.467,0,0,1-.165-.724,2.62,2.62,0,0,1-1.955.851,2.424,2.424,0,0,1-1.666-.574,1.859,1.859,0,0,1-.651-1.457A1.942,1.942,0,0,1,21,11.429a3.846,3.846,0,0,1,2.295-.594h1.143V10.3a1.319,1.319,0,0,0-.368-.981,1.48,1.48,0,0,0-1.085-.365,1.712,1.712,0,0,0-1.054.317.935.935,0,0,0-.425.768H20.322a1.621,1.621,0,0,1,.365-.993,2.491,2.491,0,0,1,.99-.759A3.331,3.331,0,0,1,23.052,8a2.715,2.715,0,0,1,1.86.594,2.141,2.141,0,0,1,.7,1.635v3.161a3.865,3.865,0,0,0,.241,1.5V15Zm-1.949-.9a2.064,2.064,0,0,0,1.047-.286,1.728,1.728,0,0,0,.717-.743V11.667h-.92q-2.158,0-2.158,1.263a1.069,1.069,0,0,0,.368.863A1.415,1.415,0,0,0,22.671,14.1Zm4.494-2.6a4.023,4.023,0,0,1,.749-2.542,2.548,2.548,0,0,1,3.872-.136V5.25H32.96V15H31.881l-.057-.736a2.391,2.391,0,0,1-1.961.863,2.346,2.346,0,0,1-1.946-.978,4.069,4.069,0,0,1-.752-2.552Zm1.174.133a3.046,3.046,0,0,0,.482,1.828,1.56,1.56,0,0,0,1.333.66,1.713,1.713,0,0,0,1.631-1V9.973A1.726,1.726,0,0,0,30.167,9a1.567,1.567,0,0,0-1.346.667A3.354,3.354,0,0,0,28.339,11.642Z" transform="translate(596.5 4045.118)" fill="#12263f"/>
    <path id="Trazado_176369" data-name="Trazado 176369" d="M8.176,0H6.951L2.3-7.122V0H1.073V-9.242H2.3L6.963-2.088V-9.242H8.176ZM9.845-3.5a4.057,4.057,0,0,1,.4-1.815,2.96,2.96,0,0,1,1.1-1.244A3.007,3.007,0,0,1,12.962-7a2.9,2.9,0,0,1,2.269.971A3.736,3.736,0,0,1,16.1-3.44v.083a4.092,4.092,0,0,1-.384,1.8,2.916,2.916,0,0,1-1.1,1.241,3.041,3.041,0,0,1-1.641.444,2.889,2.889,0,0,1-2.263-.971,3.718,3.718,0,0,1-.866-2.571Zm1.181.14a2.938,2.938,0,0,0,.53,1.834,1.7,1.7,0,0,0,1.419.692,1.686,1.686,0,0,0,1.422-.7A3.213,3.213,0,0,0,14.923-3.5a2.933,2.933,0,0,0-.536-1.831,1.705,1.705,0,0,0-1.425-.7,1.686,1.686,0,0,0-1.4.692A3.189,3.189,0,0,0,11.026-3.358Zm14,2.679a2.494,2.494,0,0,1-2.012.806,2.135,2.135,0,0,1-1.673-.638A2.761,2.761,0,0,1,20.763-2.4V-6.868h1.174v4.437q0,1.562,1.27,1.562a1.758,1.758,0,0,0,1.79-1v-5h1.174V0H25.054Zm6.925-1.143a.864.864,0,0,0-.359-.74,3.452,3.452,0,0,0-1.25-.454,5.912,5.912,0,0,1-1.416-.457,2.014,2.014,0,0,1-.774-.635,1.518,1.518,0,0,1-.251-.876,1.782,1.782,0,0,1,.714-1.428A2.789,2.789,0,0,1,30.443-7a2.87,2.87,0,0,1,1.895.6,1.915,1.915,0,0,1,.727,1.542H31.884a1.06,1.06,0,0,0-.409-.832,1.534,1.534,0,0,0-1.031-.349,1.606,1.606,0,0,0-1,.279.879.879,0,0,0-.362.73.712.712,0,0,0,.336.641,4.139,4.139,0,0,0,1.216.413,6.334,6.334,0,0,1,1.425.47,2.079,2.079,0,0,1,.809.657,1.615,1.615,0,0,1,.263.936,1.758,1.758,0,0,1-.736,1.476,3.089,3.089,0,0,1-1.911.555,3.459,3.459,0,0,1-1.46-.292,2.375,2.375,0,0,1-.993-.816,1.966,1.966,0,0,1-.359-1.133h1.174a1.216,1.216,0,0,0,.473.936,1.835,1.835,0,0,0,1.165.346,1.894,1.894,0,0,0,1.07-.27A.829.829,0,0,0,31.954-1.822ZM38.9,0a2.467,2.467,0,0,1-.165-.724,2.62,2.62,0,0,1-1.955.851,2.424,2.424,0,0,1-1.666-.574A1.859,1.859,0,0,1,34.461-1.9a1.942,1.942,0,0,1,.816-1.666,3.846,3.846,0,0,1,2.295-.594h1.143V-4.7a1.319,1.319,0,0,0-.368-.981,1.48,1.48,0,0,0-1.085-.365,1.712,1.712,0,0,0-1.054.317.935.935,0,0,0-.425.768H34.6a1.621,1.621,0,0,1,.365-.993,2.491,2.491,0,0,1,.99-.759A3.331,3.331,0,0,1,37.331-7a2.715,2.715,0,0,1,1.86.594,2.141,2.141,0,0,1,.7,1.635v3.161A3.865,3.865,0,0,0,40.13-.1V0ZM36.95-.9A2.064,2.064,0,0,0,38-1.181a1.728,1.728,0,0,0,.717-.743V-3.333h-.92q-2.158,0-2.158,1.263A1.069,1.069,0,0,0,36-1.206,1.415,1.415,0,0,0,36.95-.9Zm8.1-4.919a3.519,3.519,0,0,0-.578-.044,1.547,1.547,0,0,0-1.568.984V0H41.729V-6.868h1.143l.019.793A1.829,1.829,0,0,1,44.529-7a1.2,1.2,0,0,1,.521.089Zm4.018,2.323a4.037,4.037,0,0,1,.743-2.555A2.375,2.375,0,0,1,51.778-7a2.363,2.363,0,0,1,1.961.889l.057-.762h1.073v6.7a2.794,2.794,0,0,1-.79,2.1,2.916,2.916,0,0,1-2.123.768A3.532,3.532,0,0,1,50.5,2.387a2.5,2.5,0,0,1-1.085-.87l.609-.7a2.3,2.3,0,0,0,1.847.933,1.8,1.8,0,0,0,1.336-.482A1.844,1.844,0,0,0,53.688-.1v-.59a2.414,2.414,0,0,1-1.923.813,2.346,2.346,0,0,1-1.952-.971A4.244,4.244,0,0,1,49.067-3.491Zm1.181.133a3.08,3.08,0,0,0,.476,1.825,1.547,1.547,0,0,0,1.333.663,1.72,1.72,0,0,0,1.631-1.009V-5.015A1.74,1.74,0,0,0,52.07-6a1.561,1.561,0,0,0-1.339.667A3.354,3.354,0,0,0,50.248-3.358ZM60.88,0a2.467,2.467,0,0,1-.165-.724A2.62,2.62,0,0,1,58.76.127a2.424,2.424,0,0,1-1.666-.574A1.859,1.859,0,0,1,56.443-1.9a1.942,1.942,0,0,1,.816-1.666,3.846,3.846,0,0,1,2.295-.594H60.7V-4.7a1.319,1.319,0,0,0-.368-.981,1.48,1.48,0,0,0-1.085-.365,1.712,1.712,0,0,0-1.054.317.935.935,0,0,0-.425.768H56.583a1.621,1.621,0,0,1,.365-.993,2.491,2.491,0,0,1,.99-.759A3.331,3.331,0,0,1,59.313-7a2.715,2.715,0,0,1,1.86.594,2.141,2.141,0,0,1,.7,1.635v3.161a3.865,3.865,0,0,0,.241,1.5V0ZM58.932-.9a2.064,2.064,0,0,0,1.047-.286,1.728,1.728,0,0,0,.717-.743V-3.333h-.92q-2.158,0-2.158,1.263a1.069,1.069,0,0,0,.368.863A1.415,1.415,0,0,0,58.932-.9Zm5.891-5.973L64.86-6A2.5,2.5,0,0,1,66.917-7q2.177,0,2.2,2.457V0H67.939V-4.545a1.581,1.581,0,0,0-.34-1.1A1.361,1.361,0,0,0,66.562-6a1.7,1.7,0,0,0-1,.3,2.069,2.069,0,0,0-.673.8V0H63.711V-6.868ZM73.639-.832a1.691,1.691,0,0,0,1.1-.381,1.34,1.34,0,0,0,.521-.952h1.111a2.13,2.13,0,0,1-.406,1.124,2.676,2.676,0,0,1-1,.851,2.885,2.885,0,0,1-1.323.317,2.829,2.829,0,0,1-2.231-.936,3.729,3.729,0,0,1-.828-2.561v-.2a4.135,4.135,0,0,1,.368-1.784A2.8,2.8,0,0,1,72-6.563,3,3,0,0,1,73.633-7a2.755,2.755,0,0,1,1.92.692,2.473,2.473,0,0,1,.816,1.8H75.258a1.618,1.618,0,0,0-.5-1.095,1.57,1.57,0,0,0-1.12-.428,1.644,1.644,0,0,0-1.387.644,3.026,3.026,0,0,0-.492,1.863V-3.3a2.966,2.966,0,0,0,.489,1.828A1.651,1.651,0,0,0,73.639-.832Zm5.224-5.205A2.5,2.5,0,0,1,80.895-7q2.177,0,2.2,2.457V0H81.917V-4.545a1.581,1.581,0,0,0-.34-1.1A1.361,1.361,0,0,0,80.539-6a1.7,1.7,0,0,0-1,.3,2.069,2.069,0,0,0-.673.8V0H77.689V-9.75h1.174ZM84.538-3.5a4.057,4.057,0,0,1,.4-1.815,2.96,2.96,0,0,1,1.1-1.244A3.007,3.007,0,0,1,87.655-7a2.9,2.9,0,0,1,2.269.971,3.736,3.736,0,0,1,.866,2.583v.083a4.092,4.092,0,0,1-.384,1.8,2.916,2.916,0,0,1-1.1,1.241,3.041,3.041,0,0,1-1.641.444A2.889,2.889,0,0,1,85.4-.844a3.718,3.718,0,0,1-.866-2.571Zm1.181.14a2.938,2.938,0,0,0,.53,1.834,1.7,1.7,0,0,0,1.419.692,1.686,1.686,0,0,0,1.422-.7A3.213,3.213,0,0,0,89.616-3.5a2.933,2.933,0,0,0-.536-1.831,1.705,1.705,0,0,0-1.425-.7,1.686,1.686,0,0,0-1.4.692A3.189,3.189,0,0,0,85.719-3.358Z" transform="translate(665.984 4045.118)" fill="#12263f"/>
    <path id="Trazado_176373" data-name="Trazado 176373" d="M-25.1-3.618V0h-1.219V-9.242h3.409a3.425,3.425,0,0,1,2.377.774,2.625,2.625,0,0,1,.86,2.05,2.591,2.591,0,0,1-.841,2.073,3.578,3.578,0,0,1-2.409.727Zm0-1h2.19a2.19,2.19,0,0,0,1.5-.461,1.686,1.686,0,0,0,.521-1.332,1.742,1.742,0,0,0-.521-1.323,2.051,2.051,0,0,0-1.428-.515H-25.1Zm10.118-1.2a3.519,3.519,0,0,0-.578-.044,1.547,1.547,0,0,0-1.568.984V0H-18.3V-6.868h1.143l.019.793A1.829,1.829,0,0,1-15.5-7a1.2,1.2,0,0,1,.521.089Zm.641,2.317a4.057,4.057,0,0,1,.4-1.815,2.96,2.96,0,0,1,1.1-1.244A3.007,3.007,0,0,1-11.226-7a2.9,2.9,0,0,1,2.269.971A3.736,3.736,0,0,1-8.09-3.44v.083a4.092,4.092,0,0,1-.384,1.8,2.916,2.916,0,0,1-1.1,1.241,3.041,3.041,0,0,1-1.641.444,2.889,2.889,0,0,1-2.263-.971,3.718,3.718,0,0,1-.866-2.571Zm1.181.14a2.938,2.938,0,0,0,.53,1.834,1.7,1.7,0,0,0,1.419.692,1.686,1.686,0,0,0,1.422-.7A3.213,3.213,0,0,0-9.264-3.5,2.933,2.933,0,0,0-9.8-5.329a1.705,1.705,0,0,0-1.425-.7,1.686,1.686,0,0,0-1.4.692A3.189,3.189,0,0,0-13.162-3.358Zm8.138-5.173v1.663h1.282v.908H-5.024V-1.7a.953.953,0,0,0,.171.62.721.721,0,0,0,.584.207A2.843,2.843,0,0,0-3.71-.946V0a3.424,3.424,0,0,1-.9.126A1.462,1.462,0,0,1-5.8-.349,2.045,2.045,0,0,1-6.2-1.7V-5.96h-1.25v-.908H-6.2V-8.531ZM.479.127A3,3,0,0,1-1.793-.79a3.4,3.4,0,0,1-.876-2.453v-.216a4.121,4.121,0,0,1,.39-1.825A3.045,3.045,0,0,1-1.187-6.541,2.745,2.745,0,0,1,.333-7a2.572,2.572,0,0,1,2.082.882,3.82,3.82,0,0,1,.743,2.526V-3.1H-1.495A2.441,2.441,0,0,0-.9-1.457,1.866,1.866,0,0,0,.543-.832,2.045,2.045,0,0,0,1.6-1.085a2.648,2.648,0,0,0,.755-.673l.717.559A2.884,2.884,0,0,1,.479.127ZM.333-6.03A1.566,1.566,0,0,0-.86-5.513a2.515,2.515,0,0,0-.6,1.45h3.44v-.089A2.237,2.237,0,0,0,1.5-5.538,1.475,1.475,0,0,0,.333-6.03ZM.9-9.75H2.326L.625-7.884l-.946,0ZM5.729-6.868V.793q0,1.98-1.8,1.98a2.191,2.191,0,0,1-.717-.114V1.727a2.27,2.27,0,0,0,.533.051.8.8,0,0,0,.6-.213,1.052,1.052,0,0,0,.206-.74V-6.868ZM4.434-8.69a.7.7,0,0,1,.175-.479.642.642,0,0,1,.511-.2.666.666,0,0,1,.521.2.694.694,0,0,1,.178.482.671.671,0,0,1-.178.476.678.678,0,0,1-.521.19.657.657,0,0,1-.514-.19A.685.685,0,0,1,4.434-8.69ZM11.861,0A2.467,2.467,0,0,1,11.7-.724,2.62,2.62,0,0,1,9.74.127,2.424,2.424,0,0,1,8.074-.448,1.859,1.859,0,0,1,7.424-1.9a1.942,1.942,0,0,1,.816-1.666,3.846,3.846,0,0,1,2.295-.594h1.143V-4.7a1.319,1.319,0,0,0-.368-.981,1.48,1.48,0,0,0-1.085-.365,1.712,1.712,0,0,0-1.054.317.935.935,0,0,0-.425.768H7.563a1.621,1.621,0,0,1,.365-.993,2.491,2.491,0,0,1,.99-.759A3.331,3.331,0,0,1,10.293-7a2.715,2.715,0,0,1,1.86.594,2.141,2.141,0,0,1,.7,1.635v3.161a3.865,3.865,0,0,0,.241,1.5V0ZM9.912-.9a2.064,2.064,0,0,0,1.047-.286,1.728,1.728,0,0,0,.717-.743V-3.333h-.92Q8.6-3.333,8.6-2.069a1.069,1.069,0,0,0,.368.863A1.415,1.415,0,0,0,9.912-.9Zm8.779-.927a.864.864,0,0,0-.359-.74,3.452,3.452,0,0,0-1.25-.454,5.912,5.912,0,0,1-1.416-.457,2.014,2.014,0,0,1-.774-.635,1.518,1.518,0,0,1-.251-.876,1.782,1.782,0,0,1,.714-1.428A2.789,2.789,0,0,1,17.18-7a2.87,2.87,0,0,1,1.895.6A1.915,1.915,0,0,1,19.8-4.85H18.621a1.06,1.06,0,0,0-.409-.832A1.534,1.534,0,0,0,17.18-6.03a1.606,1.606,0,0,0-1,.279.879.879,0,0,0-.362.73.712.712,0,0,0,.336.641,4.139,4.139,0,0,0,1.216.413,6.334,6.334,0,0,1,1.425.47,2.079,2.079,0,0,1,.809.657,1.615,1.615,0,0,1,.263.936,1.758,1.758,0,0,1-.736,1.476,3.089,3.089,0,0,1-1.911.555,3.459,3.459,0,0,1-1.46-.292,2.375,2.375,0,0,1-.993-.816,1.966,1.966,0,0,1-.359-1.133H15.58a1.216,1.216,0,0,0,.473.936,1.835,1.835,0,0,0,1.165.346,1.894,1.894,0,0,0,1.07-.27A.829.829,0,0,0,18.691-1.822ZM24.245.127A3,3,0,0,1,21.972-.79,3.4,3.4,0,0,1,21.1-3.244v-.216a4.121,4.121,0,0,1,.39-1.825,3.045,3.045,0,0,1,1.092-1.257A2.745,2.745,0,0,1,24.1-7a2.572,2.572,0,0,1,2.082.882,3.82,3.82,0,0,1,.743,2.526V-3.1H22.271a2.441,2.441,0,0,0,.594,1.641,1.866,1.866,0,0,0,1.444.625,2.045,2.045,0,0,0,1.054-.254,2.648,2.648,0,0,0,.755-.673l.717.559A2.884,2.884,0,0,1,24.245.127ZM24.1-6.03a1.566,1.566,0,0,0-1.193.517,2.515,2.515,0,0,0-.6,1.45h3.44v-.089a2.237,2.237,0,0,0-.482-1.387A1.475,1.475,0,0,0,24.1-6.03ZM-24.115,11.509a4.023,4.023,0,0,1,.749-2.542A2.369,2.369,0,0,1-21.4,8a2.382,2.382,0,0,1,1.911.825V5.25h1.174V15H-19.4l-.057-.736a2.391,2.391,0,0,1-1.961.863,2.346,2.346,0,0,1-1.946-.978,4.069,4.069,0,0,1-.752-2.552Zm1.174.133a3.046,3.046,0,0,0,.482,1.828,1.56,1.56,0,0,0,1.333.66,1.713,1.713,0,0,0,1.631-1V9.973A1.726,1.726,0,0,0-21.112,9a1.567,1.567,0,0,0-1.346.667A3.354,3.354,0,0,0-22.94,11.642Zm9.293,3.485a3,3,0,0,1-2.272-.917,3.4,3.4,0,0,1-.876-2.453v-.216a4.121,4.121,0,0,1,.39-1.825,3.045,3.045,0,0,1,1.092-1.257A2.745,2.745,0,0,1-13.793,8a2.572,2.572,0,0,1,2.082.882,3.82,3.82,0,0,1,.743,2.526V11.9h-4.653a2.441,2.441,0,0,0,.594,1.641,1.866,1.866,0,0,0,1.444.625,2.045,2.045,0,0,0,1.054-.254,2.648,2.648,0,0,0,.755-.673l.717.559A2.884,2.884,0,0,1-13.647,15.127Zm-.146-6.157a1.566,1.566,0,0,0-1.193.517,2.515,2.515,0,0,0-.6,1.45h3.44v-.089a2.237,2.237,0,0,0-.482-1.387A1.475,1.475,0,0,0-13.793,8.97ZM-8.334,15H-9.509V5.25h1.174Zm7.852-.832a1.692,1.692,0,0,0,1.1-.381,1.34,1.34,0,0,0,.521-.952H2.247a2.13,2.13,0,0,1-.406,1.124,2.676,2.676,0,0,1-1,.851,2.885,2.885,0,0,1-1.323.317,2.829,2.829,0,0,1-2.231-.936,3.729,3.729,0,0,1-.828-2.561v-.2a4.135,4.135,0,0,1,.368-1.784A2.8,2.8,0,0,1-2.117,8.437,3,3,0,0,1-.489,8a2.755,2.755,0,0,1,1.92.692,2.473,2.473,0,0,1,.816,1.8H1.136A1.618,1.618,0,0,0,.632,9.4,1.57,1.57,0,0,0-.489,8.97a1.644,1.644,0,0,0-1.387.644,3.026,3.026,0,0,0-.492,1.863V11.7a2.965,2.965,0,0,0,.489,1.828A1.651,1.651,0,0,0-.482,14.168ZM7.808,15a2.467,2.467,0,0,1-.165-.724,2.62,2.62,0,0,1-1.955.851,2.424,2.424,0,0,1-1.666-.574A1.859,1.859,0,0,1,3.371,13.1a1.942,1.942,0,0,1,.816-1.666,3.846,3.846,0,0,1,2.295-.594H7.624V10.3a1.319,1.319,0,0,0-.368-.981A1.48,1.48,0,0,0,6.17,8.951a1.712,1.712,0,0,0-1.054.317.935.935,0,0,0-.425.768H3.51a1.621,1.621,0,0,1,.365-.993,2.491,2.491,0,0,1,.99-.759A3.331,3.331,0,0,1,6.24,8,2.715,2.715,0,0,1,8.1,8.6a2.141,2.141,0,0,1,.7,1.635v3.161a3.865,3.865,0,0,0,.241,1.5V15Zm-1.949-.9a2.064,2.064,0,0,0,1.047-.286,1.728,1.728,0,0,0,.717-.743V11.667H6.7q-2.158,0-2.158,1.263a1.069,1.069,0,0,0,.368.863A1.415,1.415,0,0,0,5.859,14.1Zm6.056.9H10.74V5.25h1.174Zm1.568-3.5a4.057,4.057,0,0,1,.4-1.815,2.96,2.96,0,0,1,1.1-1.244A3.007,3.007,0,0,1,16.6,8a2.9,2.9,0,0,1,2.269.971,3.736,3.736,0,0,1,.866,2.583v.083a4.092,4.092,0,0,1-.384,1.8,2.916,2.916,0,0,1-1.1,1.241,3.041,3.041,0,0,1-1.641.444,2.889,2.889,0,0,1-2.263-.971,3.718,3.718,0,0,1-.866-2.571Zm1.181.14a2.938,2.938,0,0,0,.53,1.834,1.8,1.8,0,0,0,2.841-.01,3.213,3.213,0,0,0,.527-1.965,2.933,2.933,0,0,0-.536-1.831,1.705,1.705,0,0,0-1.425-.7,1.686,1.686,0,0,0-1.4.692A3.189,3.189,0,0,0,14.663,11.642Zm9.864-2.457a3.519,3.519,0,0,0-.578-.044,1.547,1.547,0,0,0-1.568.984V15H21.208V8.132H22.35l.019.793A1.829,1.829,0,0,1,24.007,8a1.2,1.2,0,0,1,.521.089Z" transform="translate(485 4045.118)" fill="#12263f"/>
    <path id="Trazado_176377" data-name="Trazado 176377" d="M11.394,0H10.169V-4.272H5.51V0H4.291V-9.242H5.51v3.974h4.659V-9.242h1.225Zm6.221,0a2.467,2.467,0,0,1-.165-.724,2.62,2.62,0,0,1-1.955.851,2.424,2.424,0,0,1-1.666-.574A1.859,1.859,0,0,1,13.178-1.9a1.942,1.942,0,0,1,.816-1.666,3.846,3.846,0,0,1,2.295-.594h1.143V-4.7a1.319,1.319,0,0,0-.368-.981,1.48,1.48,0,0,0-1.085-.365,1.712,1.712,0,0,0-1.054.317.935.935,0,0,0-.425.768H13.317a1.621,1.621,0,0,1,.365-.993,2.491,2.491,0,0,1,.99-.759A3.331,3.331,0,0,1,16.047-7a2.715,2.715,0,0,1,1.86.594,2.141,2.141,0,0,1,.7,1.635v3.161a3.865,3.865,0,0,0,.241,1.5V0ZM15.666-.9a2.064,2.064,0,0,0,1.047-.286,1.728,1.728,0,0,0,.717-.743V-3.333h-.92q-2.158,0-2.158,1.263a1.069,1.069,0,0,0,.368.863A1.415,1.415,0,0,0,15.666-.9ZM23.2-.832a1.692,1.692,0,0,0,1.1-.381,1.34,1.34,0,0,0,.521-.952H25.93a2.13,2.13,0,0,1-.406,1.124,2.676,2.676,0,0,1-1,.851A2.885,2.885,0,0,1,23.2.127a2.829,2.829,0,0,1-2.231-.936,3.729,3.729,0,0,1-.828-2.561v-.2a4.135,4.135,0,0,1,.368-1.784,2.8,2.8,0,0,1,1.057-1.212A3,3,0,0,1,23.194-7a2.755,2.755,0,0,1,1.92.692,2.473,2.473,0,0,1,.816,1.8H24.819a1.618,1.618,0,0,0-.5-1.095,1.57,1.57,0,0,0-1.12-.428,1.644,1.644,0,0,0-1.387.644,3.026,3.026,0,0,0-.492,1.863V-3.3A2.965,2.965,0,0,0,21.8-1.473,1.651,1.651,0,0,0,23.2-.832ZM28.526,0H27.352V-6.868h1.174Zm-1.27-8.69a.7.7,0,0,1,.175-.482.655.655,0,0,1,.517-.2.666.666,0,0,1,.521.2.694.694,0,0,1,.178.482.671.671,0,0,1-.178.476.678.678,0,0,1-.521.19.667.667,0,0,1-.517-.19A.678.678,0,0,1,27.257-8.69ZM34.646,0a2.467,2.467,0,0,1-.165-.724,2.62,2.62,0,0,1-1.955.851,2.424,2.424,0,0,1-1.666-.574A1.859,1.859,0,0,1,30.208-1.9a1.942,1.942,0,0,1,.816-1.666,3.846,3.846,0,0,1,2.295-.594h1.143V-4.7a1.319,1.319,0,0,0-.368-.981,1.48,1.48,0,0,0-1.085-.365,1.712,1.712,0,0,0-1.054.317.935.935,0,0,0-.425.768H30.348a1.621,1.621,0,0,1,.365-.993,2.491,2.491,0,0,1,.99-.759A3.331,3.331,0,0,1,33.078-7a2.715,2.715,0,0,1,1.86.594,2.141,2.141,0,0,1,.7,1.635v3.161a3.865,3.865,0,0,0,.241,1.5V0ZM32.7-.9a2.064,2.064,0,0,0,1.047-.286,1.728,1.728,0,0,0,.717-.743V-3.333h-.92q-2.158,0-2.158,1.263a1.069,1.069,0,0,0,.368.863A1.415,1.415,0,0,0,32.7-.9ZM44.935,0a2.467,2.467,0,0,1-.165-.724,2.62,2.62,0,0,1-1.955.851,2.424,2.424,0,0,1-1.666-.574A1.859,1.859,0,0,1,40.5-1.9a1.942,1.942,0,0,1,.816-1.666,3.846,3.846,0,0,1,2.295-.594h1.143V-4.7a1.319,1.319,0,0,0-.368-.981A1.48,1.48,0,0,0,43.3-6.049a1.712,1.712,0,0,0-1.054.317.935.935,0,0,0-.425.768H40.638A1.621,1.621,0,0,1,41-5.957a2.491,2.491,0,0,1,.99-.759A3.331,3.331,0,0,1,43.367-7a2.715,2.715,0,0,1,1.86.594,2.141,2.141,0,0,1,.7,1.635v3.161a3.865,3.865,0,0,0,.241,1.5V0ZM42.986-.9a2.064,2.064,0,0,0,1.047-.286,1.728,1.728,0,0,0,.717-.743V-3.333h-.92q-2.158,0-2.158,1.263a1.069,1.069,0,0,0,.368.863A1.415,1.415,0,0,0,42.986-.9Zm8.1-4.919a3.519,3.519,0,0,0-.578-.044,1.547,1.547,0,0,0-1.568.984V0H47.766V-6.868h1.143l.019.793A1.829,1.829,0,0,1,50.565-7a1.2,1.2,0,0,1,.521.089Zm4.4,0a3.519,3.519,0,0,0-.578-.044,1.547,1.547,0,0,0-1.568.984V0H52.165V-6.868h1.143l.019.793A1.829,1.829,0,0,1,54.964-7a1.2,1.2,0,0,1,.521.089ZM57.84,0H56.666V-6.868H57.84ZM56.57-8.69a.7.7,0,0,1,.175-.482.655.655,0,0,1,.517-.2.666.666,0,0,1,.521.2.694.694,0,0,1,.178.482.671.671,0,0,1-.178.476.678.678,0,0,1-.521.19.667.667,0,0,1-.517-.19A.678.678,0,0,1,56.57-8.69Zm8.963,5.332a4.084,4.084,0,0,1-.724,2.53,2.312,2.312,0,0,1-1.942.955,2.394,2.394,0,0,1-2.012-.92L60.8,0H59.719V-9.75h1.174v3.637A2.381,2.381,0,0,1,62.854-7a2.326,2.326,0,0,1,1.965.946,4.206,4.206,0,0,1,.714,2.59Zm-1.174-.133A3.173,3.173,0,0,0,63.9-5.345,1.534,1.534,0,0,0,62.563-6a1.724,1.724,0,0,0-1.669,1.079v2.971A1.772,1.772,0,0,0,62.575-.87a1.526,1.526,0,0,0,1.314-.654A3.375,3.375,0,0,0,64.359-3.491ZM71.252,0a2.467,2.467,0,0,1-.165-.724,2.62,2.62,0,0,1-1.955.851,2.424,2.424,0,0,1-1.666-.574A1.859,1.859,0,0,1,66.815-1.9a1.942,1.942,0,0,1,.816-1.666,3.846,3.846,0,0,1,2.295-.594h1.143V-4.7a1.319,1.319,0,0,0-.368-.981,1.48,1.48,0,0,0-1.085-.365,1.712,1.712,0,0,0-1.054.317.935.935,0,0,0-.425.768H66.955a1.621,1.621,0,0,1,.365-.993,2.491,2.491,0,0,1,.99-.759A3.331,3.331,0,0,1,69.685-7a2.715,2.715,0,0,1,1.86.594,2.141,2.141,0,0,1,.7,1.635v3.161a3.865,3.865,0,0,0,.241,1.5V0ZM69.3-.9a2.064,2.064,0,0,0,1.047-.286,1.728,1.728,0,0,0,.717-.743V-3.333h-.92q-2.158,0-2.158,1.263a1.069,1.069,0,0,0,.368.863A1.415,1.415,0,0,0,69.3-.9Z" transform="translate(342.834 4045.118)" fill="#12263f"/>
  </g>
</svg>
