<svg xmlns="http://www.w3.org/2000/svg" width="400" height="188.685" viewBox="0 0 400 188.685">
  <g id="Grupo_165385" data-name="Grupo 165385" transform="translate(-391 -1711.979)">
    <path id="Trazado_176379" data-name="Trazado 176379" d="M11.013-10.415H7.172V0H4.087V-10.415H.316V-12.8h10.7ZM15.3,0H12.331V-9.51H15.3ZM12.155-11.962A1.322,1.322,0,0,1,12.612-13a1.724,1.724,0,0,1,1.187-.4,1.724,1.724,0,0,1,1.187.4,1.322,1.322,0,0,1,.457,1.037,1.322,1.322,0,0,1-.457,1.037,1.724,1.724,0,0,1-1.187.4,1.724,1.724,0,0,1-1.187-.4A1.322,1.322,0,0,1,12.155-11.962Zm13.8,7.277a5.735,5.735,0,0,1-1,3.538A3.2,3.2,0,0,1,22.263.176a2.742,2.742,0,0,1-2.153-.958V3.656H17.147V-9.51h2.769L20-8.631a2.742,2.742,0,0,1,2.241-1.055,3.224,3.224,0,0,1,2.733,1.3,5.805,5.805,0,0,1,.976,3.564Zm-2.962-.185q0-2.531-1.477-2.531a1.394,1.394,0,0,0-1.406.756V-2.9a1.439,1.439,0,0,0,1.424.791q1.415,0,1.459-2.443Zm3.894.026a5.613,5.613,0,0,1,.554-2.536A3.96,3.96,0,0,1,29.03-9.088a4.791,4.791,0,0,1,2.435-.6,4.373,4.373,0,0,1,3.366,1.323,5.076,5.076,0,0,1,1.23,3.6v.105a4.925,4.925,0,0,1-1.235,3.529A4.384,4.384,0,0,1,31.482.176a4.434,4.434,0,0,1-3.261-1.217,4.761,4.761,0,0,1-1.327-3.3Zm2.962.185a3.538,3.538,0,0,0,.413,1.934,1.376,1.376,0,0,0,1.222.615q1.582,0,1.617-2.435v-.3Q33.1-7.4,31.465-7.4q-1.485,0-1.608,2.206Zm11.628-.167a5.809,5.809,0,0,1,.976-3.56,3.211,3.211,0,0,1,2.725-1.3,2.731,2.731,0,0,1,2.145,1V-13.5h2.971V0H47.628l-.149-1.02a2.8,2.8,0,0,1-2.32,1.2,3.205,3.205,0,0,1-2.689-1.3A5.993,5.993,0,0,1,41.476-4.825Zm2.962.185q0,2.531,1.477,2.531a1.458,1.458,0,0,0,1.406-.826V-6.557A1.419,1.419,0,0,0,45.932-7.4q-1.371,0-1.485,2.215ZM56.575.176a4.889,4.889,0,0,1-3.542-1.305,4.507,4.507,0,0,1-1.354-3.4v-.246a5.84,5.84,0,0,1,.541-2.575A3.955,3.955,0,0,1,53.8-9.075a4.763,4.763,0,0,1,2.461-.611,4.117,4.117,0,0,1,3.164,1.244,4.887,4.887,0,0,1,1.16,3.467v1.151H54.694a2.135,2.135,0,0,0,.694,1.257,2.066,2.066,0,0,0,1.389.457,2.662,2.662,0,0,0,2.2-.984l1.354,1.6A3.784,3.784,0,0,1,58.759-.277,5.3,5.3,0,0,1,56.575.176ZM56.241-7.4q-1.3,0-1.547,1.723h2.988v-.229a1.467,1.467,0,0,0-.36-1.1A1.434,1.434,0,0,0,56.241-7.4Zm13.465-4.474V-9.51h1.564v2.057H69.706V-3.1a1.111,1.111,0,0,0,.193.747,1.037,1.037,0,0,0,.765.211A4.345,4.345,0,0,0,71.4-2.2V-.079a5.466,5.466,0,0,1-1.67.255,3.1,3.1,0,0,1-2.259-.721,2.954,2.954,0,0,1-.729-2.188v-4.72H65.531V-9.51h1.213v-2.364Zm8.481,5.045-.976-.07a1.752,1.752,0,0,0-1.793.879V0H72.457V-9.51h2.777l.1,1.222a2.294,2.294,0,0,1,2.083-1.4,2.888,2.888,0,0,1,.826.105ZM84.349,0a3.344,3.344,0,0,1-.281-.853A2.754,2.754,0,0,1,81.782.176,3.374,3.374,0,0,1,79.5-.637a2.588,2.588,0,0,1-.94-2.043A2.66,2.66,0,0,1,79.7-5.019a5.821,5.821,0,0,1,3.322-.791h.914v-.5q0-1.316-1.134-1.316a.927.927,0,0,0-1.055,1.042H78.785a2.655,2.655,0,0,1,1.173-2.239,4.931,4.931,0,0,1,2.993-.86,4.323,4.323,0,0,1,2.874.888,3.086,3.086,0,0,1,1.081,2.435v4.21a4.311,4.311,0,0,0,.4,2V0ZM82.494-1.934a1.652,1.652,0,0,0,.918-.237,1.487,1.487,0,0,0,.523-.536V-4.228h-.861q-1.547,0-1.547,1.389a.848.848,0,0,0,.272.655A.986.986,0,0,0,82.494-1.934ZM91.266-9.51l.1,1.116a3.225,3.225,0,0,1,2.716-1.292A2.713,2.713,0,0,1,96.3-8.8a4.226,4.226,0,0,1,.76,2.672V0H94.087V-6a1.6,1.6,0,0,0-.29-1.059A1.342,1.342,0,0,0,92.742-7.4a1.413,1.413,0,0,0-1.292.686V0H88.488V-9.51Zm12.41,6.838a.684.684,0,0,0-.4-.606,6.016,6.016,0,0,0-1.5-.475A6.853,6.853,0,0,1,99.949-4.4a3.062,3.062,0,0,1-1.1-.971,2.319,2.319,0,0,1-.378-1.31,2.628,2.628,0,0,1,1.081-2.158,4.453,4.453,0,0,1,2.83-.848,4.934,4.934,0,0,1,3.023.853,2.666,2.666,0,0,1,1.143,2.241h-2.971q0-1.143-1.2-1.143a1.194,1.194,0,0,0-.782.259.8.8,0,0,0-.316.646.737.737,0,0,0,.387.642,3.654,3.654,0,0,0,1.235.4,10.671,10.671,0,0,1,1.49.378,2.706,2.706,0,0,1,2.145,2.646,2.491,2.491,0,0,1-1.156,2.118,5.068,5.068,0,0,1-2.993.817,5.172,5.172,0,0,1-2.18-.439,3.645,3.645,0,0,1-1.494-1.2,2.707,2.707,0,0,1-.536-1.591h2.769a1.145,1.145,0,0,0,.439.962,1.808,1.808,0,0,0,1.081.3,1.422,1.422,0,0,0,.91-.246A.787.787,0,0,0,103.676-2.672Zm13.069-2.013a5.735,5.735,0,0,1-1,3.538A3.2,3.2,0,0,1,113.054.176,2.742,2.742,0,0,1,110.9-.782V3.656h-2.962V-9.51h2.769l.088.879a2.742,2.742,0,0,1,2.241-1.055,3.224,3.224,0,0,1,2.733,1.3,5.805,5.805,0,0,1,.976,3.564Zm-2.962-.185q0-2.531-1.477-2.531a1.394,1.394,0,0,0-1.406.756V-2.9a1.439,1.439,0,0,0,1.424.791q1.415,0,1.459-2.443Zm3.894.026a5.613,5.613,0,0,1,.554-2.536,3.96,3.96,0,0,1,1.591-1.709,4.791,4.791,0,0,1,2.435-.6,4.373,4.373,0,0,1,3.366,1.323,5.076,5.076,0,0,1,1.23,3.6v.105a4.925,4.925,0,0,1-1.235,3.529A4.384,4.384,0,0,1,122.273.176a4.434,4.434,0,0,1-3.261-1.217,4.761,4.761,0,0,1-1.327-3.3Zm2.962.185a3.538,3.538,0,0,0,.413,1.934,1.376,1.376,0,0,0,1.222.615q1.582,0,1.617-2.435v-.3q0-2.558-1.635-2.558-1.485,0-1.608,2.206ZM133.91-6.829l-.976-.07a1.752,1.752,0,0,0-1.793.879V0H128.18V-9.51h2.777l.1,1.222a2.294,2.294,0,0,1,2.083-1.4,2.888,2.888,0,0,1,.826.105Zm4.957-5.045V-9.51h1.564v2.057h-1.564V-3.1a1.111,1.111,0,0,0,.193.747,1.037,1.037,0,0,0,.765.211,4.345,4.345,0,0,0,.738-.053V-.079a5.466,5.466,0,0,1-1.67.255,3.1,3.1,0,0,1-2.259-.721,2.954,2.954,0,0,1-.729-2.188v-4.72h-1.213V-9.51h1.213v-2.364ZM146.2.176a4.889,4.889,0,0,1-3.542-1.305,4.507,4.507,0,0,1-1.354-3.4v-.246a5.84,5.84,0,0,1,.541-2.575,3.955,3.955,0,0,1,1.578-1.727,4.763,4.763,0,0,1,2.461-.611,4.117,4.117,0,0,1,3.164,1.244,4.887,4.887,0,0,1,1.16,3.467v1.151h-5.889a2.135,2.135,0,0,0,.694,1.257,2.066,2.066,0,0,0,1.389.457,2.662,2.662,0,0,0,2.2-.984l1.354,1.6a3.784,3.784,0,0,1-1.569,1.217A5.3,5.3,0,0,1,146.2.176ZM145.863-7.4q-1.3,0-1.547,1.723H147.3v-.229a1.467,1.467,0,0,0-.36-1.1A1.434,1.434,0,0,0,145.863-7.4Z" transform="translate(400 1725.663)" fill="#12263f"/>
    <path id="Trazado_176380" data-name="Trazado 176380" d="M4.052-2.373h5.37V0H.967V-12.8H4.052ZM15.188.176a4.889,4.889,0,0,1-3.542-1.305,4.507,4.507,0,0,1-1.354-3.4v-.246a5.84,5.84,0,0,1,.541-2.575A3.955,3.955,0,0,1,12.41-9.075a4.763,4.763,0,0,1,2.461-.611,4.117,4.117,0,0,1,3.164,1.244A4.887,4.887,0,0,1,19.2-4.975v1.151H13.307A2.135,2.135,0,0,0,14-2.566a2.066,2.066,0,0,0,1.389.457,2.662,2.662,0,0,0,2.2-.984l1.354,1.6A3.784,3.784,0,0,1,17.372-.277,5.3,5.3,0,0,1,15.188.176ZM14.854-7.4q-1.3,0-1.547,1.723h2.988v-.229a1.467,1.467,0,0,0-.36-1.1A1.434,1.434,0,0,0,14.854-7.4Zm8.982-4.474V-9.51H25.4v2.057H23.836V-3.1a1.111,1.111,0,0,0,.193.747,1.037,1.037,0,0,0,.765.211,4.345,4.345,0,0,0,.738-.053V-.079a5.466,5.466,0,0,1-1.67.255A3.1,3.1,0,0,1,21.6-.545a2.954,2.954,0,0,1-.729-2.188v-4.72H19.661V-9.51h1.213v-2.364Zm8.481,5.045-.976-.07a1.752,1.752,0,0,0-1.793.879V0H26.587V-9.51h2.777l.1,1.222a2.294,2.294,0,0,1,2.083-1.4,2.888,2.888,0,0,1,.826.105ZM38.479,0A3.344,3.344,0,0,1,38.2-.853,2.754,2.754,0,0,1,35.912.176a3.374,3.374,0,0,1-2.285-.813,2.588,2.588,0,0,1-.94-2.043,2.66,2.66,0,0,1,1.143-2.338,5.821,5.821,0,0,1,3.322-.791h.914v-.5q0-1.316-1.134-1.316a.927.927,0,0,0-1.055,1.042H32.915a2.655,2.655,0,0,1,1.173-2.239,4.931,4.931,0,0,1,2.993-.86,4.323,4.323,0,0,1,2.874.888,3.086,3.086,0,0,1,1.081,2.435v4.21a4.311,4.311,0,0,0,.4,2V0ZM36.624-1.934a1.652,1.652,0,0,0,.918-.237,1.487,1.487,0,0,0,.523-.536V-4.228H37.2q-1.547,0-1.547,1.389a.848.848,0,0,0,.272.655A.986.986,0,0,0,36.624-1.934Zm11.03-.738a.684.684,0,0,0-.4-.606,6.016,6.016,0,0,0-1.5-.475A6.853,6.853,0,0,1,43.928-4.4a3.062,3.062,0,0,1-1.1-.971,2.319,2.319,0,0,1-.378-1.31,2.628,2.628,0,0,1,1.081-2.158,4.453,4.453,0,0,1,2.83-.848,4.934,4.934,0,0,1,3.023.853,2.666,2.666,0,0,1,1.143,2.241H47.558q0-1.143-1.2-1.143a1.194,1.194,0,0,0-.782.259.8.8,0,0,0-.316.646.737.737,0,0,0,.387.642,3.654,3.654,0,0,0,1.235.4,10.671,10.671,0,0,1,1.49.378A2.706,2.706,0,0,1,50.511-2.76,2.491,2.491,0,0,1,49.355-.642a5.068,5.068,0,0,1-2.993.817,5.172,5.172,0,0,1-2.18-.439,3.645,3.645,0,0,1-1.494-1.2,2.707,2.707,0,0,1-.536-1.591h2.769a1.145,1.145,0,0,0,.439.962,1.808,1.808,0,0,0,1.081.3,1.422,1.422,0,0,0,.91-.246A.787.787,0,0,0,47.654-2.672ZM56-4.852A5.709,5.709,0,0,1,56.988-8.4,3.233,3.233,0,0,1,59.7-9.686a2.761,2.761,0,0,1,2.338,1.2l.211-1.02h2.566V3.656H61.849V-.791a2.757,2.757,0,0,1-2.162.967A3.2,3.2,0,0,1,57-1.129,6.027,6.027,0,0,1,56-4.852Zm2.962.185q0,2.558,1.477,2.558a1.43,1.43,0,0,0,1.406-.773V-6.645A1.4,1.4,0,0,0,60.46-7.4q-1.38,0-1.485,2.206ZM72.158-1.028a3.054,3.054,0,0,1-2.54,1.2,3,3,0,0,1-2.369-.91,3.826,3.826,0,0,1-.8-2.615V-9.51h2.962v6.179a1.065,1.065,0,0,0,1.187,1.222,1.548,1.548,0,0,0,1.45-.729V-9.51h2.979V0H72.246Zm9.088,1.2A4.889,4.889,0,0,1,77.7-1.129a4.507,4.507,0,0,1-1.354-3.4v-.246a5.84,5.84,0,0,1,.541-2.575,3.955,3.955,0,0,1,1.578-1.727,4.763,4.763,0,0,1,2.461-.611,4.117,4.117,0,0,1,3.164,1.244,4.887,4.887,0,0,1,1.16,3.467v1.151H79.365a2.135,2.135,0,0,0,.694,1.257,2.066,2.066,0,0,0,1.389.457,2.662,2.662,0,0,0,2.2-.984L85-1.494A3.784,3.784,0,0,1,83.43-.277,5.3,5.3,0,0,1,81.246.176ZM80.912-7.4q-1.3,0-1.547,1.723h2.988v-.229a1.467,1.467,0,0,0-.36-1.1A1.434,1.434,0,0,0,80.912-7.4ZM94.052,0H91.081V-13.5h2.971ZM95.5-4.843a5.613,5.613,0,0,1,.554-2.536,3.96,3.96,0,0,1,1.591-1.709,4.791,4.791,0,0,1,2.435-.6,4.373,4.373,0,0,1,3.366,1.323,5.076,5.076,0,0,1,1.23,3.6v.105a4.925,4.925,0,0,1-1.235,3.529A4.384,4.384,0,0,1,100.1.176a4.434,4.434,0,0,1-3.261-1.217,4.761,4.761,0,0,1-1.327-3.3Zm2.962.185a3.538,3.538,0,0,0,.413,1.934,1.376,1.376,0,0,0,1.222.615q1.582,0,1.617-2.435v-.3q0-2.558-1.635-2.558-1.485,0-1.608,2.206ZM113.59,0h-2.971V-9.51h2.971Zm-3.146-11.962A1.322,1.322,0,0,1,110.9-13a1.724,1.724,0,0,1,1.187-.4,1.724,1.724,0,0,1,1.187.4,1.322,1.322,0,0,1,.457,1.037,1.322,1.322,0,0,1-.457,1.037,1.724,1.724,0,0,1-1.187.4,1.724,1.724,0,0,1-1.187-.4A1.322,1.322,0,0,1,110.443-11.962Zm4.6,7.137a5.809,5.809,0,0,1,.976-3.56,3.211,3.211,0,0,1,2.725-1.3,2.731,2.731,0,0,1,2.145,1V-13.5h2.971V0h-2.663l-.149-1.02a2.8,2.8,0,0,1-2.32,1.2,3.205,3.205,0,0,1-2.689-1.3A5.993,5.993,0,0,1,115.04-4.825ZM118-4.641q0,2.531,1.477,2.531a1.458,1.458,0,0,0,1.406-.826V-6.557A1.419,1.419,0,0,0,119.5-7.4q-1.371,0-1.485,2.215ZM130.14.176A4.889,4.889,0,0,1,126.6-1.129a4.507,4.507,0,0,1-1.354-3.4v-.246a5.84,5.84,0,0,1,.541-2.575,3.955,3.955,0,0,1,1.578-1.727,4.763,4.763,0,0,1,2.461-.611,4.117,4.117,0,0,1,3.164,1.244,4.887,4.887,0,0,1,1.16,3.467v1.151h-5.889a2.135,2.135,0,0,0,.694,1.257,2.066,2.066,0,0,0,1.389.457,2.662,2.662,0,0,0,2.2-.984l1.354,1.6a3.784,3.784,0,0,1-1.569,1.217A5.3,5.3,0,0,1,130.14.176ZM129.806-7.4q-1.3,0-1.547,1.723h2.988v-.229a1.467,1.467,0,0,0-.36-1.1A1.434,1.434,0,0,0,129.806-7.4Zm8.253-2.109.1,1.116a3.225,3.225,0,0,1,2.716-1.292,2.713,2.713,0,0,1,2.219.888,4.226,4.226,0,0,1,.76,2.672V0H140.88V-6a1.6,1.6,0,0,0-.29-1.059,1.342,1.342,0,0,0-1.055-.338,1.413,1.413,0,0,0-1.292.686V0h-2.962V-9.51ZM148.614,0h-2.971V-9.51h2.971Zm-3.146-11.962A1.322,1.322,0,0,1,145.925-13a1.724,1.724,0,0,1,1.187-.4,1.724,1.724,0,0,1,1.187.4,1.322,1.322,0,0,1,.457,1.037,1.322,1.322,0,0,1-.457,1.037,1.724,1.724,0,0,1-1.187.4,1.724,1.724,0,0,1-1.187-.4A1.322,1.322,0,0,1,145.468-11.962ZM151.128,0V-7.453h-1.38V-9.51h1.38v-.316a3.631,3.631,0,0,1,1.248-2.909,4.987,4.987,0,0,1,3.243-.949,11.509,11.509,0,0,1,3.094.51l-.4,2.338-.492-.132a7.832,7.832,0,0,0-2.021-.255q-1.7,0-1.7,1.547v.167h1.863v2.057H154.1V0Zm8.947,0H157.1V-9.51h2.979ZM165.9-2.109a1.317,1.317,0,0,0,.967-.338,1.241,1.241,0,0,0,.334-.945h2.777A3.288,3.288,0,0,1,168.86-.826a4.168,4.168,0,0,1-2.887,1,4.22,4.22,0,0,1-3.27-1.3,5.125,5.125,0,0,1-1.2-3.6v-.123A5.792,5.792,0,0,1,162.04-7.4a3.872,3.872,0,0,1,1.534-1.7,4.573,4.573,0,0,1,2.373-.593,4.116,4.116,0,0,1,2.944,1.028,3.647,3.647,0,0,1,1.09,2.786H167.2A1.626,1.626,0,0,0,166.843-7a1.244,1.244,0,0,0-.967-.4q-1.151,0-1.345,1.468a10.357,10.357,0,0,0-.062,1.283,4.068,4.068,0,0,0,.343,1.986A1.187,1.187,0,0,0,165.9-2.109ZM176.59,0a3.344,3.344,0,0,1-.281-.853A2.754,2.754,0,0,1,174.023.176a3.374,3.374,0,0,1-2.285-.813,2.588,2.588,0,0,1-.94-2.043,2.66,2.66,0,0,1,1.143-2.338,5.821,5.821,0,0,1,3.322-.791h.914v-.5q0-1.316-1.134-1.316a.927.927,0,0,0-1.055,1.042h-2.962A2.655,2.655,0,0,1,172.2-8.825a4.931,4.931,0,0,1,2.993-.86,4.323,4.323,0,0,1,2.874.888,3.086,3.086,0,0,1,1.081,2.435v4.21a4.311,4.311,0,0,0,.4,2V0Zm-1.854-1.934a1.652,1.652,0,0,0,.918-.237,1.487,1.487,0,0,0,.523-.536V-4.228h-.861q-1.547,0-1.547,1.389a.848.848,0,0,0,.272.655A.986.986,0,0,0,174.735-1.934Zm8.771-7.576.1,1.116a3.225,3.225,0,0,1,2.716-1.292,2.713,2.713,0,0,1,2.219.888,4.226,4.226,0,0,1,.76,2.672V0h-2.971V-6a1.6,1.6,0,0,0-.29-1.059,1.342,1.342,0,0,0-1.055-.338,1.413,1.413,0,0,0-1.292.686V0h-2.962V-9.51Z" transform="translate(601 1725.663)" fill="#12263f"/>
    <path id="Trazado_174174" data-name="Trazado 174174" d="M-2613-9997.5h60.117" transform="translate(3171 11765.663)" fill="none" stroke="#a4a3ff" stroke-width="2"/>
    <path id="Trazado_174175" data-name="Trazado 174175" d="M-2613-9997.5h60.117" transform="translate(3171 11819.163)" fill="none" stroke="#ff8578" stroke-width="2"/>
    <path id="Trazado_174176" data-name="Trazado 174176" d="M-2613-9997.5h60.117" transform="translate(3171 11877.163)" fill="none" stroke="#ffde96" stroke-width="2"/>
    <g id="Trazado_176372" data-name="Trazado 176372" transform="translate(391 1743.663)" fill="#a4a3ff">
      <path d="M 180 45 L 10 45 C 5.037374973297119 45 1 40.96262359619141 1 36 L 1 10 C 1 5.037374973297119 5.037374973297119 1 10 1 L 180 1 C 184.9626312255859 1 189 5.037374973297119 189 10 L 189 36 C 189 40.96262359619141 184.9626312255859 45 180 45 Z" stroke="none"/>
      <path d="M 10 2 C 5.588775634765625 2 2 5.588775634765625 2 10 L 2 36 C 2 40.41122436523438 5.588775634765625 44 10 44 L 180 44 C 184.4112243652344 44 188 40.41122436523438 188 36 L 188 10 C 188 5.588775634765625 184.4112243652344 2 180 2 L 10 2 M 10 0 L 180 0 C 185.5228576660156 0 190 4.477149963378906 190 10 L 190 36 C 190 41.52285003662109 185.5228576660156 46 180 46 L 10 46 C 4.477157592773438 46 0 41.52285003662109 0 36 L 0 10 C 0 4.477149963378906 4.477157592773438 0 10 0 Z" stroke="none" fill="#cbcbff"/>
    </g>
    <g id="Trazado_176373" data-name="Trazado 176373" transform="translate(391 1798.663)" fill="#ff8578">
      <path d="M 180 45 L 10 45 C 5.037374973297119 45 1 40.96262359619141 1 36 L 1 10 C 1 5.037374973297119 5.037374973297119 1 10 1 L 180 1 C 184.9626312255859 1 189 5.037374973297119 189 10 L 189 36 C 189 40.96262359619141 184.9626312255859 45 180 45 Z" stroke="none"/>
      <path d="M 10 2 C 5.588775634765625 2 2 5.588775634765625 2 10 L 2 36 C 2 40.41122436523438 5.588775634765625 44 10 44 L 180 44 C 184.4112243652344 44 188 40.41122436523438 188 36 L 188 10 C 188 5.588775634765625 184.4112243652344 2 180 2 L 10 2 M 10 0 L 180 0 C 185.5228576660156 0 190 4.477149963378906 190 10 L 190 36 C 190 41.52285003662109 185.5228576660156 46 180 46 L 10 46 C 4.477157592773438 46 0 41.52285003662109 0 36 L 0 10 C 0 4.477149963378906 4.477157592773438 0 10 0 Z" stroke="none" fill="#ffb7af"/>
    </g>
    <g id="Trazado_176374" data-name="Trazado 176374" transform="translate(391 1854.663)" fill="#ffde96">
      <path d="M 180 45 L 10 45 C 5.037374973297119 45 1 40.96262359619141 1 36 L 1 10 C 1 5.037374973297119 5.037374973297119 1 10 1 L 180 1 C 184.9626312255859 1 189 5.037374973297119 189 10 L 189 36 C 189 40.96262359619141 184.9626312255859 45 180 45 Z" stroke="none"/>
      <path d="M 10 2 C 5.588775634765625 2 2 5.588775634765625 2 10 L 2 36 C 2 40.41122436523438 5.588775634765625 44 10 44 L 180 44 C 184.4112243652344 44 188 40.41122436523438 188 36 L 188 10 C 188 5.588775634765625 184.4112243652344 2 180 2 L 10 2 M 10 0 L 180 0 C 185.5228576660156 0 190 4.477149963378906 190 10 L 190 36 C 190 41.52285003662109 185.5228576660156 46 180 46 L 10 46 C 4.477157592773438 46 0 41.52285003662109 0 36 L 0 10 C 0 4.477149963378906 4.477157592773438 0 10 0 Z" stroke="none" fill="#fff2d6"/>
    </g>
    <g id="Trazado_176371" data-name="Trazado 176371" transform="translate(601 1744.663)" fill="#a4a3ff">
      <path d="M 180 45 L 10 45 C 5.037374973297119 45 1 40.96262359619141 1 36 L 1 10 C 1 5.037374973297119 5.037374973297119 1 10 1 L 180 1 C 184.9626312255859 1 189 5.037374973297119 189 10 L 189 36 C 189 40.96262359619141 184.9626312255859 45 180 45 Z" stroke="none"/>
      <path d="M 10 2 C 5.588775634765625 2 2 5.588775634765625 2 10 L 2 36 C 2 40.41122436523438 5.588775634765625 44 10 44 L 180 44 C 184.4112243652344 44 188 40.41122436523438 188 36 L 188 10 C 188 5.588775634765625 184.4112243652344 2 180 2 L 10 2 M 10 0 L 180 0 C 185.5228576660156 0 190 4.477149963378906 190 10 L 190 36 C 190 41.52285003662109 185.5228576660156 46 180 46 L 10 46 C 4.477157592773438 46 0 41.52285003662109 0 36 L 0 10 C 0 4.477149963378906 4.477157592773438 0 10 0 Z" stroke="none" fill="#cbcbff"/>
    </g>
    <g id="Trazado_176369" data-name="Trazado 176369" transform="translate(601 1798.663)" fill="#ff8578">
      <path d="M 180 45 L 10 45 C 5.037374973297119 45 1 40.96262359619141 1 36 L 1 10 C 1 5.037374973297119 5.037374973297119 1 10 1 L 180 1 C 184.9626312255859 1 189 5.037374973297119 189 10 L 189 36 C 189 40.96262359619141 184.9626312255859 45 180 45 Z" stroke="none"/>
      <path d="M 10 2 C 5.588775634765625 2 2 5.588775634765625 2 10 L 2 36 C 2 40.41122436523438 5.588775634765625 44 10 44 L 180 44 C 184.4112243652344 44 188 40.41122436523438 188 36 L 188 10 C 188 5.588775634765625 184.4112243652344 2 180 2 L 10 2 M 10 0 L 180 0 C 185.5228576660156 0 190 4.477149963378906 190 10 L 190 36 C 190 41.52285003662109 185.5228576660156 46 180 46 L 10 46 C 4.477157592773438 46 0 41.52285003662109 0 36 L 0 10 C 0 4.477149963378906 4.477157592773438 0 10 0 Z" stroke="none" fill="#ffb7af"/>
    </g>
    <g id="Trazado_176367" data-name="Trazado 176367" transform="translate(601 1854.663)" fill="#ffde96">
      <path d="M 180 45 L 10 45 C 5.037374973297119 45 1 40.96262359619141 1 36 L 1 10 C 1 5.037374973297119 5.037374973297119 1 10 1 L 180 1 C 184.9626312255859 1 189 5.037374973297119 189 10 L 189 36 C 189 40.96262359619141 184.9626312255859 45 180 45 Z" stroke="none"/>
      <path d="M 10 2 C 5.588775634765625 2 2 5.588775634765625 2 10 L 2 36 C 2 40.41122436523438 5.588775634765625 44 10 44 L 180 44 C 184.4112243652344 44 188 40.41122436523438 188 36 L 188 10 C 188 5.588775634765625 184.4112243652344 2 180 2 L 10 2 M 10 0 L 180 0 C 185.5228576660156 0 190 4.477149963378906 190 10 L 190 36 C 190 41.52285003662109 185.5228576660156 46 180 46 L 10 46 C 4.477157592773438 46 0 41.52285003662109 0 36 L 0 10 C 0 4.477149963378906 4.477157592773438 0 10 0 Z" stroke="none" fill="#fff2d6"/>
    </g>
    <path id="Trazado_176378" data-name="Trazado 176378" d="M1.32,0V-11.375H4.531a5.169,5.169,0,0,1,2.625.656A4.438,4.438,0,0,1,8.918-8.852,6.078,6.078,0,0,1,9.547-6.07v.727a6.1,6.1,0,0,1-.621,2.82A4.369,4.369,0,0,1,7.152-.664,5.5,5.5,0,0,1,4.469,0Zm1.5-10.148v8.922H4.4A3.434,3.434,0,0,0,7.1-2.306a4.458,4.458,0,0,0,.965-3.073v-.665a4.529,4.529,0,0,0-.91-3.014A3.239,3.239,0,0,0,4.57-10.148ZM15.094.156A3.693,3.693,0,0,1,12.3-.973a4.19,4.19,0,0,1-1.078-3.02v-.266A5.073,5.073,0,0,1,11.7-6.5a3.748,3.748,0,0,1,1.344-1.547,3.378,3.378,0,0,1,1.871-.559,3.166,3.166,0,0,1,2.563,1.086,4.7,4.7,0,0,1,.914,3.109v.6H12.664a3,3,0,0,0,.73,2.02,2.3,2.3,0,0,0,1.777.77,2.517,2.517,0,0,0,1.3-.312,3.259,3.259,0,0,0,.93-.828l.883.688A3.55,3.55,0,0,1,15.094.156Zm-.18-7.578a1.928,1.928,0,0,0-1.469.637A3.1,3.1,0,0,0,12.711-5h4.234v-.109a2.753,2.753,0,0,0-.594-1.707A1.815,1.815,0,0,0,14.914-7.422Zm12.5,6.4a2.082,2.082,0,0,0,1.352-.469,1.649,1.649,0,0,0,.641-1.172h1.367a2.621,2.621,0,0,1-.5,1.383,3.293,3.293,0,0,1-1.23,1.047,3.55,3.55,0,0,1-1.629.391A3.482,3.482,0,0,1,24.668-1a4.59,4.59,0,0,1-1.02-3.152v-.242a5.089,5.089,0,0,1,.453-2.2,3.451,3.451,0,0,1,1.3-1.492,3.7,3.7,0,0,1,2-.531,3.39,3.39,0,0,1,2.363.852,3.043,3.043,0,0,1,1,2.211H29.406a1.992,1.992,0,0,0-.621-1.348,1.932,1.932,0,0,0-1.379-.527,2.023,2.023,0,0,0-1.707.793,3.724,3.724,0,0,0-.605,2.293v.273a3.65,3.65,0,0,0,.6,2.25A2.033,2.033,0,0,0,27.414-1.023ZM37.617,0a3.036,3.036,0,0,1-.2-.891A3.225,3.225,0,0,1,35.008.156a2.984,2.984,0,0,1-2.051-.707,2.287,2.287,0,0,1-.8-1.793,2.39,2.39,0,0,1,1-2.051,4.733,4.733,0,0,1,2.824-.73h1.406v-.664A1.623,1.623,0,0,0,36.938-7,1.821,1.821,0,0,0,35.6-7.445a2.107,2.107,0,0,0-1.3.391,1.151,1.151,0,0,0-.523.945H32.328a2,2,0,0,1,.449-1.223A3.066,3.066,0,0,1,34-8.266a4.1,4.1,0,0,1,1.691-.344,3.342,3.342,0,0,1,2.289.73,2.635,2.635,0,0,1,.859,2.012v3.891a4.757,4.757,0,0,0,.3,1.852V0Zm-2.4-1.1a2.54,2.54,0,0,0,1.289-.352,2.127,2.127,0,0,0,.883-.914V-4.1H36.258Q33.6-4.1,33.6-2.547a1.316,1.316,0,0,0,.453,1.063A1.742,1.742,0,0,0,35.219-1.1Zm9.969-6.055a4.331,4.331,0,0,0-.711-.055A1.9,1.9,0,0,0,42.547-6V0H41.1V-8.453h1.406l.023.977a2.251,2.251,0,0,1,2.016-1.133,1.477,1.477,0,0,1,.641.109ZM46.172-4.3a4.968,4.968,0,0,1,.914-3.145,2.923,2.923,0,0,1,2.422-1.168,2.908,2.908,0,0,1,2.414,1.094l.07-.937h1.32V-.2a3.439,3.439,0,0,1-.973,2.586,3.589,3.589,0,0,1-2.613.945,4.348,4.348,0,0,1-1.789-.391A3.08,3.08,0,0,1,46.6,1.867L47.352,1a2.826,2.826,0,0,0,2.273,1.148,2.214,2.214,0,0,0,1.645-.594,2.269,2.269,0,0,0,.59-1.672V-.844a2.971,2.971,0,0,1-2.367,1,2.887,2.887,0,0,1-2.4-1.2A5.224,5.224,0,0,1,46.172-4.3Zm1.453.164a3.79,3.79,0,0,0,.586,2.246,1.9,1.9,0,0,0,1.641.816,2.117,2.117,0,0,0,2.008-1.242V-6.172a2.142,2.142,0,0,0-1.992-1.211,1.921,1.921,0,0,0-1.648.82A4.128,4.128,0,0,0,47.625-4.133ZM60.711,0a3.036,3.036,0,0,1-.2-.891A3.225,3.225,0,0,1,58.1.156a2.984,2.984,0,0,1-2.051-.707,2.287,2.287,0,0,1-.8-1.793,2.39,2.39,0,0,1,1-2.051,4.733,4.733,0,0,1,2.824-.73h1.406v-.664A1.623,1.623,0,0,0,60.031-7,1.821,1.821,0,0,0,58.7-7.445a2.107,2.107,0,0,0-1.3.391,1.151,1.151,0,0,0-.523.945H55.422a2,2,0,0,1,.449-1.223,3.066,3.066,0,0,1,1.219-.934,4.1,4.1,0,0,1,1.691-.344,3.342,3.342,0,0,1,2.289.73,2.635,2.635,0,0,1,.859,2.012v3.891a4.757,4.757,0,0,0,.3,1.852V0Zm-2.4-1.1A2.54,2.54,0,0,0,59.6-1.453a2.127,2.127,0,0,0,.883-.914V-4.1H59.352Q56.7-4.1,56.7-2.547a1.316,1.316,0,0,0,.453,1.063A1.742,1.742,0,0,0,58.313-1.1Z" transform="translate(455 1773.663)" fill="#12263f"/>
    <path id="Trazado_176375" data-name="Trazado 176375" d="M4.48-3.609A4.185,4.185,0,0,1,3.148-.824a4.365,4.365,0,0,1-2.98.98,4.008,4.008,0,0,1-3.23-1.445A5.815,5.815,0,0,1-4.277-5.156V-6.25a6.481,6.481,0,0,1,.566-2.789,4.231,4.231,0,0,1,1.605-1.848A4.47,4.47,0,0,1,.3-11.531,4.11,4.11,0,0,1,3.207-10.52a4.235,4.235,0,0,1,1.273,2.8H2.973a3.268,3.268,0,0,0-.848-1.975A2.565,2.565,0,0,0,.3-10.3,2.684,2.684,0,0,0-1.953-9.241,4.882,4.882,0,0,0-2.77-6.215v1.1A5.018,5.018,0,0,0-2-2.165,2.5,2.5,0,0,0,.168-1.07a2.887,2.887,0,0,0,1.918-.566,3.143,3.143,0,0,0,.887-1.973Z" transform="translate(696 1774.663)" fill="#12263f"/>
    <path id="Trazado_176370" data-name="Trazado 176370" d="M-.074-5.07A7.053,7.053,0,0,1-2.883-6.434a2.6,2.6,0,0,1-.879-2,2.751,2.751,0,0,1,1.074-2.223,4.269,4.269,0,0,1,2.793-.879,4.66,4.66,0,0,1,2.09.453,3.436,3.436,0,0,1,1.422,1.25,3.2,3.2,0,0,1,.5,1.742H2.613a2.08,2.08,0,0,0-.656-1.627A2.669,2.669,0,0,0,.105-10.3a2.732,2.732,0,0,0-1.73.489,1.632,1.632,0,0,0-.621,1.358,1.468,1.468,0,0,0,.59,1.178A5.785,5.785,0,0,0,.352-6.4a9.316,9.316,0,0,1,2.219.88A3.367,3.367,0,0,1,3.758-4.4a2.861,2.861,0,0,1,.387,1.508A2.658,2.658,0,0,1,3.066-.676,4.6,4.6,0,0,1,.184.156,5.347,5.347,0,0,1-2-.293,3.681,3.681,0,0,1-3.57-1.523,3,3,0,0,1-4.121-3.3h1.508a1.959,1.959,0,0,0,.762,1.629,3.207,3.207,0,0,0,2.035.6A2.948,2.948,0,0,0,2-1.555a1.573,1.573,0,0,0,.633-1.32,1.545,1.545,0,0,0-.586-1.293A6.755,6.755,0,0,0-.074-5.07Z" transform="translate(696 1829.663)" fill="#12263f"/>
    <path id="Trazado_176368" data-name="Trazado 176368" d="M.566-4.6H-2.105V0H-3.613V-11.375H.152a4.457,4.457,0,0,1,2.957.875A3.148,3.148,0,0,1,4.145-7.953,3.062,3.062,0,0,1,3.57-6.1a3.428,3.428,0,0,1-1.6,1.18L4.645-.094V0H3.035ZM-2.105-5.828H.2a2.6,2.6,0,0,0,1.777-.579,1.959,1.959,0,0,0,.66-1.55,2.062,2.062,0,0,0-.629-1.62,2.663,2.663,0,0,0-1.816-.571h-2.3Z" transform="translate(696 1884.663)" fill="#12263f"/>
    <path id="Trazado_176376" data-name="Trazado 176376" d="M4.672-5.07A7.053,7.053,0,0,1,1.863-6.434a2.6,2.6,0,0,1-.879-2,2.751,2.751,0,0,1,1.074-2.223,4.269,4.269,0,0,1,2.793-.879,4.66,4.66,0,0,1,2.09.453,3.436,3.436,0,0,1,1.422,1.25,3.2,3.2,0,0,1,.5,1.742H7.359A2.08,2.08,0,0,0,6.7-9.713,2.669,2.669,0,0,0,4.852-10.3a2.732,2.732,0,0,0-1.73.489A1.632,1.632,0,0,0,2.5-8.458,1.468,1.468,0,0,0,3.09-7.28,5.785,5.785,0,0,0,5.1-6.4a9.316,9.316,0,0,1,2.219.88A3.367,3.367,0,0,1,8.5-4.4a2.861,2.861,0,0,1,.387,1.508A2.658,2.658,0,0,1,7.813-.676,4.6,4.6,0,0,1,4.93.156,5.347,5.347,0,0,1,2.742-.293a3.681,3.681,0,0,1-1.566-1.23A3,3,0,0,1,.625-3.3H2.133a1.959,1.959,0,0,0,.762,1.629,3.207,3.207,0,0,0,2.035.6,2.948,2.948,0,0,0,1.82-.484,1.573,1.573,0,0,0,.633-1.32A1.545,1.545,0,0,0,6.8-4.168,6.755,6.755,0,0,0,4.672-5.07ZM14.094.156A3.693,3.693,0,0,1,11.3-.973a4.19,4.19,0,0,1-1.078-3.02v-.266A5.073,5.073,0,0,1,10.7-6.5a3.748,3.748,0,0,1,1.344-1.547,3.378,3.378,0,0,1,1.871-.559,3.166,3.166,0,0,1,2.563,1.086,4.7,4.7,0,0,1,.914,3.109v.6H11.664a3,3,0,0,0,.73,2.02,2.3,2.3,0,0,0,1.777.77,2.517,2.517,0,0,0,1.3-.312,3.259,3.259,0,0,0,.93-.828l.883.688A3.55,3.55,0,0,1,14.094.156Zm-.18-7.578a1.928,1.928,0,0,0-1.469.637A3.1,3.1,0,0,0,11.711-5h4.234v-.109a2.753,2.753,0,0,0-.594-1.707A1.815,1.815,0,0,0,13.914-7.422Zm6.508-1.031.039.938a3.122,3.122,0,0,1,2.508-1.094A2.417,2.417,0,0,1,25.383-7.25a3.2,3.2,0,0,1,1.1-.984,3.242,3.242,0,0,1,1.6-.375q2.781,0,2.828,2.945V0H29.461V-5.578a1.941,1.941,0,0,0-.414-1.355,1.823,1.823,0,0,0-1.391-.449,1.916,1.916,0,0,0-1.336.48A1.949,1.949,0,0,0,25.7-5.609V0H24.25V-5.539a1.613,1.613,0,0,0-1.8-1.844A1.934,1.934,0,0,0,20.5-6.172V0H19.055V-8.453ZM34.656,0H33.211V-8.453h1.445ZM33.094-10.7a.863.863,0,0,1,.215-.594.807.807,0,0,1,.637-.242.819.819,0,0,1,.641.242.854.854,0,0,1,.219.594.826.826,0,0,1-.219.586.834.834,0,0,1-.641.234.821.821,0,0,1-.637-.234A.834.834,0,0,1,33.094-10.7Zm7.961,3.539a4.331,4.331,0,0,0-.711-.055A1.9,1.9,0,0,0,38.414-6V0H36.969V-8.453h1.406l.023.977a2.251,2.251,0,0,1,2.016-1.133,1.477,1.477,0,0,1,.641.109Zm5.414,0a4.331,4.331,0,0,0-.711-.055A1.9,1.9,0,0,0,43.828-6V0H42.383V-8.453h1.406l.023.977a2.251,2.251,0,0,1,2.016-1.133,1.477,1.477,0,0,1,.641.109ZM51.3.156a3.693,3.693,0,0,1-2.8-1.129,4.19,4.19,0,0,1-1.078-3.02v-.266A5.073,5.073,0,0,1,47.91-6.5a3.748,3.748,0,0,1,1.344-1.547,3.378,3.378,0,0,1,1.871-.559,3.166,3.166,0,0,1,2.563,1.086A4.7,4.7,0,0,1,54.6-4.414v.6H48.875a3,3,0,0,0,.73,2.02,2.3,2.3,0,0,0,1.777.77,2.517,2.517,0,0,0,1.3-.312,3.259,3.259,0,0,0,.93-.828l.883.688A3.55,3.55,0,0,1,51.3.156Zm-.18-7.578a1.928,1.928,0,0,0-1.469.637A3.1,3.1,0,0,0,48.922-5h4.234v-.109a2.753,2.753,0,0,0-.594-1.707A1.815,1.815,0,0,0,51.125-7.422Zm6.508-1.031.039.938A3.122,3.122,0,0,1,60.18-8.609,2.417,2.417,0,0,1,62.594-7.25a3.2,3.2,0,0,1,1.1-.984,3.242,3.242,0,0,1,1.6-.375q2.781,0,2.828,2.945V0H66.672V-5.578a1.941,1.941,0,0,0-.414-1.355,1.823,1.823,0,0,0-1.391-.449,1.916,1.916,0,0,0-1.336.48,1.949,1.949,0,0,0-.617,1.293V0H61.461V-5.539a1.613,1.613,0,0,0-1.8-1.844,1.934,1.934,0,0,0-1.945,1.211V0H56.266V-8.453ZM69.914-4.3A4.993,4.993,0,0,1,70.4-6.539,3.643,3.643,0,0,1,71.762-8.07a3.7,3.7,0,0,1,1.988-.539,3.565,3.565,0,0,1,2.793,1.2,4.6,4.6,0,0,1,1.066,3.18v.1a5.036,5.036,0,0,1-.473,2.215A3.589,3.589,0,0,1,75.785-.391a3.743,3.743,0,0,1-2.02.547,3.556,3.556,0,0,1-2.785-1.2A4.575,4.575,0,0,1,69.914-4.2Zm1.453.172a3.616,3.616,0,0,0,.652,2.258,2.088,2.088,0,0,0,1.746.852,2.075,2.075,0,0,0,1.75-.863A3.955,3.955,0,0,0,76.164-4.3a3.61,3.61,0,0,0-.66-2.254,2.1,2.1,0,0,0-1.754-.863,2.075,2.075,0,0,0-1.727.852A3.925,3.925,0,0,0,71.367-4.133ZM80.992,0H79.547V-12h1.445Zm1.961-4.3a4.961,4.961,0,0,1,.914-3.152,2.962,2.962,0,0,1,2.453-1.16A2.96,2.96,0,0,1,88.688-7.6l.063-.852h1.328V3.25H88.633V-.781A3.033,3.033,0,0,1,86.3.156a2.915,2.915,0,0,1-2.441-1.191,5.072,5.072,0,0,1-.91-3.16Zm1.445.164a3.761,3.761,0,0,0,.613,2.281,1.951,1.951,0,0,0,1.652.828,2.164,2.164,0,0,0,1.969-1.141V-6.3A2.171,2.171,0,0,0,86.68-7.422a1.965,1.965,0,0,0-1.664.832A4.094,4.094,0,0,0,84.4-4.133Zm13.219,3.3a3.07,3.07,0,0,1-2.477.992,2.628,2.628,0,0,1-2.059-.785,3.4,3.4,0,0,1-.715-2.324v-5.5h1.445v5.461q0,1.922,1.563,1.922a2.163,2.163,0,0,0,2.2-1.234V-8.453h1.445V0H97.648Zm7.109.992a3.693,3.693,0,0,1-2.8-1.129,4.19,4.19,0,0,1-1.078-3.02v-.266a5.073,5.073,0,0,1,.48-2.246,3.748,3.748,0,0,1,1.344-1.547,3.378,3.378,0,0,1,1.871-.559,3.166,3.166,0,0,1,2.563,1.086,4.7,4.7,0,0,1,.914,3.109v.6H102.3a3,3,0,0,0,.73,2.02,2.3,2.3,0,0,0,1.777.77,2.517,2.517,0,0,0,1.3-.312,3.259,3.259,0,0,0,.93-.828l.883.688A3.55,3.55,0,0,1,104.727.156Zm-.18-7.578a1.928,1.928,0,0,0-1.469.637A3.1,3.1,0,0,0,102.344-5h4.234v-.109a2.753,2.753,0,0,0-.594-1.707A1.815,1.815,0,0,0,104.547-7.422Z" transform="translate(432 1828.663)" fill="#12263f"/>
    <path id="Trazado_176377" data-name="Trazado 176377" d="M5.492-4.6H2.82V0H1.313V-11.375H5.078a4.457,4.457,0,0,1,2.957.875A3.148,3.148,0,0,1,9.07-7.953,3.062,3.062,0,0,1,8.5-6.1a3.428,3.428,0,0,1-1.6,1.18L9.57-.094V0H7.961ZM2.82-5.828h2.3A2.6,2.6,0,0,0,6.9-6.407a1.959,1.959,0,0,0,.66-1.55,2.062,2.062,0,0,0-.629-1.62,2.663,2.663,0,0,0-1.816-.571H2.82ZM14.453.156a3.693,3.693,0,0,1-2.8-1.129,4.19,4.19,0,0,1-1.078-3.02v-.266a5.073,5.073,0,0,1,.48-2.246A3.748,3.748,0,0,1,12.4-8.051a3.378,3.378,0,0,1,1.871-.559,3.166,3.166,0,0,1,2.563,1.086,4.7,4.7,0,0,1,.914,3.109v.6H12.023a3,3,0,0,0,.73,2.02,2.3,2.3,0,0,0,1.777.77,2.517,2.517,0,0,0,1.3-.312,3.259,3.259,0,0,0,.93-.828l.883.688A3.55,3.55,0,0,1,14.453.156Zm-.18-7.578a1.928,1.928,0,0,0-1.469.637A3.1,3.1,0,0,0,12.07-5H16.3v-.109a2.753,2.753,0,0,0-.594-1.707A1.815,1.815,0,0,0,14.273-7.422Zm6.508-1.031.039.938a3.122,3.122,0,0,1,2.508-1.094A2.417,2.417,0,0,1,25.742-7.25a3.2,3.2,0,0,1,1.1-.984,3.242,3.242,0,0,1,1.6-.375q2.781,0,2.828,2.945V0H29.82V-5.578a1.941,1.941,0,0,0-.414-1.355,1.823,1.823,0,0,0-1.391-.449,1.916,1.916,0,0,0-1.336.48,1.949,1.949,0,0,0-.617,1.293V0H24.609V-5.539a1.613,1.613,0,0,0-1.8-1.844,1.934,1.934,0,0,0-1.945,1.211V0H19.414V-8.453ZM33.063-4.3a4.993,4.993,0,0,1,.488-2.234A3.643,3.643,0,0,1,34.91-8.07,3.7,3.7,0,0,1,36.9-8.609a3.565,3.565,0,0,1,2.793,1.2,4.6,4.6,0,0,1,1.066,3.18v.1a5.036,5.036,0,0,1-.473,2.215A3.589,3.589,0,0,1,38.934-.391a3.743,3.743,0,0,1-2.02.547,3.556,3.556,0,0,1-2.785-1.2A4.575,4.575,0,0,1,33.063-4.2Zm1.453.172a3.616,3.616,0,0,0,.652,2.258,2.088,2.088,0,0,0,1.746.852,2.075,2.075,0,0,0,1.75-.863A3.955,3.955,0,0,0,39.313-4.3a3.61,3.61,0,0,0-.66-2.254A2.1,2.1,0,0,0,36.9-7.422a2.075,2.075,0,0,0-1.727.852A3.925,3.925,0,0,0,34.516-4.133ZM44.141,0H42.7V-12h1.445ZM46.1-4.3a4.961,4.961,0,0,1,.914-3.152,2.962,2.962,0,0,1,2.453-1.16A2.96,2.96,0,0,1,51.836-7.6l.063-.852h1.328V3.25H51.781V-.781a3.033,3.033,0,0,1-2.328.938,2.915,2.915,0,0,1-2.441-1.191A5.072,5.072,0,0,1,46.1-4.2Zm1.445.164a3.761,3.761,0,0,0,.613,2.281,1.951,1.951,0,0,0,1.652.828,2.164,2.164,0,0,0,1.969-1.141V-6.3a2.171,2.171,0,0,0-1.953-1.117,1.965,1.965,0,0,0-1.664.832A4.094,4.094,0,0,0,47.547-4.133Zm13.219,3.3a3.07,3.07,0,0,1-2.477.992A2.628,2.628,0,0,1,56.23-.629a3.4,3.4,0,0,1-.715-2.324v-5.5h1.445v5.461q0,1.922,1.563,1.922a2.163,2.163,0,0,0,2.2-1.234V-8.453h1.445V0H60.8Zm7.109.992a3.693,3.693,0,0,1-2.8-1.129A4.19,4.19,0,0,1,64-3.992v-.266A5.073,5.073,0,0,1,64.48-6.5a3.748,3.748,0,0,1,1.344-1.547A3.378,3.378,0,0,1,67.7-8.609a3.166,3.166,0,0,1,2.563,1.086,4.7,4.7,0,0,1,.914,3.109v.6H65.445a3,3,0,0,0,.73,2.02,2.3,2.3,0,0,0,1.777.77,2.517,2.517,0,0,0,1.3-.312,3.259,3.259,0,0,0,.93-.828l.883.688A3.55,3.55,0,0,1,67.875.156ZM67.7-7.422a1.928,1.928,0,0,0-1.469.637A3.1,3.1,0,0,0,65.492-5h4.234v-.109a2.753,2.753,0,0,0-.594-1.707A1.815,1.815,0,0,0,67.7-7.422Z" transform="translate(451 1884.663)" fill="#12263f"/>
  </g>
</svg>
