<?xml version="1.0" encoding="utf-8"?>
<!-- Generator: Adobe Illustrator 26.2.1, SVG Export Plug-In . SVG Version: 6.00 Build 0)  -->
<svg version="1.1" xmlns="http://www.w3.org/2000/svg" xmlns:xlink="http://www.w3.org/1999/xlink" x="0px" y="0px"
	 viewBox="0 0 459 390.4" style="enable-background:new 0 0 459 390.4;" xml:space="preserve">
<style type="text/css">
	.st0{fill:#DDF2FE;}
	.st1{fill:#FFFFFF;}
	.st2{fill:#87C5F4;}
	.st3{fill:#2480EF;}
	.st4{fill:#72B1EB;}
	.st5{fill:#ABD5F4;}
	.st6{fill:#274F8E;}
	.st7{fill:#EAA813;}
	.st8{fill:#164767;}
	.st9{fill:#9CE5E5;}
	.st10{fill:#FFC121;}
	.st11{fill:#FFDC21;}
	.st12{fill:#33C7CA;}
	.st13{fill:#E7AFA7;}
	.st14{fill:#F79889;}
	.st15{fill:#1EAFAF;}
	.st16{fill:#006CFF;}
</style>
<g id="BACKGROUND">
</g>
<g id="OBJECTS">
	<g>
		<path class="st0" d="M63.2,290.9c-21-25-35.5-56.6-42.2-87.3c-4.7-21.4-4.5-44.3,4-64.5C45.1,90.9,93,103.1,129,77.3
			c12.1-8.7,20.3-21.6,30.6-32.3c16.5-17.3,38.4-20.3,61.5-18.7c28.2,1.9,55.2,17.1,71.6,40.1c10.8,15.2,17,33.1,25.2,49.9
			c8.3,16.7,19.7,33.1,36.8,40.7c13,5.8,27.7,5.8,41.3,10c24.4,7.5,43.8,29.5,48.3,54.7c4.7,26.6-9,48.5-23.2,69.4H63.2z"/>
		<g>
			<path class="st1" d="M57.3,231.6c1.1,3.6,2.5,7.1,4.2,10.5l-13.9,13.7c0,0,0,0,0,0L72.3,281c0,0,0,0,0,0l13.9-13.7
				c3.4,1.8,6.9,3.3,10.4,4.4c0,0,0,0,0,0l-0.2,19.5c0,0,0,0,0,0l35.2,0.3c0,0,0,0,0,0l0.2-19.5c0,0,0,0,0,0c3.6-1,7.1-2.5,10.5-4.2
				l13.7,13.9c0,0,0,0,0,0l25.1-24.7c0,0,0,0,0,0l-13.7-13.9c1.8-3.4,3.3-6.9,4.4-10.5l0,0l19.5,0.2c0,0,0,0,0,0l0.3-35.2
				c0,0,0,0,0,0l-19.5-0.2c0,0,0,0,0,0c-1.1-3.6-2.5-7.1-4.2-10.5l13.9-13.7c0,0,0,0,0,0L157.5,148c0,0,0,0,0,0l-13.9,13.7
				c-3.4-1.8-6.9-3.3-10.4-4.4c0,0,0,0,0,0l0.2-19.5c0,0,0,0,0,0L98,137.4c0,0,0,0,0,0l-0.2,19.5c-3.6,1.1-7.1,2.5-10.5,4.2
				l-13.7-13.9c0,0,0,0,0,0l-25.1,24.7c0,0,0,0,0,0l13.7,13.9c-1.8,3.4-3.3,6.9-4.4,10.5v0l-19.5-0.2c0,0,0,0,0,0l-0.3,35.2
				c0,0,0,0,0,0L57.3,231.6L57.3,231.6z M106.8,177.6c20.8-4.5,41.4,8.6,45.9,29.4s-8.6,41.4-29.4,45.9
				c-20.8,4.5-41.4-8.6-45.9-29.4S86,182.1,106.8,177.6z"/>
		</g>
		<g>
			<path class="st2" d="M288.7,106.3v184.6h9.5v-48h114.4v48h7.3V106.3H288.7z M298.2,181h114.4v48.4H298.2V181z M298.2,119.1h114.4
				v48.4H298.2V119.1z"/>
			<g>
				
					<rect x="391.1" y="119.1" transform="matrix(-1 -1.224647e-16 1.224647e-16 -1 798.8915 286.5644)" class="st3" width="16.7" height="48.3"/>
				<path class="st1" d="M394.9,157.4c0,2.5,2,4.5,4.5,4.5s4.5-2,4.5-4.5c0-2.5-2-4.5-4.5-4.5S394.9,154.9,394.9,157.4z"/>
				<circle class="st0" cx="399.4" cy="157.4" r="3.6"/>
				
					<rect x="394" y="125.3" transform="matrix(-1 -1.224647e-16 1.224647e-16 -1 798.7172 273.5283)" class="st4" width="10.6" height="23"/>
				<g>
					
						<rect x="394.9" y="145.5" transform="matrix(-1 -1.224647e-16 1.224647e-16 -1 798.7172 291.2825)" class="st0" width="9" height="0.4"/>
					
						<rect x="394.9" y="142.2" transform="matrix(-1 -1.224647e-16 1.224647e-16 -1 798.7172 284.7386)" class="st0" width="9" height="0.4"/>
					
						<rect x="394.9" y="138.9" transform="matrix(-1 -1.224647e-16 1.224647e-16 -1 798.7172 278.1947)" class="st0" width="9" height="0.4"/>
					
						<rect x="394.9" y="132.4" transform="matrix(-1 -1.224647e-16 1.224647e-16 -1 798.7172 265.1069)" class="st0" width="9" height="0.4"/>
					
						<rect x="394.9" y="129.1" transform="matrix(-1 -1.224647e-16 1.224647e-16 -1 798.7172 258.563)" class="st0" width="9" height="0.4"/>
					
						<rect x="394.9" y="135.6" transform="matrix(-1 -1.224647e-16 1.224647e-16 -1 798.7172 271.6508)" class="st0" width="9" height="0.4"/>
				</g>
			</g>
			<g>
				
					<rect x="357.6" y="119.1" transform="matrix(-1 -1.224647e-16 1.224647e-16 -1 731.9553 286.5644)" class="st5" width="16.7" height="48.3"/>
				<path class="st1" d="M361.4,157.4c0,2.5,2,4.5,4.5,4.5c2.5,0,4.5-2,4.5-4.5c0-2.5-2-4.5-4.5-4.5
					C363.5,152.9,361.4,154.9,361.4,157.4z"/>
				<circle class="st0" cx="366" cy="157.4" r="3.6"/>
				
					<rect x="360.6" y="125.3" transform="matrix(-1 -1.224647e-16 1.224647e-16 -1 731.7808 273.5283)" class="st1" width="10.6" height="23"/>
				<g>
					
						<rect x="361.4" y="145.5" transform="matrix(-1 -1.224647e-16 1.224647e-16 -1 731.7808 291.2825)" class="st4" width="9" height="0.4"/>
					
						<rect x="361.4" y="142.2" transform="matrix(-1 -1.224647e-16 1.224647e-16 -1 731.7808 284.7386)" class="st4" width="9" height="0.4"/>
					
						<rect x="361.4" y="138.9" transform="matrix(-1 -1.224647e-16 1.224647e-16 -1 731.7808 278.1947)" class="st4" width="9" height="0.4"/>
					
						<rect x="361.4" y="132.4" transform="matrix(-1 -1.224647e-16 1.224647e-16 -1 731.7808 265.1069)" class="st4" width="9" height="0.4"/>
					
						<rect x="361.4" y="129.1" transform="matrix(-1 -1.224647e-16 1.224647e-16 -1 731.7808 258.563)" class="st4" width="9" height="0.4"/>
					
						<rect x="361.4" y="135.6" transform="matrix(-1 -1.224647e-16 1.224647e-16 -1 731.7808 271.6508)" class="st4" width="9" height="0.4"/>
				</g>
			</g>
			<g>
				
					<rect x="374.3" y="119.1" transform="matrix(-1 -1.224647e-16 1.224647e-16 -1 765.4235 286.5644)" class="st6" width="16.7" height="48.3"/>
				<path class="st1" d="M378.2,157.4c0,2.5,2,4.5,4.5,4.5c2.5,0,4.5-2,4.5-4.5c0-2.5-2-4.5-4.5-4.5
					C380.2,152.9,378.2,154.9,378.2,157.4z"/>
				<circle class="st0" cx="382.7" cy="157.4" r="3.6"/>
				
					<rect x="377.3" y="125.3" transform="matrix(-1 -1.224647e-16 1.224647e-16 -1 765.249 273.5283)" class="st4" width="10.6" height="23"/>
				<g>
					
						<rect x="378.1" y="145.5" transform="matrix(-1 -1.224647e-16 1.224647e-16 -1 765.249 291.2825)" class="st0" width="9" height="0.4"/>
					
						<rect x="378.1" y="142.2" transform="matrix(-1 -1.224647e-16 1.224647e-16 -1 765.249 284.7386)" class="st0" width="9" height="0.4"/>
					
						<rect x="378.1" y="138.9" transform="matrix(-1 -1.224647e-16 1.224647e-16 -1 765.249 278.1947)" class="st0" width="9" height="0.4"/>
					
						<rect x="378.1" y="132.4" transform="matrix(-1 -1.224647e-16 1.224647e-16 -1 765.249 265.1069)" class="st0" width="9" height="0.4"/>
					
						<rect x="378.1" y="129.1" transform="matrix(-1 -1.224647e-16 1.224647e-16 -1 765.249 258.563)" class="st0" width="9" height="0.4"/>
					
						<rect x="378.1" y="135.6" transform="matrix(-1 -1.224647e-16 1.224647e-16 -1 765.249 271.6508)" class="st0" width="9" height="0.4"/>
				</g>
			</g>
			<g>
				<rect x="360.1" y="181" class="st3" width="16.7" height="48.3"/>
				<path class="st1" d="M373,219.3c0,2.5-2,4.5-4.5,4.5c-2.5,0-4.5-2-4.5-4.5c0-2.5,2-4.5,4.5-4.5C371,214.7,373,216.8,373,219.3z"
					/>
				<circle class="st0" cx="368.5" cy="219.3" r="3.6"/>
				<rect x="363.3" y="187.1" class="st4" width="10.6" height="23"/>
				<g>
					<rect x="364.1" y="207.3" class="st0" width="9" height="0.4"/>
					<rect x="364.1" y="204.1" class="st0" width="9" height="0.4"/>
					<rect x="364.1" y="200.8" class="st0" width="9" height="0.4"/>
					<rect x="364.1" y="194.2" class="st0" width="9" height="0.4"/>
					<rect x="364.1" y="191" class="st0" width="9" height="0.4"/>
					<rect x="364.1" y="197.5" class="st0" width="9" height="0.4"/>
				</g>
			</g>
			<g>
				<rect x="336.6" y="119.1" class="st3" width="16.7" height="48.3"/>
				<path class="st1" d="M349.5,157.4c0,2.5-2,4.5-4.5,4.5s-4.5-2-4.5-4.5c0-2.5,2-4.5,4.5-4.5S349.5,154.9,349.5,157.4z"/>
				<circle class="st0" cx="345" cy="157.4" r="3.6"/>
				<rect x="339.7" y="125.3" class="st4" width="10.6" height="23"/>
				<g>
					<rect x="340.6" y="145.5" class="st0" width="9" height="0.4"/>
					<rect x="340.6" y="142.2" class="st0" width="9" height="0.4"/>
					<rect x="340.6" y="138.9" class="st0" width="9" height="0.4"/>
					<rect x="340.6" y="132.4" class="st0" width="9" height="0.4"/>
					<rect x="340.6" y="129.1" class="st0" width="9" height="0.4"/>
					<rect x="340.6" y="135.7" class="st0" width="9" height="0.4"/>
				</g>
			</g>
			<g>
				
					<rect x="382.6" y="182.3" transform="matrix(0.9626 -0.2708 0.2708 0.9626 -40.9346 113.5337)" class="st5" width="16.7" height="45.7"/>
				<path class="st1" d="M398.8,216.2c0.7,2.4-0.7,4.9-3.1,5.6c-2.4,0.7-4.9-0.7-5.6-3.1c-0.7-2.4,0.7-4.9,3.1-5.6
					C395.6,212.4,398.1,213.8,398.8,216.2z"/>
				<path class="st0" d="M395.4,220.8c-1.9,0.5-3.9-0.6-4.4-2.5c-0.5-1.9,0.6-3.9,2.5-4.4c1.9-0.5,3.9,0.6,4.4,2.5
					S397.3,220.3,395.4,220.8z"/>
				
					<rect x="383.9" y="187.6" transform="matrix(0.9626 -0.2708 0.2708 0.9626 -39.2505 112.8266)" class="st1" width="10.6" height="22.1"/>
				<g>
					
						<rect x="387.1" y="206.7" transform="matrix(0.9626 -0.2708 0.2708 0.9626 -41.3913 113.7612)" class="st4" width="9" height="0.4"/>
					
						<rect x="386.2" y="203.7" transform="matrix(0.9626 -0.2708 0.2708 0.9626 -40.6013 113.4124)" class="st4" width="9" height="0.4"/>
					
						<rect x="385.3" y="200.6" transform="matrix(0.9626 -0.2708 0.2708 0.9626 -39.8123 113.0682)" class="st4" width="9" height="0.4"/>
					
						<rect x="383.6" y="194.6" transform="matrix(0.9626 -0.2708 0.2708 0.9626 -38.2343 112.3798)" class="st4" width="9" height="0.4"/>
					
						<rect x="382.8" y="191.5" transform="matrix(0.9626 -0.2708 0.2708 0.9626 -37.4462 112.0402)" class="st4" width="9" height="0.4"/>
					
						<rect x="384.5" y="197.6" transform="matrix(0.9626 -0.2708 0.2708 0.9626 -39.0233 112.724)" class="st4" width="9" height="0.4"/>
				</g>
			</g>
			<g>
				<rect x="343.4" y="181" class="st5" width="16.7" height="48.3"/>
				<path class="st1" d="M356.3,219.3c0,2.5-2,4.5-4.5,4.5c-2.5,0-4.5-2-4.5-4.5c0-2.5,2-4.5,4.5-4.5
					C354.2,214.7,356.3,216.8,356.3,219.3z"/>
				<circle class="st0" cx="351.7" cy="219.3" r="3.6"/>
				<rect x="346.5" y="187.1" class="st1" width="10.6" height="23"/>
				<g>
					<rect x="347.3" y="207.3" class="st4" width="9" height="0.4"/>
					<rect x="347.3" y="204.1" class="st4" width="9" height="0.4"/>
					<rect x="347.3" y="200.8" class="st4" width="9" height="0.4"/>
					<rect x="347.3" y="194.2" class="st4" width="9" height="0.4"/>
					<rect x="347.3" y="191" class="st4" width="9" height="0.4"/>
					<rect x="347.3" y="197.5" class="st4" width="9" height="0.4"/>
				</g>
			</g>
		</g>
	</g>
	<g>
		<g>
			<path class="st7" d="M262.8,68.6h-94.3l-0.9-10c-1-10.6,6.8-19.1,17.3-19.1h56c10.6,0,19.9,8.6,20.9,19.1L262.8,68.6z"/>
			<path class="st7" d="M209,17.9c-8.2,0-14.2,6.6-13.4,14.8c0.8,8.2,8,14.8,16.1,14.8c8.2,0,14.2-6.6,13.4-14.8
				C224.4,24.5,217.1,17.9,209,17.9z M211,39.5c-3.8,0-7.1-3.1-7.5-6.8c-0.4-3.8,2.4-6.8,6.2-6.8c3.8,0,7.1,3.1,7.5,6.8
				C217.5,36.5,214.7,39.5,211,39.5z"/>
		</g>
		<path class="st8" d="M310.9,290.9H158.2c-6.1,0-11.4-4.9-12-11L125.8,59.7c-0.6-6.1,3.9-11,9.9-11h152.7c6.1,0,11.4,4.9,12,11
			l20.4,220.2C321.4,285.9,317,290.9,310.9,290.9z"/>
		<path class="st3" d="M314.6,290.9H161.9c-6.1,0-11.4-4.9-12-11L129.5,59.7c-0.6-6.1,3.9-11,9.9-11h152.7c6.1,0,11.4,4.9,12,11
			l20.4,220.2C325.1,285.9,320.7,290.9,314.6,290.9z"/>
		<polygon class="st9" points="304.5,264 167,264 148.3,63.3 285.9,63.3 		"/>
		<path class="st1" d="M175.5,248.6L159.8,78.7c-0.3-3,1.9-5.4,4.9-5.4h106.7c3,0,5.6,2.4,5.9,5.4l15.8,169.9c0.3,3-1.9,5.4-4.9,5.4
			H181.5C178.5,254,175.8,251.6,175.5,248.6z"/>
		<g>
			<path class="st10" d="M268.9,68.6h-94.3l-0.9-10c-1-10.6,6.8-19.1,17.3-19.1h56c10.6,0,19.9,8.6,20.9,19.1L268.9,68.6z"/>
			<path class="st10" d="M215.1,17.9c-8.2,0-14.2,6.6-13.4,14.8c0.8,8.2,8,14.8,16.1,14.8c8.2,0,14.2-6.6,13.4-14.8
				C230.5,24.5,223.2,17.9,215.1,17.9z M217.1,39.5c-3.8,0-7.1-3.1-7.5-6.8c-0.4-3.8,2.4-6.8,6.2-6.8c3.8,0,7.1,3.1,7.5,6.8
				C223.6,36.5,220.9,39.5,217.1,39.5z"/>
		</g>
		<polygon class="st11" points="268.9,68.6 174.6,68.6 173.7,58.6 267.9,58.6 		"/>
		<g>
			<g>
				<path class="st12" d="M263.7,124.9h-85.4c-1,0-1.9-0.8-2-1.8l0,0c-0.1-1,0.6-1.8,1.6-1.8h85.4c1,0,1.9,0.8,2,1.8l0,0
					C265.4,124.1,264.7,124.9,263.7,124.9z"/>
				<path class="st12" d="M264.5,132.9h-85.4c-1,0-1.9-0.8-2-1.8l0,0c-0.1-1,0.6-1.8,1.6-1.8h85.4c1,0,1.9,0.8,2,1.8l0,0
					C266.2,132.1,265.5,132.9,264.5,132.9z"/>
				<path class="st12" d="M205.2,140.9h-25.4c-1,0-1.9-0.8-2-1.8l0,0c-0.1-1,0.6-1.8,1.6-1.8h25.4c1,0,1.9,0.8,2,1.8l0,0
					C206.9,140.1,206.2,140.9,205.2,140.9z"/>
			</g>
			<g>
				<path class="st12" d="M260.5,98.8h-85.4c-1,0-1.9-0.8-2-1.8l0,0c-0.1-1,0.6-1.8,1.6-1.8h85.4c1,0,1.9,0.8,2,1.8l0,0
					C262.2,98,261.5,98.8,260.5,98.8z"/>
				<path class="st12" d="M261.3,106.8h-85.4c-1,0-1.9-0.8-2-1.8l0,0c-0.1-1,0.6-1.8,1.6-1.8h85.4c1,0,1.9,0.8,2,1.8l0,0
					C263,106,262.3,106.8,261.3,106.8z"/>
				<path class="st12" d="M202,114.9h-25.4c-1,0-1.9-0.8-2-1.8l0,0c-0.1-1,0.6-1.8,1.6-1.8h25.4c1,0,1.9,0.8,2,1.8l0,0
					C203.7,114.1,203,114.9,202,114.9z"/>
			</g>
			<g>
				<g>
					<path class="st12" d="M267,160h-54.4c-1,0-1.9-0.8-2-1.8l0,0c-0.1-1,0.6-1.8,1.6-1.8h54.4c1,0,1.9,0.8,2,1.8l0,0
						C268.7,159.2,268,160,267,160z"/>
					<path class="st12" d="M267.7,168.1h-54.4c-1,0-1.9-0.8-2-1.8l0,0c-0.1-1,0.6-1.8,1.6-1.8h54.4c1,0,1.9,0.8,2,1.8l0,0
						C269.5,167.3,268.7,168.1,267.7,168.1z"/>
					<path class="st12" d="M239.4,176.1h-25.4c-1,0-1.9-0.8-2-1.8l0,0c-0.1-1,0.6-1.8,1.6-1.8h25.4c1,0,1.9,0.8,2,1.8l0,0
						C241.1,175.3,240.4,176.1,239.4,176.1z"/>
				</g>
				<g>
					<path class="st9" d="M200.8,154.7h-19.7c-1,0-1.7,0.8-1.6,1.7l1.8,19.7c0.1,1,0.9,1.7,1.9,1.7H203c1,0,1.7-0.8,1.6-1.7
						l-1.8-19.7C202.6,155.5,201.8,154.7,200.8,154.7z M202.1,175.4c0,0.1,0,0.1-0.1,0.1h-18.3c-0.1,0-0.1-0.1-0.1-0.1l-1.7-18.3
						c0-0.1,0-0.1,0.1-0.1h18.3c0.1,0,0.1,0.1,0.1,0.1L202.1,175.4z"/>
					<polygon class="st10" points="195.4,173 185.8,166 188.4,162.2 194,166.3 205.1,150.4 209.1,153.4 					"/>
				</g>
			</g>
			<g>
				<g>
					<path class="st12" d="M270,192.1h-54.4c-1,0-1.9-0.8-2-1.8l0,0c-0.1-1,0.6-1.8,1.6-1.8h54.4c1,0,1.9,0.8,2,1.8l0,0
						C271.7,191.3,271,192.1,270,192.1z"/>
					<path class="st12" d="M270.7,200.1h-54.4c-1,0-1.9-0.8-2-1.8l0,0c-0.1-1,0.6-1.8,1.6-1.8h54.4c1,0,1.9,0.8,2,1.8l0,0
						C272.4,199.3,271.7,200.1,270.7,200.1z"/>
					<path class="st12" d="M242.4,208.2H217c-1,0-1.9-0.8-2-1.8l0,0c-0.1-1,0.6-1.8,1.6-1.8h25.4c1,0,1.9,0.8,2,1.8l0,0
						C244.1,207.4,243.4,208.2,242.4,208.2z"/>
				</g>
				<g>
					<path class="st9" d="M203.8,186.7H184c-1,0-1.7,0.8-1.6,1.7l1.8,19.7c0.1,1,0.9,1.7,1.9,1.7H206c1,0,1.7-0.8,1.6-1.7l-1.8-19.7
						C205.6,187.5,204.8,186.7,203.8,186.7z M205.1,207.5c0,0.1,0,0.1-0.1,0.1h-18.3c-0.1,0-0.1-0.1-0.1-0.1l-1.7-18.3
						c0-0.1,0-0.1,0.1-0.1h18.3c0.1,0,0.1,0.1,0.1,0.1L205.1,207.5z"/>
					<polygon class="st10" points="198.4,205 188.8,198.1 191.4,194.3 196.9,198.3 208.1,182.4 212.1,185.4 					"/>
				</g>
			</g>
			<g>
				<g>
					<path class="st12" d="M272.9,224.1h-54.4c-1,0-1.9-0.8-2-1.8l0,0c-0.1-1,0.6-1.8,1.6-1.8h54.4c1,0,1.9,0.8,2,1.8l0,0
						C274.7,223.3,273.9,224.1,272.9,224.1z"/>
					<path class="st12" d="M273.7,232.2h-54.4c-1,0-1.9-0.8-2-1.8l0,0c-0.1-1,0.6-1.8,1.6-1.8h54.4c1,0,1.9,0.8,2,1.8l0,0
						C275.4,231.4,274.7,232.2,273.7,232.2z"/>
					<path class="st12" d="M245.4,240.2H220c-1,0-1.9-0.8-2-1.8l0,0c-0.1-1,0.6-1.8,1.6-1.8H245c1,0,1.9,0.8,2,1.8l0,0
						C247.1,239.4,246.4,240.2,245.4,240.2z"/>
				</g>
				<g>
					<path class="st9" d="M206.8,218.8H187c-1,0-1.7,0.8-1.6,1.7l1.8,19.7c0.1,1,0.9,1.7,1.9,1.7h19.7c1,0,1.7-0.8,1.6-1.7
						l-1.8-19.7C208.6,219.6,207.7,218.8,206.8,218.8z M208.1,239.5c0,0.1,0,0.1-0.1,0.1h-18.3c-0.1,0-0.1-0.1-0.1-0.1l-1.7-18.3
						c0-0.1,0-0.1,0.1-0.1h18.3c0.1,0,0.1,0.1,0.1,0.1L208.1,239.5z"/>
					<polygon class="st10" points="201.3,237.1 191.8,230.1 194.4,226.3 199.9,230.4 211.1,214.5 215.1,217.4 					"/>
				</g>
			</g>
		</g>
	</g>
	<g>
		<ellipse class="st0" cx="347.4" cy="351.6" rx="61.7" ry="7.4"/>
		<g>
			<path class="st8" d="M322.4,230.8l6.2,4.9c2.4-2.3,18.1-10.5,18.7-16.5c0.2-2.2-0.2-4.5-1.7-6.1c-3.2-3.2-6.9-2.5-9.8,0.3
				C332.6,216.5,322.4,230.8,322.4,230.8z"/>
			<polygon class="st13" points="335.5,346.7 330.6,346.7 330.1,341.5 335.1,341.5 			"/>
			<polygon class="st13" points="381.9,346.7 377,346.7 375.1,341.5 380,341.5 			"/>
			<polygon class="st14" points="347.4,212.1 356.8,212 352.9,201.3 347.6,202.6 			"/>
			<path class="st8" d="M364.2,254.1l4-40.6c0.3-2-1.6-4.1-3.6-4.2l-24.2,2c-2-0.1-3.7,1.6-3.5,3.6l3.3,39.3H364.2z"/>
			<polygon class="st15" points="364.2,254.1 354.9,266.3 337,343.2 327.8,343.2 340,254.1 			"/>
			<path class="st12" d="M344.4,254.1l2.2,10.3c0.5,2.7,2.9,4.7,5.7,4.7l0,0l20.8,74.1h9l-18-89.2H344.4z"/>
			<path class="st14" d="M354.9,195.4c0,0.9,0.8,1.6,1.8,1.6c0.9,0,1.7-0.8,1.6-1.8c0-0.9-0.8-1.7-1.8-1.6
				C355.6,193.7,354.9,194.5,354.9,195.4z"/>
			<path class="st14" d="M347.1,186.1c-1.6,0.3-2.6,1.2-3.2,2.1c-0.7,0.9-1,2.1-0.9,3.2l0,0l0.2,6.2c0.2,3.9,3.2,7.1,6.9,6.9
				c3.7-0.1,6.6-3.4,6.4-7.4l-0.2-5.7c0,0,0,0,0,0C356.3,191.5,355.9,184.8,347.1,186.1z"/>
			<path class="st8" d="M356.4,195.3c-2.7,5.3-5.1,1.9-7.9,2.2c-2.4,0.2-4,3.5-5.4-1.1c-0.2,7.2,3.2,8.4,6.9,8.2
				C353.8,204.5,357.4,203.1,356.4,195.3z"/>
			<path class="st8" d="M330.2,344.4l2.7,1.2l2.5-1.2l2.3,7.4h-21c0-3.7,7.9-3.7,7.9-3.7L330.2,344.4z"/>
			<path class="st8" d="M376.2,344.4l2.7,1.2l2.5-1.2l2.3,7.4h-21c0-3.7,7.9-3.7,7.9-3.7L376.2,344.4z"/>
			<g>
				<path class="st10" d="M250.1,197.2c-8.7,16.3-2.5,36.6,13.8,45.3c16.3,8.7,36.6,2.5,45.3-13.8c8.7-16.3,2.5-36.6-13.8-45.3
					C279.1,174.7,258.8,180.9,250.1,197.2z M301.2,224.5c-6.3,11.9-21.2,16.4-33.1,10.1c-11.9-6.3-16.4-21.2-10.1-33.1
					s21.2-16.4,33.1-10.1C303,197.8,307.6,212.6,301.2,224.5z"/>
				
					<rect x="325.7" y="209.7" transform="matrix(0.4706 -0.8823 0.8823 0.4706 -36.8975 418.5443)" class="st10" width="9.4" height="60.6"/>
				<path class="st3" d="M369.8,261L369.8,261c-2.4,4.6-8.1,6.3-12.7,3.9l-29.2-15.6l8.8-16.5l29.2,15.6
					C370.5,250.8,372.2,256.5,369.8,261z"/>
			</g>
			<path class="st14" d="M354.2,257L354.2,257c1,0.8,2.5,0.7,3.2-0.2l2.8-3.8l2.7-1.3l-3.4-3.1l-1.3,0.5c-1.4,0.6-2.6,1.6-3.3,2.9
				l-1.3,2.4C353.1,255.2,353.4,256.3,354.2,257z"/>
			<polygon class="st8" points="364.3,253.4 381.4,239.3 374,233.5 358.6,248.1 			"/>
			<path class="st8" d="M373.1,235.8c0.5,2.9,3.3,4.8,6.3,4.3c2.9-0.5,4.8-3.3,4.3-6.3c-0.5-2.9-3.3-4.8-6.3-4.3
				C374.5,230,372.6,232.9,373.1,235.8z"/>
			<path class="st8" d="M373.7,234.8l9.7-2.1c-1.6-2.9-9.7-20.6-15.3-22.7c-2-0.8-4.4-1-6.3,0.1c-3.9,2.3-4.2,6-2.3,9.6
				C361.5,223.4,373.7,234.8,373.7,234.8z"/>
			<path class="st8" d="M308.3,233.4l0.1,0.5c1.6,5.2,7.3,8,12.4,6.2l0,0L308.3,233.4z"/>
			<path class="st14" d="M312.3,232.5c-1.3-0.5-2.8-0.2-3.9,0.7c-0.4,0.3-0.3,0.9,0.1,1.1l4.9,2.7c0.4,0.2,0.9,0,1-0.4
				C314.9,234.9,314,233.1,312.3,232.5z"/>
			<path class="st14" d="M309.6,234.9L308,234c-0.2-0.1-0.3-0.3-0.3-0.5l0-1.2c0-0.5,0.4-0.9,1-0.9l0,0c0.5,0,1,0.4,1,1V234.9z"/>
			<path class="st8" d="M356.9,185c-0.1,0-0.1-0.1-0.2-0.1c-0.9-0.5-1.4,0-2.2,0.1c-0.9,0-1.8-0.4-2.5-1c-0.9-0.7-1.8-1.5-3-1.8
				c-1.2-0.3-2.4,0.1-3.2,1c-0.7,0.7-0.7,1.8-1.4,2.6c-0.3,0.4-0.8,0.4-1.2,0.7c-0.4,0.3-0.8,0.7-1,1.2c-0.3,0.7-0.3,1.4-0.1,2.1
				c0.1,0.2,0.4,1.6,0.8,1.5c0.5-0.3,0.5-1,0.8-1.5c0.4-0.7,1.4-0.9,2.2-0.7c0.8,0.1,1.6,0.5,2.4,0.5c1.1,0.1,2.2-0.5,3.4-0.7
				c1.1-0.2,2.5-0.1,3.1,0.9c0.3,0.6,0.2,1.3,0.1,2c-0.2,0.8-0.5,1.7,0,2.5c0.8,1.3,2.6,0.8,3.2-0.3c0.4-0.6,0.5-1.4,0.5-2.1
				c0.1-1.6-0.1-3.1-0.5-4.6C358,186.3,357.6,185.5,356.9,185z"/>
		</g>
	</g>
	<g>
		<ellipse class="st0" cx="112.8" cy="360.2" rx="61.7" ry="7.4"/>
		<g>
			<path class="st8" d="M108.8,188.3c-2.8-0.6-5.9-0.1-8.1,1.7c-1.4,1.1-2.4,2.7-4,3.5c-1.6,0.8-3.6,0.8-5,1.9
				c-1.4,1.1-1.9,3.1-1.9,4.9c0.1,1.8,0.6,3.6,0.8,5.3c0.5,4.1-1.8,6.5-4.3,9.4c-1.6,2-3,4.3-3.3,6.8c-0.3,2.5,0.8,5.3,3,6.5
				c0.9,0.5,1.9,0.7,2.9,0.7c2.4,0.1,4.8-0.9,7.1-1.6c2.4-0.6,5.1-0.8,7.1,0.7c0.6,0.4,1,1,1.6,1.4c2.1,1.4,5.1,0.3,6.5-1.7
				c1.5-2,1.8-4.6,1.9-7.1c0.1-2.3,0.1-4.5-0.1-6.7c-0.2-2.2,0.6-4.2,1.4-6.2c0.6-1.6,1.6-2.9,2.3-4.5c2.2-5.4-0.6-11.4-5.6-14.1
				C110.6,188.8,109.7,188.5,108.8,188.3z"/>
			<path class="st12" d="M120.5,240.9l7.1-4.3L117,216.3c-1.2-2.6-4.3-3.5-6.7-2l0,0c-2.4,1.5-3.4,6.6-1.8,10.5
				C110,228.7,120.5,240.9,120.5,240.9z"/>
			<polygon class="st14" points="107.3,217.9 101.6,216.9 103,207.1 108.7,208 			"/>
			<path class="st14" d="M110.4,195.5c0.7,2.3,2.9,4.1,2.8,5.9l-0.2,0.8c0,0,0,0.1,0,0.1l0,0l-0.5,2.4c-0.7,3-3.7,5-6.8,4.3
				c-3-0.7-5-3.7-4.3-6.8l0.6-2.7C103.4,197.1,108.2,198.8,110.4,195.5z"/>
			<g>
				<path class="st9" d="M99.3,246.9L93,219.9c-0.3-2.2,1.3-4.2,3.5-4.3l15.6-2.1c2.2-0.1,4,1.8,3.9,4l2.6,29.5H99.3z"/>
				<path class="st7" d="M110.9,246.9l-9.8,15.8l27.3,88.8h5.7c0,0-12.7-91.8-15.6-104.7H110.9z"/>
				<path class="st10" d="M110.9,246.9c-1.5,43.1-15.7,104.7-15.7,104.7h-5.4c-0.1-13.3,0.8-77.1,1.7-82.8c0.7-4.2,1.8-8.3,3.5-12.1
					c1.6-3.6,2-6.6,4.3-9.7h4.1H110.9z"/>
			</g>
			<polygon class="st14" points="130.8,356.2 134.4,356.2 133.3,351.6 129.1,351.6 			"/>
			<polygon class="st14" points="91,356.2 94.5,356.2 94.7,351.6 90.5,351.6 			"/>
			<path class="st9" d="M109.9,227.7c-0.2,2.7,1.7,5,4.4,5.3c2.7,0.2,5-1.7,5.3-4.4c0.2-2.7-1.7-5-4.4-5.3
				C112.5,223.1,110.1,225,109.9,227.7z"/>
			<polygon class="st14" points="111.7,213.6 110.1,223.9 101.3,215 			"/>
			<path class="st14" d="M103.2,201.4c0,1.1-1,2-2.1,2c-1.1,0-2-1-2-2.1c0-1.1,1-2,2.1-2C102.3,199.4,103.2,200.3,103.2,201.4z"/>
			<path class="st8" d="M134.9,354.4l-1.8,0.8l-2.8-0.8l-1.5,4.9h15.1c0-2.4-5.2-2.4-5.2-2.4L134.9,354.4z"/>
			<path class="st8" d="M95,354.4l-1.8,0.8l-2.8-0.8l-1.5,4.9h15.1c0-2.4-5.2-2.4-5.2-2.4L95,354.4z"/>
			<path class="st12" d="M130.3,230.8l0.2,0.5c2,5.4-0.8,11.4-6.3,13.2l0,0L130.3,230.8z"/>
			<g>
				<polygon class="st16" points="121.5,250.8 104.5,249.2 115.3,225.7 132.2,227.3 				"/>
			</g>
			<g>
				<path class="st14" d="M127,232c0.6-1,1.8-1.6,3-1.6c0.4,0,0.7,0.4,0.5,0.8l-2,4.5c-0.1,0.3-0.6,0.5-0.9,0.3
					C126.5,235.1,126.2,233.4,127,232z"/>
				<path class="st14" d="M130.2,232.2l0.6-1.5c0.1-0.2,0-0.4-0.1-0.5l-0.7-0.8c-0.3-0.4-0.8-0.4-1.2-0.1l0,0
					c-0.4,0.3-0.4,0.8-0.1,1.2L130.2,232.2z"/>
			</g>
			<g>
				<path class="st14" d="M114.7,235.6L114.7,235.6c0.1,1.1-0.8,2.1-2,2.1l-4.5-0.1l-3.7,1.5l-0.5-4l2.2-0.9c1.2-0.7,2.7-1,4.1-0.8
					l2.7,0.4C114,233.9,114.7,234.7,114.7,235.6z"/>
				<path class="st14" d="M107.7,233.6l2.5,0.6c0.2,0.1,0.4,0.1,0.5,0l1.3-0.8c0.4-0.2,0.5-0.7,0.3-1.1l0,0
					c-0.2-0.4-0.8-0.5-1.2-0.3L107.7,233.6z"/>
			</g>
			<g>
				<polygon class="st12" points="104.5,239.4 87.4,246.9 86.8,236.9 104.2,234.6 				"/>
				<path class="st12" d="M89.3,243.3l-8.3-2.5l11.2-22.2c1.1-2.6,4.2-3.6,6.7-2.2l0,0c2.4,1.5,3.5,6.6,2,10.5
					C99.5,230.8,89.3,243.3,89.3,243.3z"/>
				<circle class="st12" cx="85.5" cy="242.6" r="4.8"/>
			</g>
		</g>
	</g>
	<g>
		<polygon class="st10" points="344.2,61.4 347.6,69.9 356.7,70.5 349.7,76.3 351.9,85.2 344.2,80.3 336.5,85.2 338.7,76.3 
			331.7,70.5 340.8,69.9 		"/>
		<polygon class="st10" points="376.8,61.4 380.2,69.9 389.4,70.5 382.3,76.3 384.6,85.2 376.8,80.3 369.1,85.2 371.4,76.3 
			364.3,70.5 373.5,69.9 		"/>
		<polygon class="st10" points="409.5,61.4 412.9,69.9 422,70.5 415,76.3 417.2,85.2 409.5,80.3 401.8,85.2 404,76.3 397,70.5 
			406.1,69.9 		"/>
	</g>
	<g>
		<g>
			<path class="st12" d="M140.7,168.3H78.8c-1.5,0-2.7-1.2-2.7-2.7v-53.7c0-1.5,1.2-2.7,2.7-2.7h61.9c1.5,0,2.7,1.2,2.7,2.7v53.7
				C143.4,167.1,142.2,168.3,140.7,168.3z"/>
			<g>
				<path class="st1" d="M96.3,157.9h-5.5c-1.3,0-2.4-1.1-2.4-2.4v-19.8c0-1.3,1.1-2.4,2.4-2.4h5.5c1.3,0,2.4,1.1,2.4,2.4v19.8
					C98.7,156.8,97.6,157.9,96.3,157.9z"/>
				<path class="st9" d="M96.5,137.5c0,0.9-0.7,1.7-1.7,1.7c-0.9,0-1.7-0.7-1.7-1.7c0-0.9,0.7-1.7,1.7-1.7
					C95.7,135.9,96.5,136.6,96.5,137.5z"/>
				<path class="st1" d="M132,142.4c0-2.1-2-2.7-2-2.7s2-1.1,2-3.3s-2.2-3.9-4.5-3.9h-8.4c-0.9,0-1.6-0.9-1.3-1.8
					c0.6-1.8,1.9-4.2,1.9-5.9c0-2.2-0.3-4.2-2.1-5.6c-0.6-0.5-1.4-0.7-2.1-0.5c-0.7,0.2-1.2,1-1.4,1.7c-0.2,0.7-0.2,1.5-0.4,2.3
					c-0.2,1.4-0.7,2.7-1.5,3.8c-0.8,1.2-2,1.9-3,2.9c-0.9,0.9-1.7,2.1-2.2,3.4c-0.7,1.7-2.4,2.9-4.3,2.9H101v21.2h9.3h0.9h13.4
					c1.9,0,3.9-1.2,3.9-3c0-1.8-1.2-2.6-1.2-2.6s3.1-0.7,3.1-2.5c0-1.8-1.3-2.7-1.3-2.7S132,144.5,132,142.4z"/>
			</g>
		</g>
		<g>
			<path class="st9" d="M101.5,100.3H29.5c-1.5,0-2.7-1.2-2.7-2.7V69c0-1.5,1.2-2.7,2.7-2.7h71.9c1.5,0,2.7,1.2,2.7,2.7v28.7
				C104.1,99.1,102.9,100.3,101.5,100.3z"/>
			<g>
				<g>
					<path class="st1" d="M90.4,77.1H52c-1,0-1.8-0.8-1.8-1.8l0,0c0-1,0.8-1.8,1.8-1.8h38.4c1,0,1.8,0.8,1.8,1.8l0,0
						C92.2,76.3,91.4,77.1,90.4,77.1z"/>
					<path class="st1" d="M90.4,85.1H52c-1,0-1.8-0.8-1.8-1.8l0,0c0-1,0.8-1.8,1.8-1.8h38.4c1,0,1.8,0.8,1.8,1.8l0,0
						C92.2,84.3,91.4,85.1,90.4,85.1z"/>
					<path class="st1" d="M77.3,93.2H52c-1,0-1.8-0.8-1.8-1.8l0,0c0-1,0.8-1.8,1.8-1.8h25.4c1,0,1.8,0.8,1.8,1.8l0,0
						C79.1,92.4,78.3,93.2,77.3,93.2z"/>
				</g>
				<path class="st1" d="M43.6,75.3c0,1.3-1.1,2.4-2.4,2.4c-1.3,0-2.4-1.1-2.4-2.4c0-1.3,1.1-2.4,2.4-2.4
					C42.5,72.9,43.6,74,43.6,75.3z"/>
				<path class="st1" d="M43.6,83.3c0,1.3-1.1,2.4-2.4,2.4c-1.3,0-2.4-1.1-2.4-2.4c0-1.3,1.1-2.4,2.4-2.4
					C42.5,80.9,43.6,82,43.6,83.3z"/>
				<path class="st1" d="M43.6,91.4c0,1.3-1.1,2.4-2.4,2.4c-1.3,0-2.4-1.1-2.4-2.4c0-1.3,1.1-2.4,2.4-2.4C42.5,89,43.6,90,43.6,91.4
					z"/>
			</g>
		</g>
	</g>
	<g>
		<g>
			<g>
				<polygon class="st10" points="281.5,158.8 276.5,144.5 262.7,150.8 283.9,101.2 302.7,109.3 				"/>
				<polygon class="st10" points="316.9,158.8 321.9,144.5 335.7,150.8 314.5,101.2 295.7,109.3 				"/>
			</g>
			<polygon class="st8" points="297.2,66.6 301.4,70.7 306.6,68.1 309.4,73.3 315.1,72.5 316.1,78.2 321.8,79.2 321,85 326.2,87.7 
				323.6,92.9 327.7,97.1 323.6,101.3 326.2,106.5 321,109.2 321.8,115 316.1,116 315.1,121.7 309.4,120.9 306.6,126 301.4,123.5 
				297.2,127.5 293,123.5 287.8,126 285.1,120.9 279.3,121.7 278.3,116 272.6,115 273.4,109.2 268.3,106.5 270.8,101.3 266.8,97.1 
				270.8,92.9 268.3,87.7 273.4,85 272.6,79.2 278.3,78.2 279.3,72.5 285.1,73.3 287.8,68.1 293,70.7 			"/>
			<circle class="st1" cx="297.2" cy="97.1" r="20.5"/>
		</g>
		<polygon class="st3" points="295.1,108.4 285.5,101.4 288.2,97.6 293.7,101.7 304.8,85.8 308.9,88.8 		"/>
	</g>
</g>
</svg>
