<svg xmlns="http://www.w3.org/2000/svg" width="39.71" height="31.768" viewBox="0 0 39.71 31.768">
  <path id="Icon_awesome-truck-loading" data-name="Icon awesome-truck-loading" d="M3.115,23.3a1,1,0,0,0,1.216.7l13.427-3.6a1,1,0,0,0,.7-1.216L15.375,7.681a1,1,0,0,0-1.216-.7L9.369,8.271l1.539,5.752L7.073,15.046,5.535,9.295l-4.8,1.284a1,1,0,0,0-.7,1.216ZM23.826,0a1.983,1.983,0,0,0-1.986,1.986V22.064L.366,27.921a.494.494,0,0,0-.347.608L.8,31.4a.494.494,0,0,0,.608.347l24.428-6.664a6.939,6.939,0,0,0,13.874-.267V0Zm8.935,27.8a2.978,2.978,0,1,1,2.978-2.978A2.979,2.979,0,0,1,32.761,27.8Z" transform="translate(0)" fill="#12263f"/>
</svg>
