<svg xmlns="http://www.w3.org/2000/svg" xmlns:xlink="http://www.w3.org/1999/xlink" width="58" height="58" viewBox="0 0 58 58">
  <defs>
    <clipPath id="clip-path">
      <rect id="Rect치ngulo_49466" data-name="Rect치ngulo 49466" width="44.196" height="44.19" fill="#ff8578"/>
    </clipPath>
  </defs>
  <g id="Grupo_165386" data-name="Grupo 165386" transform="translate(-0.227 -0.227)">
    <rect id="Rect치ngulo_47807" data-name="Rect치ngulo 47807" width="58" height="58" transform="translate(0.227 0.227)" fill="none"/>
    <g id="Grupo_165387" data-name="Grupo 165387" transform="translate(7.129 7.131)">
      <g id="Grupo_165387-2" data-name="Grupo 165387" clip-path="url(#clip-path)">
        <path id="Trazado_176368" data-name="Trazado 176368" d="M.438,44.191A.945.945,0,0,1,0,43.282Q.013,31.157.007,19.033c0-.7.2-.9.89-.9,1.147,0,2.294,0,3.494,0,0-.325-.007-.609,0-.893A2.032,2.032,0,0,1,5.571,15.37a2.031,2.031,0,0,1,2.2.178.468.468,0,0,0,.569.079q5.645-2.918,11.3-5.816a.889.889,0,0,0,.11-.066,16.018,16.018,0,0,1-.413-1.593.629.629,0,0,1,.593-.785c.362-.018.6.254.693.683.072.349.212.685.353,1.124a1.446,1.446,0,0,1,2.093-.1A1.434,1.434,0,0,0,22.98,6.81,3.039,3.039,0,0,1,21.423,4.5c-.587,0-1.188,0-1.789,0a2.372,2.372,0,0,1-2.556-2.552c0-.417-.009-.834,0-1.251a.631.631,0,0,1,.7-.691Q22.1,0,26.414,0c.472,0,.7.245.708.73s.012.978,0,1.467a2.337,2.337,0,0,1-2.331,2.293c-.656.014-1.313,0-1.992,0a1.323,1.323,0,0,0,.573,1.014c1.636,1.215,1.917,2.354,1,4.192q.891.461,1.785.923,4.828,2.483,9.654,4.969a.49.49,0,0,0,.611-.032,2.006,2.006,0,0,1,2.235-.184,2.035,2.035,0,0,1,1.159,1.88c.006.271,0,.541,0,.87h1.445c.676,0,1.353.018,2.028-.007a.917.917,0,0,1,.911.435V44.191H32.631a.484.484,0,0,0-.079-.092.626.626,0,0,1-.264-.789.676.676,0,0,1,.729-.415q4.66.007,9.32,0h.536V22.362H12.784c-.7,0-1.015-.2-1.008-.653s.325-.641,1.027-.641H42.867V19.424H30.676a4.036,4.036,0,0,1-.431-.006.641.641,0,0,1,0-1.28c.373-.023.747-.008,1.121-.008h4.182c0-.373.017-.726-.011-1.076-.008-.092-.136-.2-.235-.256q-5.917-3.052-11.843-6.084a1.217,1.217,0,0,0-.524-.038c-.539,0-1.078.006-1.617.02a1.675,1.675,0,0,0-.68.07c-3.877,1.977-7.744,3.973-11.62,5.952-.282.144-.415.293-.369.617a6.093,6.093,0,0,1,.006.794H27.353a2.075,2.075,0,0,1,.43.012.608.608,0,0,1,.542.667.6.6,0,0,1-.561.606,3,3,0,0,1-.474.01H1.333v1.643h8.19a1.875,1.875,0,0,1,.387.012.609.609,0,0,1,.551.66.6.6,0,0,1-.594.616,3.591,3.591,0,0,1-.388.006H1.337V42.9H29.761c.1,0,.2.006.3,0,.374-.025.707.051.832.451a.686.686,0,0,1-.421.844ZM18.379,1.308c0,.309-.011.58,0,.849A1.032,1.032,0,0,0,19.429,3.2q2.672.018,5.345,0a1,1,0,0,0,1.008-.783,6.994,6.994,0,0,0,.012-1.1ZM7.361,18.106c-.047-.557.2-1.156-.4-1.541a.768.768,0,0,0-.926.037c-.539.407-.288.979-.35,1.5Zm31.159.011c-.056-.573.195-1.178-.416-1.556a.769.769,0,0,0-.926.047c-.534.412-.281.979-.343,1.509Z" transform="translate(0 0)" fill="#ff8578"/>
        <path id="Trazado_176369" data-name="Trazado 176369" d="M59.212,79.008c0-2.258-.006-4.516,0-6.773a1.9,1.9,0,0,1,3.749-.4,2.127,2.127,0,0,1,.045.47q0,6.666,0,13.331a1.9,1.9,0,0,1-1.485,1.918,1.855,1.855,0,0,1-2.093-.994,2.482,2.482,0,0,1-.212-1c-.018-2.186-.009-4.372-.009-6.558m2.5-.046V76.547c0-1.394,0-2.788,0-4.182,0-.454-.245-.736-.609-.732s-.589.284-.6.744c0,.072,0,.144,0,.216q0,6.381,0,12.761a2.7,2.7,0,0,0,.011.43.6.6,0,0,0,.807.473.693.693,0,0,0,.393-.743c-.006-2.184,0-4.369,0-6.553" transform="translate(-39.011 -46.339)" fill="#ff8578"/>
        <path id="Trazado_176370" data-name="Trazado 176370" d="M13.438,78.954c0,2.258.006,4.516,0,6.774a1.852,1.852,0,0,1-1.4,1.807,1.83,1.83,0,0,1-2.09-.818,2.179,2.179,0,0,1-.3-1.014q-.029-6.73-.009-13.461a1.9,1.9,0,1,1,3.793.025c.01,2.229,0,4.458,0,6.687m-1.3.026q0-3.212,0-6.424a2.361,2.361,0,0,0-.009-.387.6.6,0,0,0-1.176-.054,1.7,1.7,0,0,0-.023.428q0,6.424,0,12.848a1.921,1.921,0,0,0,.012.387.574.574,0,0,0,.631.521.564.564,0,0,0,.558-.551,3.34,3.34,0,0,0,.006-.388q0-3.191,0-6.381" transform="translate(-6.348 -46.344)" fill="#ff8578"/>
        <path id="Trazado_176371" data-name="Trazado 176371" d="M108.786,78.969q0-3.279,0-6.558a1.906,1.906,0,1,1,3.8-.012q0,6.623,0,13.245a1.9,1.9,0,0,1-3.751.481,2.941,2.941,0,0,1-.046-.642q0-3.258,0-6.515m2.505.029q0-3.212,0-6.424a1.974,1.974,0,0,0-.017-.429.6.6,0,0,0-1.183.037,2.413,2.413,0,0,0-.008.345q0,6.446,0,12.891a2.515,2.515,0,0,0,.007.344.6.6,0,0,0,1.183.046,1.634,1.634,0,0,0,.018-.386q0-3.212,0-6.424" transform="translate(-71.674 -46.344)" fill="#ff8578"/>
        <path id="Trazado_176372" data-name="Trazado 176372" d="M29.947,78.96c0,2.214.009,4.429,0,6.643a1.884,1.884,0,0,1-1.965,1.99,1.911,1.911,0,0,1-1.834-2c-.012-1.237,0-2.473,0-3.71q0-4.746,0-9.491a1.934,1.934,0,0,1,1.7-2.05,1.9,1.9,0,0,1,2.1,1.976c.015,1.711,0,3.423,0,5.134q0,.755,0,1.51M28.65,79q0-2.694,0-5.388c0-.46.006-.92-.008-1.379a.559.559,0,0,0-.6-.6.572.572,0,0,0-.594.564,2.514,2.514,0,0,0-.011.344q0,6.423,0,12.846a1.9,1.9,0,0,0,.03.428.554.554,0,0,0,.625.471.548.548,0,0,0,.539-.519,3.408,3.408,0,0,0,.014-.43q0-3.169,0-6.337" transform="translate(-17.221 -46.335)" fill="#ff8578"/>
        <path id="Trazado_176373" data-name="Trazado 176373" d="M42.7,78.962c0-2.243-.014-4.487.006-6.73a1.885,1.885,0,0,1,2.515-1.8,1.943,1.943,0,0,1,1.28,1.952q.007,3.236,0,6.471c0,2.243.006,4.487,0,6.73a1.91,1.91,0,0,1-1.834,2,1.874,1.874,0,0,1-1.963-1.945c-.012-2.229,0-4.458,0-6.687m1.3,0q0,3.19,0,6.38a3.415,3.415,0,0,0,.012.431.589.589,0,0,0,1.153.087,1.757,1.757,0,0,0,.043-.468q0-6.424,0-12.848A.953.953,0,0,0,45.128,72c-.135-.168-.391-.367-.566-.343-.2.028-.393.267-.535.454-.071.094-.027.278-.027.422q0,3.212,0,6.424" transform="translate(-28.133 -46.336)" fill="#ff8578"/>
        <path id="Trazado_176374" data-name="Trazado 176374" d="M79.508,79c0,2.229.013,4.458-.005,6.687a1.884,1.884,0,0,1-2.577,1.791,1.943,1.943,0,0,1-1.219-1.95q0-5.716,0-11.433c0-.59-.007-1.179,0-1.769a1.92,1.92,0,0,1,1.9-1.985,1.883,1.883,0,0,1,1.9,1.971c.011,2.229,0,4.458,0,6.687m-1.3-.02q0-3.277,0-6.553c0-.506-.216-.784-.592-.787s-.6.283-.616.776c0,.043,0,.086,0,.129q0,6.424,0,12.847a.951.951,0,0,0,.077.54c.135.168.389.366.564.343.2-.027.4-.261.536-.451.077-.107.029-.306.029-.464q0-3.19,0-6.38" transform="translate(-49.876 -46.344)" fill="#ff8578"/>
        <path id="Trazado_176375" data-name="Trazado 176375" d="M92.258,78.939c0-2.214-.015-4.429,0-6.643a1.889,1.889,0,0,1,2.88-1.691,1.851,1.851,0,0,1,.916,1.66q.01,6.687,0,13.373a1.9,1.9,0,1,1-3.795-.012c-.014-2.229,0-4.458,0-6.687m2.507-.02q0-3.19,0-6.38c0-.171.029-.392-.062-.5-.148-.177-.392-.395-.582-.383s-.39.264-.533.451c-.071.094-.031.278-.031.421q0,6.423,0,12.846a3.048,3.048,0,0,0,.014.387.589.589,0,0,0,1.163.052,2.121,2.121,0,0,0,.032-.471q0-3.212,0-6.423" transform="translate(-60.781 -46.327)" fill="#ff8578"/>
      </g>
    </g>
  </g>
</svg>
