<svg xmlns="http://www.w3.org/2000/svg" width="610" height="409" viewBox="0 0 610 409">
  <g id="Grupo_165386" data-name="Grupo 165386" transform="translate(-810 -3846)">
    <path id="Trazado_176393" data-name="Trazado 176393" d="M10,0H600a10,10,0,0,1,10,10V53H0V10A10,10,0,0,1,10,0Z" transform="translate(810 3846)" fill="#ffde96"/>
    <path id="Trazado_176394" data-name="Trazado 176394" d="M4.727,0H1.309V-14.219H4.727ZM9.98-10.566l.107,1.24a3.583,3.583,0,0,1,3.018-1.436,3.015,3.015,0,0,1,2.466.986,4.7,4.7,0,0,1,.845,2.969V0h-3.3V-6.67a1.783,1.783,0,0,0-.322-1.177,1.491,1.491,0,0,0-1.172-.376,1.569,1.569,0,0,0-1.436.762V0H6.895V-10.566Zm13.789,7.6a.76.76,0,0,0-.439-.674,6.685,6.685,0,0,0-1.67-.527,7.615,7.615,0,0,1-2.031-.718,3.4,3.4,0,0,1-1.221-1.079,2.577,2.577,0,0,1-.42-1.455,2.92,2.92,0,0,1,1.2-2.4,4.948,4.948,0,0,1,3.145-.942,5.482,5.482,0,0,1,3.359.947,2.962,2.962,0,0,1,1.27,2.49h-3.3q0-1.27-1.338-1.27a1.326,1.326,0,0,0-.869.288.892.892,0,0,0-.352.718.819.819,0,0,0,.43.713,4.06,4.06,0,0,0,1.372.449,11.857,11.857,0,0,1,1.655.42,3.007,3.007,0,0,1,2.383,2.939A2.767,2.767,0,0,1,25.659-.713,5.631,5.631,0,0,1,22.334.2a5.747,5.747,0,0,1-2.422-.488,4.05,4.05,0,0,1-1.66-1.328,3.007,3.007,0,0,1-.6-1.768h3.076a1.272,1.272,0,0,0,.488,1.069,2.009,2.009,0,0,0,1.2.337,1.58,1.58,0,0,0,1.011-.273A.875.875,0,0,0,23.77-2.969Zm8.545-10.225v2.627h1.738v2.285H32.314v4.834a1.234,1.234,0,0,0,.215.83,1.152,1.152,0,0,0,.85.234,4.828,4.828,0,0,0,.82-.059V-.088A6.074,6.074,0,0,1,32.344.2a3.448,3.448,0,0,1-2.51-.8,3.282,3.282,0,0,1-.811-2.432V-8.281H27.676v-2.285h1.348v-2.627Zm9.424,5.605-1.084-.078a1.947,1.947,0,0,0-1.992.977V0H35.371V-10.566h3.086l.107,1.357a2.548,2.548,0,0,1,2.314-1.553,3.209,3.209,0,0,1,.918.117Zm7.48,6.445A3.393,3.393,0,0,1,46.4.2,3.328,3.328,0,0,1,43.765-.815a4.251,4.251,0,0,1-.894-2.905v-6.846h3.291V-3.7A1.183,1.183,0,0,0,47.48-2.344a1.72,1.72,0,0,0,1.611-.811v-7.412H52.4V0H49.316Zm9.453-1.2a1.464,1.464,0,0,0,1.074-.376,1.379,1.379,0,0,0,.371-1.05H63.2A3.653,3.653,0,0,1,61.958-.918,4.631,4.631,0,0,1,58.75.2,4.689,4.689,0,0,1,55.117-1.25a5.7,5.7,0,0,1-1.328-4v-.137a6.436,6.436,0,0,1,.591-2.827,4.3,4.3,0,0,1,1.7-1.885,5.081,5.081,0,0,1,2.637-.659,4.573,4.573,0,0,1,3.271,1.143,4.053,4.053,0,0,1,1.211,3.1H60.117a1.807,1.807,0,0,0-.4-1.26,1.382,1.382,0,0,0-1.074-.439q-1.279,0-1.494,1.631a11.507,11.507,0,0,0-.068,1.426,4.52,4.52,0,0,0,.381,2.207A1.319,1.319,0,0,0,58.672-2.344Zm10.391,0a1.464,1.464,0,0,0,1.074-.376,1.379,1.379,0,0,0,.371-1.05h3.086A3.653,3.653,0,0,1,72.349-.918,4.631,4.631,0,0,1,69.141.2,4.689,4.689,0,0,1,65.508-1.25a5.7,5.7,0,0,1-1.328-4v-.137a6.436,6.436,0,0,1,.591-2.827,4.3,4.3,0,0,1,1.7-1.885,5.081,5.081,0,0,1,2.637-.659,4.573,4.573,0,0,1,3.271,1.143,4.053,4.053,0,0,1,1.211,3.1H70.508a1.806,1.806,0,0,0-.4-1.26,1.382,1.382,0,0,0-1.074-.439q-1.279,0-1.494,1.631a11.508,11.508,0,0,0-.068,1.426,4.52,4.52,0,0,0,.381,2.207A1.319,1.319,0,0,0,69.063-2.344ZM78.457,0h-3.3V-10.566h3.3Zm-3.5-13.291a1.469,1.469,0,0,1,.508-1.152,1.916,1.916,0,0,1,1.318-.449,1.916,1.916,0,0,1,1.318.449,1.469,1.469,0,0,1,.508,1.152,1.469,1.469,0,0,1-.508,1.152,1.916,1.916,0,0,1-1.318.449,1.916,1.916,0,0,1-1.318-.449A1.469,1.469,0,0,1,74.961-13.291Zm5.107,7.91A6.236,6.236,0,0,1,80.684-8.2a4.4,4.4,0,0,1,1.768-1.9,5.323,5.323,0,0,1,2.705-.664,4.858,4.858,0,0,1,3.74,1.47,5.64,5.64,0,0,1,1.367,4v.117a5.472,5.472,0,0,1-1.372,3.921A4.871,4.871,0,0,1,85.176.2a4.927,4.927,0,0,1-3.623-1.353,5.29,5.29,0,0,1-1.475-3.667Zm3.291.205a3.932,3.932,0,0,0,.459,2.148,1.529,1.529,0,0,0,1.357.684q1.758,0,1.8-2.705v-.332q0-2.842-1.816-2.842-1.65,0-1.787,2.451Zm11.377-5.391.107,1.24a3.583,3.583,0,0,1,3.018-1.436,3.015,3.015,0,0,1,2.466.986,4.7,4.7,0,0,1,.845,2.969V0h-3.3V-6.67a1.783,1.783,0,0,0-.322-1.177,1.491,1.491,0,0,0-1.172-.376,1.569,1.569,0,0,0-1.436.762V0H91.65V-10.566ZM108.105.2a5.432,5.432,0,0,1-3.936-1.45,5.008,5.008,0,0,1-1.5-3.774V-5.3a6.489,6.489,0,0,1,.6-2.861,4.395,4.395,0,0,1,1.753-1.919,5.292,5.292,0,0,1,2.734-.679A4.574,4.574,0,0,1,111.27-9.38a5.43,5.43,0,0,1,1.289,3.853v1.279h-6.543a2.372,2.372,0,0,0,.771,1.4,2.3,2.3,0,0,0,1.543.508,2.958,2.958,0,0,0,2.441-1.094l1.5,1.777a4.2,4.2,0,0,1-1.743,1.353A5.891,5.891,0,0,1,108.105.2Zm-.371-8.418q-1.445,0-1.719,1.914h3.32v-.254a1.63,1.63,0,0,0-.4-1.226A1.593,1.593,0,0,0,107.734-8.223Zm11.68,5.254a.76.76,0,0,0-.439-.674,6.685,6.685,0,0,0-1.67-.527,7.615,7.615,0,0,1-2.031-.718,3.4,3.4,0,0,1-1.221-1.079,2.577,2.577,0,0,1-.42-1.455,2.92,2.92,0,0,1,1.2-2.4,4.948,4.948,0,0,1,3.145-.942,5.482,5.482,0,0,1,3.359.947,2.962,2.962,0,0,1,1.27,2.49h-3.3q0-1.27-1.338-1.27a1.326,1.326,0,0,0-.869.288.892.892,0,0,0-.352.718.819.819,0,0,0,.43.713,4.06,4.06,0,0,0,1.372.449,11.857,11.857,0,0,1,1.655.42,3.007,3.007,0,0,1,2.383,2.939A2.767,2.767,0,0,1,121.3-.713,5.631,5.631,0,0,1,117.979.2a5.747,5.747,0,0,1-2.422-.488,4.05,4.05,0,0,1-1.66-1.328,3.007,3.007,0,0,1-.6-1.768h3.076a1.272,1.272,0,0,0,.488,1.069,2.009,2.009,0,0,0,1.2.337,1.58,1.58,0,0,0,1.011-.273A.875.875,0,0,0,119.414-2.969ZM134.219.2a5.432,5.432,0,0,1-3.936-1.45,5.008,5.008,0,0,1-1.5-3.774V-5.3a6.489,6.489,0,0,1,.6-2.861,4.395,4.395,0,0,1,1.753-1.919,5.292,5.292,0,0,1,2.734-.679,4.574,4.574,0,0,1,3.516,1.382,5.43,5.43,0,0,1,1.289,3.853v1.279h-6.543a2.372,2.372,0,0,0,.771,1.4,2.3,2.3,0,0,0,1.543.508,2.958,2.958,0,0,0,2.441-1.094l1.5,1.777a4.2,4.2,0,0,1-1.743,1.353A5.891,5.891,0,0,1,134.219.2Zm-.371-8.418q-1.445,0-1.719,1.914h3.32v-.254a1.63,1.63,0,0,0-.4-1.226A1.593,1.593,0,0,0,133.848-8.223Zm11.68,5.254a.76.76,0,0,0-.439-.674,6.685,6.685,0,0,0-1.67-.527,7.615,7.615,0,0,1-2.031-.718,3.4,3.4,0,0,1-1.221-1.079,2.577,2.577,0,0,1-.42-1.455,2.92,2.92,0,0,1,1.2-2.4,4.948,4.948,0,0,1,3.145-.942,5.482,5.482,0,0,1,3.359.947,2.962,2.962,0,0,1,1.27,2.49h-3.3q0-1.27-1.338-1.27a1.326,1.326,0,0,0-.869.288.892.892,0,0,0-.352.718.819.819,0,0,0,.43.713,4.06,4.06,0,0,0,1.372.449,11.857,11.857,0,0,1,1.655.42A3.007,3.007,0,0,1,148.7-3.066a2.767,2.767,0,0,1-1.284,2.354A5.632,5.632,0,0,1,144.092.2a5.747,5.747,0,0,1-2.422-.488,4.05,4.05,0,0,1-1.66-1.328,3.007,3.007,0,0,1-.6-1.768h3.076a1.272,1.272,0,0,0,.488,1.069,2.009,2.009,0,0,0,1.2.337,1.58,1.58,0,0,0,1.011-.273A.875.875,0,0,0,145.527-2.969Zm14.521-2.236a6.372,6.372,0,0,1-1.108,3.931A3.554,3.554,0,0,1,155.947.2a3.046,3.046,0,0,1-2.393-1.064V4.063h-3.291V-10.566h3.076l.1.977a3.046,3.046,0,0,1,2.49-1.172,3.582,3.582,0,0,1,3.037,1.44,6.45,6.45,0,0,1,1.084,3.96Zm-3.291-.205q0-2.812-1.641-2.812a1.549,1.549,0,0,0-1.562.84v4.16a1.6,1.6,0,0,0,1.582.879q1.572,0,1.621-2.715ZM166.611.2a5.432,5.432,0,0,1-3.936-1.45,5.008,5.008,0,0,1-1.5-3.774V-5.3a6.489,6.489,0,0,1,.6-2.861,4.395,4.395,0,0,1,1.753-1.919,5.292,5.292,0,0,1,2.734-.679,4.574,4.574,0,0,1,3.516,1.382,5.43,5.43,0,0,1,1.289,3.853v1.279h-6.543a2.372,2.372,0,0,0,.771,1.4,2.3,2.3,0,0,0,1.543.508,2.958,2.958,0,0,0,2.441-1.094l1.5,1.777a4.2,4.2,0,0,1-1.743,1.353A5.891,5.891,0,0,1,166.611.2Zm-.371-8.418q-1.445,0-1.719,1.914h3.32v-.254a1.63,1.63,0,0,0-.4-1.226A1.593,1.593,0,0,0,166.24-8.223Zm10.615,5.879a1.464,1.464,0,0,0,1.074-.376,1.379,1.379,0,0,0,.371-1.05h3.086a3.653,3.653,0,0,1-1.245,2.852A4.631,4.631,0,0,1,176.934.2,4.689,4.689,0,0,1,173.3-1.25a5.7,5.7,0,0,1-1.328-4v-.137a6.436,6.436,0,0,1,.591-2.827,4.3,4.3,0,0,1,1.7-1.885,5.081,5.081,0,0,1,2.637-.659,4.573,4.573,0,0,1,3.271,1.143,4.053,4.053,0,0,1,1.211,3.1H178.3a1.807,1.807,0,0,0-.4-1.26,1.382,1.382,0,0,0-1.074-.439q-1.279,0-1.494,1.631a11.507,11.507,0,0,0-.068,1.426,4.52,4.52,0,0,0,.381,2.207A1.319,1.319,0,0,0,176.855-2.344ZM186.25,0h-3.3V-10.566h3.3Zm-3.5-13.291a1.469,1.469,0,0,1,.508-1.152,1.916,1.916,0,0,1,1.318-.449,1.916,1.916,0,0,1,1.318.449,1.469,1.469,0,0,1,.508,1.152,1.469,1.469,0,0,1-.508,1.152,1.916,1.916,0,0,1-1.318.449,1.916,1.916,0,0,1-1.318-.449A1.469,1.469,0,0,1,182.754-13.291ZM194.229,0a3.716,3.716,0,0,1-.312-.947A3.06,3.06,0,0,1,191.377.2a3.749,3.749,0,0,1-2.539-.9,2.875,2.875,0,0,1-1.045-2.271,2.955,2.955,0,0,1,1.27-2.6,6.468,6.468,0,0,1,3.691-.879h1.016v-.559q0-1.462-1.26-1.462a1.03,1.03,0,0,0-1.172,1.158h-3.291a2.95,2.95,0,0,1,1.3-2.487,5.479,5.479,0,0,1,3.325-.956,4.8,4.8,0,0,1,3.193.986,3.429,3.429,0,0,1,1.2,2.705v4.678a4.79,4.79,0,0,0,.449,2.227V0Zm-2.061-2.148a1.836,1.836,0,0,0,1.021-.264,1.652,1.652,0,0,0,.581-.6V-4.7h-.957q-1.719,0-1.719,1.543a.942.942,0,0,0,.3.728A1.1,1.1,0,0,0,192.168-2.148ZM202.363,0h-3.3V-15h3.3ZM209.5.2a5.432,5.432,0,0,1-3.936-1.45,5.008,5.008,0,0,1-1.5-3.774V-5.3a6.489,6.489,0,0,1,.6-2.861,4.395,4.395,0,0,1,1.753-1.919,5.292,5.292,0,0,1,2.734-.679,4.574,4.574,0,0,1,3.516,1.382,5.43,5.43,0,0,1,1.289,3.853v1.279h-6.543a2.372,2.372,0,0,0,.771,1.4,2.3,2.3,0,0,0,1.543.508,2.958,2.958,0,0,0,2.441-1.094l1.5,1.777a4.2,4.2,0,0,1-1.743,1.353A5.891,5.891,0,0,1,209.5.2Zm-.371-8.418q-1.445,0-1.719,1.914h3.32v-.254a1.63,1.63,0,0,0-.4-1.226A1.593,1.593,0,0,0,209.131-8.223Zm11.68,5.254a.76.76,0,0,0-.439-.674,6.685,6.685,0,0,0-1.67-.527,7.615,7.615,0,0,1-2.031-.718,3.4,3.4,0,0,1-1.221-1.079,2.577,2.577,0,0,1-.42-1.455,2.92,2.92,0,0,1,1.2-2.4,4.948,4.948,0,0,1,3.145-.942,5.482,5.482,0,0,1,3.359.947A2.962,2.962,0,0,1,224-7.324h-3.3q0-1.27-1.338-1.27a1.326,1.326,0,0,0-.869.288.892.892,0,0,0-.352.718.819.819,0,0,0,.43.713,4.06,4.06,0,0,0,1.372.449,11.857,11.857,0,0,1,1.655.42,3.007,3.007,0,0,1,2.383,2.939A2.767,2.767,0,0,1,222.7-.713,5.632,5.632,0,0,1,219.375.2a5.747,5.747,0,0,1-2.422-.488,4.05,4.05,0,0,1-1.66-1.328,3.007,3.007,0,0,1-.6-1.768h3.076a1.272,1.272,0,0,0,.488,1.069,2.009,2.009,0,0,0,1.2.337,1.58,1.58,0,0,0,1.011-.273A.875.875,0,0,0,220.811-2.969Z" transform="translate(1003 3881)" fill="#12263f"/>
    <path id="Trazado_176380" data-name="Trazado 176380" d="M0,0H610V356H0Z" transform="translate(810 3899)" fill="#f6f6f6"/>
    <path id="Trazado_176398" data-name="Trazado 176398" d="M-14.444,0h-1.225l-4.653-7.122V0h-1.225V-9.242h1.225l4.666,7.154V-9.242h1.212Zm1.669-3.5a4.057,4.057,0,0,1,.4-1.815,2.96,2.96,0,0,1,1.1-1.244A3.007,3.007,0,0,1-9.658-7a2.9,2.9,0,0,1,2.269.971A3.736,3.736,0,0,1-6.522-3.44v.083a4.092,4.092,0,0,1-.384,1.8A2.916,2.916,0,0,1-8-.317,3.041,3.041,0,0,1-9.645.127a2.889,2.889,0,0,1-2.263-.971,3.718,3.718,0,0,1-.866-2.571Zm1.181.14a2.938,2.938,0,0,0,.53,1.834,1.7,1.7,0,0,0,1.419.692,1.686,1.686,0,0,0,1.422-.7A3.213,3.213,0,0,0-7.7-3.5a2.933,2.933,0,0,0-.536-1.831,1.705,1.705,0,0,0-1.425-.7,1.686,1.686,0,0,0-1.4.692A3.189,3.189,0,0,0-11.594-3.358Zm14,2.679A2.494,2.494,0,0,1,.4.127,2.135,2.135,0,0,1-1.276-.511,2.761,2.761,0,0,1-1.857-2.4V-6.868H-.682v4.437Q-.682-.87.587-.87a1.758,1.758,0,0,0,1.79-1v-5H3.552V0H2.434ZM9.334-1.822a.865.865,0,0,0-.359-.74,3.452,3.452,0,0,0-1.25-.454A5.912,5.912,0,0,1,6.31-3.472a2.014,2.014,0,0,1-.774-.635,1.518,1.518,0,0,1-.251-.876A1.782,1.782,0,0,1,6-6.411,2.789,2.789,0,0,1,7.823-7a2.87,2.87,0,0,1,1.895.6,1.915,1.915,0,0,1,.727,1.542H9.264a1.06,1.06,0,0,0-.409-.832A1.534,1.534,0,0,0,7.823-6.03a1.605,1.605,0,0,0-1,.279.879.879,0,0,0-.362.73A.712.712,0,0,0,6.8-4.38a4.139,4.139,0,0,0,1.216.413,6.334,6.334,0,0,1,1.425.47,2.079,2.079,0,0,1,.809.657,1.615,1.615,0,0,1,.263.936A1.758,1.758,0,0,1,9.772-.428,3.089,3.089,0,0,1,7.862.127,3.459,3.459,0,0,1,6.4-.165a2.375,2.375,0,0,1-.993-.816A1.966,1.966,0,0,1,5.05-2.114H6.224a1.216,1.216,0,0,0,.473.936,1.835,1.835,0,0,0,1.165.346,1.894,1.894,0,0,0,1.07-.27A.829.829,0,0,0,9.334-1.822ZM16.279,0a2.467,2.467,0,0,1-.165-.724,2.62,2.62,0,0,1-1.955.851,2.424,2.424,0,0,1-1.666-.574A1.859,1.859,0,0,1,11.842-1.9a1.942,1.942,0,0,1,.816-1.666,3.846,3.846,0,0,1,2.295-.594h1.143V-4.7a1.319,1.319,0,0,0-.368-.981,1.48,1.48,0,0,0-1.085-.365,1.712,1.712,0,0,0-1.054.317.935.935,0,0,0-.425.768H11.981a1.621,1.621,0,0,1,.365-.993,2.491,2.491,0,0,1,.99-.759A3.331,3.331,0,0,1,14.711-7a2.715,2.715,0,0,1,1.86.594,2.141,2.141,0,0,1,.7,1.635v3.161A3.865,3.865,0,0,0,17.51-.1V0ZM14.33-.9a2.064,2.064,0,0,0,1.047-.286,1.728,1.728,0,0,0,.717-.743V-3.333h-.92q-2.158,0-2.158,1.263a1.069,1.069,0,0,0,.368.863A1.415,1.415,0,0,0,14.33-.9Zm8.1-4.919a3.519,3.519,0,0,0-.578-.044,1.547,1.547,0,0,0-1.568.984V0H19.11V-6.868h1.143l.019.793A1.829,1.829,0,0,1,21.909-7a1.2,1.2,0,0,1,.521.089ZM-27.155,8.963A2.5,2.5,0,0,1-25.124,8q2.177,0,2.2,2.457V15H-24.1V10.455a1.581,1.581,0,0,0-.34-1.1A1.361,1.361,0,0,0-25.479,9a1.7,1.7,0,0,0-1,.3,2.069,2.069,0,0,0-.673.8V15H-28.33V5.25h1.174ZM-21.48,11.5a4.057,4.057,0,0,1,.4-1.815,2.96,2.96,0,0,1,1.1-1.244A3.007,3.007,0,0,1-18.364,8a2.9,2.9,0,0,1,2.269.971,3.736,3.736,0,0,1,.866,2.583v.083a4.092,4.092,0,0,1-.384,1.8,2.916,2.916,0,0,1-1.1,1.241,3.041,3.041,0,0,1-1.641.444,2.889,2.889,0,0,1-2.263-.971,3.718,3.718,0,0,1-.866-2.571Zm1.181.14a2.938,2.938,0,0,0,.53,1.834,1.7,1.7,0,0,0,1.419.692,1.686,1.686,0,0,0,1.422-.7A3.213,3.213,0,0,0-16.4,11.5a2.933,2.933,0,0,0-.536-1.831,1.705,1.705,0,0,0-1.425-.7,1.686,1.686,0,0,0-1.4.692A3.189,3.189,0,0,0-20.3,11.642Zm9.864-2.457a3.519,3.519,0,0,0-.578-.044,1.547,1.547,0,0,0-1.568.984V15h-1.174V8.132h1.143l.019.793A1.829,1.829,0,0,1-10.956,8a1.2,1.2,0,0,1,.521.089Zm.793,2.323A4.031,4.031,0,0,1-8.9,8.948,2.407,2.407,0,0,1-6.906,8a2.4,2.4,0,0,1,1.923.819l.051-.692h1.079v9.509H-5.027V14.365a2.465,2.465,0,0,1-1.892.762A2.369,2.369,0,0,1-8.9,14.159a4.121,4.121,0,0,1-.74-2.568Zm1.174.133a3.056,3.056,0,0,0,.5,1.854,1.585,1.585,0,0,0,1.343.673,1.758,1.758,0,0,0,1.6-.927V9.877A1.764,1.764,0,0,0-6.614,8.97a1.6,1.6,0,0,0-1.352.676A3.327,3.327,0,0,0-8.468,11.642Zm10.74,2.679a2.494,2.494,0,0,1-2.012.806,2.135,2.135,0,0,1-1.673-.638A2.761,2.761,0,0,1-1.993,12.6V8.132H-.819v4.437q0,1.562,1.27,1.562a1.758,1.758,0,0,0,1.79-1v-5H3.415V15H2.3Zm5.776.806a3,3,0,0,1-2.272-.917A3.4,3.4,0,0,1,4.9,11.756v-.216a4.121,4.121,0,0,1,.39-1.825A3.045,3.045,0,0,1,6.383,8.459,2.745,2.745,0,0,1,7.9,8a2.572,2.572,0,0,1,2.082.882,3.82,3.82,0,0,1,.743,2.526V11.9H6.075a2.441,2.441,0,0,0,.594,1.641,1.866,1.866,0,0,0,1.444.625,2.045,2.045,0,0,0,1.054-.254,2.648,2.648,0,0,0,.755-.673l.717.559A2.884,2.884,0,0,1,8.049,15.127ZM7.9,8.97a1.566,1.566,0,0,0-1.193.517,2.515,2.515,0,0,0-.6,1.45h3.44v-.089a2.237,2.237,0,0,0-.482-1.387A1.475,1.475,0,0,0,7.9,8.97Zm5.776-2.5V8.132h1.282V9.04H13.679V13.3a.953.953,0,0,0,.171.62.721.721,0,0,0,.584.207,2.843,2.843,0,0,0,.559-.076V15a3.424,3.424,0,0,1-.9.126,1.462,1.462,0,0,1-1.187-.476,2.045,2.045,0,0,1-.4-1.352V9.04h-1.25V8.132H12.5V6.469ZM20.573,15a2.467,2.467,0,0,1-.165-.724,2.62,2.62,0,0,1-1.955.851,2.424,2.424,0,0,1-1.666-.574,1.859,1.859,0,0,1-.651-1.457,1.942,1.942,0,0,1,.816-1.666,3.846,3.846,0,0,1,2.295-.594h1.143V10.3a1.319,1.319,0,0,0-.368-.981,1.48,1.48,0,0,0-1.085-.365,1.712,1.712,0,0,0-1.054.317.935.935,0,0,0-.425.768H16.275a1.621,1.621,0,0,1,.365-.993,2.491,2.491,0,0,1,.99-.759A3.331,3.331,0,0,1,19,8a2.715,2.715,0,0,1,1.86.594,2.141,2.141,0,0,1,.7,1.635v3.161a3.865,3.865,0,0,0,.241,1.5V15Zm-1.949-.9a2.064,2.064,0,0,0,1.047-.286,1.728,1.728,0,0,0,.717-.743V11.667h-.92q-2.158,0-2.158,1.263a1.069,1.069,0,0,0,.368.863A1.415,1.415,0,0,0,18.624,14.1Zm8.779-.927a.864.864,0,0,0-.359-.74,3.452,3.452,0,0,0-1.25-.454,5.912,5.912,0,0,1-1.416-.457,2.014,2.014,0,0,1-.774-.635,1.518,1.518,0,0,1-.251-.876,1.782,1.782,0,0,1,.714-1.428A2.789,2.789,0,0,1,25.892,8a2.87,2.87,0,0,1,1.895.6,1.915,1.915,0,0,1,.727,1.542H27.333a1.06,1.06,0,0,0-.409-.832,1.534,1.534,0,0,0-1.031-.349,1.605,1.605,0,0,0-1,.279.879.879,0,0,0-.362.73.712.712,0,0,0,.336.641,4.139,4.139,0,0,0,1.216.413,6.334,6.334,0,0,1,1.425.47,2.079,2.079,0,0,1,.809.657,1.615,1.615,0,0,1,.263.936,1.758,1.758,0,0,1-.736,1.476,3.089,3.089,0,0,1-1.911.555,3.459,3.459,0,0,1-1.46-.292,2.375,2.375,0,0,1-.993-.816,1.966,1.966,0,0,1-.359-1.133h1.174a1.216,1.216,0,0,0,.473.936,1.835,1.835,0,0,0,1.165.346A1.894,1.894,0,0,0,27,13.9.829.829,0,0,0,27.4,13.178Z" transform="translate(947 4046.118)" fill="#12263f"/>
    <path id="Trazado_176392" data-name="Trazado 176392" d="M-17.846,0h-1.225l-4.653-7.122V0h-1.225V-9.242h1.225l4.666,7.154V-9.242h1.212Zm1.669-3.5a4.057,4.057,0,0,1,.4-1.815,2.96,2.96,0,0,1,1.1-1.244A3.007,3.007,0,0,1-13.06-7a2.9,2.9,0,0,1,2.269.971A3.736,3.736,0,0,1-9.925-3.44v.083a4.092,4.092,0,0,1-.384,1.8,2.916,2.916,0,0,1-1.1,1.241,3.041,3.041,0,0,1-1.641.444,2.889,2.889,0,0,1-2.263-.971,3.718,3.718,0,0,1-.866-2.571Zm1.181.14a2.938,2.938,0,0,0,.53,1.834,1.7,1.7,0,0,0,1.419.692,1.686,1.686,0,0,0,1.422-.7A3.213,3.213,0,0,0-11.1-3.5a2.933,2.933,0,0,0-.536-1.831,1.705,1.705,0,0,0-1.425-.7,1.686,1.686,0,0,0-1.4.692A3.189,3.189,0,0,0-15-3.358ZM-.993,0a2.467,2.467,0,0,1-.165-.724A2.62,2.62,0,0,1-3.114.127,2.424,2.424,0,0,1-4.78-.448,1.859,1.859,0,0,1-5.43-1.9a1.942,1.942,0,0,1,.816-1.666A3.846,3.846,0,0,1-2.32-4.164h1.143V-4.7a1.319,1.319,0,0,0-.368-.981,1.48,1.48,0,0,0-1.085-.365,1.712,1.712,0,0,0-1.054.317.935.935,0,0,0-.425.768H-5.291a1.621,1.621,0,0,1,.365-.993,2.491,2.491,0,0,1,.99-.759A3.331,3.331,0,0,1-2.561-7,2.715,2.715,0,0,1-.7-6.4,2.141,2.141,0,0,1,0-4.767v3.161A3.865,3.865,0,0,0,.238-.1V0ZM-2.942-.9a2.064,2.064,0,0,0,1.047-.286,1.728,1.728,0,0,0,.717-.743V-3.333H-2.1q-2.158,0-2.158,1.263a1.069,1.069,0,0,0,.368.863A1.415,1.415,0,0,0-2.942-.9ZM7.639-3.358A4.113,4.113,0,0,1,6.922-.832,2.3,2.3,0,0,1,4.98.127,2.519,2.519,0,0,1,3.012-.667V2.641H1.838V-6.868H2.91l.057.762A2.419,2.419,0,0,1,4.961-7a2.342,2.342,0,0,1,1.958.933,4.157,4.157,0,0,1,.72,2.6ZM6.465-3.491a3.035,3.035,0,0,0-.5-1.834A1.6,1.6,0,0,0,4.612-6a1.726,1.726,0,0,0-1.6.946v3.282a1.73,1.73,0,0,0,1.612.939A1.587,1.587,0,0,0,5.967-1.5,3.312,3.312,0,0,0,6.465-3.491ZM10.407,0H9.233V-6.868h1.174ZM9.137-8.69a.7.7,0,0,1,.175-.482.655.655,0,0,1,.517-.2.666.666,0,0,1,.521.2.694.694,0,0,1,.178.482.671.671,0,0,1-.178.476.678.678,0,0,1-.521.19.667.667,0,0,1-.517-.19A.678.678,0,0,1,9.137-8.69ZM13.562,0H12.387V-9.75h1.174Zm6.119,0a2.467,2.467,0,0,1-.165-.724,2.62,2.62,0,0,1-1.955.851,2.424,2.424,0,0,1-1.666-.574A1.859,1.859,0,0,1,15.244-1.9a1.942,1.942,0,0,1,.816-1.666,3.846,3.846,0,0,1,2.295-.594H19.5V-4.7a1.319,1.319,0,0,0-.368-.981,1.48,1.48,0,0,0-1.085-.365,1.712,1.712,0,0,0-1.054.317.935.935,0,0,0-.425.768H15.384a1.621,1.621,0,0,1,.365-.993,2.491,2.491,0,0,1,.99-.759A3.331,3.331,0,0,1,18.113-7a2.715,2.715,0,0,1,1.86.594,2.141,2.141,0,0,1,.7,1.635v3.161a3.865,3.865,0,0,0,.241,1.5V0ZM17.732-.9a2.064,2.064,0,0,0,1.047-.286,1.728,1.728,0,0,0,.717-.743V-3.333h-.92q-2.158,0-2.158,1.263a1.069,1.069,0,0,0,.368.863A1.415,1.415,0,0,0,17.732-.9Zm8.1-4.919a3.519,3.519,0,0,0-.578-.044,1.547,1.547,0,0,0-1.568.984V0H22.512V-6.868h1.143l.019.793A1.829,1.829,0,0,1,25.311-7a1.2,1.2,0,0,1,.521.089Z" transform="translate(1059.5 4208.452)" fill="#12263f"/>
    <path id="Trazado_176381" data-name="Trazado 176381" d="M-24.365-1h4.38V0h-5.6V-9.242h1.225ZM-17.5,0h-1.181V-6.868H-17.5Zm.013-9.744h1.422l-1.7,1.866-.946,0Zm3.028,2.875.032.762A2.536,2.536,0,0,1-12.394-7a1.964,1.964,0,0,1,1.961,1.1,2.6,2.6,0,0,1,.892-.8,2.634,2.634,0,0,1,1.3-.3q2.26,0,2.3,2.393V0H-7.119V-4.532a1.577,1.577,0,0,0-.336-1.1A1.482,1.482,0,0,0-8.585-6a1.557,1.557,0,0,0-1.085.39,1.584,1.584,0,0,0-.5,1.051V0h-1.181V-4.5A1.31,1.31,0,0,0-12.819-6a1.571,1.571,0,0,0-1.581.984V0h-1.174V-6.868ZM-2.9,0H-4.072V-6.868H-2.9Zm-1.27-8.69a.7.7,0,0,1,.175-.482.655.655,0,0,1,.517-.2.666.666,0,0,1,.521.2.694.694,0,0,1,.178.482.671.671,0,0,1-.178.476.678.678,0,0,1-.521.19.667.667,0,0,1-.517-.19A.678.678,0,0,1-4.167-8.69Zm4.742.159v1.663H1.857v.908H.574V-1.7a.953.953,0,0,0,.171.62A.721.721,0,0,0,1.33-.87a2.843,2.843,0,0,0,.559-.076V0a3.424,3.424,0,0,1-.9.126A1.462,1.462,0,0,1-.2-.349,2.045,2.045,0,0,1-.6-1.7V-5.96H-1.85v-.908H-.6V-8.531ZM6.078.127A3,3,0,0,1,3.805-.79a3.4,3.4,0,0,1-.876-2.453v-.216a4.121,4.121,0,0,1,.39-1.825A3.045,3.045,0,0,1,4.412-6.541,2.745,2.745,0,0,1,5.932-7a2.572,2.572,0,0,1,2.082.882,3.82,3.82,0,0,1,.743,2.526V-3.1H4.1A2.441,2.441,0,0,0,4.7-1.457a1.866,1.866,0,0,0,1.444.625A2.045,2.045,0,0,0,7.2-1.085a2.648,2.648,0,0,0,.755-.673l.717.559A2.884,2.884,0,0,1,6.078.127ZM5.932-6.03a1.566,1.566,0,0,0-1.193.517,2.515,2.515,0,0,0-.6,1.45h3.44v-.089A2.237,2.237,0,0,0,7.1-5.538,1.475,1.475,0,0,0,5.932-6.03Zm7.116,2.539A4.023,4.023,0,0,1,13.8-6.033,2.369,2.369,0,0,1,15.758-7a2.382,2.382,0,0,1,1.911.825V-9.75h1.174V0H17.764l-.057-.736a2.391,2.391,0,0,1-1.961.863A2.346,2.346,0,0,1,13.8-.851,4.069,4.069,0,0,1,13.048-3.4Zm1.174.133A3.046,3.046,0,0,0,14.7-1.53a1.56,1.56,0,0,0,1.333.66,1.713,1.713,0,0,0,1.631-1V-5.027A1.726,1.726,0,0,0,16.05-6a1.567,1.567,0,0,0-1.346.667A3.354,3.354,0,0,0,14.222-3.358ZM23.515.127A3,3,0,0,1,21.242-.79a3.4,3.4,0,0,1-.876-2.453v-.216a4.121,4.121,0,0,1,.39-1.825,3.045,3.045,0,0,1,1.092-1.257A2.745,2.745,0,0,1,23.369-7a2.572,2.572,0,0,1,2.082.882,3.82,3.82,0,0,1,.743,2.526V-3.1H21.541a2.441,2.441,0,0,0,.594,1.641,1.866,1.866,0,0,0,1.444.625,2.045,2.045,0,0,0,1.054-.254,2.648,2.648,0,0,0,.755-.673L26.1-1.2A2.884,2.884,0,0,1,23.515.127ZM23.369-6.03a1.566,1.566,0,0,0-1.193.517,2.515,2.515,0,0,0-.6,1.45h3.44v-.089a2.237,2.237,0,0,0-.482-1.387A1.475,1.475,0,0,0,23.369-6.03ZM-32.8,9.469v1.663h1.282v.908H-32.8V16.3a.953.953,0,0,0,.171.62.721.721,0,0,0,.584.207,2.843,2.843,0,0,0,.559-.076V18a3.424,3.424,0,0,1-.9.126,1.462,1.462,0,0,1-1.187-.476,2.045,2.045,0,0,1-.4-1.352V12.04h-1.25v-.908h1.25V9.469Zm5.5,8.658a3,3,0,0,1-2.272-.917,3.4,3.4,0,0,1-.876-2.453v-.216a4.121,4.121,0,0,1,.39-1.825,3.045,3.045,0,0,1,1.092-1.257A2.745,2.745,0,0,1-27.438,11a2.572,2.572,0,0,1,2.082.882,3.82,3.82,0,0,1,.743,2.526V14.9h-4.653a2.441,2.441,0,0,0,.594,1.641,1.866,1.866,0,0,0,1.444.625,2.045,2.045,0,0,0,1.054-.254,2.648,2.648,0,0,0,.755-.673l.717.559A2.884,2.884,0,0,1-27.292,18.127Zm-.146-6.157a1.566,1.566,0,0,0-1.193.517,2.515,2.515,0,0,0-.6,1.45h3.44v-.089a2.237,2.237,0,0,0-.482-1.387A1.475,1.475,0,0,0-27.438,11.97Zm5.288-.838.032.762A2.536,2.536,0,0,1-20.081,11a1.964,1.964,0,0,1,1.961,1.1,2.6,2.6,0,0,1,.892-.8,2.634,2.634,0,0,1,1.3-.3q2.26,0,2.3,2.393V18h-1.174V13.468a1.577,1.577,0,0,0-.336-1.1A1.482,1.482,0,0,0-16.272,12a1.557,1.557,0,0,0-1.085.39,1.584,1.584,0,0,0-.5,1.051V18H-19.04V13.5A1.31,1.31,0,0,0-20.506,12a1.571,1.571,0,0,0-1.581.984V18h-1.174V11.132Zm16.091,3.51a4.113,4.113,0,0,1-.717,2.526,2.3,2.3,0,0,1-1.942.958,2.519,2.519,0,0,1-1.968-.793v3.307h-1.174V11.132h1.073l.057.762A2.419,2.419,0,0,1-8.738,11a2.342,2.342,0,0,1,1.958.933,4.157,4.157,0,0,1,.72,2.6Zm-1.174-.133a3.035,3.035,0,0,0-.5-1.834A1.6,1.6,0,0,0-9.087,12a1.726,1.726,0,0,0-1.6.946v3.282a1.73,1.73,0,0,0,1.612.939,1.587,1.587,0,0,0,1.343-.67A3.312,3.312,0,0,0-7.233,14.509Zm5.516,3.618A3,3,0,0,1-3.99,17.21a3.4,3.4,0,0,1-.876-2.453v-.216a4.121,4.121,0,0,1,.39-1.825,3.045,3.045,0,0,1,1.092-1.257A2.745,2.745,0,0,1-1.863,11a2.572,2.572,0,0,1,2.082.882,3.82,3.82,0,0,1,.743,2.526V14.9H-3.691A2.441,2.441,0,0,0-3.1,16.543a1.866,1.866,0,0,0,1.444.625A2.045,2.045,0,0,0-.6,16.915a2.648,2.648,0,0,0,.755-.673l.717.559A2.884,2.884,0,0,1-1.717,18.127Zm-.146-6.157a1.566,1.566,0,0,0-1.193.517,2.515,2.515,0,0,0-.6,1.45h3.44v-.089A2.237,2.237,0,0,0-.7,12.462,1.475,1.475,0,0,0-1.863,11.97Zm7.5.216a3.519,3.519,0,0,0-.578-.044,1.547,1.547,0,0,0-1.568.984V18H2.32V11.132H3.463l.019.793A1.829,1.829,0,0,1,5.119,11a1.2,1.2,0,0,1,.521.089ZM10.705,18a2.467,2.467,0,0,1-.165-.724,2.62,2.62,0,0,1-1.955.851,2.424,2.424,0,0,1-1.666-.574A1.859,1.859,0,0,1,6.268,16.1a1.942,1.942,0,0,1,.816-1.666,3.846,3.846,0,0,1,2.295-.594h1.143V13.3a1.319,1.319,0,0,0-.368-.981,1.48,1.48,0,0,0-1.085-.365,1.712,1.712,0,0,0-1.054.317.935.935,0,0,0-.425.768H6.408a1.621,1.621,0,0,1,.365-.993,2.491,2.491,0,0,1,.99-.759A3.331,3.331,0,0,1,9.137,11,2.715,2.715,0,0,1,11,11.6a2.141,2.141,0,0,1,.7,1.635v3.161a3.865,3.865,0,0,0,.241,1.5V18Zm-1.949-.9A2.064,2.064,0,0,0,9.8,16.819a1.728,1.728,0,0,0,.717-.743V14.667H9.6q-2.158,0-2.158,1.263a1.069,1.069,0,0,0,.368.863A1.415,1.415,0,0,0,8.757,17.1ZM15.13,9.469v1.663h1.282v.908H15.13V16.3a.953.953,0,0,0,.171.62.721.721,0,0,0,.584.207,2.843,2.843,0,0,0,.559-.076V18a3.424,3.424,0,0,1-.9.126,1.462,1.462,0,0,1-1.187-.476,2.045,2.045,0,0,1-.4-1.352V12.04H12.7v-.908h1.25V9.469Zm6.894,7.852a2.494,2.494,0,0,1-2.012.806,2.135,2.135,0,0,1-1.673-.638,2.761,2.761,0,0,1-.581-1.888V11.132h1.174v4.437q0,1.562,1.27,1.562a1.758,1.758,0,0,0,1.79-1v-5h1.174V18H22.049Zm6.246-5.135a3.519,3.519,0,0,0-.578-.044,1.547,1.547,0,0,0-1.568.984V18H24.949V11.132h1.143l.019.793A1.829,1.829,0,0,1,27.749,11a1.2,1.2,0,0,1,.521.089ZM33.335,18a2.467,2.467,0,0,1-.165-.724,2.62,2.62,0,0,1-1.955.851,2.424,2.424,0,0,1-1.666-.574A1.859,1.859,0,0,1,28.9,16.1a1.942,1.942,0,0,1,.816-1.666,3.846,3.846,0,0,1,2.295-.594h1.143V13.3a1.319,1.319,0,0,0-.368-.981,1.48,1.48,0,0,0-1.085-.365,1.712,1.712,0,0,0-1.054.317.935.935,0,0,0-.425.768H29.037a1.621,1.621,0,0,1,.365-.993,2.491,2.491,0,0,1,.99-.759A3.331,3.331,0,0,1,31.767,11a2.715,2.715,0,0,1,1.86.594,2.141,2.141,0,0,1,.7,1.635v3.161a3.865,3.865,0,0,0,.241,1.5V18Zm-1.949-.9a2.064,2.064,0,0,0,1.047-.286,1.728,1.728,0,0,0,.717-.743V14.667h-.92q-2.158,0-2.158,1.263a1.069,1.069,0,0,0,.368.863A1.415,1.415,0,0,0,31.386,17.1Z" transform="translate(1289.895 4208.452)" fill="#12263f"/>
    <path id="Trazado_176395" data-name="Trazado 176395" d="M-59.919-1h4.38V0h-5.6V-9.242h1.225Zm6.862,1h-1.181V-6.868h1.181Zm.013-9.744h1.422l-1.7,1.866-.946,0Zm3.028,2.875.032.762A2.536,2.536,0,0,1-47.947-7a1.964,1.964,0,0,1,1.961,1.1,2.6,2.6,0,0,1,.892-.8A2.634,2.634,0,0,1-43.8-7q2.26,0,2.3,2.393V0h-1.174V-4.532a1.577,1.577,0,0,0-.336-1.1A1.482,1.482,0,0,0-44.138-6a1.557,1.557,0,0,0-1.085.39,1.584,1.584,0,0,0-.5,1.051V0h-1.181V-4.5A1.31,1.31,0,0,0-48.372-6a1.571,1.571,0,0,0-1.581.984V0h-1.174V-6.868ZM-38.451,0h-1.174V-6.868h1.174Zm-1.27-8.69a.7.7,0,0,1,.175-.482.655.655,0,0,1,.517-.2.666.666,0,0,1,.521.2.694.694,0,0,1,.178.482.671.671,0,0,1-.178.476.678.678,0,0,1-.521.19.667.667,0,0,1-.517-.19A.678.678,0,0,1-39.72-8.69Zm4.742.159v1.663H-33.7v.908h-1.282V-1.7a.953.953,0,0,0,.171.62.721.721,0,0,0,.584.207,2.843,2.843,0,0,0,.559-.076V0a3.424,3.424,0,0,1-.9.126,1.462,1.462,0,0,1-1.187-.476,2.045,2.045,0,0,1-.4-1.352V-5.96H-37.4v-.908h1.25V-8.531Zm5.5,8.658A3,3,0,0,1-31.748-.79a3.4,3.4,0,0,1-.876-2.453v-.216a4.121,4.121,0,0,1,.39-1.825,3.045,3.045,0,0,1,1.092-1.257A2.745,2.745,0,0,1-29.621-7a2.572,2.572,0,0,1,2.082.882A3.82,3.82,0,0,1-26.8-3.586V-3.1h-4.653a2.441,2.441,0,0,0,.594,1.641,1.866,1.866,0,0,0,1.444.625,2.045,2.045,0,0,0,1.054-.254,2.648,2.648,0,0,0,.755-.673l.717.559A2.884,2.884,0,0,1-29.475.127Zm-.146-6.157a1.566,1.566,0,0,0-1.193.517,2.515,2.515,0,0,0-.6,1.45h3.44v-.089a2.237,2.237,0,0,0-.482-1.387A1.475,1.475,0,0,0-29.621-6.03Zm7.116,2.539a4.023,4.023,0,0,1,.749-2.542A2.369,2.369,0,0,1-19.8-7a2.382,2.382,0,0,1,1.911.825V-9.75h1.174V0h-1.079l-.057-.736a2.391,2.391,0,0,1-1.961.863,2.346,2.346,0,0,1-1.946-.978A4.069,4.069,0,0,1-22.506-3.4Zm1.174.133a3.046,3.046,0,0,0,.482,1.828,1.56,1.56,0,0,0,1.333.66,1.713,1.713,0,0,0,1.631-1V-5.027A1.726,1.726,0,0,0-19.5-6a1.567,1.567,0,0,0-1.346.667A3.354,3.354,0,0,0-21.331-3.358ZM-12.038.127A3,3,0,0,1-14.311-.79a3.4,3.4,0,0,1-.876-2.453v-.216a4.121,4.121,0,0,1,.39-1.825A3.045,3.045,0,0,1-13.7-6.541,2.745,2.745,0,0,1-12.184-7a2.572,2.572,0,0,1,2.082.882A3.82,3.82,0,0,1-9.36-3.586V-3.1h-4.653a2.441,2.441,0,0,0,.594,1.641,1.866,1.866,0,0,0,1.444.625,2.045,2.045,0,0,0,1.054-.254,2.648,2.648,0,0,0,.755-.673l.717.559A2.884,2.884,0,0,1-12.038.127Zm-.146-6.157a1.566,1.566,0,0,0-1.193.517,2.515,2.515,0,0,0-.6,1.45h3.44v-.089a2.237,2.237,0,0,0-.482-1.387A1.475,1.475,0,0,0-12.184-6.03ZM-.543,0A2.467,2.467,0,0,1-.708-.724,2.62,2.62,0,0,1-2.663.127,2.424,2.424,0,0,1-4.329-.448,1.859,1.859,0,0,1-4.98-1.9a1.942,1.942,0,0,1,.816-1.666,3.846,3.846,0,0,1,2.295-.594H-.727V-4.7a1.319,1.319,0,0,0-.368-.981A1.48,1.48,0,0,0-2.18-6.049a1.712,1.712,0,0,0-1.054.317.935.935,0,0,0-.425.768H-4.84a1.621,1.621,0,0,1,.365-.993,2.491,2.491,0,0,1,.99-.759A3.331,3.331,0,0,1-2.111-7,2.715,2.715,0,0,1-.251-6.4a2.141,2.141,0,0,1,.7,1.635v3.161A3.865,3.865,0,0,0,.689-.1V0ZM-2.491-.9a2.064,2.064,0,0,0,1.047-.286,1.728,1.728,0,0,0,.717-.743V-3.333h-.92q-2.158,0-2.158,1.263a1.069,1.069,0,0,0,.368.863A1.415,1.415,0,0,0-2.491-.9ZM8.09-3.358A4.113,4.113,0,0,1,7.373-.832,2.3,2.3,0,0,1,5.43.127,2.519,2.519,0,0,1,3.463-.667V2.641H2.288V-6.868H3.361l.057.762A2.419,2.419,0,0,1,5.411-7a2.342,2.342,0,0,1,1.958.933,4.157,4.157,0,0,1,.72,2.6ZM6.916-3.491a3.035,3.035,0,0,0-.5-1.834A1.6,1.6,0,0,0,5.062-6a1.726,1.726,0,0,0-1.6.946v3.282a1.73,1.73,0,0,0,1.612.939A1.587,1.587,0,0,0,6.417-1.5,3.312,3.312,0,0,0,6.916-3.491ZM10.858,0H9.683V-6.868h1.174ZM9.588-8.69a.7.7,0,0,1,.175-.482.655.655,0,0,1,.517-.2.666.666,0,0,1,.521.2.694.694,0,0,1,.178.482.671.671,0,0,1-.178.476.678.678,0,0,1-.521.19.667.667,0,0,1-.517-.19A.678.678,0,0,1,9.588-8.69ZM14.012,0H12.838V-9.75h1.174Zm6.119,0a2.467,2.467,0,0,1-.165-.724,2.62,2.62,0,0,1-1.955.851,2.424,2.424,0,0,1-1.666-.574A1.859,1.859,0,0,1,15.695-1.9a1.942,1.942,0,0,1,.816-1.666A3.846,3.846,0,0,1,18.8-4.164h1.143V-4.7a1.319,1.319,0,0,0-.368-.981,1.48,1.48,0,0,0-1.085-.365,1.712,1.712,0,0,0-1.054.317.935.935,0,0,0-.425.768H15.834a1.621,1.621,0,0,1,.365-.993,2.491,2.491,0,0,1,.99-.759A3.331,3.331,0,0,1,18.564-7a2.715,2.715,0,0,1,1.86.594,2.141,2.141,0,0,1,.7,1.635v3.161a3.865,3.865,0,0,0,.241,1.5V0ZM18.183-.9a2.064,2.064,0,0,0,1.047-.286,1.728,1.728,0,0,0,.717-.743V-3.333h-.92q-2.158,0-2.158,1.263a1.069,1.069,0,0,0,.368.863A1.415,1.415,0,0,0,18.183-.9Zm5.884-5.973.032.762A2.536,2.536,0,0,1,26.136-7a1.964,1.964,0,0,1,1.961,1.1,2.6,2.6,0,0,1,.892-.8,2.634,2.634,0,0,1,1.3-.3q2.26,0,2.3,2.393V0H31.411V-4.532a1.577,1.577,0,0,0-.336-1.1A1.482,1.482,0,0,0,29.945-6a1.557,1.557,0,0,0-1.085.39,1.584,1.584,0,0,0-.5,1.051V0H27.177V-4.5A1.31,1.31,0,0,0,25.711-6a1.571,1.571,0,0,0-1.581.984V0H22.956V-6.868ZM35.633,0H34.458V-6.868h1.174Zm-1.27-8.69a.7.7,0,0,1,.175-.482.655.655,0,0,1,.517-.2.666.666,0,0,1,.521.2.694.694,0,0,1,.178.482.671.671,0,0,1-.178.476.678.678,0,0,1-.521.19.667.667,0,0,1-.517-.19A.678.678,0,0,1,34.363-8.69Zm6,8.817A3,3,0,0,1,38.089-.79a3.4,3.4,0,0,1-.876-2.453v-.216a4.121,4.121,0,0,1,.39-1.825A3.045,3.045,0,0,1,38.7-6.541,2.745,2.745,0,0,1,40.216-7a2.572,2.572,0,0,1,2.082.882,3.82,3.82,0,0,1,.743,2.526V-3.1H38.387a2.441,2.441,0,0,0,.594,1.641,1.866,1.866,0,0,0,1.444.625,2.045,2.045,0,0,0,1.054-.254,2.648,2.648,0,0,0,.755-.673l.717.559A2.884,2.884,0,0,1,40.362.127ZM40.216-6.03a1.566,1.566,0,0,0-1.193.517,2.515,2.515,0,0,0-.6,1.45h3.44v-.089a2.237,2.237,0,0,0-.482-1.387A1.475,1.475,0,0,0,40.216-6.03Zm5.294-.838L45.548-6A2.5,2.5,0,0,1,47.6-7q2.177,0,2.2,2.457V0H48.626V-4.545a1.581,1.581,0,0,0-.34-1.1A1.361,1.361,0,0,0,47.249-6a1.7,1.7,0,0,0-1,.3,2.069,2.069,0,0,0-.673.8V0H44.4V-6.868Zm7.655-1.663v1.663h1.282v.908H53.165V-1.7a.953.953,0,0,0,.171.62.721.721,0,0,0,.584.207,2.843,2.843,0,0,0,.559-.076V0a3.424,3.424,0,0,1-.9.126A1.462,1.462,0,0,1,52.39-.349a2.045,2.045,0,0,1-.4-1.352V-5.96H50.74v-.908h1.25V-8.531ZM55.38-3.5a4.057,4.057,0,0,1,.4-1.815,2.96,2.96,0,0,1,1.1-1.244A3.007,3.007,0,0,1,58.5-7a2.9,2.9,0,0,1,2.269.971,3.736,3.736,0,0,1,.866,2.583v.083a4.092,4.092,0,0,1-.384,1.8,2.916,2.916,0,0,1-1.1,1.241A3.041,3.041,0,0,1,58.51.127a2.889,2.889,0,0,1-2.263-.971,3.718,3.718,0,0,1-.866-2.571Zm1.181.14a2.938,2.938,0,0,0,.53,1.834,1.7,1.7,0,0,0,1.419.692,1.686,1.686,0,0,0,1.422-.7A3.213,3.213,0,0,0,60.458-3.5a2.933,2.933,0,0,0-.536-1.831,1.705,1.705,0,0,0-1.425-.7,1.686,1.686,0,0,0-1.4.692A3.189,3.189,0,0,0,56.561-3.358ZM-37.067,15.127a3,3,0,0,1-2.272-.917,3.4,3.4,0,0,1-.876-2.453v-.216a4.121,4.121,0,0,1,.39-1.825,3.045,3.045,0,0,1,1.092-1.257A2.745,2.745,0,0,1-37.213,8a2.572,2.572,0,0,1,2.082.882,3.82,3.82,0,0,1,.743,2.526V11.9h-4.653a2.441,2.441,0,0,0,.594,1.641A1.866,1.866,0,0,0-37,14.168a2.045,2.045,0,0,0,1.054-.254,2.648,2.648,0,0,0,.755-.673l.717.559A2.884,2.884,0,0,1-37.067,15.127Zm-.146-6.157a1.566,1.566,0,0,0-1.193.517,2.515,2.515,0,0,0-.6,1.45h3.44v-.089a2.237,2.237,0,0,0-.482-1.387A1.475,1.475,0,0,0-37.213,8.97Zm5.294-.838.038.863A2.5,2.5,0,0,1-29.824,8q2.177,0,2.2,2.457V15H-28.8V10.455a1.581,1.581,0,0,0-.34-1.1A1.361,1.361,0,0,0-30.18,9a1.7,1.7,0,0,0-1,.3,2.069,2.069,0,0,0-.673.8V15H-33.03V8.132Zm11.2,3.688-.736.768V15h-1.174V5.25h1.174v5.9l.628-.755,2.139-2.26h1.428L-19.935,11l2.983,4h-1.377ZM-14.774,15h-1.174V8.132h1.174Zm-1.27-8.69a.7.7,0,0,1,.175-.482.655.655,0,0,1,.517-.2.666.666,0,0,1,.521.2.694.694,0,0,1,.178.482.671.671,0,0,1-.178.476.678.678,0,0,1-.521.19.667.667,0,0,1-.517-.19A.678.678,0,0,1-16.044,6.31ZM-11.619,15h-1.174V5.25h1.174Zm1.568-3.5a4.057,4.057,0,0,1,.4-1.815,2.96,2.96,0,0,1,1.1-1.244A3.007,3.007,0,0,1-6.935,8a2.9,2.9,0,0,1,2.269.971A3.736,3.736,0,0,1-3.8,11.56v.083a4.092,4.092,0,0,1-.384,1.8,2.916,2.916,0,0,1-1.1,1.241,3.041,3.041,0,0,1-1.641.444,2.889,2.889,0,0,1-2.263-.971,3.718,3.718,0,0,1-.866-2.571Zm1.181.14a2.938,2.938,0,0,0,.53,1.834,1.7,1.7,0,0,0,1.419.692,1.686,1.686,0,0,0,1.422-.7A3.213,3.213,0,0,0-4.973,11.5,2.933,2.933,0,0,0-5.51,9.671a1.705,1.705,0,0,0-1.425-.7,1.686,1.686,0,0,0-1.4.692A3.189,3.189,0,0,0-8.871,11.642Zm6.265-.133a4.037,4.037,0,0,1,.743-2.555A2.375,2.375,0,0,1,.1,8a2.363,2.363,0,0,1,1.961.889l.057-.762H3.2v6.7a2.794,2.794,0,0,1-.79,2.1A2.916,2.916,0,0,1,.282,17.7a3.532,3.532,0,0,1-1.454-.317,2.5,2.5,0,0,1-1.085-.87l.609-.7A2.3,2.3,0,0,0,.2,16.746a1.8,1.8,0,0,0,1.336-.482A1.844,1.844,0,0,0,2.015,14.9v-.59a2.414,2.414,0,0,1-1.923.813,2.346,2.346,0,0,1-1.952-.971A4.244,4.244,0,0,1-2.606,11.509Zm1.181.133a3.08,3.08,0,0,0,.476,1.825,1.547,1.547,0,0,0,1.333.663,1.72,1.72,0,0,0,1.631-1.009V9.985A1.74,1.74,0,0,0,.4,9a1.561,1.561,0,0,0-1.339.667A3.354,3.354,0,0,0-1.425,11.642ZM8.287,9.186a3.519,3.519,0,0,0-.578-.044,1.547,1.547,0,0,0-1.568.984V15H4.967V8.132H6.11l.019.793A1.829,1.829,0,0,1,7.766,8a1.2,1.2,0,0,1,.521.089ZM13.352,15a2.467,2.467,0,0,1-.165-.724,2.62,2.62,0,0,1-1.955.851,2.424,2.424,0,0,1-1.666-.574A1.859,1.859,0,0,1,8.915,13.1a1.942,1.942,0,0,1,.816-1.666,3.846,3.846,0,0,1,2.295-.594h1.143V10.3a1.319,1.319,0,0,0-.368-.981,1.48,1.48,0,0,0-1.085-.365,1.712,1.712,0,0,0-1.054.317.935.935,0,0,0-.425.768H9.055a1.621,1.621,0,0,1,.365-.993,2.491,2.491,0,0,1,.99-.759A3.331,3.331,0,0,1,11.784,8a2.715,2.715,0,0,1,1.86.594,2.141,2.141,0,0,1,.7,1.635v3.161a3.865,3.865,0,0,0,.241,1.5V15ZM11.4,14.1a2.064,2.064,0,0,0,1.047-.286,1.728,1.728,0,0,0,.717-.743V11.667h-.92q-2.158,0-2.158,1.263a1.069,1.069,0,0,0,.368.863A1.415,1.415,0,0,0,11.4,14.1Zm5.884-5.973.032.762A2.536,2.536,0,0,1,19.357,8a1.964,1.964,0,0,1,1.961,1.1,2.6,2.6,0,0,1,.892-.8,2.634,2.634,0,0,1,1.3-.3q2.26,0,2.3,2.393V15H24.632V10.468a1.577,1.577,0,0,0-.336-1.1A1.482,1.482,0,0,0,23.166,9a1.557,1.557,0,0,0-1.085.39,1.584,1.584,0,0,0-.5,1.051V15H20.4V10.5A1.31,1.31,0,0,0,18.932,9a1.571,1.571,0,0,0-1.581.984V15H16.177V8.132ZM27.266,11.5a4.057,4.057,0,0,1,.4-1.815,2.96,2.96,0,0,1,1.1-1.244A3.007,3.007,0,0,1,30.383,8a2.9,2.9,0,0,1,2.269.971,3.736,3.736,0,0,1,.866,2.583v.083a4.092,4.092,0,0,1-.384,1.8,2.916,2.916,0,0,1-1.1,1.241,3.041,3.041,0,0,1-1.641.444,2.889,2.889,0,0,1-2.263-.971,3.718,3.718,0,0,1-.866-2.571Zm1.181.14a2.938,2.938,0,0,0,.53,1.834,1.8,1.8,0,0,0,2.841-.01,3.213,3.213,0,0,0,.527-1.965,2.933,2.933,0,0,0-.536-1.831,1.705,1.705,0,0,0-1.425-.7,1.686,1.686,0,0,0-1.4.692A3.189,3.189,0,0,0,28.447,11.642ZM38.99,13.178a.865.865,0,0,0-.359-.74,3.452,3.452,0,0,0-1.25-.454,5.912,5.912,0,0,1-1.416-.457,2.014,2.014,0,0,1-.774-.635,1.518,1.518,0,0,1-.251-.876,1.782,1.782,0,0,1,.714-1.428A2.789,2.789,0,0,1,37.48,8a2.87,2.87,0,0,1,1.895.6A1.915,1.915,0,0,1,40.1,10.15H38.921a1.06,1.06,0,0,0-.409-.832A1.534,1.534,0,0,0,37.48,8.97a1.605,1.605,0,0,0-1,.279.879.879,0,0,0-.362.73.712.712,0,0,0,.336.641,4.139,4.139,0,0,0,1.216.413,6.334,6.334,0,0,1,1.425.47,2.079,2.079,0,0,1,.809.657,1.615,1.615,0,0,1,.263.936,1.758,1.758,0,0,1-.736,1.476,3.089,3.089,0,0,1-1.911.555,3.459,3.459,0,0,1-1.46-.292,2.375,2.375,0,0,1-.993-.816,1.966,1.966,0,0,1-.359-1.133H35.88a1.216,1.216,0,0,0,.473.936,1.835,1.835,0,0,0,1.165.346,1.894,1.894,0,0,0,1.07-.27A.829.829,0,0,0,38.99,13.178Z" transform="translate(944.605 4208.452)" fill="#12263f"/>
    <path id="Trazado_176383" data-name="Trazado 176383" d="M-24.365-1h4.38V0h-5.6V-9.242h1.225ZM-17.5,0h-1.181V-6.868H-17.5Zm.013-9.744h1.422l-1.7,1.866-.946,0Zm3.028,2.875.032.762A2.536,2.536,0,0,1-12.394-7a1.964,1.964,0,0,1,1.961,1.1,2.6,2.6,0,0,1,.892-.8,2.634,2.634,0,0,1,1.3-.3q2.26,0,2.3,2.393V0H-7.119V-4.532a1.577,1.577,0,0,0-.336-1.1A1.482,1.482,0,0,0-8.585-6a1.557,1.557,0,0,0-1.085.39,1.584,1.584,0,0,0-.5,1.051V0h-1.181V-4.5A1.31,1.31,0,0,0-12.819-6a1.571,1.571,0,0,0-1.581.984V0h-1.174V-6.868ZM-2.9,0H-4.072V-6.868H-2.9Zm-1.27-8.69a.7.7,0,0,1,.175-.482.655.655,0,0,1,.517-.2.666.666,0,0,1,.521.2.694.694,0,0,1,.178.482.671.671,0,0,1-.178.476.678.678,0,0,1-.521.19.667.667,0,0,1-.517-.19A.678.678,0,0,1-4.167-8.69Zm4.742.159v1.663H1.857v.908H.574V-1.7a.953.953,0,0,0,.171.62A.721.721,0,0,0,1.33-.87a2.843,2.843,0,0,0,.559-.076V0a3.424,3.424,0,0,1-.9.126A1.462,1.462,0,0,1-.2-.349,2.045,2.045,0,0,1-.6-1.7V-5.96H-1.85v-.908H-.6V-8.531ZM6.078.127A3,3,0,0,1,3.805-.79a3.4,3.4,0,0,1-.876-2.453v-.216a4.121,4.121,0,0,1,.39-1.825A3.045,3.045,0,0,1,4.412-6.541,2.745,2.745,0,0,1,5.932-7a2.572,2.572,0,0,1,2.082.882,3.82,3.82,0,0,1,.743,2.526V-3.1H4.1A2.441,2.441,0,0,0,4.7-1.457a1.866,1.866,0,0,0,1.444.625A2.045,2.045,0,0,0,7.2-1.085a2.648,2.648,0,0,0,.755-.673l.717.559A2.884,2.884,0,0,1,6.078.127ZM5.932-6.03a1.566,1.566,0,0,0-1.193.517,2.515,2.515,0,0,0-.6,1.45h3.44v-.089A2.237,2.237,0,0,0,7.1-5.538,1.475,1.475,0,0,0,5.932-6.03Zm7.116,2.539A4.023,4.023,0,0,1,13.8-6.033,2.369,2.369,0,0,1,15.758-7a2.382,2.382,0,0,1,1.911.825V-9.75h1.174V0H17.764l-.057-.736a2.391,2.391,0,0,1-1.961.863A2.346,2.346,0,0,1,13.8-.851,4.069,4.069,0,0,1,13.048-3.4Zm1.174.133A3.046,3.046,0,0,0,14.7-1.53a1.56,1.56,0,0,0,1.333.66,1.713,1.713,0,0,0,1.631-1V-5.027A1.726,1.726,0,0,0,16.05-6a1.567,1.567,0,0,0-1.346.667A3.354,3.354,0,0,0,14.222-3.358ZM23.515.127A3,3,0,0,1,21.242-.79a3.4,3.4,0,0,1-.876-2.453v-.216a4.121,4.121,0,0,1,.39-1.825,3.045,3.045,0,0,1,1.092-1.257A2.745,2.745,0,0,1,23.369-7a2.572,2.572,0,0,1,2.082.882,3.82,3.82,0,0,1,.743,2.526V-3.1H21.541a2.441,2.441,0,0,0,.594,1.641,1.866,1.866,0,0,0,1.444.625,2.045,2.045,0,0,0,1.054-.254,2.648,2.648,0,0,0,.755-.673L26.1-1.2A2.884,2.884,0,0,1,23.515.127ZM23.369-6.03a1.566,1.566,0,0,0-1.193.517,2.515,2.515,0,0,0-.6,1.45h3.44v-.089a2.237,2.237,0,0,0-.482-1.387A1.475,1.475,0,0,0,23.369-6.03Zm-72.24,24.157a3,3,0,0,1-2.272-.917,3.4,3.4,0,0,1-.876-2.453v-.216a4.121,4.121,0,0,1,.39-1.825,3.045,3.045,0,0,1,1.092-1.257A2.745,2.745,0,0,1-49.017,11a2.572,2.572,0,0,1,2.082.882,3.82,3.82,0,0,1,.743,2.526V14.9h-4.653a2.441,2.441,0,0,0,.594,1.641,1.866,1.866,0,0,0,1.444.625,2.045,2.045,0,0,0,1.054-.254A2.648,2.648,0,0,0-47,16.242l.717.559A2.884,2.884,0,0,1-48.871,18.127Zm-.146-6.157a1.566,1.566,0,0,0-1.193.517,2.515,2.515,0,0,0-.6,1.45h3.44v-.089a2.237,2.237,0,0,0-.482-1.387A1.475,1.475,0,0,0-49.017,11.97Zm5.288-.838.032.762A2.536,2.536,0,0,1-41.66,11a1.964,1.964,0,0,1,1.961,1.1,2.6,2.6,0,0,1,.892-.8,2.634,2.634,0,0,1,1.3-.3q2.26,0,2.3,2.393V18h-1.174V13.468a1.577,1.577,0,0,0-.336-1.1A1.482,1.482,0,0,0-37.851,12a1.557,1.557,0,0,0-1.085.39,1.584,1.584,0,0,0-.5,1.051V18h-1.181V13.5A1.31,1.31,0,0,0-42.085,12a1.571,1.571,0,0,0-1.581.984V18H-44.84V11.132Zm16.1,3.51a4.084,4.084,0,0,1-.724,2.53,2.312,2.312,0,0,1-1.942.955,2.394,2.394,0,0,1-2.012-.92L-32.36,18h-1.079V8.25h1.174v3.637A2.381,2.381,0,0,1-30.3,11a2.326,2.326,0,0,1,1.965.946,4.206,4.206,0,0,1,.714,2.59Zm-1.174-.133a3.173,3.173,0,0,0-.463-1.854A1.534,1.534,0,0,0-30.6,12a1.724,1.724,0,0,0-1.669,1.079v2.971a1.772,1.772,0,0,0,1.682,1.079,1.526,1.526,0,0,0,1.314-.654A3.375,3.375,0,0,0-28.8,14.509ZM-21.906,18a2.467,2.467,0,0,1-.165-.724,2.62,2.62,0,0,1-1.955.851,2.424,2.424,0,0,1-1.666-.574,1.859,1.859,0,0,1-.651-1.457,1.942,1.942,0,0,1,.816-1.666,3.846,3.846,0,0,1,2.295-.594h1.143V13.3a1.319,1.319,0,0,0-.368-.981,1.48,1.48,0,0,0-1.085-.365,1.712,1.712,0,0,0-1.054.317.935.935,0,0,0-.425.768H-26.2a1.621,1.621,0,0,1,.365-.993,2.491,2.491,0,0,1,.99-.759A3.331,3.331,0,0,1-23.474,11a2.715,2.715,0,0,1,1.86.594,2.141,2.141,0,0,1,.7,1.635v3.161a3.865,3.865,0,0,0,.241,1.5V18Zm-1.949-.9a2.064,2.064,0,0,0,1.047-.286,1.728,1.728,0,0,0,.717-.743V14.667h-.92q-2.158,0-2.158,1.263a1.069,1.069,0,0,0,.368.863A1.415,1.415,0,0,0-23.854,17.1Zm6.056.9h-1.174V8.25H-17.8Zm6.119,0a2.467,2.467,0,0,1-.165-.724,2.62,2.62,0,0,1-1.955.851,2.424,2.424,0,0,1-1.666-.574,1.859,1.859,0,0,1-.651-1.457,1.942,1.942,0,0,1,.816-1.666,3.846,3.846,0,0,1,2.295-.594h1.143V13.3a1.319,1.319,0,0,0-.368-.981,1.48,1.48,0,0,0-1.085-.365,1.712,1.712,0,0,0-1.054.317.935.935,0,0,0-.425.768h-1.181a1.621,1.621,0,0,1,.365-.993,2.491,2.491,0,0,1,.99-.759A3.331,3.331,0,0,1-13.248,11a2.715,2.715,0,0,1,1.86.594,2.141,2.141,0,0,1,.7,1.635v3.161a3.865,3.865,0,0,0,.241,1.5V18Zm-1.949-.9a2.064,2.064,0,0,0,1.047-.286,1.728,1.728,0,0,0,.717-.743V14.667h-.92q-2.158,0-2.158,1.263a1.069,1.069,0,0,0,.368.863A1.415,1.415,0,0,0-13.628,17.1Zm5.992-5.973v7.662q0,1.98-1.8,1.98a2.191,2.191,0,0,1-.717-.114v-.934a2.27,2.27,0,0,0,.533.051.8.8,0,0,0,.6-.213,1.052,1.052,0,0,0,.206-.74V11.132ZM-8.931,9.31a.7.7,0,0,1,.175-.479.642.642,0,0,1,.511-.2.666.666,0,0,1,.521.2.694.694,0,0,1,.178.482.671.671,0,0,1-.178.476.678.678,0,0,1-.521.19.657.657,0,0,1-.514-.19A.685.685,0,0,1-8.931,9.31Zm6.037,8.817a3,3,0,0,1-2.272-.917,3.4,3.4,0,0,1-.876-2.453v-.216a4.121,4.121,0,0,1,.39-1.825,3.045,3.045,0,0,1,1.092-1.257A2.745,2.745,0,0,1-3.041,11a2.572,2.572,0,0,1,2.082.882,3.82,3.82,0,0,1,.743,2.526V14.9H-4.869a2.441,2.441,0,0,0,.594,1.641,1.866,1.866,0,0,0,1.444.625,2.045,2.045,0,0,0,1.054-.254,2.648,2.648,0,0,0,.755-.673L-.3,16.8A2.884,2.884,0,0,1-2.895,18.127Zm-.146-6.157a1.566,1.566,0,0,0-1.193.517,2.515,2.515,0,0,0-.6,1.45h3.44v-.089a2.237,2.237,0,0,0-.482-1.387A1.475,1.475,0,0,0-3.041,11.97Zm8.182,4.208a.864.864,0,0,0-.359-.74,3.452,3.452,0,0,0-1.25-.454,5.912,5.912,0,0,1-1.416-.457,2.014,2.014,0,0,1-.774-.635,1.518,1.518,0,0,1-.251-.876,1.782,1.782,0,0,1,.714-1.428A2.789,2.789,0,0,1,3.631,11a2.87,2.87,0,0,1,1.895.6,1.915,1.915,0,0,1,.727,1.542H5.072a1.06,1.06,0,0,0-.409-.832,1.534,1.534,0,0,0-1.031-.349,1.605,1.605,0,0,0-1,.279.879.879,0,0,0-.362.73.712.712,0,0,0,.336.641,4.139,4.139,0,0,0,1.216.413,6.334,6.334,0,0,1,1.425.47,2.079,2.079,0,0,1,.809.657,1.615,1.615,0,0,1,.263.936,1.758,1.758,0,0,1-.736,1.476,3.089,3.089,0,0,1-1.911.555,3.459,3.459,0,0,1-1.46-.292,2.375,2.375,0,0,1-.993-.816,1.966,1.966,0,0,1-.359-1.133H2.031a1.216,1.216,0,0,0,.473.936,1.835,1.835,0,0,0,1.165.346,1.894,1.894,0,0,0,1.07-.27A.829.829,0,0,0,5.142,16.178ZM15.3,18a2.467,2.467,0,0,1-.165-.724,2.62,2.62,0,0,1-1.955.851,2.424,2.424,0,0,1-1.666-.574,1.859,1.859,0,0,1-.651-1.457,1.942,1.942,0,0,1,.816-1.666,3.846,3.846,0,0,1,2.295-.594H15.12V13.3a1.319,1.319,0,0,0-.368-.981,1.48,1.48,0,0,0-1.085-.365,1.712,1.712,0,0,0-1.054.317.935.935,0,0,0-.425.768H11.007a1.621,1.621,0,0,1,.365-.993,2.491,2.491,0,0,1,.99-.759A3.331,3.331,0,0,1,13.736,11a2.715,2.715,0,0,1,1.86.594,2.141,2.141,0,0,1,.7,1.635v3.161a3.865,3.865,0,0,0,.241,1.5V18Zm-1.949-.9a2.064,2.064,0,0,0,1.047-.286,1.728,1.728,0,0,0,.717-.743V14.667H14.2q-2.158,0-2.158,1.263a1.069,1.069,0,0,0,.368.863A1.415,1.415,0,0,0,13.355,17.1Zm12.238.9a2.467,2.467,0,0,1-.165-.724,2.62,2.62,0,0,1-1.955.851,2.424,2.424,0,0,1-1.666-.574,1.859,1.859,0,0,1-.651-1.457,1.942,1.942,0,0,1,.816-1.666,3.846,3.846,0,0,1,2.295-.594H25.41V13.3a1.319,1.319,0,0,0-.368-.981,1.48,1.48,0,0,0-1.085-.365,1.712,1.712,0,0,0-1.054.317.935.935,0,0,0-.425.768H21.3a1.621,1.621,0,0,1,.365-.993,2.491,2.491,0,0,1,.99-.759A3.331,3.331,0,0,1,24.026,11a2.715,2.715,0,0,1,1.86.594,2.141,2.141,0,0,1,.7,1.635v3.161a3.865,3.865,0,0,0,.241,1.5V18Zm-1.949-.9a2.064,2.064,0,0,0,1.047-.286,1.728,1.728,0,0,0,.717-.743V14.667h-.92q-2.158,0-2.158,1.263a1.069,1.069,0,0,0,.368.863A1.415,1.415,0,0,0,23.645,17.1Zm10.582-2.463a4.113,4.113,0,0,1-.717,2.526,2.3,2.3,0,0,1-1.942.958,2.519,2.519,0,0,1-1.968-.793v3.307H28.425V11.132H29.5l.057.762A2.419,2.419,0,0,1,31.548,11a2.342,2.342,0,0,1,1.958.933,4.157,4.157,0,0,1,.72,2.6Zm-1.174-.133a3.035,3.035,0,0,0-.5-1.834A1.6,1.6,0,0,0,31.2,12a1.726,1.726,0,0,0-1.6.946v3.282a1.73,1.73,0,0,0,1.612.939,1.587,1.587,0,0,0,1.343-.67A3.312,3.312,0,0,0,33.052,14.509ZM36.994,18H35.82V11.132h1.174Zm-1.27-8.69a.7.7,0,0,1,.175-.482.655.655,0,0,1,.517-.2.666.666,0,0,1,.521.2.694.694,0,0,1,.178.482.671.671,0,0,1-.178.476.678.678,0,0,1-.521.19.667.667,0,0,1-.517-.19A.678.678,0,0,1,35.725,9.31ZM40.149,18H38.975V8.25h1.174Zm6.119,0a2.467,2.467,0,0,1-.165-.724,2.62,2.62,0,0,1-1.955.851,2.424,2.424,0,0,1-1.666-.574,1.859,1.859,0,0,1-.651-1.457,1.942,1.942,0,0,1,.816-1.666,3.846,3.846,0,0,1,2.295-.594h1.143V13.3a1.319,1.319,0,0,0-.368-.981,1.48,1.48,0,0,0-1.085-.365,1.712,1.712,0,0,0-1.054.317.935.935,0,0,0-.425.768H41.971a1.621,1.621,0,0,1,.365-.993,2.491,2.491,0,0,1,.99-.759A3.331,3.331,0,0,1,44.7,11a2.715,2.715,0,0,1,1.86.594,2.141,2.141,0,0,1,.7,1.635v3.161a3.865,3.865,0,0,0,.241,1.5V18Zm-1.949-.9a2.064,2.064,0,0,0,1.047-.286,1.728,1.728,0,0,0,.717-.743V14.667h-.92q-2.158,0-2.158,1.263a1.069,1.069,0,0,0,.368.863A1.415,1.415,0,0,0,44.319,17.1Zm8.1-4.919a3.519,3.519,0,0,0-.578-.044,1.547,1.547,0,0,0-1.568.984V18H49.1V11.132h1.143l.019.793A1.829,1.829,0,0,1,51.9,11a1.2,1.2,0,0,1,.521.089Z" transform="translate(1175 4207.038)" fill="#12263f"/>
    <g id="Trazado_176396" data-name="Trazado 176396" transform="translate(899.5 3927)" fill="none">
      <path d="M0,0H95V95H0Z" stroke="none"/>
      <path d="M 5 5 L 5 90 L 90 90 L 90 5 L 5 5 M 0 0 L 95 0 L 95 95 L 0 95 L 0 0 Z" stroke="none" fill="#fbb300"/>
    </g>
    <g id="Trazado_176397" data-name="Trazado 176397" transform="translate(899.5 4091.851)" fill="none">
      <path d="M0,0H95V95H0Z" stroke="none"/>
      <path d="M 5 5 L 5 90 L 90 90 L 90 5 L 5 5 M 0 0 L 95 0 L 95 95 L 0 95 L 0 0 Z" stroke="none" fill="#fbb300"/>
    </g>
    <g id="Trazado_176390" data-name="Trazado 176390" transform="translate(1013.5 3927)" fill="none">
      <path d="M0,0H95V95H0Z" stroke="none"/>
      <path d="M 5 5 L 5 90 L 90 90 L 90 5 L 5 5 M 0 0 L 95 0 L 95 95 L 0 95 L 0 0 Z" stroke="none" fill="#fbb300"/>
    </g>
    <g id="Trazado_176391" data-name="Trazado 176391" transform="translate(1013.5 4091.851)" fill="none">
      <path d="M0,0H95V95H0Z" stroke="none"/>
      <path d="M 5 5 L 5 90 L 90 90 L 90 5 L 5 5 M 0 0 L 95 0 L 95 95 L 0 95 L 0 0 Z" stroke="none" fill="#fbb300"/>
    </g>
    <g id="Trazado_176387" data-name="Trazado 176387" transform="translate(1124.5 3927)" fill="none">
      <path d="M0,0H95V95H0Z" stroke="none"/>
      <path d="M 5 5 L 5 90 L 90 90 L 90 5 L 5 5 M 0 0 L 95 0 L 95 95 L 0 95 L 0 0 Z" stroke="none" fill="#fbb300"/>
    </g>
    <g id="Trazado_176384" data-name="Trazado 176384" transform="translate(1124.5 4091.851)" fill="none">
      <path d="M0,0H95V95H0Z" stroke="none"/>
      <path d="M 5 5 L 5 90 L 90 90 L 90 5 L 5 5 M 0 0 L 95 0 L 95 95 L 0 95 L 0 0 Z" stroke="none" fill="#fbb300"/>
    </g>
    <g id="Trazado_176388" data-name="Trazado 176388" transform="translate(1235.5 3927)" fill="none">
      <path d="M0,0H95V95H0Z" stroke="none"/>
      <path d="M 5 5 L 5 90 L 90 90 L 90 5 L 5 5 M 0 0 L 95 0 L 95 95 L 0 95 L 0 0 Z" stroke="none" fill="#fbb300"/>
    </g>
    <g id="Trazado_176382" data-name="Trazado 176382" transform="translate(1235.5 4091.851)" fill="none">
      <path d="M0,0H95V95H0Z" stroke="none"/>
      <path d="M 5 5 L 5 90 L 90 90 L 90 5 L 5 5 M 0 0 L 95 0 L 95 95 L 0 95 L 0 0 Z" stroke="none" fill="#fbb300"/>
    </g>
    <path id="Trazado_176385" data-name="Trazado 176385" d="M-45.011-2.933A3.4,3.4,0,0,1-46.094-.67a3.547,3.547,0,0,1-2.422.8A3.257,3.257,0,0,1-51.14-1.047a4.724,4.724,0,0,1-.987-3.142v-.889a5.266,5.266,0,0,1,.46-2.266,3.438,3.438,0,0,1,1.3-1.5,3.632,3.632,0,0,1,1.955-.524,3.34,3.34,0,0,1,2.361.822,3.441,3.441,0,0,1,1.035,2.276h-1.225a2.655,2.655,0,0,0-.689-1.6,2.084,2.084,0,0,0-1.482-.5,2.181,2.181,0,0,0-1.831.864A3.966,3.966,0,0,0-50.9-5.05v.9a4.077,4.077,0,0,0,.628,2.4,2.031,2.031,0,0,0,1.758.889,2.345,2.345,0,0,0,1.558-.46,2.554,2.554,0,0,0,.72-1.6Zm1.168-.565a4.057,4.057,0,0,1,.4-1.815,2.96,2.96,0,0,1,1.1-1.244A3.007,3.007,0,0,1-40.727-7a2.9,2.9,0,0,1,2.269.971,3.736,3.736,0,0,1,.866,2.583v.083a4.092,4.092,0,0,1-.384,1.8,2.916,2.916,0,0,1-1.1,1.241,3.041,3.041,0,0,1-1.641.444,2.889,2.889,0,0,1-2.263-.971,3.718,3.718,0,0,1-.866-2.571Zm1.181.14a2.938,2.938,0,0,0,.53,1.834,1.7,1.7,0,0,0,1.419.692,1.686,1.686,0,0,0,1.422-.7A3.213,3.213,0,0,0-38.765-3.5,2.933,2.933,0,0,0-39.3-5.329a1.705,1.705,0,0,0-1.425-.7,1.686,1.686,0,0,0-1.4.692A3.189,3.189,0,0,0-42.663-3.358ZM-34.842,0h-1.174V-9.75h1.174Zm1.568-3.5a4.057,4.057,0,0,1,.4-1.815,2.96,2.96,0,0,1,1.1-1.244A3.007,3.007,0,0,1-30.158-7a2.9,2.9,0,0,1,2.269.971,3.736,3.736,0,0,1,.866,2.583v.083a4.092,4.092,0,0,1-.384,1.8A2.916,2.916,0,0,1-28.5-.317a3.041,3.041,0,0,1-1.641.444,2.889,2.889,0,0,1-2.263-.971,3.718,3.718,0,0,1-.866-2.571Zm1.181.14a2.938,2.938,0,0,0,.53,1.834,1.7,1.7,0,0,0,1.419.692,1.686,1.686,0,0,0,1.422-.7A3.213,3.213,0,0,0-28.2-3.5a2.933,2.933,0,0,0-.536-1.831,1.705,1.705,0,0,0-1.425-.7,1.686,1.686,0,0,0-1.4.692A3.189,3.189,0,0,0-32.094-3.358Zm9.3,2.526a1.692,1.692,0,0,0,1.1-.381,1.34,1.34,0,0,0,.521-.952h1.111a2.13,2.13,0,0,1-.406,1.124,2.676,2.676,0,0,1-1,.851,2.885,2.885,0,0,1-1.323.317,2.829,2.829,0,0,1-2.231-.936,3.729,3.729,0,0,1-.828-2.561v-.2a4.135,4.135,0,0,1,.368-1.784,2.8,2.8,0,0,1,1.057-1.212A3,3,0,0,1-22.8-7a2.755,2.755,0,0,1,1.92.692,2.473,2.473,0,0,1,.816,1.8h-1.111a1.618,1.618,0,0,0-.5-1.095A1.57,1.57,0,0,0-22.8-6.03a1.644,1.644,0,0,0-1.387.644,3.026,3.026,0,0,0-.492,1.863V-3.3a2.965,2.965,0,0,0,.489,1.828A1.651,1.651,0,0,0-22.794-.832ZM-14.5,0a2.467,2.467,0,0,1-.165-.724,2.62,2.62,0,0,1-1.955.851,2.424,2.424,0,0,1-1.666-.574A1.859,1.859,0,0,1-18.941-1.9a1.942,1.942,0,0,1,.816-1.666,3.846,3.846,0,0,1,2.295-.594h1.143V-4.7a1.319,1.319,0,0,0-.368-.981,1.48,1.48,0,0,0-1.085-.365,1.712,1.712,0,0,0-1.054.317.935.935,0,0,0-.425.768H-18.8a1.621,1.621,0,0,1,.365-.993,2.491,2.491,0,0,1,.99-.759A3.331,3.331,0,0,1-16.072-7a2.715,2.715,0,0,1,1.86.594,2.141,2.141,0,0,1,.7,1.635v3.161a3.865,3.865,0,0,0,.241,1.5V0Zm-1.949-.9a2.064,2.064,0,0,0,1.047-.286,1.728,1.728,0,0,0,.717-.743V-3.333h-.92q-2.158,0-2.158,1.263a1.069,1.069,0,0,0,.368.863A1.415,1.415,0,0,0-16.453-.9Zm8.1-4.919a3.519,3.519,0,0,0-.578-.044,1.547,1.547,0,0,0-1.568.984V0h-1.174V-6.868h1.143l.019.793A1.829,1.829,0,0,1-8.874-7a1.2,1.2,0,0,1,.521.089Zm5.4-1.054.032.762A2.536,2.536,0,0,1-.882-7a1.964,1.964,0,0,1,1.961,1.1,2.6,2.6,0,0,1,.892-.8,2.634,2.634,0,0,1,1.3-.3q2.26,0,2.3,2.393V0H4.393V-4.532a1.577,1.577,0,0,0-.336-1.1A1.482,1.482,0,0,0,2.926-6a1.557,1.557,0,0,0-1.085.39,1.584,1.584,0,0,0-.5,1.051V0H.159V-4.5A1.31,1.31,0,0,0-1.308-6a1.571,1.571,0,0,0-1.581.984V0H-4.062V-6.868ZM7.027-3.5a4.057,4.057,0,0,1,.4-1.815,2.96,2.96,0,0,1,1.1-1.244A3.007,3.007,0,0,1,10.144-7a2.9,2.9,0,0,1,2.269.971,3.736,3.736,0,0,1,.866,2.583v.083a4.092,4.092,0,0,1-.384,1.8A2.916,2.916,0,0,1,11.8-.317a3.041,3.041,0,0,1-1.641.444A2.889,2.889,0,0,1,7.893-.844a3.718,3.718,0,0,1-.866-2.571Zm1.181.14a2.938,2.938,0,0,0,.53,1.834,1.7,1.7,0,0,0,1.419.692,1.686,1.686,0,0,0,1.422-.7A3.213,3.213,0,0,0,12.1-3.5a2.933,2.933,0,0,0-.536-1.831,1.705,1.705,0,0,0-1.425-.7,1.686,1.686,0,0,0-1.4.692A3.189,3.189,0,0,0,8.208-3.358Zm9.864-2.457a3.519,3.519,0,0,0-.578-.044,1.547,1.547,0,0,0-1.568.984V0H14.752V-6.868h1.143l.019.793A1.829,1.829,0,0,1,17.551-7a1.2,1.2,0,0,1,.521.089Zm.793,2.323a4.023,4.023,0,0,1,.749-2.542A2.369,2.369,0,0,1,21.576-7a2.382,2.382,0,0,1,1.911.825V-9.75h1.174V0H23.582l-.057-.736a2.391,2.391,0,0,1-1.961.863,2.346,2.346,0,0,1-1.946-.978A4.069,4.069,0,0,1,18.865-3.4Zm1.174.133a3.046,3.046,0,0,0,.482,1.828,1.56,1.56,0,0,0,1.333.66,1.713,1.713,0,0,0,1.631-1V-5.027A1.726,1.726,0,0,0,21.868-6a1.567,1.567,0,0,0-1.346.667A3.354,3.354,0,0,0,20.04-3.358ZM30.723,0a2.467,2.467,0,0,1-.165-.724A2.62,2.62,0,0,1,28.6.127a2.424,2.424,0,0,1-1.666-.574A1.859,1.859,0,0,1,26.286-1.9,1.942,1.942,0,0,1,27.1-3.571,3.846,3.846,0,0,1,29.4-4.164h1.143V-4.7a1.319,1.319,0,0,0-.368-.981,1.48,1.48,0,0,0-1.085-.365,1.712,1.712,0,0,0-1.054.317.935.935,0,0,0-.425.768H26.425a1.621,1.621,0,0,1,.365-.993,2.491,2.491,0,0,1,.99-.759A3.331,3.331,0,0,1,29.155-7a2.715,2.715,0,0,1,1.86.594,2.141,2.141,0,0,1,.7,1.635v3.161a3.865,3.865,0,0,0,.241,1.5V0ZM28.774-.9a2.064,2.064,0,0,0,1.047-.286,1.728,1.728,0,0,0,.717-.743V-3.333h-.92q-2.158,0-2.158,1.263a1.069,1.069,0,0,0,.368.863A1.415,1.415,0,0,0,28.774-.9Zm5.884-.063h4.018V0H33.224V-.863L37.013-5.9H33.281v-.971h5.205v.832ZM44.237,0a2.467,2.467,0,0,1-.165-.724,2.62,2.62,0,0,1-1.955.851A2.424,2.424,0,0,1,40.45-.448,1.859,1.859,0,0,1,39.8-1.9a1.942,1.942,0,0,1,.816-1.666,3.846,3.846,0,0,1,2.295-.594h1.143V-4.7a1.319,1.319,0,0,0-.368-.981A1.48,1.48,0,0,0,42.6-6.049a1.712,1.712,0,0,0-1.054.317.935.935,0,0,0-.425.768H39.939a1.621,1.621,0,0,1,.365-.993,2.491,2.491,0,0,1,.99-.759A3.331,3.331,0,0,1,42.669-7a2.715,2.715,0,0,1,1.86.594,2.141,2.141,0,0,1,.7,1.635v3.161a3.865,3.865,0,0,0,.241,1.5V0ZM42.288-.9a2.064,2.064,0,0,0,1.047-.286,1.728,1.728,0,0,0,.717-.743V-3.333h-.92q-2.158,0-2.158,1.263a1.069,1.069,0,0,0,.368.863A1.415,1.415,0,0,0,42.288-.9Zm8.779-.927a.865.865,0,0,0-.359-.74,3.452,3.452,0,0,0-1.25-.454,5.912,5.912,0,0,1-1.416-.457,2.014,2.014,0,0,1-.774-.635,1.518,1.518,0,0,1-.251-.876,1.782,1.782,0,0,1,.714-1.428A2.789,2.789,0,0,1,49.556-7a2.87,2.87,0,0,1,1.895.6,1.915,1.915,0,0,1,.727,1.542H51a1.06,1.06,0,0,0-.409-.832,1.534,1.534,0,0,0-1.031-.349,1.605,1.605,0,0,0-1,.279.879.879,0,0,0-.362.73.712.712,0,0,0,.336.641,4.139,4.139,0,0,0,1.216.413,6.334,6.334,0,0,1,1.425.47,2.079,2.079,0,0,1,.809.657,1.615,1.615,0,0,1,.263.936A1.758,1.758,0,0,1,51.5-.428a3.089,3.089,0,0,1-1.911.555,3.459,3.459,0,0,1-1.46-.292,2.375,2.375,0,0,1-.993-.816,1.966,1.966,0,0,1-.359-1.133h1.174a1.216,1.216,0,0,0,.473.936,1.835,1.835,0,0,0,1.165.346,1.894,1.894,0,0,0,1.07-.27A.829.829,0,0,0,51.067-1.822Zm-58.014,14.4H-10.82L-11.689,15h-1.257l3.529-9.242H-8.35L-4.815,15h-1.25Zm-3.5-1h3.142L-8.884,7.262Zm6.411-.076A4.031,4.031,0,0,1-3.3,8.948,2.407,2.407,0,0,1-1.3,8a2.4,2.4,0,0,1,1.923.819L.67,8.132H1.749v9.509H.574V14.365a2.465,2.465,0,0,1-1.892.762A2.369,2.369,0,0,1-3.3,14.159a4.121,4.121,0,0,1-.74-2.568Zm1.174.133a3.056,3.056,0,0,0,.5,1.854,1.585,1.585,0,0,0,1.343.673,1.758,1.758,0,0,0,1.6-.927V9.877A1.764,1.764,0,0,0-1.012,8.97a1.6,1.6,0,0,0-1.352.676A3.327,3.327,0,0,0-2.866,11.642Zm10.74,2.679a2.494,2.494,0,0,1-2.012.806,2.135,2.135,0,0,1-1.673-.638A2.761,2.761,0,0,1,3.609,12.6V8.132H4.783v4.437q0,1.562,1.27,1.562a1.758,1.758,0,0,0,1.79-1v-5H9.017V15H7.9Zm4.2.679H10.9V8.132h1.181Zm.013-9.744h1.422l-1.7,1.866-.946,0Z" transform="translate(1283 4045.118)" fill="#12263f"/>
    <path id="Trazado_176386" data-name="Trazado 176386" d="M-23.305,0h-1.225l-4.653-7.122V0h-1.225V-9.242h1.225l4.666,7.154V-9.242h1.212Zm1.669-3.5a4.057,4.057,0,0,1,.4-1.815,2.96,2.96,0,0,1,1.1-1.244A3.007,3.007,0,0,1-18.519-7a2.9,2.9,0,0,1,2.269.971,3.736,3.736,0,0,1,.866,2.583v.083a4.092,4.092,0,0,1-.384,1.8,2.916,2.916,0,0,1-1.1,1.241,3.041,3.041,0,0,1-1.641.444A2.889,2.889,0,0,1-20.77-.844a3.718,3.718,0,0,1-.866-2.571Zm1.181.14a2.938,2.938,0,0,0,.53,1.834,1.7,1.7,0,0,0,1.419.692,1.686,1.686,0,0,0,1.422-.7A3.213,3.213,0,0,0-16.558-3.5a2.933,2.933,0,0,0-.536-1.831,1.705,1.705,0,0,0-1.425-.7,1.686,1.686,0,0,0-1.4.692A3.189,3.189,0,0,0-20.455-3.358ZM-7.938-.832a1.692,1.692,0,0,0,1.1-.381,1.34,1.34,0,0,0,.521-.952h1.111a2.13,2.13,0,0,1-.406,1.124,2.676,2.676,0,0,1-1,.851A2.885,2.885,0,0,1-7.938.127a2.829,2.829,0,0,1-2.231-.936A3.729,3.729,0,0,1-11-3.371v-.2a4.135,4.135,0,0,1,.368-1.784A2.8,2.8,0,0,1-9.572-6.563,3,3,0,0,1-7.944-7a2.755,2.755,0,0,1,1.92.692,2.473,2.473,0,0,1,.816,1.8H-6.319a1.618,1.618,0,0,0-.5-1.095,1.57,1.57,0,0,0-1.12-.428,1.644,1.644,0,0,0-1.387.644,3.026,3.026,0,0,0-.492,1.863V-3.3a2.965,2.965,0,0,0,.489,1.828A1.651,1.651,0,0,0-7.938-.832ZM-4.2-3.5a4.057,4.057,0,0,1,.4-1.815A2.96,2.96,0,0,1-2.7-6.557,3.007,3.007,0,0,1-1.082-7a2.9,2.9,0,0,1,2.269.971A3.736,3.736,0,0,1,2.053-3.44v.083a4.092,4.092,0,0,1-.384,1.8A2.916,2.916,0,0,1,.571-.317,3.041,3.041,0,0,1-1.07.127,2.889,2.889,0,0,1-3.333-.844,3.718,3.718,0,0,1-4.2-3.415Zm1.181.14a2.938,2.938,0,0,0,.53,1.834A1.7,1.7,0,0,0-1.07-.832a1.686,1.686,0,0,0,1.422-.7A3.213,3.213,0,0,0,.879-3.5,2.933,2.933,0,0,0,.343-5.329a1.705,1.705,0,0,0-1.425-.7,1.686,1.686,0,0,0-1.4.692A3.189,3.189,0,0,0-3.018-3.358ZM4.8,0H3.628V-9.75H4.8ZM6.37-3.5a4.057,4.057,0,0,1,.4-1.815,2.96,2.96,0,0,1,1.1-1.244A3.007,3.007,0,0,1,9.487-7a2.9,2.9,0,0,1,2.269.971,3.736,3.736,0,0,1,.866,2.583v.083a4.092,4.092,0,0,1-.384,1.8,2.916,2.916,0,0,1-1.1,1.241A3.041,3.041,0,0,1,9.5.127,2.889,2.889,0,0,1,7.236-.844,3.718,3.718,0,0,1,6.37-3.415Zm1.181.14a2.938,2.938,0,0,0,.53,1.834A1.7,1.7,0,0,0,9.5-.832a1.686,1.686,0,0,0,1.422-.7A3.213,3.213,0,0,0,11.448-3.5a2.933,2.933,0,0,0-.536-1.831,1.705,1.705,0,0,0-1.425-.7,1.686,1.686,0,0,0-1.4.692A3.189,3.189,0,0,0,7.551-3.358Zm9.3,2.526a1.692,1.692,0,0,0,1.1-.381,1.34,1.34,0,0,0,.521-.952h1.111a2.13,2.13,0,0,1-.406,1.124,2.676,2.676,0,0,1-1,.851A2.885,2.885,0,0,1,16.85.127a2.829,2.829,0,0,1-2.231-.936,3.729,3.729,0,0,1-.828-2.561v-.2a4.135,4.135,0,0,1,.368-1.784,2.8,2.8,0,0,1,1.057-1.212A3,3,0,0,1,16.844-7a2.755,2.755,0,0,1,1.92.692,2.473,2.473,0,0,1,.816,1.8H18.469a1.618,1.618,0,0,0-.5-1.095,1.57,1.57,0,0,0-1.12-.428,1.644,1.644,0,0,0-1.387.644,3.026,3.026,0,0,0-.492,1.863V-3.3a2.965,2.965,0,0,0,.489,1.828A1.651,1.651,0,0,0,16.85-.832ZM25.14,0a2.467,2.467,0,0,1-.165-.724A2.62,2.62,0,0,1,23.02.127a2.424,2.424,0,0,1-1.666-.574A1.859,1.859,0,0,1,20.7-1.9a1.942,1.942,0,0,1,.816-1.666,3.846,3.846,0,0,1,2.295-.594h1.143V-4.7a1.319,1.319,0,0,0-.368-.981A1.48,1.48,0,0,0,23.5-6.049a1.712,1.712,0,0,0-1.054.317.935.935,0,0,0-.425.768H20.843a1.621,1.621,0,0,1,.365-.993,2.491,2.491,0,0,1,.99-.759A3.331,3.331,0,0,1,23.572-7a2.715,2.715,0,0,1,1.86.594,2.141,2.141,0,0,1,.7,1.635v3.161a3.865,3.865,0,0,0,.241,1.5V0ZM23.191-.9a2.064,2.064,0,0,0,1.047-.286,1.728,1.728,0,0,0,.717-.743V-3.333h-.92q-2.158,0-2.158,1.263a1.069,1.069,0,0,0,.368.863A1.415,1.415,0,0,0,23.191-.9Zm8.1-4.919a3.519,3.519,0,0,0-.578-.044,1.547,1.547,0,0,0-1.568.984V0H27.971V-6.868h1.143l.019.793A1.829,1.829,0,0,1,30.77-7a1.2,1.2,0,0,1,.521.089ZM-37.6,8.132l.032.762A2.536,2.536,0,0,1-35.528,8a1.964,1.964,0,0,1,1.961,1.1,2.6,2.6,0,0,1,.892-.8,2.634,2.634,0,0,1,1.3-.3q2.26,0,2.3,2.393V15h-1.174V10.468a1.577,1.577,0,0,0-.336-1.1A1.482,1.482,0,0,0-31.719,9a1.557,1.557,0,0,0-1.085.39,1.584,1.584,0,0,0-.5,1.051V15h-1.181V10.5A1.31,1.31,0,0,0-35.953,9a1.571,1.571,0,0,0-1.581.984V15h-1.174V8.132Zm9.979,3.371a4.057,4.057,0,0,1,.4-1.815,2.96,2.96,0,0,1,1.1-1.244A3.007,3.007,0,0,1-24.5,8a2.9,2.9,0,0,1,2.269.971,3.736,3.736,0,0,1,.866,2.583v.083a4.092,4.092,0,0,1-.384,1.8,2.916,2.916,0,0,1-1.1,1.241,3.041,3.041,0,0,1-1.641.444,2.889,2.889,0,0,1-2.263-.971,3.718,3.718,0,0,1-.866-2.571Zm1.181.14a2.938,2.938,0,0,0,.53,1.834,1.7,1.7,0,0,0,1.419.692,1.686,1.686,0,0,0,1.422-.7,3.213,3.213,0,0,0,.527-1.965,2.933,2.933,0,0,0-.536-1.831,1.705,1.705,0,0,0-1.425-.7,1.686,1.686,0,0,0-1.4.692A3.189,3.189,0,0,0-26.438,11.642Zm9.864-2.457a3.519,3.519,0,0,0-.578-.044,1.547,1.547,0,0,0-1.568.984V15h-1.174V8.132h1.143l.019.793A1.829,1.829,0,0,1-17.094,8a1.2,1.2,0,0,1,.521.089Zm.793,2.323a4.023,4.023,0,0,1,.749-2.542A2.369,2.369,0,0,1-13.07,8a2.382,2.382,0,0,1,1.911.825V5.25h1.174V15h-1.079l-.057-.736a2.391,2.391,0,0,1-1.961.863,2.346,2.346,0,0,1-1.946-.978A4.069,4.069,0,0,1-15.78,11.6Zm1.174.133a3.046,3.046,0,0,0,.482,1.828,1.56,1.56,0,0,0,1.333.66,1.713,1.713,0,0,0,1.631-1V9.973A1.726,1.726,0,0,0-12.778,9a1.567,1.567,0,0,0-1.346.667A3.354,3.354,0,0,0-14.606,11.642ZM-3.923,15a2.467,2.467,0,0,1-.165-.724,2.62,2.62,0,0,1-1.955.851,2.424,2.424,0,0,1-1.666-.574A1.859,1.859,0,0,1-8.36,13.1a1.942,1.942,0,0,1,.816-1.666,3.846,3.846,0,0,1,2.295-.594h1.143V10.3a1.319,1.319,0,0,0-.368-.981,1.48,1.48,0,0,0-1.085-.365,1.712,1.712,0,0,0-1.054.317.935.935,0,0,0-.425.768H-8.22a1.621,1.621,0,0,1,.365-.993,2.491,2.491,0,0,1,.99-.759A3.331,3.331,0,0,1-5.491,8a2.715,2.715,0,0,1,1.86.594,2.141,2.141,0,0,1,.7,1.635v3.161a3.865,3.865,0,0,0,.241,1.5V15Zm-1.949-.9a2.064,2.064,0,0,0,1.047-.286,1.728,1.728,0,0,0,.717-.743V11.667h-.92q-2.158,0-2.158,1.263a1.069,1.069,0,0,0,.368.863A1.415,1.415,0,0,0-5.872,14.1Zm5.884-.063H4.031V15H-1.422v-.863L2.368,9.1H-1.365V8.132H3.84v.832ZM9.591,15a2.467,2.467,0,0,1-.165-.724,2.62,2.62,0,0,1-1.955.851A2.424,2.424,0,0,1,5.8,14.552,1.859,1.859,0,0,1,5.154,13.1a1.942,1.942,0,0,1,.816-1.666,3.846,3.846,0,0,1,2.295-.594H9.407V10.3a1.319,1.319,0,0,0-.368-.981,1.48,1.48,0,0,0-1.085-.365A1.712,1.712,0,0,0,6.9,9.268a.935.935,0,0,0-.425.768H5.294a1.621,1.621,0,0,1,.365-.993,2.491,2.491,0,0,1,.99-.759A3.331,3.331,0,0,1,8.023,8a2.715,2.715,0,0,1,1.86.594,2.141,2.141,0,0,1,.7,1.635v3.161a3.865,3.865,0,0,0,.241,1.5V15Zm-1.949-.9a2.064,2.064,0,0,0,1.047-.286,1.728,1.728,0,0,0,.717-.743V11.667h-.92q-2.158,0-2.158,1.263a1.069,1.069,0,0,0,.368.863A1.415,1.415,0,0,0,7.643,14.1Zm12.238.9a2.467,2.467,0,0,1-.165-.724,2.62,2.62,0,0,1-1.955.851,2.424,2.424,0,0,1-1.666-.574,1.859,1.859,0,0,1-.651-1.457,1.942,1.942,0,0,1,.816-1.666,3.846,3.846,0,0,1,2.295-.594H19.7V10.3a1.319,1.319,0,0,0-.368-.981,1.48,1.48,0,0,0-1.085-.365,1.712,1.712,0,0,0-1.054.317.935.935,0,0,0-.425.768H15.583a1.621,1.621,0,0,1,.365-.993,2.491,2.491,0,0,1,.99-.759A3.331,3.331,0,0,1,18.313,8a2.715,2.715,0,0,1,1.86.594,2.141,2.141,0,0,1,.7,1.635v3.161a3.865,3.865,0,0,0,.241,1.5V15Zm-1.949-.9a2.064,2.064,0,0,0,1.047-.286,1.728,1.728,0,0,0,.717-.743V11.667h-.92q-2.158,0-2.158,1.263a1.069,1.069,0,0,0,.368.863A1.415,1.415,0,0,0,17.932,14.1Zm4.494-2.6a4.031,4.031,0,0,1,.743-2.561,2.621,2.621,0,0,1,3.917-.124l.051-.692h1.079v9.509H27.041V14.365a2.465,2.465,0,0,1-1.892.762,2.369,2.369,0,0,1-1.984-.968,4.121,4.121,0,0,1-.74-2.568Zm1.174.133a3.056,3.056,0,0,0,.5,1.854,1.585,1.585,0,0,0,1.343.673,1.758,1.758,0,0,0,1.6-.927V9.877a1.764,1.764,0,0,0-1.587-.908,1.6,1.6,0,0,0-1.352.676A3.327,3.327,0,0,0,23.6,11.642Zm10.74,2.679a2.494,2.494,0,0,1-2.012.806,2.135,2.135,0,0,1-1.673-.638,2.761,2.761,0,0,1-.581-1.888V8.132H31.25v4.437q0,1.562,1.27,1.562a1.758,1.758,0,0,0,1.79-1v-5h1.174V15H34.366Zm4.2.679H37.362V8.132h1.181Zm.013-9.744h1.422l-1.7,1.866-.946,0Z" transform="translate(1171.5 4045.118)" fill="#12263f"/>
    <path id="Trazado_176389" data-name="Trazado 176389" d="M8.176,0H6.951L2.3-7.122V0H1.073V-9.242H2.3L6.963-2.088V-9.242H8.176ZM9.845-3.5a4.057,4.057,0,0,1,.4-1.815,2.96,2.96,0,0,1,1.1-1.244A3.007,3.007,0,0,1,12.962-7a2.9,2.9,0,0,1,2.269.971A3.736,3.736,0,0,1,16.1-3.44v.083a4.092,4.092,0,0,1-.384,1.8,2.916,2.916,0,0,1-1.1,1.241,3.041,3.041,0,0,1-1.641.444,2.889,2.889,0,0,1-2.263-.971,3.718,3.718,0,0,1-.866-2.571Zm1.181.14a2.938,2.938,0,0,0,.53,1.834,1.7,1.7,0,0,0,1.419.692,1.686,1.686,0,0,0,1.422-.7A3.213,3.213,0,0,0,14.923-3.5a2.933,2.933,0,0,0-.536-1.831,1.705,1.705,0,0,0-1.425-.7,1.686,1.686,0,0,0-1.4.692A3.189,3.189,0,0,0,11.026-3.358Zm14,2.679a2.494,2.494,0,0,1-2.012.806,2.135,2.135,0,0,1-1.673-.638A2.761,2.761,0,0,1,20.763-2.4V-6.868h1.174v4.437q0,1.562,1.27,1.562a1.758,1.758,0,0,0,1.79-1v-5h1.174V0H25.054Zm6.925-1.143a.864.864,0,0,0-.359-.74,3.452,3.452,0,0,0-1.25-.454,5.912,5.912,0,0,1-1.416-.457,2.014,2.014,0,0,1-.774-.635,1.518,1.518,0,0,1-.251-.876,1.782,1.782,0,0,1,.714-1.428A2.789,2.789,0,0,1,30.443-7a2.87,2.87,0,0,1,1.895.6,1.915,1.915,0,0,1,.727,1.542H31.884a1.06,1.06,0,0,0-.409-.832,1.534,1.534,0,0,0-1.031-.349,1.606,1.606,0,0,0-1,.279.879.879,0,0,0-.362.73.712.712,0,0,0,.336.641,4.139,4.139,0,0,0,1.216.413,6.334,6.334,0,0,1,1.425.47,2.079,2.079,0,0,1,.809.657,1.615,1.615,0,0,1,.263.936,1.758,1.758,0,0,1-.736,1.476,3.089,3.089,0,0,1-1.911.555,3.459,3.459,0,0,1-1.46-.292,2.375,2.375,0,0,1-.993-.816,1.966,1.966,0,0,1-.359-1.133h1.174a1.216,1.216,0,0,0,.473.936,1.835,1.835,0,0,0,1.165.346,1.894,1.894,0,0,0,1.07-.27A.829.829,0,0,0,31.954-1.822ZM38.9,0a2.467,2.467,0,0,1-.165-.724,2.62,2.62,0,0,1-1.955.851,2.424,2.424,0,0,1-1.666-.574A1.859,1.859,0,0,1,34.461-1.9a1.942,1.942,0,0,1,.816-1.666,3.846,3.846,0,0,1,2.295-.594h1.143V-4.7a1.319,1.319,0,0,0-.368-.981,1.48,1.48,0,0,0-1.085-.365,1.712,1.712,0,0,0-1.054.317.935.935,0,0,0-.425.768H34.6a1.621,1.621,0,0,1,.365-.993,2.491,2.491,0,0,1,.99-.759A3.331,3.331,0,0,1,37.331-7a2.715,2.715,0,0,1,1.86.594,2.141,2.141,0,0,1,.7,1.635v3.161A3.865,3.865,0,0,0,40.13-.1V0ZM36.95-.9A2.064,2.064,0,0,0,38-1.181a1.728,1.728,0,0,0,.717-.743V-3.333h-.92q-2.158,0-2.158,1.263A1.069,1.069,0,0,0,36-1.206,1.415,1.415,0,0,0,36.95-.9Zm8.1-4.919a3.519,3.519,0,0,0-.578-.044,1.547,1.547,0,0,0-1.568.984V0H41.729V-6.868h1.143l.019.793A1.829,1.829,0,0,1,44.529-7a1.2,1.2,0,0,1,.521.089ZM52.1-.832a1.692,1.692,0,0,0,1.1-.381,1.34,1.34,0,0,0,.521-.952h1.111a2.13,2.13,0,0,1-.406,1.124,2.676,2.676,0,0,1-1,.851A2.885,2.885,0,0,1,52.1.127,2.829,2.829,0,0,1,49.87-.809a3.729,3.729,0,0,1-.828-2.561v-.2a4.135,4.135,0,0,1,.368-1.784,2.8,2.8,0,0,1,1.057-1.212A3,3,0,0,1,52.1-7a2.755,2.755,0,0,1,1.92.692,2.473,2.473,0,0,1,.816,1.8H53.72a1.618,1.618,0,0,0-.5-1.095A1.57,1.57,0,0,0,52.1-6.03a1.644,1.644,0,0,0-1.387.644,3.026,3.026,0,0,0-.492,1.863V-3.3a2.965,2.965,0,0,0,.489,1.828A1.651,1.651,0,0,0,52.1-.832ZM60.392,0a2.467,2.467,0,0,1-.165-.724,2.62,2.62,0,0,1-1.955.851,2.424,2.424,0,0,1-1.666-.574A1.859,1.859,0,0,1,55.955-1.9a1.942,1.942,0,0,1,.816-1.666,3.846,3.846,0,0,1,2.295-.594h1.143V-4.7a1.319,1.319,0,0,0-.368-.981,1.48,1.48,0,0,0-1.085-.365,1.712,1.712,0,0,0-1.054.317.935.935,0,0,0-.425.768H56.094a1.621,1.621,0,0,1,.365-.993,2.491,2.491,0,0,1,.99-.759A3.331,3.331,0,0,1,58.824-7a2.715,2.715,0,0,1,1.86.594,2.141,2.141,0,0,1,.7,1.635v3.161a3.865,3.865,0,0,0,.241,1.5V0ZM58.443-.9a2.064,2.064,0,0,0,1.047-.286,1.728,1.728,0,0,0,.717-.743V-3.333h-.92q-2.158,0-2.158,1.263a1.069,1.069,0,0,0,.368.863A1.415,1.415,0,0,0,58.443-.9Zm8.1-4.919a3.519,3.519,0,0,0-.578-.044,1.547,1.547,0,0,0-1.568.984V0H63.223V-6.868h1.143l.019.793A1.829,1.829,0,0,1,66.022-7a1.2,1.2,0,0,1,.521.089Zm4.4,0a3.519,3.519,0,0,0-.578-.044,1.547,1.547,0,0,0-1.568.984V0H67.622V-6.868h1.143l.019.793A1.829,1.829,0,0,1,70.421-7a1.2,1.2,0,0,1,.521.089ZM71.583-3.5a4.057,4.057,0,0,1,.4-1.815,2.96,2.96,0,0,1,1.1-1.244A3.007,3.007,0,0,1,74.7-7a2.9,2.9,0,0,1,2.269.971,3.736,3.736,0,0,1,.866,2.583v.083a4.092,4.092,0,0,1-.384,1.8,2.916,2.916,0,0,1-1.1,1.241,3.041,3.041,0,0,1-1.641.444,2.889,2.889,0,0,1-2.263-.971,3.718,3.718,0,0,1-.866-2.571Zm1.181.14a2.938,2.938,0,0,0,.53,1.834,1.7,1.7,0,0,0,1.419.692,1.686,1.686,0,0,0,1.422-.7A3.213,3.213,0,0,0,76.661-3.5a2.933,2.933,0,0,0-.536-1.831,1.705,1.705,0,0,0-1.425-.7,1.686,1.686,0,0,0-1.4.692A3.189,3.189,0,0,0,72.763-3.358ZM83.307-1.822a.864.864,0,0,0-.359-.74,3.452,3.452,0,0,0-1.25-.454,5.912,5.912,0,0,1-1.416-.457,2.014,2.014,0,0,1-.774-.635,1.518,1.518,0,0,1-.251-.876,1.782,1.782,0,0,1,.714-1.428A2.789,2.789,0,0,1,81.8-7a2.87,2.87,0,0,1,1.895.6,1.915,1.915,0,0,1,.727,1.542H83.237a1.06,1.06,0,0,0-.409-.832A1.534,1.534,0,0,0,81.8-6.03a1.606,1.606,0,0,0-1,.279.879.879,0,0,0-.362.73.712.712,0,0,0,.336.641,4.139,4.139,0,0,0,1.216.413,6.334,6.334,0,0,1,1.425.47,2.079,2.079,0,0,1,.809.657,1.615,1.615,0,0,1,.263.936,1.758,1.758,0,0,1-.736,1.476,3.089,3.089,0,0,1-1.911.555,3.459,3.459,0,0,1-1.46-.292,2.375,2.375,0,0,1-.993-.816,1.966,1.966,0,0,1-.359-1.133H80.2a1.216,1.216,0,0,0,.473.936,1.835,1.835,0,0,0,1.165.346A1.894,1.894,0,0,0,82.9-1.1.829.829,0,0,0,83.307-1.822ZM6.3,13.728H2.292V17H6.944v1H1.073V8.758H6.881v1H2.292v2.977H6.3ZM9.553,18H8.379V8.25H9.553Zm4.729.127a3,3,0,0,1-2.272-.917,3.4,3.4,0,0,1-.876-2.453v-.216a4.121,4.121,0,0,1,.39-1.825,3.045,3.045,0,0,1,1.092-1.257A2.745,2.745,0,0,1,14.136,11a2.572,2.572,0,0,1,2.082.882,3.82,3.82,0,0,1,.743,2.526V14.9H12.308a2.441,2.441,0,0,0,.594,1.641,1.866,1.866,0,0,0,1.444.625,2.045,2.045,0,0,0,1.054-.254,2.648,2.648,0,0,0,.755-.673l.717.559A2.884,2.884,0,0,1,14.282,18.127Zm-.146-6.157a1.566,1.566,0,0,0-1.193.517,2.515,2.515,0,0,0-.6,1.45h3.44v-.089a2.237,2.237,0,0,0-.482-1.387A1.475,1.475,0,0,0,14.136,11.97ZM20.5,16.407l1.7-5.275h1.2L20.941,18h-.9l-2.488-6.868h1.2ZM28.679,18a2.467,2.467,0,0,1-.165-.724,2.62,2.62,0,0,1-1.955.851,2.424,2.424,0,0,1-1.666-.574,1.859,1.859,0,0,1-.651-1.457,1.942,1.942,0,0,1,.816-1.666,3.846,3.846,0,0,1,2.295-.594h1.143V13.3a1.319,1.319,0,0,0-.368-.981,1.48,1.48,0,0,0-1.085-.365,1.712,1.712,0,0,0-1.054.317.935.935,0,0,0-.425.768H24.381a1.621,1.621,0,0,1,.365-.993,2.491,2.491,0,0,1,.99-.759A3.331,3.331,0,0,1,27.111,11a2.715,2.715,0,0,1,1.86.594,2.141,2.141,0,0,1,.7,1.635v3.161a3.865,3.865,0,0,0,.241,1.5V18Zm-1.949-.9a2.064,2.064,0,0,0,1.047-.286,1.728,1.728,0,0,0,.717-.743V14.667h-.92q-2.158,0-2.158,1.263a1.069,1.069,0,0,0,.368.863A1.415,1.415,0,0,0,26.73,17.1Zm4.494-2.6a4.023,4.023,0,0,1,.749-2.542,2.548,2.548,0,0,1,3.872-.136V8.25H37.02V18H35.94l-.057-.736a2.391,2.391,0,0,1-1.961.863,2.346,2.346,0,0,1-1.946-.978,4.069,4.069,0,0,1-.752-2.552Zm1.174.133a3.046,3.046,0,0,0,.482,1.828,1.56,1.56,0,0,0,1.333.66,1.713,1.713,0,0,0,1.631-1V12.973A1.726,1.726,0,0,0,34.227,12a1.567,1.567,0,0,0-1.346.667A3.354,3.354,0,0,0,32.4,14.642Zm6.132-.14a4.057,4.057,0,0,1,.4-1.815,2.96,2.96,0,0,1,1.1-1.244A3.007,3.007,0,0,1,41.647,11a2.9,2.9,0,0,1,2.269.971,3.736,3.736,0,0,1,.866,2.583v.083a4.092,4.092,0,0,1-.384,1.8,2.916,2.916,0,0,1-1.1,1.241,3.041,3.041,0,0,1-1.641.444,2.889,2.889,0,0,1-2.263-.971,3.718,3.718,0,0,1-.866-2.571Zm1.181.14a2.938,2.938,0,0,0,.53,1.834,1.8,1.8,0,0,0,2.841-.01,3.213,3.213,0,0,0,.527-1.965,2.933,2.933,0,0,0-.536-1.831,1.705,1.705,0,0,0-1.425-.7,1.686,1.686,0,0,0-1.4.692A3.189,3.189,0,0,0,39.711,14.642Zm9.864-2.457A3.519,3.519,0,0,0,49,12.141a1.547,1.547,0,0,0-1.568.984V18H46.255V11.132H47.4l.019.793A1.829,1.829,0,0,1,49.055,11a1.2,1.2,0,0,1,.521.089ZM53.5,18.127a3,3,0,0,1-2.272-.917,3.4,3.4,0,0,1-.876-2.453v-.216a4.121,4.121,0,0,1,.39-1.825,3.045,3.045,0,0,1,1.092-1.257A2.745,2.745,0,0,1,53.358,11a2.572,2.572,0,0,1,2.082.882,3.82,3.82,0,0,1,.743,2.526V14.9H51.53a2.441,2.441,0,0,0,.594,1.641,1.866,1.866,0,0,0,1.444.625,2.045,2.045,0,0,0,1.054-.254,2.648,2.648,0,0,0,.755-.673l.717.559A2.884,2.884,0,0,1,53.5,18.127Zm-.146-6.157a1.566,1.566,0,0,0-1.193.517,2.515,2.515,0,0,0-.6,1.45h3.44v-.089a2.237,2.237,0,0,0-.482-1.387A1.475,1.475,0,0,0,53.358,11.97Zm8.182,4.208a.865.865,0,0,0-.359-.74,3.452,3.452,0,0,0-1.25-.454,5.912,5.912,0,0,1-1.416-.457,2.014,2.014,0,0,1-.774-.635,1.518,1.518,0,0,1-.251-.876,1.782,1.782,0,0,1,.714-1.428A2.789,2.789,0,0,1,60.03,11a2.87,2.87,0,0,1,1.895.6,1.915,1.915,0,0,1,.727,1.542H61.471a1.06,1.06,0,0,0-.409-.832,1.534,1.534,0,0,0-1.031-.349,1.605,1.605,0,0,0-1,.279.879.879,0,0,0-.362.73A.712.712,0,0,0,59,13.62a4.139,4.139,0,0,0,1.216.413,6.334,6.334,0,0,1,1.425.47,2.079,2.079,0,0,1,.809.657,1.615,1.615,0,0,1,.263.936,1.758,1.758,0,0,1-.736,1.476,3.089,3.089,0,0,1-1.911.555,3.459,3.459,0,0,1-1.46-.292,2.375,2.375,0,0,1-.993-.816,1.966,1.966,0,0,1-.359-1.133H58.43a1.216,1.216,0,0,0,.473.936,1.835,1.835,0,0,0,1.165.346,1.894,1.894,0,0,0,1.07-.27A.829.829,0,0,0,61.541,16.178Z" transform="translate(1029.334 4045.118)" fill="#12263f"/>
    <g id="Grupo_161918" data-name="Grupo 161918" transform="translate(922.909 3937.021)">
      <g id="Grupo_161917" data-name="Grupo 161917" transform="translate(0 0)">
        <path id="Trazado_151474" data-name="Trazado 151474" d="M56.228,80.4a1.5,1.5,0,0,1-.586-2.887L68.7,71.988,80.244,26.845l11.41-10.866a1.5,1.5,0,1,1,2.073,2.176L82.942,28.426l-11.7,45.75-14.426,6.1a1.5,1.5,0,0,1-.585.119" transform="translate(-54.724 -15.564)" fill="#fbb300"/>
        <path id="Trazado_151475" data-name="Trazado 151475" d="M90.134,76.953l15.57-15.57a1.5,1.5,0,1,0-2.125-2.126L87.986,74.85l-15.938-15.6a1.5,1.5,0,1,0-2.1,2.148L85.861,76.975,70.639,92.2a1.5,1.5,0,1,0,2.125,2.125L88.008,79.078,103.59,94.333a1.5,1.5,0,1,0,2.1-2.148Z" transform="translate(-64.562 -44.373)" fill="#ff8578"/>
        <path id="Trazado_151476" data-name="Trazado 151476" d="M129.144,178.716a6.212,6.212,0,1,1-6.212-6.212,6.212,6.212,0,0,1,6.212,6.212" transform="translate(-96.017 -120.094)" fill="#fbb300"/>
        <rect id="Rectngulo_39055" data-name="Rectngulo 39055" width="46.504" height="6.165" transform="translate(1.679 68.792)" fill="#fbb300"/>
      </g>
    </g>
    <g id="Grupo_161919" data-name="Grupo 161919" transform="translate(928.014 4102.981)">
      <rect id="Rectngulo_39058" data-name="Rectngulo 39058" width="38.163" height="3.634" transform="translate(0.25 29.487)" fill="#fbb300"/>
      <rect id="Rectngulo_39059" data-name="Rectngulo 39059" width="38.163" height="38.163" transform="translate(0 34.575)" fill="#fbb300"/>
      <path id="Trazado_151486" data-name="Trazado 151486" d="M427.7,451.757v-3.98H417.513v3.98h-3.98l9.073,10.028L432,451.757Z" transform="translate(-402.864 -433.943)" fill="#fbb300"/>
      <text id="Kg" transform="translate(13.902 8)" fill="#fbb300" font-size="10" font-family="MyriadPro-Bold, Myriad Pro" font-weight="700"><tspan x="0" y="0" letter-spacing="-0.004em">K</tspan><tspan y="0">g</tspan></text>
    </g>
    <g id="Grupo_161925" data-name="Grupo 161925" transform="translate(1026.665 3948.575)">
      <path id="Trazado_151477" data-name="Trazado 151477" d="M346.329,38.526l-12.7,47.8-9.091-2.466" transform="translate(-324.544 -38.526)" fill="none" stroke="#fbb300" stroke-miterlimit="10" stroke-width="5"/>
      <path id="Trazado_151478" data-name="Trazado 151478" d="M454.3,54.878h9.874V72.04" transform="translate(-415.746 -47.008)" fill="none" stroke="#fbb300" stroke-linecap="round" stroke-miterlimit="10" stroke-width="5"/>
      <path id="Trazado_151479" data-name="Trazado 151479" d="M402.57,106.751h28.055v18.181l-48.587.825,8.934-27.626" transform="translate(-364.955 -80.42)" fill="none" stroke="#fbb300" stroke-linecap="round" stroke-miterlimit="10" stroke-width="5"/>
      <path id="Trazado_151480" data-name="Trazado 151480" d="M362.977,79.489l13.854-13.854a1.337,1.337,0,1,0-1.891-1.891L361.067,77.619,346.886,63.735a1.337,1.337,0,0,0-1.871,1.911L359.175,79.51,345.632,93.053a1.337,1.337,0,1,0,1.891,1.891l13.564-13.564L374.95,94.954a1.337,1.337,0,0,0,1.871-1.911Z" transform="translate(-338.65 -55.976)" fill="#ff8578"/>
      <path id="Trazado_151482" data-name="Trazado 151482" d="M384.868,172.881a6.426,6.426,0,1,1-6.426-6.426,6.426,6.426,0,0,1,6.426,6.426" transform="translate(-357.91 -128.443)" fill="#ff8578"/>
      <ellipse id="Elipse_4905" data-name="Elipse 4905" cx="6.426" cy="6.426" rx="6.426" ry="6.426" transform="matrix(0.924, -0.383, 0.383, 0.924, 12.136, 40.96)" fill="#f6f6f6" stroke="#fbb300" stroke-miterlimit="10" stroke-width="4"/>
      <ellipse id="Elipse_4933" data-name="Elipse 4933" cx="6.426" cy="6.426" rx="6.426" ry="6.426" transform="matrix(0.924, -0.383, 0.383, 0.924, 44.658, 40.96)" fill="#f6f6f6" stroke="#fbb300" stroke-miterlimit="10" stroke-width="4"/>
    </g>
    <g id="Grupo_161924" data-name="Grupo 161924" transform="translate(1128.244 3955.804)">
      <path id="Trazado_151483" data-name="Trazado 151483" d="M643.487,110.167,632.2,98.131v6.018h-4.89v12.036h4.89v5.078Z" transform="translate(-627.313 -89.333)" fill="#fbb300"/>
      <path id="Trazado_151484" data-name="Trazado 151484" d="M824.588,110.167l11.284-12.036v6.018h4.89v12.036h-4.89v5.078Z" transform="translate(-754.251 -89.333)" fill="#fbb300"/>
      <rect id="Rectngulo_39068" data-name="Rectngulo 39068" width="7.825" height="31.112" transform="translate(17.502 4.808)" fill="#fbb300"/>
      <rect id="Rectngulo_39069" data-name="Rectngulo 39069" width="7.825" height="31.112" transform="translate(60.026 4.808)" fill="#fbb300"/>
      <rect id="Rectngulo_39070" data-name="Rectngulo 39070" width="31.112" height="31.112" transform="translate(27.186 4.808)" fill="#fbb300"/>
      <path id="Trazado_151493" data-name="Trazado 151493" d="M715.794,92.819,732.417,76.2a1.6,1.6,0,0,0-2.269-2.269L713.5,90.574l-17.016-16.66a1.6,1.6,0,0,0-2.245,2.293l16.992,16.636-16.251,16.252a1.6,1.6,0,1,0,2.269,2.269l16.275-16.275,16.636,16.287a1.6,1.6,0,0,0,2.245-2.293Z" transform="translate(-670.068 -73.456)" fill="#ff8578"/>
    </g>
    <g id="Grupo_161923" data-name="Grupo 161923" transform="translate(1240.545 3959.468)">
      <path id="Trazado_151485" data-name="Trazado 151485" d="M205.072,502.216l11.435-11.631V496.4h4.955v11.631h-4.955v4.907Z" transform="translate(-136.552 -485.821)" fill="#fbb300"/>
      <rect id="Rectngulo_39061" data-name="Rectngulo 39061" width="7.561" height="30.064" transform="translate(18.122)" fill="#fbb300"/>
      <rect id="Rectngulo_39062" data-name="Rectngulo 39062" width="7.561" height="30.064" transform="translate(59.213)" fill="#fbb300"/>
      <rect id="Rectngulo_39063" data-name="Rectngulo 39063" width="30.064" height="30.064" transform="translate(27.48)" fill="#fbb300"/>
      <path id="Trazado_151487" data-name="Trazado 151487" d="M22.583,499.578,11.148,487.948v5.815H6.193v11.631h4.955V510.3Z" transform="translate(-6.193 -484.092)" fill="#fbb300"/>
    </g>
    <g id="Grupo_161920" data-name="Grupo 161920" transform="translate(1044.574 4107.489)">
      <rect id="Rectngulo_39056" data-name="Rectngulo 39056" width="30.211" height="28.516" transform="translate(1.592 36.555)" fill="#fbb300"/>
      <rect id="Rectngulo_39057" data-name="Rectngulo 39057" width="30.211" height="30.211" transform="translate(1.592 0.799)" fill="none" stroke="#fbb300" stroke-miterlimit="10" stroke-width="7"/>
      <path id="Trazado_151495" data-name="Trazado 151495" d="M712.26,445.828l13.957-13.833a1.326,1.326,0,0,0,0-1.888,1.356,1.356,0,0,0-1.9,0L710.335,443.96,696.048,430.1a1.355,1.355,0,0,0-1.9.02,1.327,1.327,0,0,0,.02,1.888l14.266,13.843-13.644,13.523a1.327,1.327,0,0,0,0,1.888,1.355,1.355,0,0,0,1.9,0l13.665-13.543,13.967,13.553a1.355,1.355,0,0,0,1.905-.02,1.327,1.327,0,0,0-.02-1.888Z" transform="translate(-693.759 -429.716)" fill="#ff8578"/>
    </g>
    <g id="Grupo_161921" data-name="Grupo 161921" transform="translate(1161.294 4104.745)">
      <rect id="Rectngulo_39064" data-name="Rectngulo 39064" width="21.411" height="19.776" transform="translate(0 -1)" fill="none" stroke="#fbb300" stroke-miterlimit="10" stroke-width="6"/>
      <rect id="Rectngulo_39065" data-name="Rectngulo 39065" width="21.411" height="19.776" transform="translate(0 27.306)" fill="none" stroke="#fbb300" stroke-miterlimit="10" stroke-width="6"/>
      <rect id="Rectngulo_39066" data-name="Rectngulo 39066" width="21.411" height="19.776" transform="translate(0 51.783)" fill="#fbb300"/>
      <text id="N" transform="translate(6.706 40.255)" fill="#fbb300" font-size="10" font-family="MyriadPro-Bold, Myriad Pro" font-weight="700"><tspan x="0" y="0">N</tspan></text>
      <path id="Trazado_151494" data-name="Trazado 151494" d="M110.2,840.674l8.433-8.433a.814.814,0,1,0-1.151-1.151l-8.445,8.446-8.632-8.452a.814.814,0,1,0-1.139,1.163l8.62,8.44-8.244,8.244a.814.814,0,0,0,1.151,1.151l8.257-8.257,8.439,8.263a.814.814,0,1,0,1.139-1.163Z" transform="translate(-98.58 -831.697)" fill="#ff8578"/>
    </g>
    <g id="Grupo_161922" data-name="Grupo 161922" transform="translate(1247 4112.317)">
      <path id="Trazado_151488" data-name="Trazado 151488" d="M339.841,918.862h23.443l18.355-26.347h26.9" transform="translate(-339.841 -877.023)" fill="none" stroke="#fbb300" stroke-linecap="round" stroke-miterlimit="10" stroke-width="4"/>
      <path id="Trazado_151489" data-name="Trazado 151489" d="M427.181,897.432a5.667,5.667,0,0,1-5.66-5.66V853.209a5.66,5.66,0,0,1,11.321,0v38.563a5.667,5.667,0,0,1-5.66,5.66m0-47.122a2.9,2.9,0,0,0-2.9,2.9v38.563a2.9,2.9,0,0,0,5.8,0V853.209a2.9,2.9,0,0,0-2.9-2.9" transform="translate(-393.38 -847.549)" fill="#fbb300"/>
      <path id="Trazado_151490" data-name="Trazado 151490" d="M430.225,967.269a8.559,8.559,0,1,1-8.559-8.559,8.559,8.559,0,0,1,8.559,8.559" transform="translate(-387.864 -920.412)" fill="#fbb300"/>
      <path id="Trazado_151491" data-name="Trazado 151491" d="M403.133,920a1.381,1.381,0,0,1-.425-2.694l22.18-7.179a1.381,1.381,0,0,1,.85,2.627l-22.18,7.179a1.379,1.379,0,0,1-.426.068" transform="translate(-380.422 -888.522)" fill="#fbb300"/>
      <path id="Trazado_151492" data-name="Trazado 151492" d="M434.575,942.447h-9.046V923.579l9.046-2.3Z" transform="translate(-396.006 -895.877)" fill="#fbb300"/>
      <text id="_c" data-name="c" transform="translate(51 5.683)" fill="#fbb300" font-size="13" font-family="Roboto-Black, Roboto" font-weight="800"><tspan x="0" y="0">c</tspan></text>
    </g>
  </g>
</svg>
