<?xml version="1.0" encoding="UTF-8"?>
<svg xmlns="http://www.w3.org/2000/svg" width="500" height="347.45" xmlns:xlink="http://www.w3.org/1999/xlink" viewBox="0 0 500 347.45">
  <defs>
    <style>
      .cls-1 {
        fill: #527ee9;
      }

      .cls-2 {
        fill: #fff;
      }

      .cls-3 {
        filter: url(#drop-shadow-4);
      }

      .cls-3, .cls-4, .cls-5, .cls-6, .cls-7, .cls-8, .cls-9, .cls-10, .cls-11 {
        fill: none;
      }

      .cls-3, .cls-6, .cls-7, .cls-9, .cls-11 {
        stroke-miterlimit: 10;
      }

      .cls-3, .cls-6, .cls-7, .cls-11 {
        stroke: #ff746f;
        stroke-width: 4px;
      }

      .cls-12 {
        fill: #f3f4f6;
      }

      .cls-4 {
        stroke: #2a294f;
        stroke-width: .78px;
      }

      .cls-4, .cls-5, .cls-8, .cls-10 {
        stroke-linecap: round;
        stroke-linejoin: round;
      }

      .cls-5, .cls-9 {
        stroke: #1a55b5;
      }

      .cls-5, .cls-10 {
        stroke-width: .87px;
      }

      .cls-13 {
        opacity: .05;
      }

      .cls-13, .cls-14, .cls-15, .cls-16 {
        mix-blend-mode: multiply;
      }

      .cls-13, .cls-14, .cls-16 {
        fill: #777470;
      }

      .cls-6 {
        filter: url(#drop-shadow-1);
      }

      .cls-17 {
        isolation: isolate;
      }

      .cls-14 {
        opacity: .15;
      }

      .cls-18 {
        fill: #1a55b5;
      }

      .cls-15 {
        fill: #cde1f9;
      }

      .cls-19 {
        fill: #ff746f;
      }

      .cls-20 {
        fill: #e86767;
      }

      .cls-16 {
        opacity: .2;
      }

      .cls-21 {
        fill: #ffc957;
      }

      .cls-7 {
        filter: url(#drop-shadow-3);
      }

      .cls-22 {
        fill: #dce6ef;
      }

      .cls-23 {
        fill: #d3eaf5;
      }

      .cls-24 {
        fill: #2a294f;
      }

      .cls-8, .cls-10 {
        stroke: #6aa5fe;
      }

      .cls-11 {
        filter: url(#drop-shadow-2);
      }

      .cls-25 {
        fill: #6aa5fe;
      }

      .cls-26 {
        fill: #fff4dd;
      }

      .cls-27 {
        fill: #2c6bc6;
      }

      .cls-28 {
        fill: #fe9280;
      }
    </style>
    <filter id="drop-shadow-1" filterUnits="userSpaceOnUse">
      <feOffset dx="2" dy="2"/>
      <feGaussianBlur result="blur" stdDeviation="0"/>
      <feFlood flood-color="#f3f4f6" flood-opacity="1"/>
      <feComposite in2="blur" operator="in"/>
      <feComposite in="SourceGraphic"/>
    </filter>
    <filter id="drop-shadow-2" filterUnits="userSpaceOnUse">
      <feOffset dx="2" dy="2"/>
      <feGaussianBlur result="blur-2" stdDeviation="0"/>
      <feFlood flood-color="#f3f4f6" flood-opacity="1"/>
      <feComposite in2="blur-2" operator="in"/>
      <feComposite in="SourceGraphic"/>
    </filter>
    <filter id="drop-shadow-3" filterUnits="userSpaceOnUse">
      <feOffset dx="2" dy="2"/>
      <feGaussianBlur result="blur-3" stdDeviation="0"/>
      <feFlood flood-color="#f3f4f6" flood-opacity="1"/>
      <feComposite in2="blur-3" operator="in"/>
      <feComposite in="SourceGraphic"/>
    </filter>
    <filter id="drop-shadow-4" filterUnits="userSpaceOnUse">
      <feOffset dx="2" dy="2"/>
      <feGaussianBlur result="blur-4" stdDeviation="0"/>
      <feFlood flood-color="#f3f4f6" flood-opacity="1"/>
      <feComposite in2="blur-4" operator="in"/>
      <feComposite in="SourceGraphic"/>
    </filter>
  </defs>
  <g class="cls-17">
    <g id="BACKGROUND"/>
    <g id="OBJECTS">
      <g>
        <g>
          <path class="cls-22" d="M459.66,275.22c-3.67-9.42-6.41-19.42-9.4-29.98-2.02-7.12-5.27-15.08-12.31-17.32-6.85-2.18-14.24,2.34-18.45,8.17-4.22,5.83-6.34,12.89-9.95,19.12-6.54,11.28-18.11,16.01-27.68,6.09-13.67-14.17-19.82-33.48-28.49-50.76-6.29-12.54-11.56-27.23-19.49-38.79-12.09-17.63-28.67-32.66-50.71-32.66-13.97,2.12-26.28,14.49-34.62,29.96-8.33,15.47-13.19,33.86-17.33,52.21-7.53,33.37-13.05,67.51-18.56,101.61l278.12-3.24c-1.11,.01-7.92-9.1-9.23-10.36-10.68-10.33-17.09-21.69-21.9-34.04Z"/>
          <g>
            <path class="cls-25" d="M406.87,291.12c-.54,10.81-12.31,29.71-23.12,29.17-10.81-.54-16.58-20.33-16.03-31.14,.54-10.81,12.06-64.91,22.87-64.37,10.81,.54,16.83,55.53,16.28,66.34Z"/>
            <line class="cls-5" x1="390.07" y1="231.8" x2="384.61" y2="319.42"/>
            <path class="cls-21" d="M382.12,288.86c-2.46,5.41-4.34,11.08-5.47,17-.57,3-.94,6.25,.42,8.98,1.48,2.99,4.77,4.73,8.06,5.27,8.04,1.32,16.07-3.6,20.78-10.25,4.71-6.64,6.75-14.76,8.62-22.69,1.47-6.24,2.92-12.57,5.7-18.39,1.19-2.49,8.17-12.12,4.87-14.61-4.51-3.55-17.58,.31-25.95,9.45-6.9,7.53-12.83,15.99-17.04,25.24Z"/>
            <path class="cls-10" d="M385.13,320.11s9.7-37.77,33.13-59.43"/>
          </g>
          <g>
            <path class="cls-18" d="M438.95,279.96c-.83,1.49-2.39,2.5-3.8,3.3-1.74,.98-3.6,1.84-5.39,2.68-2.3,1.07-4.68,2.18-6.88,3.56-1.6,1.01-3.03,2.14-4.22,3.36,1.89-4.29,4.09-8.03,6.69-11.38,3.42-4.4,6.93-6.63,10.44-6.63,.08,0,.16,0,.24,0,1.08,.03,1.93,.3,2.51,.8,1.19,1.02,1.14,3,.41,4.31Z"/>
            <path class="cls-18" d="M442.87,304.38c-1.39,.99-3.23,1.24-4.85,1.36-1.99,.14-4.04,.13-6.02,.11-2.54-.02-5.17-.04-7.74,.27-1.88,.22-3.65,.64-5.25,1.23,3.54-3.07,7.14-5.51,10.92-7.42,4.98-2.52,9.1-3.03,12.27-1.53,.07,.03,.15,.07,.22,.11,.97,.49,1.62,1.1,1.93,1.8,.64,1.44-.25,3.2-1.47,4.07Z"/>
            <path class="cls-18" d="M433.62,316.4c-1.15-.16-2.19-.9-3.05-1.6-1.06-.86-2.07-1.83-3.05-2.76-1.25-1.2-2.55-2.44-3.98-3.49-1.04-.77-2.12-1.39-3.19-1.85,3.2,.13,6.13,.6,8.91,1.43,3.65,1.08,5.95,2.76,6.82,4.99,.02,.05,.04,.1,.06,.16,.25,.7,.29,1.3,.12,1.8-.36,1.01-1.62,1.47-2.64,1.33Z"/>
            <path class="cls-4" d="M407.32,320.32s.11-23.11,28.33-42.73"/>
            <path class="cls-4" d="M407.32,320.32s8.67-18.57,32.16-18.57"/>
            <path class="cls-4" d="M420.1,306.92s4.55-.33,14.05,6.83"/>
          </g>
        </g>
        <g>
          <path class="cls-22" d="M164.8,320.52c-6.52-24.66-13.08-49.33-20.75-73.21-4.32-13.47-9.1-26.88-15.73-37.65-6.63-10.77-15.41-18.72-24.23-18.67-13.58,2.63-22.35,16.04-28.1,30.9-3.77,9.74-5.6,21.54-8.26,31.84-3.67,14.18-5.6,29.61-12.65,42.01-4.94,8.69-12.53,6.47-17.65-1.33-2.82-4.31-4.82-9.43-7.98-13.36-3.16-3.93-8.15-6.49-12.16-4.01-4.13,2.55-5.36,8.99-5.92,14.65-.82,8.39-1.55,16.32-2.9,23.93-.29,1.66-.62,3.29-.98,4.92H164.8Z"/>
          <path class="cls-21" d="M106.47,286.48c-4.08-4.7-9.24-8.76-10.86-14.69-1.19-4.33-.25-8.92,.21-13.39s.3-9.41-2.59-12.85c-2.38-2.84-6.15-4.07-9.77-4.85-3.62-.78-7.4-1.27-10.61-3.11-5.22-2.99-4.18-8.08-6.98-12.54-3.14-5.01-10.46-11.4-16.72-8.07-6.64,3.52-5.59,14.22-1.17,18.94,2.93,3.13,6.68,6.14,7.11,10.4,.65,6.42-6.71,12.21-4.69,18.34,1.5,4.53,7.2,6.08,10.02,9.93,2.79,3.81,2.23,9.14,.58,13.56-1.64,4.42-4.23,8.51-5.25,13.12-2.09,9.42,5.3,15.94,13.73,18.04,7.74,1.93,24.44,1.02,24.44,1.02,5.96-2.08,12.57-7.32,15.84-13.04,2.48-4.32,2.82-9.8,.9-14.4-.99-2.37-2.5-4.44-4.2-6.4Z"/>
          <path class="cls-8" d="M56.57,227.14s28.51,44.04,31.61,92.94"/>
          <g>
            <path class="cls-25" d="M31.17,286.54c.44-.38,1.08-.58,1.9-.6,.06,0,.12,0,.18,0,2.65,0,5.31,1.69,7.89,5.02,1.96,2.53,3.63,5.36,5.06,8.6-.9-.92-1.98-1.78-3.19-2.54-1.66-1.04-3.46-1.88-5.2-2.69-1.36-.63-2.76-1.28-4.08-2.03-1.07-.6-2.25-1.37-2.87-2.49-.56-.99-.59-2.48,.31-3.26Z"/>
            <path class="cls-25" d="M26.79,305.19c.24-.53,.73-.99,1.46-1.36,.05-.03,.11-.06,.16-.08,2.4-1.14,5.52-.75,9.28,1.16,2.86,1.45,5.58,3.29,8.25,5.61-1.21-.45-2.55-.76-3.97-.93-1.95-.23-3.94-.22-5.86-.21-1.5,0-3.04,.02-4.55-.09-1.22-.09-2.62-.28-3.66-1.02-.93-.66-1.6-1.99-1.11-3.08Z"/>
            <path class="cls-25" d="M32.9,316.34c-.13-.37-.1-.83,.09-1.36,.01-.04,.03-.08,.04-.12,.66-1.69,2.39-2.96,5.16-3.78,2.1-.62,4.32-.98,6.74-1.08-.81,.35-1.63,.82-2.41,1.4-1.08,.8-2.06,1.74-3.01,2.64-.74,.71-1.5,1.44-2.3,2.09-.65,.53-1.43,1.09-2.3,1.21-.77,.11-1.73-.24-2-1.01Z"/>
            <path class="cls-4" d="M54.78,320.32s-.08-17.48-21.42-32.31"/>
            <path class="cls-4" d="M54.78,320.32s-6.55-14.04-24.32-14.04"/>
            <path class="cls-4" d="M45.12,310.19s-3.44-.25-10.62,5.17"/>
          </g>
        </g>
        <g>
          <rect class="cls-25" x="86.13" y="46.27" width="207.06" height="274.05" rx="9.45" ry="9.45"/>
          <path class="cls-1" d="M86.13,113.04v197.84c0,5.22,4.23,9.45,9.45,9.45h188.16c5.22,0,9.45-4.23,9.45-9.45v-39.05L86.13,113.04Z"/>
          <rect class="cls-12" x="98.16" y="58.92" width="183" height="248.76" rx="3.86" ry="3.86"/>
          <g>
            <path class="cls-18" d="M205.36,41.1c.01-.26,.04-.51,.04-.78,0-8.69-7.05-15.74-15.74-15.74s-15.74,7.05-15.74,15.74c0,.26,.03,.52,.04,.78h-23.13v23.99h77.66v-23.99h-23.13Z"/>
            <polygon class="cls-27" points="150.83 41.1 150.83 65.09 228.49 65.09 150.83 41.1"/>
            <circle class="cls-1" cx="189.66" cy="40.32" r="8.84" transform="translate(-.91 76.08) rotate(-22.63)"/>
            <path class="cls-25" d="M183.41,34.08c-3.45,3.45-3.45,9.05,0,12.5,3.45,3.45,9.05,3.45,12.5,0l-12.5-12.5Z"/>
            <rect class="cls-15" x="150.83" y="65.09" width="77.66" height="1.65"/>
          </g>
        </g>
        <g>
          <g>
            <rect class="cls-9" x="119.31" y="98.31" width="29.45" height="29.45"/>
            <polyline class="cls-6" points="125.93 112.54 134.93 119.61 153.25 101.97"/>
            <g>
              <path class="cls-25" d="M258.88,106.67h-95.98c-.63,0-1.13-.51-1.13-1.13h0c0-.63,.51-1.13,1.13-1.13h95.98c.63,0,1.13,.51,1.13,1.13h0c0,.63-.51,1.13-1.13,1.13Z"/>
              <path class="cls-25" d="M258.88,111.67h-95.98c-.63,0-1.13-.51-1.13-1.13h0c0-.63,.51-1.13,1.13-1.13h95.98c.63,0,1.13,.51,1.13,1.13h0c0,.63-.51,1.13-1.13,1.13Z"/>
              <path class="cls-25" d="M258.88,116.67h-95.98c-.63,0-1.13-.51-1.13-1.13h0c0-.63,.51-1.13,1.13-1.13h95.98c.63,0,1.13,.51,1.13,1.13h0c0,.63-.51,1.13-1.13,1.13Z"/>
              <path class="cls-25" d="M258.88,121.67h-95.98c-.63,0-1.13-.51-1.13-1.13h0c0-.63,.51-1.13,1.13-1.13h95.98c.63,0,1.13,.51,1.13,1.13h0c0,.63-.51,1.13-1.13,1.13Z"/>
            </g>
          </g>
          <g>
            <rect class="cls-9" x="119.31" y="145.73" width="29.45" height="29.45"/>
            <polyline class="cls-11" points="125.93 159.96 134.93 167.03 153.25 149.39"/>
            <g>
              <path class="cls-25" d="M258.88,154.09h-95.98c-.63,0-1.13-.51-1.13-1.13h0c0-.63,.51-1.13,1.13-1.13h95.98c.63,0,1.13,.51,1.13,1.13h0c0,.63-.51,1.13-1.13,1.13Z"/>
              <path class="cls-25" d="M258.88,159.09h-95.98c-.63,0-1.13-.51-1.13-1.13h0c0-.63,.51-1.13,1.13-1.13h95.98c.63,0,1.13,.51,1.13,1.13h0c0,.63-.51,1.13-1.13,1.13Z"/>
              <path class="cls-25" d="M258.88,164.09h-95.98c-.63,0-1.13-.51-1.13-1.13h0c0-.63,.51-1.13,1.13-1.13h95.98c.63,0,1.13,.51,1.13,1.13h0c0,.63-.51,1.13-1.13,1.13Z"/>
              <path class="cls-25" d="M258.88,169.09h-95.98c-.63,0-1.13-.51-1.13-1.13h0c0-.63,.51-1.13,1.13-1.13h95.98c.63,0,1.13,.51,1.13,1.13h0c0,.63-.51,1.13-1.13,1.13Z"/>
            </g>
          </g>
          <g>
            <rect class="cls-9" x="119.31" y="193.14" width="29.45" height="29.45"/>
            <polyline class="cls-7" points="125.93 207.38 134.93 214.45 153.25 196.81"/>
            <g>
              <path class="cls-25" d="M258.88,201.51h-95.98c-.63,0-1.13-.51-1.13-1.13h0c0-.63,.51-1.13,1.13-1.13h95.98c.63,0,1.13,.51,1.13,1.13h0c0,.63-.51,1.13-1.13,1.13Z"/>
              <path class="cls-25" d="M258.88,206.51h-95.98c-.63,0-1.13-.51-1.13-1.13h0c0-.63,.51-1.13,1.13-1.13h95.98c.63,0,1.13,.51,1.13,1.13h0c0,.63-.51,1.13-1.13,1.13Z"/>
              <path class="cls-25" d="M258.88,211.51h-95.98c-.63,0-1.13-.51-1.13-1.13h0c0-.63,.51-1.13,1.13-1.13h95.98c.63,0,1.13,.51,1.13,1.13h0c0,.63-.51,1.13-1.13,1.13Z"/>
              <path class="cls-25" d="M258.88,216.51h-95.98c-.63,0-1.13-.51-1.13-1.13h0c0-.63,.51-1.13,1.13-1.13h95.98c.63,0,1.13,.51,1.13,1.13h0c0,.63-.51,1.13-1.13,1.13Z"/>
            </g>
          </g>
          <g>
            <rect class="cls-9" x="119.31" y="240.56" width="29.45" height="29.45"/>
            <polyline class="cls-3" points="125.93 254.8 134.93 261.87 153.25 244.22"/>
            <g>
              <path class="cls-25" d="M258.88,248.92h-95.98c-.63,0-1.13-.51-1.13-1.13h0c0-.63,.51-1.13,1.13-1.13h95.98c.63,0,1.13,.51,1.13,1.13h0c0,.63-.51,1.13-1.13,1.13Z"/>
              <path class="cls-25" d="M258.88,253.92h-95.98c-.63,0-1.13-.51-1.13-1.13h0c0-.63,.51-1.13,1.13-1.13h95.98c.63,0,1.13,.51,1.13,1.13h0c0,.63-.51,1.13-1.13,1.13Z"/>
              <path class="cls-25" d="M258.88,258.92h-95.98c-.63,0-1.13-.51-1.13-1.13h0c0-.63,.51-1.13,1.13-1.13h95.98c.63,0,1.13,.51,1.13,1.13h0c0,.63-.51,1.13-1.13,1.13Z"/>
              <path class="cls-25" d="M258.88,263.92h-95.98c-.63,0-1.13-.51-1.13-1.13h0c0-.63,.51-1.13,1.13-1.13h95.98c.63,0,1.13,.51,1.13,1.13h0c0,.63-.51,1.13-1.13,1.13Z"/>
            </g>
          </g>
        </g>
        <g>
          <path class="cls-28" d="M301.6,123.57c-.61,.47-6.16,3.75-6.16,3.75l-3.94-5.04,1.17-5.75,8.48,.53,1.48,4.29c.35,1.02-.28,1.65-1.03,2.23Z"/>
          <path class="cls-20" d="M301.15,117.05l1.28,3.76-3.91,1.57c-.74,.32-1.58,.38-2.36,.17-1.72-.46-2.85-2.13-2.63-3.9l.25-2.07,7.37,.46Z"/>
          <path class="cls-19" d="M299.23,122.08l3.39,.49,1.86-3.18c.36-.57,.19-1.33-.38-1.7h0c-.57-.36-1.33-.19-1.7,.38l-3.17,4Z"/>
          <polygon class="cls-2" points="296.66 135.68 289.67 137.45 287.17 157.69 295.36 158.02 296.66 135.68"/>
          <g>
            <path class="cls-28" d="M388.56,152.11l-12.22-1.54,2.8-22.21,12.22,1.54c6.13,.77,10.48,6.37,9.71,12.51h0c-.77,6.13-6.37,10.48-12.51,9.71Z"/>
            <path class="cls-16" d="M389.2,147.05l-12.22-1.54-.64,5.06,12.22,1.54c6.13,.77,11.73-3.57,12.51-9.71,.11-.87,.11-1.73,.03-2.57-1.76,4.77-6.63,7.88-11.89,7.22Z"/>
            <polygon class="cls-21" points="374.86 150.39 245.22 133.66 248.02 111.45 377.65 128.17 374.86 150.39"/>
            <polygon class="cls-26" points="222.13 119.47 245.22 133.66 248.02 111.45 222.13 119.47"/>
            <polygon class="cls-16" points="222.13 119.47 245.22 133.66 245.91 128.23 222.13 119.47"/>
            <polygon class="cls-24" points="229.84 117.08 222.13 119.47 229.01 123.7 229.84 117.08"/>
            <rect class="cls-23" x="376.21" y="128.76" width="10.81" height="22.39" transform="translate(20.47 -46.57) rotate(7.18)"/>
            <rect class="cls-23" x="383.3" y="128.24" width="3.7" height="24.31" transform="translate(20.55 -47.01) rotate(7.18)"/>
            <polygon class="cls-16" points="381.92 151.27 245.22 133.66 245.91 128.23 382.6 145.84 381.92 151.27"/>
            <polygon class="cls-13" points="384.03 134.49 247.33 116.88 248.02 111.45 384.71 129.06 384.03 134.49"/>
            <rect class="cls-14" x="382.25" y="145.06" width="3.7" height="7.43" transform="translate(21.59 -46.81) rotate(7.18)"/>
          </g>
          <path class="cls-20" d="M332.33,195.37l1.84-4.73,6.17-.48c1.14-.12,2.14,.57,2.25,1.54h0c.1,.97-.73,1.86-1.87,1.98l-8.39,1.69Z"/>
          <path class="cls-19" d="M329.15,190.66l3.18,4.71,6.05-1.22-6.74-10.09-1.31,.86c-1.91,1.26-2.44,3.83-1.18,5.74Z"/>
          <path class="cls-18" d="M335.1,114.79c-6.29-9.16-22.12-6.72-21.71,7.96,0,.04,0,.09,0,.13-.04,1.86,.02,3.76-.46,5.51-.25,.89-.67,1.71-1.32,2.3-.64,.6-1.47,.95-2.34,1.14-.88,.2-1.84,.24-2.82,.44-.99,.2-1.95,.56-2.82,1.08-1.75,1.02-3.18,2.69-3.83,4.66-1.25,3.92-.25,8.46,2.7,11.41,.74,.72,1.6,1.34,2.55,1.78,.94,.46,2.01,.63,2.88,.81,1.83,.4,3.68,.93,5.56,1.3l.05-.16c-1.74-.8-3.45-1.64-5.29-2.28-.96-.34-1.78-.53-2.53-.99-.74-.44-1.43-.98-2.01-1.63-1.16-1.29-2.01-2.88-2.49-4.58-.48-1.7-.58-3.53-.1-5.22,.47-1.68,1.6-3.14,3.1-4.11,.74-.49,1.58-.84,2.45-1.06,.88-.22,1.84-.31,2.81-.57,.97-.25,1.93-.74,2.64-1.5,.72-.75,1.13-1.72,1.33-2.68,.14-.68,.21-1.37,.23-2.05,.17,2.74-.07,5.52-2.88,6.57-1.62,.61-3.2,.61-4.71,1.61-1.48,.99-2.65,2.45-3.22,4.13-1.76,5.19,2.83,11.91,8.24,12.49,2.24,.24,4.48,.78,6.69,1.18,.62,.11,9.32,1.89,9.39,1.69l10.07-29.81-2.16-9.54Z"/>
          <polygon class="cls-2" points="334.62 188.52 355.04 174.28 352.19 166.39 331.63 184.05 334.62 188.52"/>
          <path class="cls-2" d="M349.59,172.33c.97,2.04,3.41,2.92,5.45,1.95,2.04-.97,2.92-3.41,1.95-5.45-.97-2.04-3.41-2.92-5.45-1.95-2.04,.97-2.92,3.41-1.95,5.45Z"/>
          <path class="cls-2" d="M350.61,173.8l5.82-5.76-16.81-18.91c-1.91-2.58-5.66-2.86-7.94-.61h0c-2.28,2.25-2.03,8.52,.52,10.46l18.4,14.81Z"/>
          <rect class="cls-19" x="322.76" y="133.51" width="6.91" height="14.47" transform="translate(639.38 308.53) rotate(-175.16)"/>
          <path class="cls-2" d="M290.83,154.62c-2.26,.15-3.96,2.1-3.81,4.36,.15,2.26,2.1,3.96,4.36,3.81,2.26-.15,3.96-2.1,3.81-4.36-.15-2.26-2.1-3.96-4.36-3.81Z"/>
          <path class="cls-2" d="M288.25,155.23l4.15,7.37,25.35-7.37c3.11-.79,4.79-6.67,3.57-9.63h0c-1.22-2.96-4.79-4.16-7.55-2.52l-25.52,12.16Z"/>
          <path class="cls-2" d="M327.04,183.66l12.83-31.48c.65-2.58-1.09-5.14-3.72-5.5l-18.42-4.18c-2.63-.36-4.99,1.65-5.05,4.31l-6.3,34.33,20.67,2.52Z"/>
          <path class="cls-19" d="M324.97,116.47c-2.13,2.69-5.95,3.82-6.85,6.29l-.19,1.14c0,.05,0,.1,0,.16l-.02-.04-.58,3.45c-.74,4.37,2.21,8.51,6.58,9.25,4.37,.74,8.51-2.21,9.25-6.58l.66-3.89c-.45-3.96-7.68-4.26-8.84-9.79Z"/>
          <path class="cls-19" d="M332.32,128.31c-.17,1.01,.51,1.98,1.53,2.15,1.01,.17,1.98-.51,2.15-1.53,.17-1.01-.51-1.98-1.53-2.15-1.01-.17-1.98,.51-2.15,1.53Z"/>
          <polygon class="cls-18" points="315.45 182.25 324.68 205.04 315.86 311.51 309.09 311.51 301.11 204.37 306.38 181.14 315.45 182.25"/>
          <polygon class="cls-1" points="315.45 182.25 315.45 205.04 357 311.51 362.1 311.51 339.87 201.02 327.04 183.66 315.45 182.25"/>
          <polygon class="cls-19" points="312.88 317.07 310.05 317.07 310.05 311.51 313.72 311.51 312.88 317.07"/>
          <polygon class="cls-24" points="309.95 315.81 311.61 316.54 313.15 315.81 314.53 320.32 301.72 320.32 306.54 318.06 309.95 315.81"/>
          <polygon class="cls-19" points="360.36 317.07 363.19 317.07 361.51 311.51 357.84 311.51 360.36 317.07"/>
          <polygon class="cls-24" points="363.29 315.81 361.63 316.54 360.09 315.81 358.71 320.32 371.52 320.32 366.7 318.06 363.29 315.81"/>
          <path class="cls-2" d="M318.86,159.67c0,3.21-2.6,5.81-5.81,5.81s-5.81-2.6-5.81-5.81,2.6-5.81,5.81-5.81,5.81,2.6,5.81,5.81Z"/>
          <polygon class="cls-19" points="318.26 142.66 319 155.14 329.79 144.15 318.26 142.66"/>
          <path class="cls-18" d="M341.75,117.44c-.92-1.18-2.05-2.13-3.3-2.78-2.03-1.07-4.32-.95-6.18-2.55l1.45,14.65c2.67-.76,2.51,4.99-.57,3.4,0,0-6.11,2.62-8.43,8.34-1.59,3.84-1.86,8.33-1.44,10.89,.75,4.59,4.64,6.97,9.07,5.62,2.64-.81,4.79-2.8,6.32-5.11,5.35-8.08,8.91-21.36,4.34-30.48-.36-.71-.78-1.37-1.25-1.98Z"/>
          <path class="cls-19" d="M297.82,114.25h.94v8.67h-.94c-1.97,0-3.56-1.6-3.56-3.56v-1.54c0-1.97,1.6-3.56,3.56-3.56Z" transform="translate(132.3 392.48) rotate(-80.85)"/>
          <path class="cls-2" d="M325.22,128.2c-.48-.3-3.64-.89-4.02-.68-.41,.23-.58,.77-.47,1.23,.11,.46,.45,.83,.83,1.1,.88,.6,2.08,.7,3.05,.25,.37-.17,.71-.43,.87-.81,.16-.37,.07-.87-.27-1.08Z"/>
        </g>
        <line class="cls-4" x1="8.38" y1="320.32" x2="492.5" y2="320.32"/>
      </g>
    </g>
  </g>
</svg>