<svg xmlns="http://www.w3.org/2000/svg" width="53.99" height="40.5" viewBox="0 0 53.99 40.5">
  <path id="Icon_ionic-logo-youtube" data-name="Icon ionic-logo-youtube" d="M53.639,13.443c0-4.746-3.491-8.564-7.8-8.564-5.843-.274-11.8-.38-17.886-.38h-1.9c-6.075,0-12.044.105-17.887.38C3.86,4.88.369,8.719.369,13.464.106,17.219-.01,20.973,0,24.728Q-.016,30.36.359,36c0,4.746,3.491,8.6,7.794,8.6,6.138.285,12.434.411,18.836.4q9.618.032,18.836-.4c4.313,0,7.8-3.849,7.8-8.6.253-3.765.369-7.52.359-11.285Q54.018,19.086,53.639,13.443ZM21.831,35.074V14.35L37.123,24.707Z" transform="translate(0 -4.5)" fill="#43a99b"/>
</svg>
